<svg width="203" height="204" viewBox="0 0 203 204" fill="none" xmlns="http://www.w3.org/2000/svg">
<path d="M193.301 95.8782L166.883 69.4599C166.062 68.6379 164.949 68.1742 163.787 68.1702L40.1571 68.1702C37.8386 68.1759 35.6166 69.0994 33.9771 70.7389C32.3376 72.3784 31.414 74.6004 31.4084 76.919L31.4084 127.219C31.414 129.538 32.3376 131.76 33.9771 133.399C35.6166 135.039 37.8386 135.962 40.1571 135.968L163.744 135.968C164.906 135.964 166.019 135.5 166.84 134.678L193.279 108.238C194.096 107.43 194.744 106.468 195.187 105.408C195.63 104.348 195.859 103.211 195.861 102.063C195.863 100.914 195.638 99.7761 195.199 98.7147C194.759 97.6534 194.114 96.6894 193.301 95.8782Z" stroke="white" stroke-width="4" stroke-linecap="round" stroke-linejoin="round"/>
</svg>
