<svg width="72" height="73" viewBox="0 0 72 73" fill="none" xmlns="http://www.w3.org/2000/svg">
<g clip-path="url(#clip0)">
<path fill-rule="evenodd" clip-rule="evenodd" d="M23.4051 26.822L23.3365 27.4441C23.2678 27.5824 23.2678 27.7898 23.1992 27.928C23.1992 27.9971 23.1305 28.1354 23.1305 28.1354C22.9933 28.481 23.1305 28.2045 22.9933 28.3428C23.0619 28.6884 22.9246 29.0341 22.856 29.3797L22.7187 30.4166L22.5815 31.0388L22.4442 32.0066L22.101 35.2557L22.0324 35.8087L21.9637 36.6382L21.8264 38.8504V39.4034V41.892L21.7578 42.5142C21.8951 42.7907 21.8951 43.2746 21.8951 43.6894L21.9637 44.3115L22.0324 45.0028V45.5559C22.2383 45.9015 22.1696 46.6619 22.2383 47.1458C22.3069 47.6988 22.3755 48.321 22.4442 48.874L22.5815 49.5653L22.7187 50.3949V50.6714C22.7874 50.7405 22.7187 50.6023 22.856 50.8788L23.1992 52.607L23.3365 53.3674L23.5424 54.197C23.6796 54.5426 24.2974 56.6165 24.2287 57.0312C24.366 57.2386 24.366 57.1695 24.4346 57.446C24.5033 57.5843 24.5033 57.7225 24.5719 57.8608C24.7092 58.2064 24.7778 58.4138 24.8465 58.8286L24.9837 59.3816C25.1897 59.589 25.2583 59.8655 25.3269 60.142C25.4642 60.4877 25.6015 60.7642 25.6701 61.1098C25.876 61.3172 25.876 61.3863 25.876 61.6629C26.1506 61.9394 26.5624 63.1837 26.631 63.3911C26.8369 63.5985 27.1801 64.3589 27.1801 64.6354C27.2488 64.7045 27.2488 64.7045 27.3174 64.7737L28.141 66.4327C28.3469 66.6401 28.7588 67.4697 28.7588 67.6771C29.0333 67.8845 29.0333 67.9536 29.1706 68.2301C29.3079 68.5066 29.4451 68.6449 29.5824 68.9214C29.857 69.3362 30.2001 69.8201 30.3374 70.2348C30.4747 70.304 31.5729 71.8939 31.8474 72.3087C32.2592 72.8617 32.3279 72.7235 33.1515 72.7926C33.632 72.8617 34.387 72.7926 34.7988 72.9309H37.7502C38.2993 72.7235 39.5347 72.7926 40.2211 72.7235C40.9761 72.6543 41.8684 72.5161 42.6234 72.3778C44.202 72.1013 45.7121 71.6174 47.1534 71.2718L47.7025 71.1335C48.0457 70.7879 48.8694 70.6496 49.3498 70.4422L50.0362 70.2348C50.1735 70.0274 50.1048 70.0966 50.3794 69.9583C50.5166 69.8892 50.6539 69.8892 50.7912 69.8201C51.1344 69.6818 51.4089 69.5435 51.7521 69.4744C51.8894 69.3362 52.1639 69.1979 52.3698 69.1288C52.4385 69.0596 52.5757 68.9905 52.713 68.9905C53.0562 68.8523 52.8503 68.9214 53.1248 68.8523C53.3307 68.5757 54.3603 68.0227 54.7035 67.8844C54.9094 67.6079 55.4585 67.4006 55.733 67.1932C56.1448 66.9166 56.4194 66.6401 56.8312 66.5019L59.9885 64.0132C60.0572 63.875 59.9885 64.0132 60.1258 63.8059C60.1944 63.7367 60.2631 63.7367 60.3317 63.5985C60.5376 63.3911 60.6062 63.322 60.7435 63.1837C61.0181 62.9072 61.3613 62.5615 61.6358 62.4233C61.7731 62.0085 61.6358 62.1468 61.1553 61.9394C60.8808 61.8011 60.6062 61.732 60.469 61.5937L59.9885 61.3863C59.1649 61.1098 58.3412 60.6259 58.204 60.5568C58.204 60.5568 58.1353 60.5568 58.1353 60.4877C57.8608 60.4877 57.1058 60.0729 56.8999 59.9346C56.4194 59.7964 55.4585 59.3816 55.2526 59.036C54.9094 58.9668 54.0857 58.5521 53.8798 58.3447C53.468 58.2064 52.9876 57.8608 52.5757 57.6534C52.3698 57.5151 52.1639 57.446 51.958 57.3077L51.4775 57.0312C51.3403 56.9621 51.4089 56.9621 51.3403 56.893C51.1344 56.893 50.9285 56.6856 50.6539 56.5473C50.5166 56.4782 50.5166 56.4782 50.3794 56.3399C50.1735 56.2017 50.1734 56.2708 50.1048 56.1326C49.7616 55.9943 47.9771 54.8882 47.6339 54.4735C47.2221 54.4043 44.9571 52.607 44.6825 52.3305C43.9275 51.8466 43.2411 51.2244 42.6234 50.6714C41.3879 49.6345 37.4756 45.7632 37.1325 44.7263C36.8579 44.588 36.5834 44.035 36.3775 43.7585C36.1029 43.4129 35.7597 42.9981 35.6911 42.5833C35.3479 42.3068 34.4556 40.7168 34.3183 40.1638C34.1124 39.9564 33.8379 39.3343 33.7693 38.9886C33.632 38.8504 33.7693 39.0577 33.5633 38.7812C33.4947 38.7121 33.4947 38.5738 33.4261 38.5047C33.2888 38.2282 33.2888 38.1591 33.2202 37.8826C33.0142 37.5369 32.8083 36.9839 32.8083 36.5691L32.4652 35.4631C32.2592 34.91 31.9161 33.4583 32.122 32.8362C32.0533 32.767 32.122 32.9053 32.0533 32.6288C32.0533 32.5596 32.0533 32.4214 32.0533 32.3523C32.0533 32.214 32.0533 32.0066 32.0533 31.8684V31.1771C32.0533 30.3475 32.2592 28.0663 32.5338 27.4441L32.7397 26.6146H32.6711C32.4652 26.6146 32.1906 26.5454 31.9847 26.5454C31.8474 26.5454 31.7101 26.5454 31.6415 26.4763C31.367 26.4072 31.5729 26.4763 31.4356 26.4072L31.1611 26.4763L30.3374 26.4072L29.651 26.3381L26.2192 26.0615L23.5424 25.9233C23.5424 26.3381 23.5424 26.6146 23.4051 26.822Z" fill="white"/>
<path fill-rule="evenodd" clip-rule="evenodd" d="M35.4166 28.5502C35.4166 29.3106 35.1421 30.6241 35.1421 31.661C35.1421 32.6979 35.4166 34.0114 35.4166 34.7718L35.9657 36.6383L36.103 37.1222L36.2403 37.3296C36.2403 37.3987 36.3089 37.4678 36.3089 37.5369C36.3776 37.6752 36.4462 37.8135 36.5148 38.0208C36.6521 38.3665 36.7894 38.5739 36.858 38.9886C36.9953 39.196 37.5444 40.0947 37.5444 40.3712C37.8189 40.5786 37.8876 40.8551 38.0935 41.2008C38.2994 41.5464 38.5053 41.6847 38.6426 42.0994L40.2898 44.1733C40.4271 44.3807 40.4271 44.3807 40.633 44.519C40.8389 44.7263 40.7703 44.5881 40.8389 44.8646C41.0449 44.9337 40.9762 44.8646 41.1135 45.072L41.5939 45.6941C41.7999 45.7633 41.7312 45.6941 41.7999 45.9707C41.9371 46.0398 41.7999 45.9707 41.9371 46.0398L42.0744 46.178C42.2803 46.3854 42.2117 46.3163 42.2803 46.5237L42.4862 46.7311C42.6235 46.8002 42.6235 46.7311 42.8294 46.9385C43.0353 47.1458 42.9667 47.0767 43.0353 47.2841C43.3099 47.3532 43.1726 47.2841 43.2412 47.4915L43.7217 47.8371C43.859 47.9754 43.7903 47.9063 43.7903 47.9754C44.0649 48.0445 43.9276 47.9754 44.0649 48.1828C44.2708 48.2519 44.0649 48.1136 44.3394 48.321L47.634 51.0862C48.1144 51.2936 48.4576 51.6392 48.9381 51.9849C49.3499 52.2614 49.8304 52.4688 50.1049 52.8835C50.3795 52.9527 50.1049 52.8144 50.4481 53.0218L51.2717 53.5748C51.6836 53.8513 52.0267 54.0587 52.3699 54.2661L53.9486 55.303C54.2918 55.303 55.6645 56.2017 56.2136 56.4782C56.694 56.7547 57.3804 56.9621 57.7236 57.3769C58.204 57.446 58.8218 57.8608 59.3022 57.9991C59.5082 58.0682 59.5768 58.1373 59.7141 58.2064C59.7827 58.2756 59.8513 58.2756 59.92 58.2756C60.1259 58.4138 60.0572 58.3447 60.1259 58.483C60.4004 58.483 61.2241 58.8286 61.3613 58.9669C61.7045 59.036 62.0477 59.1743 62.3223 59.3125C62.5282 59.3816 62.6654 59.4508 62.8027 59.5199C63.0773 59.6582 63.0773 59.589 63.2145 59.7964L63.6264 59.9347L64.1068 60.0038L66.1659 57.2386C66.3718 56.893 67.47 55.0957 67.6073 55.0265L68.4309 53.4366L69.1859 51.8466C69.3232 51.4318 69.6664 50.5332 69.9409 50.3258L70.1468 49.5653C70.2841 49.2888 70.6273 48.1828 70.7646 47.9754C70.7646 47.6989 70.7646 47.6297 70.9019 47.4224L71.3137 45.8324C71.5196 45.0029 71.9314 43.6203 71.9314 42.8599C71.3823 42.3068 69.3232 40.9243 69.1173 40.5786C68.6368 40.3712 68.2937 40.0256 67.8132 39.6799C67.4014 39.4034 66.9209 39.196 66.6464 38.7813C66.2346 38.7121 64.9305 37.7443 64.3814 37.4678C64.1068 37.2604 63.8323 37.1222 63.4891 36.9148C63.3518 36.8457 63.2145 36.7765 63.0773 36.6383C62.8027 36.5 62.94 36.5691 62.7341 36.3618C62.4595 36.3618 61.7732 35.947 61.4986 35.7396C61.1554 35.6013 60.8809 35.4631 60.5377 35.2557C60.4004 35.1866 60.2632 35.1174 60.1259 35.0483C59.8513 34.91 59.8513 34.91 59.7141 34.7718C59.4395 34.7718 58.6159 34.357 58.3413 34.1496C57.9981 34.0805 57.7922 33.8731 57.449 33.7349C57.1059 33.5966 56.8313 33.5275 56.6254 33.251C56.3509 33.251 55.5272 32.9053 55.3899 32.7671L54.4977 32.4214L52.9877 31.7993L51.4776 31.2462L50.9285 31.0388C50.4481 30.9697 49.2813 30.6241 49.0067 30.3476L48.5949 30.2784L47.0849 29.7254L46.3299 29.518C46.124 29.4489 45.9867 29.4489 45.7808 29.3797C45.7122 29.3797 45.6435 29.3797 45.5749 29.3106C45.3003 29.1724 45.5062 29.3106 45.369 29.1724C45.0258 29.1724 44.4767 29.0341 44.1335 28.8958C43.9276 28.8267 43.7903 28.8267 43.5844 28.7576L43.3785 28.6885C43.104 28.5502 43.3099 28.6885 43.1726 28.5502L42.6235 28.4811L41.0449 28.1354L40.2898 27.928L39.5348 27.7898L38.8485 27.6515C38.2994 27.5824 37.2698 27.5133 36.858 27.2368L36.7207 27.3059L35.8971 27.2368C35.7598 27.5824 35.6912 28.2737 35.4166 28.5502Z" fill="white"/>
<path fill-rule="evenodd" clip-rule="evenodd" d="M15.9236 26.1307C15.7177 26.3381 15.7863 26.3381 15.7863 26.6837L15.7177 27.375C15.7177 27.7898 15.7177 28.4811 15.5117 28.7576L15.5804 28.8958C15.5117 29.2415 15.5117 29.5871 15.4431 30.0019C15.4431 30.1401 15.3745 30.3475 15.3745 30.4858C15.3058 30.8314 15.3745 30.6932 15.1686 30.9006L15.0999 31.2462L14.9626 32.0066L14.4136 33.5275L14.139 34.2879L13.5213 35.7396C13.384 36.0852 13.2467 36.3617 13.1095 36.7074C13.0408 36.8456 12.9722 36.9839 12.9035 37.1222C12.8349 37.1913 12.8349 37.3295 12.7663 37.3295C12.6976 37.4678 12.6976 37.3987 12.629 37.4678C12.5604 37.8134 11.5308 39.4034 11.3249 39.5417C11.119 40.0947 9.67762 41.6155 9.33443 42.0303C8.99125 42.4451 7.34397 43.9659 6.86351 44.1733C6.72623 44.4498 5.14759 45.4867 4.73577 45.5559C4.46122 45.9015 3.50031 46.3163 3.01985 46.4545C2.7453 46.7311 2.05893 47.0076 1.71575 47.0076C1.57847 47.2841 1.57847 47.215 1.71575 47.6297C1.78438 47.9062 1.85302 47.9754 1.92166 48.321L2.12757 48.874L2.7453 50.464C2.88257 50.6714 2.95121 50.7405 2.95121 51.017C3.01985 51.0862 3.01985 51.0862 3.08848 51.2244L3.36303 51.8466C3.50031 52.1922 3.63758 52.3996 3.77485 52.7453C3.98076 53.0909 4.39258 53.8513 4.46122 54.197C4.73577 54.4044 5.90259 56.4091 5.97123 56.6165C6.1085 56.6856 7.4126 58.5521 7.61851 58.8286C8.16761 59.4508 8.64806 60.142 9.12852 60.6951L14.6195 65.8797C14.894 65.9489 16.6786 67.2623 16.7472 67.3314C17.2277 67.5388 18.0513 67.9536 18.3259 68.3684C18.6004 68.4375 18.6004 68.4375 18.9436 68.6449C19.1495 68.714 19.2868 68.7831 19.4927 68.9214C19.9045 69.1288 20.2477 69.3362 20.6595 69.5436C20.9341 69.6818 21.3459 69.8201 21.5518 70.0275C21.895 70.0275 22.5127 70.3731 22.7872 70.5114L24.3659 71.0644L25.0523 71.2718C25.3954 71.3409 25.6014 71.41 25.9445 71.5483C26.0818 71.6174 26.2877 71.6174 26.425 71.6865L26.8368 71.8939L27.3173 71.9631L27.7291 72.0322C28.0036 72.0322 27.7977 72.1013 27.8664 71.8939C27.5918 71.5483 27.1114 70.7879 26.9055 70.304L26.0132 68.6449C25.8759 68.5066 25.3268 67.5388 25.2582 67.1932L24.2973 65.6723C24.0913 65.1884 23.7482 64.7045 23.6795 64.2206C23.5423 64.0824 23.5422 64.1515 23.4736 63.875C23.405 63.8059 23.3363 63.5985 23.2677 63.4602C23.1304 63.1837 23.0618 62.9072 22.9245 62.6307L22.3754 61.1098L22.1009 60.2803C21.895 60.0729 21.6891 59.3125 21.6891 58.8977C21.6204 58.8286 21.6204 58.8977 21.5518 58.7595L21.4831 58.5521C21.4145 58.3447 21.4145 58.2064 21.3459 57.999C21.14 57.7225 21.0027 57.0312 21.0027 56.6856C20.9341 56.6165 20.9341 56.6165 20.8654 56.4782L20.7968 56.2708C20.7281 56.0634 20.7281 55.9252 20.7281 55.7178L20.6595 55.303C20.3163 54.9574 20.2477 53.9205 20.179 53.4366L20.0418 52.7453C19.9045 52.3996 19.8359 52.1231 19.9045 51.7775C19.5613 51.3627 19.424 48.9432 19.2868 48.1828L19.3554 47.9062C19.2868 47.8371 19.3554 47.9754 19.2868 47.6989C19.2868 47.6297 19.2181 47.4915 19.2181 47.3532C19.2181 47.0767 19.1495 46.8002 19.1495 46.5237V46.1089C19.0122 45.9015 19.0122 45.4867 19.0122 45.1411C18.8063 42.4451 18.8063 39.749 18.9436 36.9839L19.0122 35.947L19.0809 35.1865C19.0809 34.8409 19.0809 34.4953 19.2181 34.2187V33.7348C19.2181 33.3201 19.2868 32.6979 19.424 32.4214C19.3554 31.7992 19.5613 30.4858 19.7672 29.9328C19.8359 29.5871 19.8359 29.1032 20.0418 28.8958L20.1104 28.4119L20.2477 27.5824L20.5222 26.1307H15.9236Z" fill="white"/>
<path fill-rule="evenodd" clip-rule="evenodd" d="M32.5339 7.46591L30.2003 10.715C30.2003 10.9224 29.5825 11.9593 29.3766 12.0284C29.2394 12.3741 28.3471 14.1023 28.0725 14.3788L27.3175 15.8996L26.5625 17.4896L26.2193 18.1809L25.6016 19.7708L25.0525 21.3608C24.9839 21.5682 24.9152 21.7064 24.8466 21.9138C24.778 22.1903 24.778 22.2595 24.5721 22.4669V22.6742L24.5034 22.7434C24.5721 23.089 24.4348 23.0199 25.0525 23.0199L25.7389 23.1581C26.4939 22.9508 32.3966 23.5729 33.2889 23.7803H33.9753L34.0439 23.5729C34.2498 23.089 34.593 22.3286 34.9362 22.1212C35.2794 21.0843 37.5444 18.7339 38.3681 17.9735L40.839 15.8996C41.0449 15.7614 43.0354 14.3788 43.104 14.3097L45.5063 13.0653C45.7122 12.9271 46.4672 12.4432 46.8104 12.4432L48.5263 11.6136L49.144 11.4063C49.4186 11.0606 50.4481 10.7841 50.9286 10.6458L52.37 10.1619L53.1936 9.88542C53.5368 9.67803 54.0859 9.53978 54.4291 9.53978C54.5663 9.47065 54.3604 9.53978 54.7036 9.40152C54.8409 9.33239 54.7722 9.40152 54.9095 9.33239C55.0468 9.26326 55.2527 9.26326 55.4586 9.19413L56.2136 8.98675L57.7923 8.6411H58.2041C58.3414 8.50284 58.2041 8.57197 58.4786 8.50284C58.5473 8.50284 58.6159 8.43371 58.6845 8.43371C58.9591 8.36459 59.0964 8.36459 59.3023 8.29546V8.36459C59.0964 7.94981 58.6159 7.6733 58.2727 7.39678C57.8609 7.05114 56.3509 6.08334 56.2136 5.80682C55.8018 5.59943 55.39 5.32292 54.9782 5.11553C54.635 4.90815 54.0859 4.70076 53.8113 4.35512C53.4681 4.28599 52.6445 3.87122 52.37 3.66383C52.0268 3.52557 50.9972 3.1108 50.7227 2.83428C50.4481 2.83428 50.3109 2.76515 50.0363 2.6269L48.5949 2.07387L47.1536 1.58996C46.9476 1.52084 46.7417 1.52084 46.6045 1.45171L46.3986 1.38258C46.2613 1.31345 46.3299 1.31345 46.1926 1.24432L45.5063 1.10606L43.9963 0.69129C42.9667 0.553033 40.3585 -0.138255 39.8094 0.276518L38.4367 1.38258C38.0249 1.79735 37.613 2.14299 37.2012 2.48864C35.9658 3.52557 34.6617 5.11553 33.6321 6.22159L32.5339 7.46591Z" fill="white"/>
<path fill-rule="evenodd" clip-rule="evenodd" d="M26.4937 1.24434L26.0819 1.31347C25.876 1.52086 25.876 1.45173 25.6014 1.52086C25.4642 1.58999 25.3269 1.58999 25.1896 1.65912C24.8464 1.72824 24.6405 1.8665 24.2973 1.93563L23.7482 2.07389C23.611 2.14302 23.7482 2.07389 23.4737 2.28127C23.405 2.28127 23.3364 2.3504 23.2678 2.3504L21.9637 2.8343C21.6891 3.04169 20.9341 3.38733 20.5909 3.45646C20.5909 3.45646 20.5909 3.45646 20.5223 3.45646L20.3164 3.59472C20.3164 3.59472 20.1105 3.66385 20.1105 3.73298L18.8064 4.35514C18.6691 4.56252 18.4632 4.63165 18.1887 4.76991C18.0514 4.83904 17.9827 4.90817 17.8455 4.9773C17.5023 5.11555 17.7768 5.04643 17.5023 5.11555C17.2277 5.4612 16.61 5.73771 16.2668 6.01423C15.855 6.29074 15.4432 6.63639 15.0314 6.84377C14.9627 7.05116 13.5214 8.15722 13.1782 8.36461C12.6291 8.77938 11.6682 9.74718 11.3936 9.81631C11.325 10.0237 11.3936 9.95457 11.1877 10.0237L10.9818 10.3002C10.7759 10.5767 10.9132 10.2311 10.7759 10.6459C11.1191 10.8532 11.2563 11.1298 11.4622 11.4063C11.7368 11.7519 11.8741 11.8902 11.9427 12.3049C12.1486 12.4432 12.6977 13.411 12.835 13.7567L13.59 15.2775C13.7273 15.7614 14.0704 16.1762 14.0704 16.6601C14.4136 17.0057 14.5509 17.8353 14.6882 18.3883L14.7568 18.8031C14.8941 19.0104 14.7568 18.5957 14.8941 19.0796C14.8941 19.1487 14.9627 19.287 14.9627 19.287C15.0314 19.4943 15.0314 19.6326 15.1 19.84C15.2373 20.3239 15.3745 20.8078 15.3059 21.3608C15.4432 21.4991 15.4432 21.8447 15.5118 22.1212L15.5805 22.8817V23.089H15.9923H16.5414C17.0905 22.7434 20.6596 23.2273 21.2773 22.8817L21.4832 22.1212C21.6205 21.7065 21.8264 20.946 22.0323 20.6004C22.0323 20.6004 22.1009 20.6004 22.1009 20.5313C22.1009 20.5313 22.1009 20.4621 22.1696 20.4621C22.1696 20.1165 22.3755 19.3561 22.65 19.0796L22.9932 18.25L23.611 16.7983L24.366 15.1392C24.5719 14.5862 24.9151 14.0332 25.121 13.6184L26.0819 12.0284C26.1505 11.6137 27.0428 10.3002 27.3173 9.74718C27.6605 9.19415 28.6214 7.60419 29.0333 7.32768C29.1019 6.98203 29.5137 6.49813 29.7883 6.22161L30.4746 5.32294H30.5433C30.5433 5.32294 30.5433 5.32294 30.6119 5.32294C30.8178 4.9773 30.8865 4.70078 31.2983 4.56252C31.3669 4.21688 31.8474 3.73298 32.2592 3.31821C32.4651 3.11082 32.6024 2.97256 32.8083 2.76518L34.3869 1.10608C34.6615 0.82957 35.2792 0.414797 35.4851 0.0691528H33.4947C33.0828 0.20741 30.6119 0.414797 29.9255 0.553054C28.6901 0.691312 27.5233 1.03696 26.4937 1.24434Z" fill="white"/>
<path fill-rule="evenodd" clip-rule="evenodd" d="M10.2269 26.5455L10.0896 26.4764C9.81506 26.6146 9.26597 26.6146 8.85415 26.6837C8.16778 26.822 6.86368 27.0985 6.24595 26.9603C6.17731 27.0294 6.24595 26.9603 6.04004 27.0985L5.83413 27.1676C5.62822 27.2368 5.42231 27.2368 5.2164 27.2368L4.6673 27.3059C4.25548 27.5824 1.64728 27.9972 0.960915 28.0663C0.823642 29.1724 0.549094 30.3476 0.343184 31.5228C0.20591 32.4214 0.20591 34.5644 0 35.1866V38.09C0.137274 38.5739 0.20591 40.4404 0.274547 41.1317C0.411821 41.9612 0.480458 43.4129 0.823642 44.0351L1.57865 43.8277C1.71592 43.6203 1.92183 43.6203 2.19638 43.6203C2.53956 43.2746 3.3632 42.929 3.77502 42.6525C4.87321 41.8921 5.90276 41.1317 6.72641 40.3021C7.96187 39.0578 8.51096 38.1591 8.99142 37.537C9.12869 37.3987 8.99142 37.4678 9.12869 37.3987C9.33461 36.9148 9.60915 36.5692 9.8837 36.1544C10.0896 35.7396 10.2955 35.1866 10.6387 34.9101C10.6387 34.6336 10.5701 34.7718 10.7073 34.5644C10.776 34.357 10.8446 34.357 10.8446 34.357C10.9133 33.9423 11.0505 33.804 11.1878 33.4584L11.3937 32.8362C11.4623 32.6979 11.4623 32.7671 11.531 32.6288L11.6683 32.0758C11.7369 31.7301 11.8055 31.5228 11.9428 31.1771L12.2174 30.4167L12.286 29.8637C12.4233 28.6885 12.6292 27.6515 12.6978 26.4072L12.1487 26.4764H11.6683C11.3937 26.6146 11.3937 26.6146 10.9819 26.6146C10.776 26.5455 10.5014 26.5455 10.2269 26.5455Z" fill="white"/>
<path fill-rule="evenodd" clip-rule="evenodd" d="M6.72645 15.1392C6.58918 15.5539 6.17736 16.0378 5.90281 16.4526C5.62826 16.8674 5.49099 17.3513 5.07917 17.6278C5.01053 17.9043 5.07917 17.6969 4.94189 18.0426C4.87326 18.1117 4.80462 18.25 4.73598 18.3191C4.59871 18.5265 4.53007 18.803 4.32416 18.9413C4.25553 19.356 4.11825 19.4943 3.98098 19.8399C3.91234 19.9782 3.84371 20.1164 3.77507 20.2547L3.50052 20.6003C3.50052 20.946 3.0887 21.7064 2.88279 22.0521L2.26506 23.5729C2.12779 23.8494 2.26506 23.642 2.12779 23.7803L2.05915 24.4024L1.92188 24.7481H2.26506H2.67688C2.74552 24.6789 2.67688 24.6789 2.88279 24.6098C2.95143 24.6098 3.0887 24.5407 3.22597 24.5407C3.43188 24.4716 3.63779 24.4716 3.84371 24.4716H4.3928C4.66735 24.2642 5.6969 24.195 6.10872 24.1259H6.65781C6.86372 23.9877 7.41282 23.9185 7.756 23.9185H8.3051L8.44237 23.8494C8.78555 23.7111 8.3051 23.8494 8.64828 23.7803L9.47192 23.7111L9.67783 23.7803C10.2269 23.4346 11.9428 23.642 12.6979 23.3655C12.7665 22.6742 12.5606 21.9829 12.4919 21.3608L12.3547 20.6695C12.286 20.6003 12.3547 20.6695 12.2174 20.4621L12.1488 20.2547C12.0801 19.9782 12.0801 19.9782 12.0115 19.7017L11.6683 18.25L11.3251 17.2822C11.1878 17.0748 10.9133 16.4526 10.8447 16.107L10.5701 15.6922C10.5015 15.4848 10.4328 15.4157 10.3642 15.2774C10.1583 14.9318 10.021 14.7244 9.88374 14.3096C9.6092 14.1022 9.12874 12.9962 8.71692 12.7197L7.68737 13.964C7.41282 14.2405 7.001 15.0009 6.72645 15.1392Z" fill="white"/>
<path fill-rule="evenodd" clip-rule="evenodd" d="M60.8808 9.67804C68.774 17.0748 72.6177 26.0616 72.0686 37.8135C72.0686 37.8135 57.5176 25.4394 36.3774 23.5038C43.3098 13.2036 54.4976 10.5767 60.8808 9.67804Z" fill="white"/>
</g>
<defs>
<clipPath id="clip0">
<rect width="72" height="73" fill="white"/>
</clipPath>
</defs>
</svg>
