<svg width="26" height="27" viewBox="0 0 26 27" fill="none" xmlns="http://www.w3.org/2000/svg">
<path fill-rule="evenodd" clip-rule="evenodd" d="M20.6368 1.74194H21.0448H24.0762H24.3094V1.97419C24.3094 2.14839 24.3094 2.32258 24.3094 2.49677L24.2511 2.55484L24.1928 2.6129C23.7265 2.90323 21.9193 4.18064 19.8206 5.57419C18.4215 6.50323 16.9058 7.54839 15.6233 8.41935C14.2825 9.34839 13.1166 10.1032 12.4753 10.5097C12.3004 10.6258 12.009 10.8 11.7175 10.9742L11.426 11.1484C9.61883 12.3677 5.59641 14.9226 3.20628 16.3742C3.03139 16.2 2.68161 15.1548 2.44843 14.2839C5.7713 11.9613 18.713 3.07742 20.4619 1.91613L20.6368 1.8C20.5785 1.8 20.5785 1.74194 20.6368 1.74194ZM4.02242 18L12.8834 12.3097L13 12.2516H13.0583H13.1166L13.2332 12.3097L21.9776 18L22.1525 18.1161L22.2108 18.1742L22.1525 18.2323L22.0359 18.4065C21.3946 19.3355 20.7534 20.1484 20.1121 20.7871C19.4709 21.4839 18.8879 22.0645 18.1883 22.5871C17.4888 23.1097 16.7892 23.5742 15.9731 23.9806C15.157 24.3871 14.2242 24.8516 13.1749 25.2581H13.1166H13.0583C12.0673 24.8516 11.1928 24.5032 10.3184 24.0387C9.50224 23.6323 8.74439 23.1097 7.98655 22.5871C7.287 22.0645 6.58744 21.4258 5.94619 20.729C5.30493 20.0323 4.66368 19.2194 4.02242 18.2903L3.90583 18.1161L3.84753 18.0581L3.90583 18H4.02242ZM0 1.8V10.6839C0 11.5548 0.058296 12.4839 0.233184 13.3548C0.408072 14.2839 0.641256 15.1548 0.932735 16.0258C1.22422 16.8968 1.63229 17.7677 2.09865 18.5806C2.56502 19.3935 3.03139 20.0903 3.55605 20.7871C3.90583 21.1935 4.25561 21.6 4.54709 21.9484C4.89686 22.2968 5.24664 22.6452 5.59641 22.9355C5.94619 23.2258 6.29596 23.5161 6.70404 23.8645C7.11211 24.1548 7.52018 24.4452 7.92825 24.7355C8.04484 24.7935 8.10314 24.8516 8.21973 24.9097C8.27803 24.9677 8.39462 25.0258 8.51121 25.0839C8.6278 25.1419 8.6861 25.2 8.80269 25.2581C8.91928 25.3161 8.97758 25.3742 9.09417 25.4323C9.38565 25.6065 9.79372 25.8387 10.2601 26.0129C10.6682 26.1871 11.0762 26.4194 11.4843 26.5355C11.8341 26.6516 12.1256 26.7677 12.417 26.8839C12.6502 26.9419 12.8251 27 13 27C13.1749 27 13.4664 26.9419 13.7578 26.8258C14.1076 26.7097 14.5157 26.5355 14.9821 26.3613C15.5067 26.129 16.0897 25.8387 16.5561 25.5484C17.139 25.2581 17.6054 24.9677 17.9552 24.7355C18.3049 24.5032 18.5964 24.329 18.8296 24.1548C19.1211 23.9806 19.3543 23.8064 19.5874 23.5742C19.8206 23.4 20.0538 23.2258 20.287 22.9935C20.5202 22.7613 20.7534 22.5871 20.9865 22.2968C21.278 22.0065 21.5112 21.7742 21.7444 21.5419C21.9776 21.3097 22.1525 21.0774 22.3274 20.8452C22.5022 20.6129 22.6771 20.3806 22.852 20.1484C23.0269 19.9161 23.2018 19.6258 23.435 19.2774C23.7848 18.7548 24.1345 18.1161 24.426 17.4774C24.7175 16.7806 25.009 16.0258 25.2422 15.271C25.4753 14.5161 25.6502 13.7613 25.7668 12.9484C25.8834 12.1935 25.9417 11.4387 25.9417 10.7419V1.74194C25.9417 1.62581 25.9417 1.56774 25.8834 1.45161C25.8834 1.33548 25.8251 1.21935 25.7668 1.16129C25.7085 1.04516 25.6502 0.929032 25.5919 0.812903C25.5336 0.696774 25.4753 0.63871 25.417 0.580645C25.3587 0.522581 25.2422 0.406452 25.1256 0.348387C25.009 0.290323 24.9507 0.232258 24.8341 0.174194C24.7175 0.116129 24.6009 0.116129 24.4843 0.0580645C24.426 0 24.3094 0 24.1928 0H1.80717C1.57399 0 1.34081 0.0580645 1.16592 0.116129C0.932735 0.232258 0.757848 0.406452 0.58296 0.580645C0.408072 0.754839 0.233184 0.929032 0.116592 1.16129C0.058296 1.33548 0 1.56774 0 1.8ZM23.3767 15.5613C23.3184 15.6774 23.3184 15.7935 23.2601 15.9097C23.2018 16.0258 23.2018 16.1419 23.1435 16.2581L23.0852 16.4323V16.4903L23.0269 16.4323L22.4439 16.0839L22.3857 16.0258L22.4439 15.9677L23.2601 15.3871L23.435 15.271L23.3767 15.5613ZM24.3094 9.87097C24.3094 10.5097 24.2511 11.0903 24.1928 11.6129C24.1345 12.1355 24.0762 12.6 24.0179 13.0065L20.87 15.1548H20.8117H20.7534C20.4036 14.9226 20.0538 14.7484 19.6457 14.5161C19.296 14.2839 18.8879 14.0516 18.5381 13.8194L18.4798 13.7613L18.5381 13.7032C18.7713 13.529 19.1211 13.2968 19.4709 13.0645C19.9372 12.7742 20.287 12.4839 20.6951 12.2516C21.861 11.4387 23.1435 10.5677 24.0179 9.92903L24.1928 9.8129L24.3094 9.75484V9.87097ZM24.3677 4.52903C24.3677 5.05161 24.3677 5.57419 24.3677 6.09677C24.3677 6.61935 24.3677 7.2 24.3677 7.72258V7.78064L17.0807 12.8323H17.0224H16.9641C16.5561 12.5419 16.148 12.3097 15.7399 12.0194C15.3318 11.729 14.9238 11.4968 14.5157 11.2065L14.4574 11.1484L14.5157 11.0903L24.2511 4.47097L24.3677 4.4129V4.52903ZM1.69058 2.38065V1.91613V1.74194V1.68387H1.74888H1.98206H2.73991H2.9148L2.73991 1.8L1.74888 2.43871L1.69058 2.49677V2.38065ZM1.63229 7.37419C1.63229 6.90968 1.63229 6.3871 1.63229 5.92258C1.63229 5.45806 1.63229 4.99355 1.63229 4.52903V4.47097C1.86547 4.29677 2.15695 4.12258 2.44843 3.89032C2.79821 3.65806 3.14798 3.42581 3.49776 3.19355C3.84753 2.96129 4.25561 2.67097 4.66368 2.43871C5.01345 2.20645 5.42152 1.91613 5.7713 1.68387H9.91031H10.0852L9.91031 1.8L1.74888 7.43226L1.63229 7.49032V7.37419ZM1.86547 12.4839C1.80717 12.0774 1.80717 11.6129 1.74888 11.0903C1.69058 10.5677 1.69058 9.9871 1.69058 9.40645V9.34839L13 1.68387H17.6054H17.7803L17.6054 1.8L1.98206 12.5419L1.92377 12.6L1.86547 12.4839Z" fill="white"/>
</svg>
