<svg width="310" height="483" viewBox="0 0 310 483" fill="none" xmlns="http://www.w3.org/2000/svg">
<path d="M32 426.5L38 441.5L45.2173 426.5H32Z" fill="#2B2F34"/>
<path d="M192.5 62.5L192.5 47L182 62.5L192.5 62.5Z" fill="#2B2F34"/>
<g filter="url(#filter0_dd)">
<path d="M193 47.5V118.5L38 441.5H101L258 118.5V47.5H193Z" fill="#3E444C"/>
<path d="M193 47.5V118.5L38 441.5H101L258 118.5V47.5H193Z" stroke="#505966"/>
</g>
<rect x="193" y="117.5" width="65" height="1" fill="#444A52"/>
<path fill-rule="evenodd" clip-rule="evenodd" d="M244.367 95.3551C244.367 97.5314 244.212 99.0858 242.896 100.92C242.189 101.944 241.254 102.789 240.165 103.389C239.076 103.989 237.863 104.328 236.621 104.377C234.02 104.377 232.462 104.104 230.482 102.425C230.277 102.251 230.227 102.238 230.022 102.046C229.767 101.792 229.532 101.517 229.321 101.225C228.552 100.203 228.014 99.0256 227.747 97.7743C227.48 96.5229 227.49 95.2282 227.775 93.9809C228.052 92.7876 228.586 91.6694 229.34 90.7049C230.094 89.7405 231.05 88.9532 232.14 88.3985C233.231 87.8438 234.429 87.535 235.652 87.494C236.874 87.4529 238.09 87.6806 239.215 88.1609C240.602 88.6955 241.81 89.6089 242.704 90.7973C243.698 92.1147 244.275 93.7 244.361 95.3489L244.367 95.3551ZM207.626 74.7053L210.6 75.9489C211.028 76.1354 213.356 77.1925 213.647 77.1925V80.4258C213.647 81.5015 213.405 82.8695 214.467 82.8695C215.528 82.8695 215.274 81.8435 215.274 80.8859V78.0506L220.525 80.3015C220.763 80.4595 221.032 80.5654 221.313 80.6123V96.2629L215.311 93.6949C214.951 93.5394 214.746 93.4213 214.436 93.3032L207.608 90.3061L207.626 74.7053ZM222.22 79.2257L217.825 77.3604C217.339 77.1989 216.88 76.9686 216.459 76.6764L228.253 71.5777C229.11 71.1984 229.538 70.844 229.998 71.0119L233.008 72.3487C233.8 72.721 234.61 73.0531 235.435 73.3436C235.162 73.7229 229.805 75.8308 228.849 76.322L225.553 77.777C225.212 77.9324 222.3 79.232 222.22 79.232V79.2257ZM208.874 73.5488L221.841 67.7661C222.269 67.5795 222.114 67.5982 222.989 67.9899L226.565 69.5444C226.959 69.7514 227.375 69.9121 227.806 70.0232C227.806 70.0232 227.757 70.0232 227.757 70.0605L227.583 70.16C227.477 70.1991 227.373 70.2448 227.273 70.2968C227.068 70.4025 226.931 70.4522 226.708 70.5517L220.804 73.1197C220.14 73.412 214.678 75.9116 214.336 75.8432C214.287 75.8432 213.772 75.6193 213.716 75.5883C213.337 75.4142 209.271 73.5861 208.911 73.5488H208.874ZM206 73.2752V90.8719C206 91.5746 206.751 91.6741 207.645 92.1155C210.749 93.5519 214.777 95.1748 218.011 96.6173C218.415 96.779 221.804 98.3335 222.22 98.3335C222.325 98.3335 225.708 96.8598 226 96.7106C226 99.005 227.508 101.585 229.048 103.146C230.008 104.098 231.153 104.843 232.411 105.335C233.67 105.827 235.016 106.055 236.366 106.006C238.889 105.898 241.278 104.841 243.058 103.047C243.858 102.223 244.528 101.281 245.044 100.255C246.782 96.2442 246.18 92.0534 243.089 89.0066C241.5 87.3961 238.948 86.0095 236.54 86.0095H235.547C231.512 86.0095 227.595 89.2615 226.447 93.0296C225.696 95.4608 226.857 94.6711 223.778 95.9582C223.522 96.1188 223.237 96.2285 222.94 96.2816V80.6683L229.768 77.6899C230.898 77.1738 232.046 76.6826 233.225 76.1852C233.809 75.9302 234.336 75.6877 234.901 75.4515C235.489 75.1602 236.097 74.9109 236.72 74.7053C236.72 75.4079 236.583 82.1357 236.826 82.6332C236.908 82.8059 237.049 82.9432 237.224 83.02C237.399 83.0968 237.596 83.1079 237.778 83.0512C237.961 82.9946 238.117 82.874 238.217 82.7116C238.318 82.5492 238.358 82.3558 238.328 82.1668V73.4617C238.328 72.7218 237.453 72.5352 236.683 72.2181L226.391 67.7288C220.804 65.3971 223.449 65.453 217.993 67.6977C217.372 67.9713 216.639 68.3195 215.994 68.5744C215.348 68.8294 214.591 69.1962 213.908 69.4822C212.524 70.0481 211.239 70.6761 209.836 71.2606L206.801 72.5601C206.528 72.6783 206 72.9021 206 73.2752Z" fill="#5F6466"/>
<path fill-rule="evenodd" clip-rule="evenodd" d="M236.037 101.498C234.951 100.139 234.047 98.6418 233.35 97.0463C232.617 95.2493 232.065 93.2782 233.455 91.6181C233.775 91.2492 234.172 90.9563 234.619 90.7606C235.065 90.5648 235.55 90.4712 236.037 90.4864C236.525 90.4653 237.012 90.5563 237.459 90.7524C237.907 90.9485 238.304 91.2447 238.62 91.6181C240.004 93.2782 239.458 95.2431 238.719 97.0463C238.023 98.6385 237.126 100.135 236.05 101.498H236.037ZM236.019 91.7424C236.595 91.7424 237.148 91.9717 237.555 92.3798C237.962 92.788 238.191 93.3415 238.191 93.9187C238.191 94.4959 237.962 95.0494 237.555 95.4576C237.148 95.8657 236.595 96.095 236.019 96.095C235.443 96.095 234.89 95.8657 234.482 95.4576C234.075 95.0494 233.846 94.4959 233.846 93.9187C233.846 93.3415 234.075 92.788 234.482 92.3798C234.89 91.9717 235.443 91.7424 236.019 91.7424Z" fill="#5F6466"/>
<path fill-rule="evenodd" clip-rule="evenodd" d="M236.025 95.3923C236.32 95.3923 236.608 95.3048 236.853 95.1408C237.098 94.9768 237.289 94.7438 237.401 94.4711C237.514 94.1984 237.544 93.8984 237.486 93.6089C237.429 93.3194 237.287 93.0535 237.078 92.8448C236.87 92.6361 236.605 92.494 236.316 92.4364C236.027 92.3788 235.727 92.4084 235.455 92.5213C235.183 92.6343 234.95 92.8255 234.786 93.0709C234.623 93.3163 234.535 93.6049 234.535 93.9C234.535 94.2958 234.692 94.6754 234.971 94.9552C235.251 95.2351 235.63 95.3923 236.025 95.3923Z" fill="#5F6466"/>
<defs>
<filter id="filter0_dd" x="0.205078" y="0" width="309.295" height="483" filterUnits="userSpaceOnUse" color-interpolation-filters="sRGB">
<feFlood flood-opacity="0" result="BackgroundImageFix"/>
<feColorMatrix in="SourceAlpha" type="matrix" values="0 0 0 0 0 0 0 0 0 0 0 0 0 0 0 0 0 0 127 0"/>
<feOffset dx="7" dy="-3"/>
<feGaussianBlur stdDeviation="22"/>
<feColorMatrix type="matrix" values="0 0 0 0 0 0 0 0 0 0 0 0 0 0 0 0 0 0 0.38 0"/>
<feBlend mode="normal" in2="BackgroundImageFix" result="effect1_dropShadow"/>
<feColorMatrix in="SourceAlpha" type="matrix" values="0 0 0 0 0 0 0 0 0 0 0 0 0 0 0 0 0 0 127 0"/>
<feOffset dx="-18" dy="4"/>
<feGaussianBlur stdDeviation="9"/>
<feColorMatrix type="matrix" values="0 0 0 0 0 0 0 0 0 0 0 0 0 0 0 0 0 0 0.35 0"/>
<feBlend mode="normal" in2="effect1_dropShadow" result="effect2_dropShadow"/>
<feBlend mode="normal" in="SourceGraphic" in2="effect2_dropShadow" result="shape"/>
</filter>
</defs>
</svg>
