<svg width="310" height="483" viewBox="0 0 310 483" fill="none" xmlns="http://www.w3.org/2000/svg">
<path d="M32 426.5L38 441.5L45.2173 426.5H32Z" fill="#2B2F34"/>
<path d="M192.5 62.5L192.5 47L182 62.5L192.5 62.5Z" fill="#2B2F34"/>
<g filter="url(#filter0_dd)">
<path d="M193 47.5V118.5L38 441.5H101L258 118.5V47.5H193Z" fill="#3E444C"/>
<path d="M193 47.5V118.5L38 441.5H101L258 118.5V47.5H193Z" stroke="#505966"/>
</g>
<rect x="193" y="117.5" width="65" height="1" fill="#444A52"/>
<path d="M242.258 78.3502C242.195 78.2316 242.157 78.1015 242.145 77.9676C242.134 77.8337 242.149 77.6989 242.191 77.5713C242.233 77.4437 242.301 77.3259 242.389 77.225C242.478 77.1241 242.586 77.0423 242.707 76.9843C242.828 76.9264 242.959 76.8937 243.093 76.888C243.227 76.8824 243.361 76.9039 243.487 76.9515C243.612 76.999 243.727 77.0715 243.823 77.1645C243.92 77.2576 243.997 77.3693 244.05 77.493C244.677 78.8236 245.163 80.2163 245.5 81.6484C245.82 83.0794 245.983 84.541 245.986 86.0073C245.982 89.9659 244.807 93.8345 242.609 97.1243C240.411 100.414 237.289 102.977 233.637 104.49C229.985 106.003 225.967 106.398 222.091 105.624C218.215 104.851 214.655 102.944 211.861 100.145C209.064 97.3489 207.158 93.7846 206.386 89.9031C205.613 86.0217 206.007 81.9978 207.52 78.3412C209.032 74.6847 211.594 71.56 214.88 69.363C218.167 67.166 222.031 65.9956 225.983 66.0001C229.76 65.9911 233.462 67.0567 236.659 69.0731C236.884 69.2138 237.044 69.4383 237.104 69.6971C237.163 69.9559 237.118 70.2279 236.978 70.4534C236.835 70.6757 236.611 70.8334 236.354 70.8931C236.096 70.9528 235.826 70.9097 235.6 70.773C234.168 69.8695 232.618 69.1679 230.994 68.688C229.363 68.2283 227.677 67.9961 225.983 67.9979C222.425 68.0008 218.948 69.0602 215.992 71.0423C213.035 73.0244 210.732 75.8401 209.373 79.1333C208.015 82.4265 207.661 86.0494 208.358 89.5437C209.055 93.0381 210.771 96.2469 213.288 98.7646C215.806 101.282 219.012 102.996 222.502 103.688C225.992 104.38 229.608 104.021 232.894 102.654C236.18 101.288 238.987 98.9765 240.961 96.012C242.935 93.0476 243.987 89.5634 243.984 86.0001C243.995 84.6705 243.852 83.3443 243.556 82.048C243.263 80.7708 242.827 79.5304 242.258 78.3502Z" fill="#5F6466"/>
<path d="M244.804 84.9976C245.068 84.9976 245.322 85.1028 245.509 85.2901C245.696 85.4775 245.801 85.7315 245.801 85.9965C245.801 86.2614 245.696 86.5155 245.509 86.7028C245.322 86.8901 245.068 86.9954 244.804 86.9954H239.509C239.245 86.9954 238.991 86.8901 238.804 86.7028C238.617 86.5155 238.512 86.2614 238.512 85.9965C238.512 85.7315 238.617 85.4775 238.804 85.2901C238.991 85.1028 239.245 84.9976 239.509 84.9976H244.804Z" fill="#5F6466"/>
<path d="M212.52 84.9976C212.785 84.9976 213.039 85.1028 213.226 85.2901C213.413 85.4775 213.518 85.7315 213.518 85.9965C213.518 86.2614 213.413 86.5155 213.226 86.7028C213.039 86.8901 212.785 86.9954 212.52 86.9954H207.226C206.961 86.9954 206.708 86.8901 206.521 86.7028C206.334 86.5155 206.229 86.2614 206.229 85.9965C206.229 85.7315 206.334 85.4775 206.521 85.2901C206.708 85.1028 206.961 84.9976 207.226 84.9976H212.52Z" fill="#5F6466"/>
<path d="M225.068 67.3222C225.068 67.0572 225.173 66.8031 225.36 66.6158C225.547 66.4285 225.801 66.3232 226.066 66.3232C226.33 66.3232 226.584 66.4285 226.771 66.6158C226.958 66.8031 227.063 67.0572 227.063 67.3222V72.6182C227.063 72.8831 226.958 73.1372 226.771 73.3245C226.584 73.5119 226.33 73.6171 226.066 73.6171C225.801 73.6171 225.547 73.5119 225.36 73.3245C225.173 73.1372 225.068 72.8831 225.068 72.6182V67.3222Z" fill="#5F6466"/>
<path d="M225.068 99.4179C225.068 99.1529 225.173 98.8989 225.36 98.7115C225.547 98.5242 225.801 98.4189 226.066 98.4189C226.33 98.4189 226.584 98.5242 226.771 98.7115C226.958 98.8989 227.063 99.1529 227.063 99.4179V104.728C227.063 104.993 226.958 105.247 226.771 105.435C226.584 105.622 226.33 105.727 226.066 105.727C225.801 105.727 225.547 105.622 225.36 105.435C225.173 105.247 225.068 104.993 225.068 104.728V99.4179Z" fill="#5F6466"/>
<path d="M218.381 81.7721C218.284 81.6847 218.206 81.5787 218.15 81.4604C218.094 81.3421 218.063 81.2139 218.057 81.0833C218.052 80.9526 218.073 80.8222 218.118 80.6997C218.164 80.5773 218.234 80.4651 218.323 80.37C218.413 80.2677 218.522 80.1847 218.645 80.126C218.767 80.0674 218.9 80.0343 219.036 80.0289C219.172 80.0235 219.307 80.0458 219.434 80.0944C219.561 80.143 219.676 80.217 219.774 80.3119L225.997 86.1818L244.035 68.1215C244.126 68.0295 244.235 67.9563 244.355 67.9063C244.474 67.8563 244.603 67.8304 244.732 67.8301C244.862 67.8297 244.99 67.855 245.11 67.9044C245.23 67.9538 245.339 68.0263 245.431 68.1179C245.523 68.2095 245.596 68.3183 245.646 68.4382C245.696 68.558 245.722 68.6865 245.722 68.8164C245.722 68.9462 245.697 69.0749 245.648 69.195C245.599 69.3151 245.526 69.4243 245.435 69.5164L226.671 88.2959L226.004 88.9642L225.279 88.3104L218.381 81.7721Z" fill="#5F6466"/>
<defs>
<filter id="filter0_dd" x="0.205078" y="0" width="309.295" height="483" filterUnits="userSpaceOnUse" color-interpolation-filters="sRGB">
<feFlood flood-opacity="0" result="BackgroundImageFix"/>
<feColorMatrix in="SourceAlpha" type="matrix" values="0 0 0 0 0 0 0 0 0 0 0 0 0 0 0 0 0 0 127 0"/>
<feOffset dx="7" dy="-3"/>
<feGaussianBlur stdDeviation="22"/>
<feColorMatrix type="matrix" values="0 0 0 0 0 0 0 0 0 0 0 0 0 0 0 0 0 0 0.38 0"/>
<feBlend mode="normal" in2="BackgroundImageFix" result="effect1_dropShadow"/>
<feColorMatrix in="SourceAlpha" type="matrix" values="0 0 0 0 0 0 0 0 0 0 0 0 0 0 0 0 0 0 127 0"/>
<feOffset dx="-18" dy="4"/>
<feGaussianBlur stdDeviation="9"/>
<feColorMatrix type="matrix" values="0 0 0 0 0 0 0 0 0 0 0 0 0 0 0 0 0 0 0.35 0"/>
<feBlend mode="normal" in2="effect1_dropShadow" result="effect2_dropShadow"/>
<feBlend mode="normal" in="SourceGraphic" in2="effect2_dropShadow" result="shape"/>
</filter>
</defs>
</svg>
