<svg width="484" height="310" viewBox="0 0 484 310" fill="none" xmlns="http://www.w3.org/2000/svg">
<path d="M53 42L38 48L53 55.2173L53 42Z" fill="#2B2F34"/>
<path d="M417 202.5L432.5 202.5L417 192L417 202.5Z" fill="#2B2F34"/>
<g filter="url(#filter0_dd)">
<path d="M432 203L361 203L38 48L38 111L361 268L432 268L432 203Z" fill="#3E444C"/>
<path d="M432 203L361 203L38 48L38 111L361 268L432 268L432 203Z" stroke="#505966"/>
</g>
<rect x="362" y="203" width="65" height="1" transform="rotate(90 362 203)" fill="#444A52"/>
<g clip-path="url(#clip0)">
<path fill-rule="evenodd" clip-rule="evenodd" d="M375.5 233.299V219.692C375.844 218.415 376.611 218 377.772 218C387.739 218.025 397.706 218.025 407.672 218C407.945 217.963 408.222 217.996 408.482 218.098C408.742 218.199 408.978 218.366 409.173 218.586C409.368 218.805 409.516 219.072 409.606 219.366C409.697 219.66 409.727 219.974 409.694 220.283C409.694 222.085 409.694 223.888 409.694 225.691V226.112L409.778 226.037C410.171 226.209 410.544 226.435 410.889 226.709C411.14 227.04 411.346 227.411 411.5 227.81V230.577C411.406 231.045 411.177 231.466 410.849 231.772C410.521 232.078 410.113 232.252 409.689 232.268C409.743 232.636 409.726 233.012 409.638 233.372C409.551 233.731 409.396 234.065 409.183 234.35C408.935 234.608 408.638 234.799 408.314 234.908C407.991 235.017 407.65 235.041 407.317 234.978C407.317 235.129 407.317 235.23 407.317 235.337C407.317 239.91 407.317 244.486 407.317 249.064C407.309 249.16 407.329 249.256 407.374 249.338C407.419 249.42 407.487 249.483 407.567 249.517C407.853 249.676 408.094 249.923 408.262 250.23C408.43 250.537 408.518 250.891 408.517 251.252C408.517 251.913 408.517 252.579 408.517 253.239C408.529 253.343 408.521 253.448 408.492 253.548C408.463 253.647 408.413 253.737 408.348 253.811C408.283 253.886 408.204 253.942 408.117 253.976C408.029 254.01 407.936 254.02 407.844 254.007C406.3 254.007 404.754 254.007 403.206 254.007C403.11 254.025 403.012 254.018 402.919 253.985C402.827 253.951 402.743 253.893 402.674 253.816C402.605 253.738 402.554 253.643 402.525 253.538C402.496 253.434 402.489 253.322 402.506 253.214C402.506 252.535 402.506 251.862 402.506 251.183C402.512 250.87 402.586 250.563 402.721 250.289C402.855 250.016 403.046 249.783 403.278 249.611C403.717 249.278 403.744 249.209 403.622 248.605H381.517C381.461 249.045 381.45 249.378 381.883 249.624C382.126 249.767 382.328 249.983 382.468 250.248C382.608 250.513 382.681 250.817 382.678 251.127C382.678 251.843 382.678 252.56 382.678 253.277C382.686 253.377 382.674 253.478 382.643 253.572C382.612 253.667 382.563 253.752 382.499 253.821C382.435 253.891 382.358 253.943 382.273 253.974C382.189 254.005 382.099 254.014 382.011 254C380.467 254 378.92 254 377.372 254C377.279 254.012 377.186 253.999 377.098 253.964C377.01 253.928 376.931 253.87 376.866 253.794C376.801 253.718 376.752 253.626 376.723 253.526C376.695 253.425 376.687 253.319 376.7 253.214C376.7 252.554 376.7 251.887 376.7 251.227C376.699 250.866 376.787 250.512 376.955 250.205C377.123 249.898 377.364 249.651 377.65 249.492C377.734 249.452 377.804 249.381 377.848 249.291C377.893 249.201 377.909 249.097 377.894 248.995C377.894 244.446 377.894 239.898 377.894 235.349C377.894 235.224 377.894 235.098 377.894 234.985C377.565 234.98 377.237 234.951 376.911 234.897C376.566 234.809 376.251 234.612 376.001 234.329C375.751 234.047 375.578 233.69 375.5 233.299V233.299ZM383.917 226.86C383.917 226.98 383.917 227.062 383.917 227.137C383.917 231.723 383.917 236.309 383.917 240.896C383.917 241.575 384.122 241.782 384.778 241.782H397.444C398.117 241.782 398.294 241.575 398.294 240.808C398.294 236.301 398.294 231.794 398.294 227.288V226.86H383.917ZM399.494 234.978V235.437C399.494 237.23 399.494 239.015 399.494 240.808C399.502 241.059 399.483 241.31 399.439 241.556C399.341 242.044 399.09 242.475 398.732 242.769C398.374 243.062 397.935 243.199 397.494 243.153H384.717C384.483 243.156 384.249 243.124 384.022 243.059C383.617 242.927 383.266 242.64 383.028 242.246C382.791 241.852 382.683 241.377 382.722 240.902C382.722 239.097 382.722 237.299 382.722 235.494V235.016H381.517V244.48H403.678V234.978H399.494ZM381.511 222.742H400.678V219.396H381.511V222.742ZM380.267 233.62V219.371H377.611C376.867 219.371 376.694 219.56 376.694 220.396V232.608C376.685 232.74 376.685 232.872 376.694 233.004C376.694 233.09 376.71 233.175 376.74 233.254C376.77 233.332 376.814 233.404 376.869 233.462C376.924 233.521 376.989 233.567 377.06 233.596C377.132 233.625 377.208 233.638 377.283 233.633C378.278 233.626 379.261 233.62 380.267 233.62ZM382.722 227.489C382.722 227.112 382.722 226.785 382.722 226.452C382.722 225.691 382.911 225.483 383.578 225.483H398.667C399.317 225.483 399.494 225.684 399.494 226.433C399.494 226.772 399.494 227.118 399.494 227.483H400.672V224.156H381.517V227.489H382.722ZM403.678 245.888H381.528V247.196H403.678V245.888ZM401.917 230.91C404.528 230.91 407.089 230.91 409.656 230.91C409.745 230.917 409.834 230.902 409.918 230.865C410.001 230.829 410.076 230.772 410.138 230.699C410.199 230.625 410.246 230.537 410.274 230.441C410.302 230.345 410.311 230.243 410.3 230.143C410.3 229.602 410.3 229.055 410.3 228.514C410.3 227.734 410.111 227.514 409.428 227.514H402.294C402.172 227.514 402.05 227.514 401.917 227.514V230.91ZM401.917 219.371V226.125H408.461C408.474 226.092 408.483 226.059 408.489 226.024C408.489 224.049 408.489 222.075 408.489 220.1C408.497 220 408.486 219.898 408.454 219.803C408.423 219.709 408.373 219.623 408.308 219.554C408.244 219.484 408.166 219.432 408.08 219.401C407.995 219.371 407.905 219.363 407.817 219.377C407.117 219.377 406.411 219.377 405.711 219.377L401.917 219.371ZM380.278 249.221V235.01H379.122V249.221H380.278ZM406.078 249.221V235.01H404.944V249.221H406.078ZM408.5 232.293H401.917V233.62H407.722C408.278 233.62 408.494 233.394 408.5 232.733C408.5 232.595 408.494 232.463 408.494 232.3L408.5 232.293ZM381.489 252.629C381.489 252.158 381.489 251.718 381.489 251.284C381.489 251.117 381.43 250.957 381.326 250.839C381.222 250.721 381.081 250.655 380.933 250.655C380.128 250.655 379.317 250.655 378.511 250.655C378.37 250.655 378.235 250.715 378.131 250.823C378.028 250.932 377.965 251.081 377.956 251.24C377.922 251.705 377.956 252.183 377.956 252.667L381.489 252.629ZM407.283 252.629C407.283 252.139 407.283 251.667 407.283 251.196C407.281 251.117 407.264 251.04 407.234 250.969C407.204 250.898 407.162 250.835 407.111 250.782C407.059 250.73 406.998 250.69 406.932 250.665C406.867 250.64 406.797 250.63 406.728 250.636C405.909 250.636 405.091 250.636 404.272 250.636C404.125 250.636 403.984 250.702 403.879 250.82C403.775 250.938 403.717 251.098 403.717 251.265C403.717 251.711 403.717 252.158 403.717 252.623L407.283 252.629ZM381.522 228.898V233.589H382.678V228.898H381.522ZM399.522 228.898V233.608H400.678V228.898H399.522Z" fill="#5F6466"/>
<path fill-rule="evenodd" clip-rule="evenodd" d="M389.288 228.897C389.278 229.074 389.207 229.238 389.091 229.356C388.974 229.474 388.822 229.535 388.666 229.526C388.515 229.506 388.376 229.425 388.273 229.298C388.171 229.171 388.113 229.006 388.11 228.834C388.124 228.665 388.192 228.508 388.302 228.392C388.411 228.276 388.555 228.209 388.705 228.206C388.783 228.207 388.861 228.226 388.933 228.262C389.005 228.298 389.07 228.349 389.124 228.414C389.178 228.478 389.221 228.554 389.249 228.637C389.277 228.72 389.29 228.808 389.288 228.897Z" fill="#5F6466"/>
<path fill-rule="evenodd" clip-rule="evenodd" d="M386.889 228.872C386.888 229.043 386.83 229.208 386.728 229.334C386.625 229.46 386.484 229.537 386.333 229.551C386.173 229.553 386.019 229.485 385.903 229.36C385.787 229.236 385.718 229.065 385.711 228.885C385.713 228.715 385.771 228.551 385.874 228.427C385.977 228.303 386.117 228.226 386.266 228.212C386.346 228.208 386.425 228.222 386.5 228.253C386.575 228.284 386.643 228.332 386.701 228.393C386.759 228.455 386.805 228.529 386.838 228.611C386.87 228.693 386.887 228.782 386.889 228.872Z" fill="#5F6466"/>
<path fill-rule="evenodd" clip-rule="evenodd" d="M395.867 229.551C395.787 229.546 395.709 229.522 395.638 229.482C395.567 229.442 395.503 229.386 395.451 229.317C395.399 229.248 395.36 229.169 395.336 229.082C395.312 228.996 395.304 228.906 395.311 228.816C395.311 228.727 395.327 228.639 395.359 228.558C395.39 228.477 395.437 228.404 395.495 228.345C395.553 228.285 395.622 228.241 395.697 228.213C395.771 228.186 395.85 228.177 395.928 228.187C396.007 228.192 396.085 228.214 396.156 228.254C396.228 228.294 396.291 228.349 396.343 228.417C396.395 228.486 396.434 228.565 396.459 228.651C396.483 228.736 396.491 228.827 396.484 228.916C396.474 229.092 396.404 229.256 396.289 229.375C396.174 229.493 396.022 229.557 395.867 229.551Z" fill="#5F6466"/>
<path fill-rule="evenodd" clip-rule="evenodd" d="M388.094 230.891C388.097 230.98 388.084 231.069 388.057 231.152C388.029 231.236 387.986 231.312 387.932 231.376C387.877 231.441 387.812 231.492 387.74 231.528C387.668 231.563 387.59 231.582 387.511 231.583C387.358 231.585 387.211 231.521 387.098 231.404C386.986 231.287 386.917 231.126 386.905 230.954C386.902 230.778 386.957 230.607 387.06 230.475C387.163 230.343 387.306 230.261 387.461 230.243C387.541 230.236 387.621 230.248 387.696 230.277C387.772 230.306 387.841 230.353 387.9 230.413C387.96 230.474 388.007 230.547 388.041 230.629C388.074 230.712 388.092 230.8 388.094 230.891Z" fill="#5F6466"/>
<path fill-rule="evenodd" clip-rule="evenodd" d="M390.5 230.922C390.499 231.011 390.483 231.098 390.452 231.18C390.421 231.261 390.376 231.335 390.32 231.396C390.263 231.458 390.197 231.506 390.124 231.538C390.051 231.57 389.973 231.585 389.894 231.582C389.75 231.571 389.615 231.501 389.513 231.385C389.411 231.27 389.349 231.116 389.339 230.953C389.34 230.774 389.403 230.603 389.514 230.475C389.625 230.347 389.775 230.273 389.933 230.268C390.084 230.273 390.227 230.344 390.333 230.466C390.439 230.588 390.499 230.751 390.5 230.922Z" fill="#5F6466"/>
<path fill-rule="evenodd" clip-rule="evenodd" d="M391.689 228.866C391.69 228.955 391.676 229.043 391.647 229.126C391.618 229.209 391.575 229.284 391.52 229.348C391.466 229.411 391.4 229.462 391.328 229.497C391.256 229.532 391.178 229.551 391.1 229.551C390.95 229.547 390.808 229.481 390.699 229.365C390.59 229.249 390.523 229.091 390.511 228.923C390.509 228.833 390.524 228.744 390.553 228.661C390.582 228.578 390.626 228.502 390.681 228.439C390.736 228.375 390.802 228.324 390.875 228.29C390.948 228.255 391.026 228.237 391.105 228.237C391.181 228.233 391.256 228.246 391.326 228.276C391.397 228.305 391.462 228.351 391.516 228.41C391.571 228.469 391.614 228.539 391.644 228.618C391.673 228.696 391.689 228.781 391.689 228.866Z" fill="#5F6466"/>
<path fill-rule="evenodd" clip-rule="evenodd" d="M393.5 228.212C393.576 228.207 393.652 228.219 393.723 228.248C393.794 228.278 393.859 228.323 393.915 228.382C393.97 228.441 394.014 228.512 394.044 228.591C394.074 228.67 394.089 228.755 394.089 228.841C394.094 228.972 394.065 229.102 394.005 229.215C393.944 229.327 393.856 229.417 393.75 229.472C393.644 229.527 393.526 229.545 393.412 229.524C393.297 229.502 393.19 229.443 393.106 229.352C393.021 229.262 392.962 229.145 392.937 229.017C392.912 228.888 392.921 228.754 392.963 228.632C393.005 228.509 393.079 228.404 393.175 228.329C393.27 228.254 393.384 228.213 393.5 228.212Z" fill="#5F6466"/>
<path fill-rule="evenodd" clip-rule="evenodd" d="M392.889 230.897C392.896 230.987 392.886 231.078 392.86 231.163C392.833 231.248 392.791 231.326 392.736 231.391C392.68 231.456 392.613 231.507 392.539 231.54C392.465 231.573 392.385 231.587 392.306 231.583C392.153 231.585 392.006 231.52 391.895 231.403C391.783 231.287 391.715 231.126 391.706 230.954C391.699 230.778 391.754 230.606 391.858 230.474C391.961 230.343 392.106 230.262 392.261 230.249C392.34 230.243 392.42 230.254 392.495 230.283C392.571 230.313 392.64 230.359 392.699 230.42C392.757 230.481 392.805 230.554 392.837 230.636C392.87 230.718 392.888 230.807 392.889 230.897Z" fill="#5F6466"/>
<path fill-rule="evenodd" clip-rule="evenodd" d="M394.689 231.582C394.532 231.582 394.383 231.512 394.272 231.387C394.162 231.262 394.1 231.093 394.1 230.916C394.1 230.739 394.162 230.569 394.272 230.444C394.383 230.319 394.532 230.249 394.689 230.249C394.845 230.249 394.994 230.319 395.105 230.444C395.215 230.569 395.277 230.739 395.277 230.916C395.277 231.093 395.215 231.262 395.105 231.387C394.994 231.512 394.845 231.582 394.689 231.582Z" fill="#5F6466"/>
<path fill-rule="evenodd" clip-rule="evenodd" d="M405.178 224.791C404.711 224.791 404.239 224.791 403.772 224.791C403.684 224.804 403.594 224.794 403.509 224.762C403.424 224.73 403.347 224.676 403.283 224.605C403.22 224.534 403.171 224.448 403.141 224.353C403.111 224.258 403.101 224.156 403.111 224.055C403.111 223.192 403.111 222.33 403.111 221.471C403.111 220.968 403.35 220.729 403.806 220.729C404.743 220.729 405.68 220.729 406.617 220.729C406.708 220.716 406.801 220.726 406.888 220.76C406.975 220.793 407.054 220.849 407.12 220.922C407.185 220.996 407.235 221.085 407.265 221.183C407.295 221.281 407.305 221.386 407.294 221.49C407.294 222.328 407.294 223.167 407.294 224.005C407.311 224.111 407.304 224.22 407.276 224.323C407.247 224.426 407.198 224.519 407.131 224.596C407.064 224.673 406.982 224.731 406.892 224.765C406.801 224.799 406.705 224.808 406.611 224.791C406.139 224.797 405.661 224.791 405.178 224.791ZM404.322 223.408H406.056V222.106H404.322V223.408Z" fill="#5F6466"/>
</g>
<defs>
<filter id="filter0_dd" x="0.5" y="0.205566" width="483" height="309.295" filterUnits="userSpaceOnUse" color-interpolation-filters="sRGB">
<feFlood flood-opacity="0" result="BackgroundImageFix"/>
<feColorMatrix in="SourceAlpha" type="matrix" values="0 0 0 0 0 0 0 0 0 0 0 0 0 0 0 0 0 0 127 0"/>
<feOffset dx="7" dy="-3"/>
<feGaussianBlur stdDeviation="22"/>
<feColorMatrix type="matrix" values="0 0 0 0 0 0 0 0 0 0 0 0 0 0 0 0 0 0 0.38 0"/>
<feBlend mode="normal" in2="BackgroundImageFix" result="effect1_dropShadow"/>
<feColorMatrix in="SourceAlpha" type="matrix" values="0 0 0 0 0 0 0 0 0 0 0 0 0 0 0 0 0 0 127 0"/>
<feOffset dx="-18" dy="4"/>
<feGaussianBlur stdDeviation="9"/>
<feColorMatrix type="matrix" values="0 0 0 0 0 0 0 0 0 0 0 0 0 0 0 0 0 0 0.35 0"/>
<feBlend mode="normal" in2="effect1_dropShadow" result="effect2_dropShadow"/>
<feBlend mode="normal" in="SourceGraphic" in2="effect2_dropShadow" result="shape"/>
</filter>
<clipPath id="clip0">
<rect width="36" height="36" fill="white" transform="translate(375.5 218)"/>
</clipPath>
</defs>
</svg>
