<svg width="484" height="310" viewBox="0 0 484 310" fill="none" xmlns="http://www.w3.org/2000/svg">
<path d="M52.75 42.25L37.75 48.25L52.75 55.4673L52.75 42.25Z" fill="#2B2F34"/>
<path d="M416.75 202.75L432.25 202.75L416.75 192.25L416.75 202.75Z" fill="#2B2F34"/>
<g filter="url(#filter0_dd)">
<path d="M431.75 203.25L360.75 203.25L37.75 48.25L37.75 111.25L360.75 268.25L431.75 268.25L431.75 203.25Z" fill="#3E444C"/>
<path d="M431.75 203.25L360.75 203.25L37.75 48.25L37.75 111.25L360.75 268.25L431.75 268.25L431.75 203.25Z" stroke="#505966"/>
</g>
<rect x="361.75" y="203.25" width="65" height="1" transform="rotate(90 361.75 203.25)" fill="#444A52"/>
<path fill-rule="evenodd" clip-rule="evenodd" d="M411.61 245.602C411.61 247.779 411.454 249.333 410.139 251.167C409.431 252.191 408.496 253.037 407.407 253.637C406.318 254.237 405.105 254.575 403.863 254.625C401.262 254.625 399.704 254.351 397.724 252.672C397.519 252.498 397.469 252.486 397.265 252.293C397.009 252.039 396.774 251.764 396.563 251.472C395.794 250.451 395.257 249.273 394.99 248.022C394.723 246.77 394.732 245.476 395.017 244.228C395.294 243.035 395.828 241.917 396.582 240.952C397.336 239.988 398.292 239.201 399.383 238.646C400.473 238.091 401.672 237.782 402.894 237.741C404.116 237.7 405.333 237.928 406.458 238.408C407.844 238.943 409.052 239.856 409.946 241.045C410.94 242.362 411.517 243.947 411.603 245.596L411.61 245.602ZM374.869 224.953L377.842 226.196C378.27 226.383 380.598 227.44 380.89 227.44V230.673C380.89 231.749 380.648 233.117 381.709 233.117C382.77 233.117 382.516 232.091 382.516 231.133V228.298L387.767 230.549C388.005 230.707 388.274 230.813 388.556 230.86V246.51L382.553 243.942C382.193 243.787 381.988 243.669 381.678 243.55L374.85 240.553L374.869 224.953ZM389.462 229.473L385.067 227.608C384.582 227.446 384.122 227.216 383.702 226.924L395.495 221.825C396.352 221.446 396.78 221.091 397.24 221.259L400.25 222.596C401.042 222.968 401.852 223.3 402.677 223.591C402.404 223.97 397.047 226.078 396.091 226.569L392.795 228.024C392.454 228.18 389.543 229.479 389.462 229.479V229.473ZM376.116 223.796L389.083 218.013C389.512 217.827 389.356 217.846 390.232 218.237L393.807 219.792C394.201 219.999 394.618 220.159 395.049 220.271C395.049 220.271 394.999 220.271 394.999 220.308L394.825 220.407C394.719 220.446 394.615 220.492 394.515 220.544C394.31 220.65 394.173 220.7 393.95 220.799L388.047 223.367C387.382 223.659 381.92 226.159 381.579 226.091C381.529 226.091 381.014 225.867 380.958 225.836C380.579 225.661 376.513 223.833 376.153 223.796H376.116ZM373.242 223.522V241.119C373.242 241.822 373.993 241.921 374.887 242.363C377.991 243.799 382.019 245.422 385.253 246.865C385.657 247.026 389.046 248.581 389.462 248.581C389.567 248.581 392.95 247.107 393.242 246.958C393.242 249.252 394.751 251.833 396.29 253.393C397.25 254.345 398.395 255.09 399.654 255.582C400.912 256.074 402.258 256.303 403.608 256.254C406.131 256.145 408.52 255.089 410.3 253.294C411.1 252.47 411.77 251.529 412.286 250.502C414.024 246.492 413.422 242.301 410.331 239.254C408.742 237.643 406.191 236.257 403.782 236.257H402.789C398.754 236.257 394.837 239.509 393.689 243.277C392.938 245.708 394.099 244.918 391.02 246.206C390.764 246.366 390.479 246.476 390.182 246.529V230.916L397.01 227.937C398.14 227.421 399.288 226.93 400.468 226.432C401.051 226.178 401.579 225.935 402.143 225.699C402.731 225.408 403.339 225.158 403.962 224.953C403.962 225.655 403.826 232.383 404.068 232.88C404.15 233.053 404.291 233.191 404.466 233.267C404.641 233.344 404.838 233.355 405.02 233.299C405.203 233.242 405.359 233.121 405.46 232.959C405.561 232.797 405.6 232.603 405.57 232.414V223.709C405.57 222.969 404.695 222.783 403.925 222.465L393.633 217.976C388.047 215.644 390.691 215.7 385.235 217.945C384.614 218.219 383.882 218.567 383.236 218.822C382.59 219.077 381.833 219.444 381.15 219.73C379.766 220.295 378.481 220.923 377.078 221.508L374.043 222.807C373.77 222.926 373.242 223.149 373.242 223.522Z" fill="#5F6466"/>
<path fill-rule="evenodd" clip-rule="evenodd" d="M403.28 251.746C402.193 250.386 401.289 248.889 400.592 247.294C399.859 245.497 399.307 243.526 400.697 241.865C401.017 241.497 401.414 241.204 401.861 241.008C402.308 240.812 402.792 240.718 403.28 240.734C403.768 240.713 404.254 240.804 404.702 241C405.149 241.196 405.546 241.492 405.862 241.865C407.246 243.526 406.7 245.49 405.961 247.294C405.265 248.886 404.368 250.382 403.292 251.746H403.28ZM403.261 241.99C403.837 241.99 404.39 242.219 404.797 242.627C405.205 243.035 405.433 243.589 405.433 244.166C405.433 244.743 405.205 245.297 404.797 245.705C404.39 246.113 403.837 246.342 403.261 246.342C402.685 246.342 402.132 246.113 401.725 245.705C401.317 245.297 401.088 244.743 401.088 244.166C401.088 243.589 401.317 243.035 401.725 242.627C402.132 242.219 402.685 241.99 403.261 241.99Z" fill="#5F6466"/>
<path fill-rule="evenodd" clip-rule="evenodd" d="M403.267 245.64C403.562 245.64 403.85 245.552 404.095 245.388C404.34 245.224 404.531 244.991 404.643 244.718C404.756 244.446 404.786 244.146 404.728 243.856C404.671 243.567 404.529 243.301 404.321 243.092C404.112 242.883 403.847 242.741 403.558 242.684C403.269 242.626 402.969 242.656 402.697 242.769C402.425 242.882 402.192 243.073 402.028 243.318C401.865 243.564 401.777 243.852 401.777 244.147C401.777 244.543 401.934 244.923 402.214 245.203C402.493 245.482 402.872 245.64 403.267 245.64Z" fill="#5F6466"/>
<defs>
<filter id="filter0_dd" x="0.25" y="0.455566" width="483" height="309.295" filterUnits="userSpaceOnUse" color-interpolation-filters="sRGB">
<feFlood flood-opacity="0" result="BackgroundImageFix"/>
<feColorMatrix in="SourceAlpha" type="matrix" values="0 0 0 0 0 0 0 0 0 0 0 0 0 0 0 0 0 0 127 0"/>
<feOffset dx="7" dy="-3"/>
<feGaussianBlur stdDeviation="22"/>
<feColorMatrix type="matrix" values="0 0 0 0 0 0 0 0 0 0 0 0 0 0 0 0 0 0 0.38 0"/>
<feBlend mode="normal" in2="BackgroundImageFix" result="effect1_dropShadow"/>
<feColorMatrix in="SourceAlpha" type="matrix" values="0 0 0 0 0 0 0 0 0 0 0 0 0 0 0 0 0 0 127 0"/>
<feOffset dx="-18" dy="4"/>
<feGaussianBlur stdDeviation="9"/>
<feColorMatrix type="matrix" values="0 0 0 0 0 0 0 0 0 0 0 0 0 0 0 0 0 0 0.35 0"/>
<feBlend mode="normal" in2="effect1_dropShadow" result="effect2_dropShadow"/>
<feBlend mode="normal" in="SourceGraphic" in2="effect2_dropShadow" result="shape"/>
</filter>
</defs>
</svg>
