<svg width="310" height="483" viewBox="0 0 310 483" fill="none" xmlns="http://www.w3.org/2000/svg">
<path d="M32 426.5L38 441.5L45.2173 426.5H32Z" fill="#2B2F34"/>
<path d="M192.5 62.5L192.5 47L182 62.5L192.5 62.5Z" fill="#2B2F34"/>
<g filter="url(#filter0_dd)">
<path d="M193 47.5V118.5L38 441.5H101L258 118.5V47.5H193Z" fill="#3E444C"/>
<path d="M193 47.5V118.5L38 441.5H101L258 118.5V47.5H193Z" stroke="#505966"/>
</g>
<rect x="193" y="117.5" width="65" height="1" fill="#444A52"/>
<g clip-path="url(#clip0)">
<path fill-rule="evenodd" clip-rule="evenodd" d="M208 82.2994V68.6918C208.344 67.4152 209.111 67.0002 210.272 67.0002C220.239 67.0254 230.206 67.0254 240.172 67.0002C240.445 66.9629 240.722 66.9961 240.982 67.0975C241.242 67.1989 241.478 67.3658 241.673 67.5856C241.868 67.8054 242.016 68.0724 242.106 68.3664C242.197 68.6604 242.227 68.9737 242.194 69.2828C242.194 71.0855 242.194 72.8881 242.194 74.6907V75.112L242.278 75.0366C242.671 75.2094 243.044 75.4353 243.389 75.7094C243.64 76.04 243.846 76.4108 244 76.8098V79.5766C243.906 80.0455 243.677 80.4658 243.349 80.7718C243.021 81.0778 242.613 81.2524 242.189 81.2682C242.243 81.6358 242.226 82.0124 242.138 82.3718C242.051 82.7312 241.896 83.0648 241.683 83.3496C241.435 83.6079 241.138 83.7988 240.814 83.9078C240.491 84.0167 240.15 84.0409 239.817 83.9784C239.817 84.1293 239.817 84.2299 239.817 84.3368C239.817 88.9104 239.817 93.4862 239.817 98.064C239.809 98.16 239.829 98.2564 239.874 98.3382C239.919 98.42 239.987 98.4827 240.067 98.5167C240.353 98.676 240.594 98.9232 240.762 99.2301C240.93 99.537 241.018 99.8912 241.017 100.252C241.017 100.913 241.017 101.579 241.017 102.239C241.029 102.343 241.021 102.448 240.992 102.548C240.963 102.647 240.913 102.737 240.848 102.811C240.783 102.886 240.704 102.942 240.617 102.976C240.529 103.01 240.436 103.02 240.344 103.007C238.8 103.007 237.254 103.007 235.706 103.007C235.61 103.025 235.512 103.018 235.419 102.985C235.327 102.951 235.243 102.893 235.174 102.816C235.105 102.738 235.054 102.643 235.025 102.538C234.996 102.434 234.989 102.322 235.006 102.214C235.006 101.535 235.006 100.862 235.006 100.183C235.012 99.8699 235.086 99.5633 235.221 99.2895C235.355 99.0156 235.546 98.7829 235.778 98.6111C236.217 98.2778 236.244 98.2086 236.122 97.6049H214.017C213.961 98.0451 213.95 98.3784 214.383 98.6236C214.626 98.7666 214.828 98.9827 214.968 99.248C215.108 99.5133 215.181 99.8174 215.178 100.127C215.178 100.843 215.178 101.56 215.178 102.277C215.186 102.377 215.174 102.478 215.143 102.572C215.112 102.667 215.063 102.752 214.999 102.821C214.935 102.891 214.858 102.943 214.773 102.974C214.689 103.005 214.599 103.014 214.511 103C212.967 103 211.42 103 209.872 103C209.779 103.012 209.686 102.999 209.598 102.964C209.51 102.928 209.431 102.87 209.366 102.794C209.301 102.718 209.252 102.626 209.223 102.526C209.195 102.425 209.187 102.319 209.2 102.214C209.2 101.554 209.2 100.887 209.2 100.227C209.199 99.8661 209.287 99.5119 209.455 99.205C209.623 98.8981 209.864 98.6509 210.15 98.4916C210.234 98.4519 210.304 98.3813 210.348 98.2912C210.393 98.2011 210.409 98.0967 210.394 97.9948C210.394 93.4463 210.394 88.8979 210.394 84.3494C210.394 84.2236 210.394 84.0979 210.394 83.9847C210.065 83.9801 209.737 83.9507 209.411 83.8966C209.066 83.8088 208.751 83.6121 208.501 83.3294C208.251 83.0467 208.078 82.6895 208 82.2994V82.2994ZM216.417 75.8603C216.417 75.9798 216.417 76.0615 216.417 76.137C216.417 80.7232 216.417 85.3094 216.417 89.8956C216.417 90.5747 216.622 90.7822 217.278 90.7822H229.944C230.617 90.7822 230.794 90.5747 230.794 89.8076C230.794 85.301 230.794 80.7945 230.794 76.2879V75.8603H216.417ZM231.994 83.9784V84.4374C231.994 86.2296 231.994 88.0154 231.994 89.8076C232.002 90.0586 231.983 90.3097 231.939 90.5559C231.841 91.0437 231.59 91.4747 231.232 91.7685C230.874 92.0624 230.435 92.199 229.994 92.1531H217.217C216.983 92.156 216.749 92.1243 216.522 92.0587C216.117 91.9273 215.766 91.6398 215.528 91.2459C215.291 90.852 215.183 90.3766 215.222 89.9019C215.222 88.0972 215.222 86.2987 215.222 84.494V84.0161H214.017V93.4799H236.178V83.9784H231.994ZM214.011 71.7415H233.178V68.3962H214.011V71.7415ZM212.767 82.6201V68.3711H210.111C209.367 68.3711 209.194 68.5597 209.194 69.396V81.6077C209.185 81.7396 209.185 81.8721 209.194 82.0039C209.194 82.0897 209.21 82.1747 209.24 82.2536C209.27 82.3324 209.314 82.4035 209.369 82.4624C209.424 82.5213 209.489 82.5668 209.56 82.5961C209.632 82.6254 209.708 82.6379 209.783 82.6327C210.778 82.6264 211.761 82.6201 212.767 82.6201ZM215.222 76.4891C215.222 76.1118 215.222 75.7849 215.222 75.4516C215.222 74.6907 215.411 74.4832 216.078 74.4832H231.167C231.817 74.4832 231.994 74.6844 231.994 75.4327C231.994 75.7723 231.994 76.1181 231.994 76.4828H233.172V73.1564H214.017V76.4891H215.222ZM236.178 94.8884H214.028V96.1964H236.178V94.8884ZM234.417 79.9099C237.028 79.9099 239.589 79.9099 242.156 79.9099C242.245 79.9172 242.334 79.902 242.418 79.8654C242.501 79.8289 242.576 79.7719 242.638 79.6986C242.699 79.6252 242.746 79.5373 242.774 79.4412C242.802 79.3451 242.811 79.2432 242.8 79.1428C242.8 78.602 242.8 78.0549 242.8 77.5141C242.8 76.7344 242.611 76.5143 241.928 76.5143H234.794C234.672 76.5143 234.55 76.5143 234.417 76.5143V79.9099ZM234.417 68.3711V75.1246H240.961C240.974 75.0924 240.983 75.0586 240.989 75.024C240.989 73.0495 240.989 71.075 240.989 69.1005C240.997 68.9998 240.986 68.8982 240.954 68.8035C240.923 68.7087 240.873 68.6233 240.808 68.5536C240.744 68.4839 240.666 68.4318 240.58 68.4013C240.495 68.3708 240.405 68.3626 240.317 68.3773C239.617 68.3773 238.911 68.3773 238.211 68.3773L234.417 68.3711ZM212.778 98.2212V84.0098H211.622V98.2212H212.778ZM238.578 98.2212V84.0098H237.444V98.2212H238.578ZM241 81.2933H234.417V82.6201H240.222C240.778 82.6201 240.994 82.3938 241 81.7335C241 81.5952 240.994 81.4631 240.994 81.2996L241 81.2933ZM213.989 101.629C213.989 101.158 213.989 100.718 213.989 100.284C213.989 100.117 213.93 99.957 213.826 99.8391C213.722 99.7211 213.581 99.6549 213.433 99.6549C212.628 99.6549 211.817 99.6549 211.011 99.6549C210.87 99.6545 210.735 99.7147 210.631 99.8232C210.528 99.9318 210.465 100.081 210.456 100.24C210.422 100.705 210.456 101.183 210.456 101.667L213.989 101.629ZM239.783 101.629C239.783 101.139 239.783 100.667 239.783 100.196C239.781 100.117 239.764 100.04 239.734 99.9691C239.704 99.8981 239.662 99.8345 239.611 99.7823C239.559 99.7301 239.498 99.6902 239.432 99.6651C239.367 99.6399 239.297 99.6301 239.228 99.636C238.409 99.636 237.591 99.636 236.772 99.636C236.625 99.636 236.484 99.7023 236.379 99.8202C236.275 99.9381 236.217 100.098 236.217 100.265C236.217 100.711 236.217 101.158 236.217 101.623L239.783 101.629ZM214.022 77.8977V82.5887H215.178V77.8977H214.022ZM232.022 77.8977V82.6076H233.178V77.8977H232.022Z" fill="#5F6466"/>
<path fill-rule="evenodd" clip-rule="evenodd" d="M221.789 77.8973C221.779 78.0736 221.708 78.2383 221.591 78.356C221.475 78.4736 221.322 78.5347 221.166 78.5261C221.016 78.5064 220.876 78.4254 220.774 78.2982C220.672 78.171 220.614 78.0062 220.611 77.8344C220.624 77.6653 220.693 77.5077 220.802 77.3917C220.912 77.2758 221.055 77.2095 221.205 77.2056C221.284 77.2072 221.361 77.2264 221.433 77.2622C221.505 77.2979 221.57 77.3494 221.624 77.4137C221.679 77.478 221.721 77.5539 221.749 77.6369C221.777 77.7199 221.791 77.8084 221.789 77.8973Z" fill="#5F6466"/>
<path fill-rule="evenodd" clip-rule="evenodd" d="M219.389 77.8722C219.388 78.0435 219.33 78.2082 219.228 78.3339C219.125 78.4596 218.984 78.5372 218.833 78.5513C218.673 78.5531 218.519 78.4846 218.403 78.3603C218.287 78.236 218.218 78.0655 218.211 77.8848C218.213 77.7145 218.271 77.5514 218.374 77.427C218.477 77.3026 218.617 77.226 218.766 77.2119C218.846 77.2077 218.925 77.2216 219 77.2527C219.075 77.2838 219.143 77.3316 219.201 77.3932C219.259 77.4547 219.305 77.5288 219.338 77.6111C219.37 77.6934 219.387 77.7822 219.389 77.8722Z" fill="#5F6466"/>
<path fill-rule="evenodd" clip-rule="evenodd" d="M228.367 78.5515C228.287 78.546 228.209 78.5224 228.138 78.4821C228.067 78.4418 228.003 78.3857 227.951 78.317C227.899 78.2484 227.86 78.1686 227.836 78.0825C227.812 77.9964 227.804 77.9056 227.811 77.8157C227.811 77.727 227.827 77.6392 227.859 77.558C227.89 77.4768 227.937 77.4041 227.995 77.3447C228.053 77.2853 228.122 77.2406 228.197 77.2134C228.271 77.1862 228.35 77.1772 228.428 77.1869C228.507 77.1916 228.585 77.2144 228.656 77.254C228.728 77.2936 228.791 77.3492 228.843 77.4174C228.895 77.4855 228.934 77.5649 228.959 77.6506C228.983 77.7364 228.991 77.8268 228.984 77.9164C228.974 78.092 228.904 78.2565 228.789 78.3749C228.674 78.4934 228.522 78.5567 228.367 78.5515Z" fill="#5F6466"/>
<path fill-rule="evenodd" clip-rule="evenodd" d="M220.595 79.8908C220.598 79.9799 220.585 80.0688 220.557 80.1522C220.529 80.2355 220.487 80.3117 220.432 80.3762C220.378 80.4407 220.313 80.4922 220.24 80.5276C220.168 80.5631 220.09 80.5817 220.011 80.5825C219.859 80.5846 219.711 80.5207 219.599 80.4039C219.486 80.287 219.417 80.126 219.406 79.9537C219.402 79.7778 219.458 79.6069 219.561 79.4751C219.664 79.3434 219.807 79.2605 219.961 79.2431C220.041 79.2363 220.121 79.2478 220.197 79.2771C220.272 79.3063 220.342 79.3526 220.401 79.4132C220.46 79.4738 220.508 79.5473 220.541 79.6295C220.575 79.7116 220.593 79.8005 220.595 79.8908Z" fill="#5F6466"/>
<path fill-rule="evenodd" clip-rule="evenodd" d="M222.999 79.922C222.999 80.0107 222.982 80.0982 222.952 80.1796C222.921 80.261 222.876 80.3346 222.819 80.3961C222.763 80.4575 222.696 80.5057 222.623 80.5377C222.55 80.5696 222.472 80.5848 222.394 80.5823C222.25 80.5706 222.115 80.5006 222.013 80.3851C221.911 80.2696 221.849 80.1164 221.838 79.9535C221.84 79.7743 221.902 79.6028 222.013 79.475C222.124 79.3471 222.275 79.2729 222.433 79.2681C222.584 79.2729 222.727 79.3438 222.833 79.4657C222.938 79.5877 222.998 79.7512 222.999 79.922Z" fill="#5F6466"/>
<path fill-rule="evenodd" clip-rule="evenodd" d="M224.189 77.8659C224.19 77.9548 224.176 78.0432 224.147 78.1258C224.118 78.2085 224.075 78.2839 224.02 78.3476C223.966 78.4114 223.9 78.4622 223.828 78.4971C223.756 78.5321 223.678 78.5505 223.6 78.5514C223.45 78.5473 223.308 78.4808 223.199 78.3647C223.09 78.2486 223.023 78.0911 223.011 77.9225C223.009 77.8331 223.024 77.7443 223.053 77.6612C223.082 77.5781 223.126 77.5024 223.181 77.4386C223.236 77.3748 223.302 77.3241 223.375 77.2895C223.448 77.2549 223.526 77.2371 223.605 77.2371C223.681 77.2329 223.756 77.246 223.826 77.2756C223.897 77.3053 223.962 77.351 224.016 77.4098C224.071 77.4686 224.114 77.5394 224.144 77.6178C224.173 77.6962 224.189 77.7806 224.189 77.8659Z" fill="#5F6466"/>
<path fill-rule="evenodd" clip-rule="evenodd" d="M225.999 77.2118C226.075 77.2067 226.151 77.2191 226.222 77.2484C226.294 77.2777 226.359 77.3232 226.414 77.3821C226.469 77.441 226.513 77.5121 226.543 77.591C226.573 77.6698 226.589 77.7548 226.588 77.8406C226.594 77.9721 226.565 78.1025 226.504 78.215C226.444 78.3274 226.355 78.4169 226.249 78.4719C226.144 78.5269 226.026 78.5449 225.911 78.5236C225.796 78.5023 225.69 78.4426 225.605 78.3523C225.521 78.262 225.462 78.1451 225.437 78.0167C225.411 77.8883 225.42 77.7541 225.462 77.6316C225.505 77.509 225.579 77.4035 225.674 77.3287C225.77 77.2539 225.883 77.2132 225.999 77.2118Z" fill="#5F6466"/>
<path fill-rule="evenodd" clip-rule="evenodd" d="M225.389 79.8972C225.396 79.9871 225.386 80.0777 225.36 80.1629C225.333 80.2481 225.291 80.3259 225.236 80.3909C225.18 80.456 225.113 80.5068 225.039 80.5398C224.965 80.5729 224.885 80.5875 224.806 80.5826C224.653 80.5846 224.506 80.5205 224.395 80.4035C224.283 80.2865 224.215 80.1256 224.206 79.9538C224.199 79.7777 224.254 79.6059 224.358 79.4745C224.461 79.3431 224.606 79.2624 224.761 79.2495C224.84 79.2426 224.92 79.2542 224.995 79.2835C225.071 79.3128 225.14 79.3592 225.199 79.4199C225.257 79.4805 225.305 79.5542 225.337 79.6362C225.37 79.7183 225.388 79.8071 225.389 79.8972Z" fill="#5F6466"/>
<path fill-rule="evenodd" clip-rule="evenodd" d="M227.189 80.5824C227.033 80.5824 226.883 80.5121 226.773 80.3871C226.662 80.2621 226.6 80.0926 226.6 79.9158C226.6 79.739 226.662 79.5695 226.773 79.4445C226.883 79.3195 227.033 79.2493 227.189 79.2493C227.345 79.2493 227.495 79.3195 227.605 79.4445C227.716 79.5695 227.778 79.739 227.778 79.9158C227.778 80.0926 227.716 80.2621 227.605 80.3871C227.495 80.5121 227.345 80.5824 227.189 80.5824Z" fill="#5F6466"/>
<path fill-rule="evenodd" clip-rule="evenodd" d="M237.678 73.7911C237.211 73.7911 236.739 73.7911 236.272 73.7911C236.184 73.8041 236.094 73.7942 236.009 73.762C235.924 73.7298 235.847 73.6763 235.783 73.6054C235.72 73.5345 235.671 73.4481 235.641 73.3528C235.611 73.2575 235.601 73.1558 235.611 73.0553C235.611 72.1918 235.611 71.3303 235.611 70.4709C235.611 69.9678 235.85 69.7289 236.306 69.7289C237.243 69.7289 238.18 69.7289 239.117 69.7289C239.208 69.7157 239.301 69.7263 239.388 69.7598C239.475 69.7933 239.554 69.8488 239.62 69.9222C239.685 69.9955 239.735 70.0847 239.765 70.1831C239.795 70.2814 239.805 70.3863 239.794 70.4897C239.794 71.3282 239.794 72.1666 239.794 73.005C239.811 73.1112 239.804 73.2202 239.776 73.323C239.747 73.4258 239.698 73.5195 239.631 73.5963C239.564 73.6731 239.482 73.7308 239.392 73.7647C239.301 73.7985 239.205 73.8076 239.111 73.7911C238.639 73.7973 238.161 73.7911 237.678 73.7911ZM236.822 72.4077H238.556V71.106H236.822V72.4077Z" fill="#5F6466"/>
</g>
<defs>
<filter id="filter0_dd" x="0.205566" y="0" width="309.295" height="483" filterUnits="userSpaceOnUse" color-interpolation-filters="sRGB">
<feFlood flood-opacity="0" result="BackgroundImageFix"/>
<feColorMatrix in="SourceAlpha" type="matrix" values="0 0 0 0 0 0 0 0 0 0 0 0 0 0 0 0 0 0 127 0"/>
<feOffset dx="7" dy="-3"/>
<feGaussianBlur stdDeviation="22"/>
<feColorMatrix type="matrix" values="0 0 0 0 0 0 0 0 0 0 0 0 0 0 0 0 0 0 0.38 0"/>
<feBlend mode="normal" in2="BackgroundImageFix" result="effect1_dropShadow"/>
<feColorMatrix in="SourceAlpha" type="matrix" values="0 0 0 0 0 0 0 0 0 0 0 0 0 0 0 0 0 0 127 0"/>
<feOffset dx="-18" dy="4"/>
<feGaussianBlur stdDeviation="9"/>
<feColorMatrix type="matrix" values="0 0 0 0 0 0 0 0 0 0 0 0 0 0 0 0 0 0 0.35 0"/>
<feBlend mode="normal" in2="effect1_dropShadow" result="effect2_dropShadow"/>
<feBlend mode="normal" in="SourceGraphic" in2="effect2_dropShadow" result="shape"/>
</filter>
<clipPath id="clip0">
<rect width="36" height="36" fill="white" transform="translate(208 67)"/>
</clipPath>
</defs>
</svg>
