<svg width="74" height="74" viewBox="0 0 74 74" fill="none" xmlns="http://www.w3.org/2000/svg">
<g clip-path="url(#clip0)">
<path fill-rule="evenodd" clip-rule="evenodd" d="M37.0311 0C57.4449 0 74.0622 16.5412 74.0622 37C74.0622 57.4588 57.4449 74 37.0311 74C16.5551 74 0 57.4588 0 37C0 16.5412 16.5551 0 37.0311 0ZM49.9142 19.5882H62.9218C65.1001 23.6303 66.3448 25.7445 67.4029 30.595C67.714 31.9008 67.7763 34.2639 68.2119 35.0723H64.3532L59.1253 44.2756C58.4407 45.395 58.005 46.3277 57.3204 47.3849C57.6316 48.6286 58.6897 50.3076 59.4365 51.6134C60.2456 53.0437 61.0547 54.2874 61.8638 55.842C59.0008 59.0756 54.2708 64.237 49.9142 65.2941L46.4289 59.3244H31.6165C31.1808 60.879 28.2557 64.921 27.7578 66.7244C22.9655 66.3513 15.5593 60.3193 12.1985 55.9042C11.8251 55.4689 11.5761 55.0958 11.2649 54.7227C11.8873 53.7899 16.5551 45.8924 16.5551 45.2084C16.5551 45.084 10.3314 32.5227 8.83768 32.5227H6.34819C6.34819 29.8487 7.28175 27.2992 8.02859 25.4336C8.7132 23.6924 10.5803 20.8319 10.8915 19.5261H21.0984L27.5088 8.39496C28.4424 6.71597 27.6333 7.21345 29.3759 6.71597C32.4878 5.78319 37.9647 5.53445 41.3255 6.03193C43.3793 6.34286 42.7569 5.65882 43.2548 7.33782C43.8772 9.20336 42.6325 5.78319 43.3793 7.77311C43.566 8.2084 43.7527 8.58151 44.0017 8.95462L47.6114 15.1731C48.1716 16.4168 49.603 18.5311 49.9142 19.5882ZM2.05383 36.0672C2.05383 42.4101 2.80067 46.7008 5.3524 51.8C14.439 69.8336 34.4172 76.7983 51.9058 68.6521C58.8764 65.4185 66.1581 58.3294 68.9588 51.2403C72.5063 42.2235 73.4399 31.963 69.021 22.9462C63.2952 11.1933 52.4037 1.98992 37.2178 1.98992C17.8621 1.98992 2.05383 17.9714 2.05383 36.0672ZM22.4676 36.4403L29.5004 49.1261H44.2506C45.0597 47.8824 51.2834 37.3109 51.2834 36.4403C51.2834 35.8185 48.4205 31.3412 47.8604 30.3462C47.0513 28.8538 44.873 25.4958 44.5618 24.1277H29.5004L22.4676 36.4403Z" fill="white"/>
</g>
<defs>
<clipPath id="clip0">
<rect width="74" height="74" fill="white"/>
</clipPath>
</defs>
</svg>
