<svg width="64" height="64" viewBox="0 0 64 64" fill="none" xmlns="http://www.w3.org/2000/svg">
<path d="M11.0568 9.07403C10.7036 8.6874 10.7299 8.08643 11.1268 7.74485C16.073 3.48822 22.2093 0.840324 28.7155 0.168998C35.5365 -0.534809 42.4032 0.971085 48.3036 4.46477C54.2041 7.95845 58.8262 13.2551 61.4889 19.5742C64.1515 25.8934 64.7139 32.9007 63.0931 39.5636C61.4723 46.2265 57.7541 52.1925 52.4863 56.5825C47.2186 60.9725 40.68 63.5542 33.8341 63.9472C26.9882 64.3403 20.197 62.5238 14.4615 58.7656C8.99066 55.1807 4.75623 50.0101 2.31792 43.9571C2.12225 43.4714 2.37495 42.9255 2.86627 42.7443V42.7443C3.35758 42.5631 3.90137 42.8153 4.09794 43.3006C6.39503 48.9724 10.3699 53.8173 15.5008 57.1794C20.8965 60.715 27.2852 62.4238 33.7254 62.054C40.1656 61.6843 46.3167 59.2555 51.2723 55.1257C56.2279 50.9959 59.7258 45.3834 61.2505 39.1153C62.7753 32.8473 62.2462 26.2552 59.7413 20.3106C57.2364 14.3659 52.8882 9.38316 47.3374 6.09652C41.7867 2.80988 35.3269 1.39322 28.9102 2.05532C22.8082 2.68494 17.0521 5.16266 12.4064 9.14562C12.0088 9.48645 11.41 9.46065 11.0568 9.07403V9.07403Z" fill="white"/>
<path d="M2.22483 40.8121C1.7227 40.9608 1.19373 40.6745 1.06006 40.1682C-0.181373 35.4659 -0.335686 30.5381 0.614297 25.7599C1.56428 20.9818 3.5918 16.4877 6.53751 12.618C6.85469 12.2013 7.45293 12.1391 7.86003 12.4685V12.4685C8.26713 12.7979 8.32884 13.394 8.01244 13.8113C5.25969 17.4416 3.36426 21.6531 2.47423 26.1297C1.58421 30.6063 1.72454 35.2225 2.87929 39.6298C3.01201 40.1363 2.72696 40.6635 2.22483 40.8121V40.8121Z" fill="#D61D1D"/>
<path d="M43.6469 10.9442C43.891 10.503 44.4476 10.3417 44.8797 10.6017C48.6095 12.8467 51.6926 16.0309 53.8167 19.8429C56.0892 23.9211 57.1732 28.5546 56.9455 33.2177C56.7179 37.8808 55.1879 42.3867 52.529 46.2242C49.8701 50.0617 46.1888 53.0771 41.9029 54.9283C37.6169 56.7794 32.8979 57.3923 28.2813 56.6972C23.6648 56.0021 19.3354 54.027 15.7845 50.9959C12.2337 47.9649 9.60344 43.9992 8.19232 39.549C6.87332 35.3892 6.66883 30.9617 7.59139 26.7073C7.69826 26.2144 8.19725 25.9198 8.68585 26.0446V26.0446C9.17445 26.1694 9.46749 26.6664 9.36204 27.1596C8.52311 31.0829 8.71728 35.1626 9.93309 38.997C11.241 43.1218 13.6789 46.7975 16.9702 49.607C20.2614 52.4164 24.2742 54.2471 28.5532 54.8914C32.8323 55.5356 37.2062 54.9676 41.1788 53.2518C45.1513 51.5359 48.5634 48.741 51.0279 45.1841C53.4924 41.6272 54.9106 37.4508 55.1215 33.1287C55.3325 28.8065 54.3278 24.5118 52.2215 20.7318C50.2635 17.218 47.4265 14.2798 43.9951 12.2009C43.5638 11.9396 43.4028 11.3855 43.6469 10.9442V10.9442Z" fill="white"/>
<path d="M11.5935 19.2489C11.1659 18.9816 11.0344 18.4173 11.3171 17.9996C13.9625 14.0916 17.6651 11.0075 22.001 9.11321C26.3369 7.21897 31.1156 6.59783 35.7803 7.31223C36.2788 7.38857 36.6036 7.86848 36.5091 8.36384V8.36384C36.4146 8.85919 35.9366 9.18226 35.4379 9.10735C31.1352 8.46109 26.7305 9.03987 22.7321 10.7867C18.7337 12.5335 15.3163 15.372 12.8669 18.9681C12.583 19.3849 12.0212 19.5161 11.5935 19.2489V19.2489Z" fill="#D61D1D"/>
</svg>
