<svg width="74" height="71" viewBox="0 0 74 71" fill="none" xmlns="http://www.w3.org/2000/svg">
<g clip-path="url(#clip0)">
<path fill-rule="evenodd" clip-rule="evenodd" d="M32.2658 70.9346C41.193 70.9346 53.0536 72.4383 56.3057 61.5856L58.41 54.7864C58.4737 54.5902 58.5375 54.4595 58.6013 54.2634C59.749 50.5368 60.8968 45.7643 62.0446 41.907C62.6823 39.8149 63.1924 37.7882 63.7663 35.7615C64.9141 31.6427 66.0619 27.4586 67.2097 23.3398C67.7836 21.2477 68.3575 19.221 68.9314 17.1289L73.5863 0C72.3748 0 71.1632 0 69.9517 0C67.2097 0 64.0214 0.653775 62.6823 6.21087C58.2824 22.163 53.8825 36.6768 49.4189 52.6289C47.1871 52.6289 44.9553 52.6289 42.7234 52.6943L29.3325 71H32.2658V70.9346ZM38.0047 52.6943C36.0917 52.6943 34.1787 52.6943 32.2658 52.6943L18.8748 70.9346H24.6138L38.0047 52.6943ZM27.4195 52.6943C22.7008 52.6943 18.0459 52.6943 13.3272 52.6943L0 70.9346H14.0924L27.4195 52.6943Z" fill="white"/>
<path fill-rule="evenodd" clip-rule="evenodd" d="M33.1585 37.0037V29.8121L31.5643 30.5967C24.0399 34.1924 6.95053 34.1271 0 29.7468C0 29.8775 0 35.6961 0.0637663 37.0037C8.28962 41.907 24.9964 41.3186 33.1585 37.0037Z" fill="white"/>
<path fill-rule="evenodd" clip-rule="evenodd" d="M16.6447 30.7274C25.6995 30.7274 33.1602 28.57 33.1602 25.9549C33.1602 23.3398 25.6995 21.2477 16.6447 21.2477C7.52609 21.2477 0.0654297 23.4051 0.0654297 25.9549C0.0654297 28.57 7.46232 30.7274 16.6447 30.7274Z" fill="white"/>
</g>
<defs>
<clipPath id="clip0">
<rect width="73.5863" height="71" fill="white"/>
</clipPath>
</defs>
</svg>
