<svg width="118" height="118" viewBox="0 0 118 118" fill="none" xmlns="http://www.w3.org/2000/svg">
<g clip-path="url(#clip0)">
<path d="M23.2004 28.3H1.40039" stroke="black" stroke-width="1.424" stroke-miterlimit="22.9256" stroke-linecap="round"/>
<path d="M115.7 28.3H93.7998" stroke="black" stroke-width="1.424" stroke-miterlimit="22.9256" stroke-linecap="round"/>
<path d="M30.0004 24.5C30.4004 24.6 30.8004 24.7 31.2004 24.8V24.1L31.3004 23.7C35.7004 24.8 40.3004 25.8 44.6004 26.5C54.7004 28.1 62.5004 27.9 72.6004 26.4C77.0004 25.7 81.5004 24.7 85.9004 23.6L86.0004 24V24.2V24.3C86.5004 24.2 87.0004 24 87.4004 23.9L87.5004 31C64.9004 36.5 52.1004 36 29.9004 30.6L30.0004 24.5Z" fill="black"/>
<path d="M30.0004 24.5C30.4004 24.6 30.8004 24.7 31.2004 24.8V24.1L31.3004 23.7C35.7004 24.8 40.3004 25.8 44.6004 26.5C54.7004 28.1 62.5004 27.9 72.6004 26.4C77.0004 25.7 81.5004 24.7 85.9004 23.6L86.0004 24V24.2V24.3C86.5004 24.2 87.0004 24 87.4004 23.9L87.5004 31C64.9004 36.5 52.1004 36 29.9004 30.6L30.0004 24.5Z" stroke="#808180" stroke-width="1.4238" stroke-miterlimit="22.9256" stroke-linejoin="round"/>
<path fill-rule="evenodd" clip-rule="evenodd" d="M59.1004 99.5C56.4004 93.2 55.0004 73.8 51.6004 68.6C53.2004 54.9 33.6004 55.4 31.6004 34.9V34.6C31.5004 33.7 31.5004 32.7 31.4004 31.6C52.1004 36.5 64.7004 37 85.8004 32C85.8004 33 85.7004 33.9 85.6004 34.7C85.3004 37.6 84.9004 40.3 84.1004 43.4C79.0004 63.2 65.8004 66.8 65.3004 68.1C63.1004 73.7 60.7004 94.7 59.1004 99.5Z" fill="white"/>
<path d="M59.1004 99.5C56.4004 93.2 55.0004 73.8 51.6004 68.6C53.2004 54.9 33.6004 55.4 31.6004 34.9V34.6C31.5004 33.7 31.5004 32.7 31.4004 31.6C52.1004 36.5 64.7004 37 85.8004 32C85.8004 33 85.7004 33.9 85.6004 34.7C85.3004 37.6 84.9004 40.3 84.1004 43.4C79.0004 63.2 65.8004 66.8 65.3004 68.1C63.1004 73.7 60.7004 94.7 59.1004 99.5Z" stroke="white" stroke-width="1.0679" stroke-miterlimit="22.9256"/>
<path d="M29.8 24.6L31.2 23.9C31.3 27.8 31.3 31.7 31.6 34.7C33.4 55.4 55.9 55.3 51.6 68.7C38.4 61.1 23.4 53.9 23 28.1L28.4 25.3L29.1 24.9L29.8 24.6Z" fill="black"/>
<path d="M29.8 24.6L31.2 23.9C31.3 27.8 31.3 31.7 31.6 34.7C33.4 55.4 55.9 55.3 51.6 68.7C38.4 61.1 23.4 53.9 23 28.1L28.4 25.3L29.1 24.9L29.8 24.6Z" stroke="#808180" stroke-width="1.4239" stroke-miterlimit="22.9256" stroke-linejoin="round"/>
<path d="M85.7995 23.6C85.6995 27.5 85.6995 31.1 85.3995 34.1C83.5995 54.8 61.0995 54.7 65.3995 68.1C78.5995 60.6 93.5995 53.4 93.9995 27.6C91.2995 26.2 88.5995 24.9 85.7995 23.6Z" fill="black"/>
<path d="M85.7995 23.6C85.6995 27.5 85.6995 31.1 85.3995 34.1C83.5995 54.8 61.0995 54.7 65.3995 68.1C78.5995 60.6 93.5995 53.4 93.9995 27.6C91.2995 26.2 88.5995 24.9 85.7995 23.6Z" stroke="#808180" stroke-width="1.4239" stroke-miterlimit="22.9256" stroke-linejoin="round"/>
<path d="M6.3002 0.699951H111.4C114.5 0.699951 117 3.19995 117 6.29995V111.4C117 114.5 114.5 117 111.4 117H6.3002C3.2002 117 0.700195 114.5 0.700195 111.4V6.29995C0.700195 3.19995 3.2002 0.699951 6.3002 0.699951Z" stroke="black" stroke-width="1.424" stroke-miterlimit="22.9256"/>
<path d="M51.7002 68.6L59.1002 99.5L65.4002 68.1" stroke="#141515" stroke-width="1.4239" stroke-miterlimit="22.9256"/>
<path d="M68.8996 73.8C70.446 73.8 71.6996 72.5464 71.6996 71C71.6996 69.4536 70.446 68.2 68.8996 68.2C67.3532 68.2 66.0996 69.4536 66.0996 71C66.0996 72.5464 67.3532 73.8 68.8996 73.8Z" stroke="black" stroke-width="0.712" stroke-miterlimit="22.9256"/>
<path d="M67.8002 72.1C67.2002 71.4 67.3002 70.4 68.0002 69.9C68.7002 69.3 69.7002 69.4 70.2002 70.1C73.2002 73.8 74.8002 77 75.5002 80.5C76.1002 83.9 75.8002 87.4 75.1002 91.8C74.5002 95.4 75.4002 98.3 76.6002 102C77.0002 103.4 77.5002 104.8 77.9002 106.5C78.1002 107.4 77.6002 108.2 76.8002 108.5C75.9002 108.7 75.1002 108.2 74.8002 107.4C74.4002 105.8 73.9002 104.4 73.5002 103C72.2002 98.8 71.2002 95.6 71.9002 91.3C72.6002 87.2 72.9002 84 72.3002 81.1C71.8002 78.1 70.5002 75.4 67.8002 72.1Z" fill="white"/>
<path d="M67.8002 72.1C67.2002 71.4 67.3002 70.4 68.0002 69.9C68.7002 69.3 69.7002 69.4 70.2002 70.1C73.2002 73.8 74.8002 77 75.5002 80.5C76.1002 83.9 75.8002 87.4 75.1002 91.8C74.5002 95.4 75.4002 98.3 76.6002 102C77.0002 103.4 77.5002 104.8 77.9002 106.5C78.1002 107.4 77.6002 108.2 76.8002 108.5C75.9002 108.7 75.1002 108.2 74.8002 107.4C74.4002 105.8 73.9002 104.4 73.5002 103C72.2002 98.8 71.2002 95.6 71.9002 91.3C72.6002 87.2 72.9002 84 72.3002 81.1C71.8002 78.1 70.5002 75.4 67.8002 72.1Z" stroke="black" stroke-width="0.712" stroke-miterlimit="22.9256"/>
<path fill-rule="evenodd" clip-rule="evenodd" d="M78.1 103C78.6 103.7 78.4 104.6 77.8 105.1L75.4 106.8C74.7 107.3 73.8 107.1 73.3 106.5C72.8 105.8 73 104.9 73.6 104.4L76 102.7C76.7 102.2 77.6 102.4 78.1 103Z" fill="white"/>
<path d="M78.1 103C78.6 103.7 78.4 104.6 77.8 105.1L75.4 106.8C74.7 107.3 73.8 107.1 73.3 106.5C72.8 105.8 73 104.9 73.6 104.4L76 102.7C76.7 102.2 77.6 102.4 78.1 103Z" stroke="black" stroke-width="0.712" stroke-miterlimit="22.9256"/>
<path fill-rule="evenodd" clip-rule="evenodd" d="M79.0002 105.4C79.0002 106.2 78.4002 106.9 77.6002 106.9L74.7002 107C73.9002 107 73.2002 106.4 73.2002 105.6C73.2002 104.8 73.8002 104.1 74.6002 104.1L77.5002 104C78.2002 103.9 78.9002 104.6 79.0002 105.4Z" fill="white"/>
<path d="M79.0002 105.4C79.0002 106.2 78.4002 106.9 77.6002 106.9L74.7002 107C73.9002 107 73.2002 106.4 73.2002 105.6C73.2002 104.8 73.8002 104.1 74.6002 104.1L77.5002 104C78.2002 103.9 78.9002 104.6 79.0002 105.4Z" stroke="black" stroke-width="0.712" stroke-miterlimit="22.9256"/>
<path d="M67.5 85.5C69.1569 85.5 70.5 84.2464 70.5 82.7C70.5 81.1536 69.1569 79.9 67.5 79.9C65.8431 79.9 64.5 81.1536 64.5 82.7C64.5 84.2464 65.8431 85.5 67.5 85.5Z" stroke="black" stroke-width="0.7134" stroke-miterlimit="22.9256"/>
<path d="M50.5996 85.6C52.2565 85.6 53.5996 84.3464 53.5996 82.8C53.5996 81.2536 52.2565 80 50.5996 80C48.9428 80 47.5996 81.2536 47.5996 82.8C47.5996 84.3464 48.9428 85.6 50.5996 85.6Z" stroke="black" stroke-width="0.7134" stroke-miterlimit="22.9256"/>
<path d="M67 98.6C68.6569 98.6 70 97.3464 70 95.8C70 94.2536 68.6569 93 67 93C65.3431 93 64 94.2536 64 95.8C64 97.3464 65.3431 98.6 67 98.6Z" stroke="black" stroke-width="0.7134" stroke-miterlimit="22.9256"/>
<path d="M51 98.5C52.6569 98.5 54 97.2464 54 95.7C54 94.1536 52.6569 92.9 51 92.9C49.3431 92.9 48 94.1536 48 95.7C48 97.2464 49.3431 98.5 51 98.5Z" stroke="black" stroke-width="0.7134" stroke-miterlimit="22.9256"/>
<path d="M49.7995 84.3001C48.9995 83.9001 48.6995 82.9 49.1995 82.1C49.6995 81.3 50.6995 81.1 51.4995 81.5L67.9995 94.1C68.7995 94.5 69.0995 95.5001 68.5995 96.3001C68.0995 97.1001 67.0995 97.3001 66.2995 96.9001L49.7995 84.3001Z" fill="white"/>
<path d="M49.7995 84.3001C48.9995 83.9001 48.6995 82.9 49.1995 82.1C49.6995 81.3 50.6995 81.1 51.4995 81.5L67.9995 94.1C68.7995 94.5 69.0995 95.5001 68.5995 96.3001C68.0995 97.1001 67.0995 97.3001 66.2995 96.9001L49.7995 84.3001Z" stroke="black" stroke-width="0.7135" stroke-miterlimit="22.9256"/>
<path d="M66.5997 81.2C67.3997 80.8 68.4997 81 68.8997 81.8C69.3997 82.6 69.0997 83.5 68.1997 84L51.7997 96.9C50.9997 97.3 49.8997 97.1 49.4997 96.3C48.9997 95.5 49.2997 94.6 50.1997 94.1L66.5997 81.2Z" fill="white"/>
<path d="M66.5997 81.2C67.3997 80.8 68.4997 81 68.8997 81.8C69.3997 82.6 69.0997 83.5 68.1997 84L51.7997 96.9C50.9997 97.3 49.8997 97.1 49.4997 96.3C48.9997 95.5 49.2997 94.6 50.1997 94.1L66.5997 81.2Z" stroke="black" stroke-width="0.7135" stroke-miterlimit="22.9256"/>
<path d="M47.8 74.2C49.3464 74.2 50.6 72.9464 50.6 71.4C50.6 69.8536 49.3464 68.6 47.8 68.6C46.2536 68.6 45 69.8536 45 71.4C45 72.9464 46.2536 74.2 47.8 74.2Z" stroke="black" stroke-width="0.712" stroke-miterlimit="22.9256"/>
<path d="M48.9 72.6C49.5 71.9 49.4 70.9 48.7 70.4C48 69.8 47 69.9 46.5 70.6C43.5 74.3 41.9 77.5 41.2 81C40.6 84.4 40.9 87.9 41.6 92.3C42.2 95.9 41.3 98.8 40.1 102.5C39.7 103.9 39.2 105.3 38.8 107C38.6 107.9 39.1 108.7 39.9 109C40.8 109.2 41.6 108.7 41.9 107.9C42.3 106.3 42.8 104.9 43.2 103.5C44.5 99.3 45.5 96.1 44.8 91.8C44.1 87.7 43.8 84.5 44.4 81.6C44.8 78.6 46.2 75.8 48.9 72.6Z" fill="white"/>
<path d="M48.9 72.6C49.5 71.9 49.4 70.9 48.7 70.4C48 69.8 47 69.9 46.5 70.6C43.5 74.3 41.9 77.5 41.2 81C40.6 84.4 40.9 87.9 41.6 92.3C42.2 95.9 41.3 98.8 40.1 102.5C39.7 103.9 39.2 105.3 38.8 107C38.6 107.9 39.1 108.7 39.9 109C40.8 109.2 41.6 108.7 41.9 107.9C42.3 106.3 42.8 104.9 43.2 103.5C44.5 99.3 45.5 96.1 44.8 91.8C44.1 87.7 43.8 84.5 44.4 81.6C44.8 78.6 46.2 75.8 48.9 72.6Z" stroke="black" stroke-width="0.712" stroke-miterlimit="22.9256"/>
<path fill-rule="evenodd" clip-rule="evenodd" d="M38.5998 103.5C38.0998 104.2 38.2998 105.1 38.8998 105.6L41.2998 107.3C41.9998 107.8 42.8998 107.6 43.3998 107C43.8998 106.3 43.6998 105.4 43.0998 104.9L40.6998 103.2C39.9998 102.7 39.0998 102.8 38.5998 103.5Z" fill="white"/>
<path d="M38.5998 103.5C38.0998 104.2 38.2998 105.1 38.8998 105.6L41.2998 107.3C41.9998 107.8 42.8998 107.6 43.3998 107C43.8998 106.3 43.6998 105.4 43.0998 104.9L40.6998 103.2C39.9998 102.7 39.0998 102.8 38.5998 103.5Z" stroke="black" stroke-width="0.712" stroke-miterlimit="22.9256"/>
<path fill-rule="evenodd" clip-rule="evenodd" d="M37.7002 105.8C37.7002 106.6 38.3002 107.3 39.1002 107.3L42.0002 107.4C42.8002 107.4 43.5002 106.8 43.5002 106C43.5002 105.2 42.9002 104.5 42.1002 104.5L39.2002 104.4C38.4002 104.4 37.8002 105 37.7002 105.8Z" fill="white"/>
<path d="M37.7002 105.8C37.7002 106.6 38.3002 107.3 39.1002 107.3L42.0002 107.4C42.8002 107.4 43.5002 106.8 43.5002 106C43.5002 105.2 42.9002 104.5 42.1002 104.5L39.2002 104.4C38.4002 104.4 37.8002 105 37.7002 105.8Z" stroke="black" stroke-width="0.712" stroke-miterlimit="22.9256"/>
</g>
<defs>
<clipPath id="clip0">
<rect width="117.7" height="117.7" fill="white"/>
</clipPath>
</defs>
</svg>
