<svg width="118" height="118" viewBox="0 0 118 118" fill="none" xmlns="http://www.w3.org/2000/svg">
<g clip-path="url(#clip0)">
<path d="M6.3002 0.699951H111.4C114.5 0.699951 117 3.19995 117 6.29995V111.4C117 114.5 114.5 117 111.4 117H6.3002C3.2002 117 0.700195 114.5 0.700195 111.4V6.29995C0.700195 3.19995 3.2002 0.699951 6.3002 0.699951Z" stroke="black" stroke-width="1.424" stroke-miterlimit="22.9256"/>
<path fill-rule="evenodd" clip-rule="evenodd" d="M58.1998 81.4001C53.1998 76.6001 47.6998 69.7001 42.3998 61.7001C37.9998 55.1 34.4998 48.2001 32.9998 42.7001C32.1998 39.7001 31.7998 37.0001 31.4998 34.2001C31.3998 33.3001 31.3998 32.3 31.2998 31.3C51.5998 36.1 63.9998 36.6001 84.5998 31.7001C84.5998 32.7001 84.4998 33.6001 84.4998 34.4001C84.1998 37.3001 83.7998 39.9001 82.9998 42.9001C81.5998 48.4001 77.9998 55.3001 73.5998 61.9001C68.4998 69.9001 63.1998 76.5 58.1998 81.4001Z" fill="#EBEBEB"/>
<path d="M22.8 28.3H1" stroke="black" stroke-width="1.424" stroke-miterlimit="22.9256" stroke-linecap="round"/>
<path d="M116.7 28.3H93.5" stroke="black" stroke-width="1.4252" stroke-miterlimit="22.9256" stroke-linecap="round"/>
<path d="M30.1 24.3C30.5 24.4 30.9 24.5 31.3 24.6V23.9L31.4 23.5C35.7 24.6 40.2 25.6 44.5 26.2C54.4 27.7 62 27.6 71.9 26.1C76.2 25.4 80.7 24.4 85 23.4L85.1 23.8V24V24.1C85.6 24 86 23.9 86.5 23.7V30.7C64.2 36.7 51.7 36.2 30 31L30.1 24.3Z" fill="black"/>
<path d="M30.1 24.3C30.5 24.4 30.9 24.5 31.3 24.6V23.9L31.4 23.5C35.7 24.6 40.2 25.6 44.5 26.2C54.4 27.7 62 27.6 71.9 26.1C76.2 25.4 80.7 24.4 85 23.4L85.1 23.8V24V24.1C85.6 24 86 23.9 86.5 23.7V30.7C64.2 36.7 51.7 36.2 30 31L30.1 24.3Z" stroke="#808180" stroke-width="1.424" stroke-miterlimit="22.9256" stroke-linejoin="round"/>
<path d="M29.9002 24.4L31.3002 23.7C31.4002 27.5 31.4002 31.3 31.7002 34.2C32.0002 37.1 32.4002 39.7 33.2002 42.7C34.6002 48.2 38.2002 55.1 42.6002 61.7C47.9002 69.7 53.3002 76.5 58.4002 81.4L58.3002 85.3V91C51.4002 84.7 45.4002 77.7999 40.0002 70.5C27.7002 54 23.5002 46 23.2002 27.9L28.5002 25.1L29.2002 24.7L29.9002 24.4Z" fill="black"/>
<path d="M29.9002 24.4L31.3002 23.7C31.4002 27.5 31.4002 31.3 31.7002 34.2C32.0002 37.1 32.4002 39.7 33.2002 42.7C34.6002 48.2 38.2002 55.1 42.6002 61.7C47.9002 69.7 53.3002 76.5 58.4002 81.4L58.3002 85.3V91C51.4002 84.7 45.4002 77.8 40.0002 70.5C27.7002 54 23.5002 46 23.2002 27.9L28.5002 25.1L29.2002 24.7L29.9002 24.4Z" stroke="#808180" stroke-width="1.424" stroke-miterlimit="22.9256" stroke-linejoin="round"/>
<path d="M58.1996 83.3V84.6V85.3V91.1C64.8996 84.8 70.8996 77.9 76.2996 70.6C88.5996 54 92.6996 46 92.9996 27.9L87.7996 25.1L84.8996 23.4C84.7996 27.2 84.8996 31.4 84.5996 34.3C84.2996 37.2 83.8996 39.8 83.0996 42.8C81.6996 48.3 78.0996 55.2 73.6996 61.8C68.3996 69.8 63.0996 76.5 58.0996 81.3L58.1996 83.3Z" fill="black"/>
<path d="M58.1996 83.3V84.6V85.3V91.1C64.8996 84.8 70.8996 77.9 76.2996 70.6C88.5996 54 92.6996 46 92.9996 27.9L87.7996 25.1L84.8996 23.4C84.7996 27.2 84.8996 31.4 84.5996 34.3C84.2996 37.2 83.8996 39.8 83.0996 42.8C81.6996 48.3 78.0996 55.2 73.6996 61.8C68.3996 69.8 63.0996 76.5 58.0996 81.3L58.1996 83.3Z" stroke="#808180" stroke-width="1.424" stroke-miterlimit="22.9256" stroke-linejoin="round"/>
</g>
<defs>
<clipPath id="clip0">
<rect width="117.7" height="117.7" fill="white"/>
</clipPath>
</defs>
</svg>
