<svg width="118" height="118" viewBox="0 0 118 118" fill="none" xmlns="http://www.w3.org/2000/svg">
<g clip-path="url(#clip0)">
<path d="M6.3002 0.699951H111.4C114.5 0.699951 117 3.19995 117 6.29995V111.4C117 114.5 114.5 117 111.4 117H6.3002C3.2002 117 0.700195 114.5 0.700195 111.4V6.29995C0.700195 3.19995 3.2002 0.699951 6.3002 0.699951Z" stroke="black" stroke-width="1.424" stroke-miterlimit="22.9256"/>
<path d="M14 0.699951V57.2C59.7 61.3 56.4 78.2 101.8 80.4C102.5 80.4 105.3 80.5 106 80.5V64.1999H103.2" stroke="black" stroke-width="1.4241" stroke-miterlimit="22.9256"/>
<path d="M76.0996 76.6C83.8996 83.5 103.4 94 117 94.3" stroke="black" stroke-width="1.4241" stroke-miterlimit="22.9256"/>
<path d="M107.9 68.8V61.1C107.9 58.4 102.8 58.5 102.8 61.3V63.4V61.3V78.2C102.8 80.9 110 81 110 78.2V61.3H107.9" stroke="black" stroke-width="1.4239" stroke-miterlimit="22.9256" stroke-linecap="round"/>
<path d="M14 0.699951V35.7999C59.7 39.8999 56.4 56.8 101.8 59C102.5 59 105.3 59.0999 106 59.0999" stroke="black" stroke-width="1.4241" stroke-miterlimit="22.9256"/>
<path d="M111.9 62.9H99.5" stroke="black" stroke-width="0.7119" stroke-miterlimit="22.9256"/>
<path d="M14 38.3C55.5 42.4 58 60 97.6 62" stroke="black" stroke-width="1.0679" stroke-miterlimit="22.9256" stroke-linecap="round" stroke-dasharray="5.34 5.34"/>
<path d="M111.9 68.6H99.5" stroke="black" stroke-width="0.7119" stroke-miterlimit="22.9256"/>
<path d="M14 44.5C55.5 48.6 58 66.3 97.6 68.3" stroke="black" stroke-width="1.0679" stroke-miterlimit="22.9256" stroke-linecap="round" stroke-dasharray="5.34 5.34"/>
<path d="M99.4996 63.8C99.9967 63.8 100.4 63.3971 100.4 62.9C100.4 62.4029 99.9967 62 99.4996 62C99.0026 62 98.5996 62.4029 98.5996 62.9C98.5996 63.3971 99.0026 63.8 99.4996 63.8Z" fill="black"/>
<path d="M99.4996 63.8C99.9967 63.8 100.4 63.3971 100.4 62.9C100.4 62.4029 99.9967 62 99.4996 62C99.0026 62 98.5996 62.4029 98.5996 62.9C98.5996 63.3971 99.0026 63.8 99.4996 63.8Z" stroke="black" stroke-width="0.2847" stroke-miterlimit="22.9256"/>
<path d="M99.4996 69.5C99.9967 69.5 100.4 69.097 100.4 68.6C100.4 68.1029 99.9967 67.7 99.4996 67.7C99.0026 67.7 98.5996 68.1029 98.5996 68.6C98.5996 69.097 99.0026 69.5 99.4996 69.5Z" fill="black"/>
<path d="M99.4996 69.5C99.9967 69.5 100.4 69.097 100.4 68.6C100.4 68.1029 99.9967 67.7 99.4996 67.7C99.0026 67.7 98.5996 68.1029 98.5996 68.6C98.5996 69.097 99.0026 69.5 99.4996 69.5Z" stroke="black" stroke-width="0.2847" stroke-miterlimit="22.9256"/>
<path d="M112.4 69.5C112.897 69.5 113.3 69.097 113.3 68.6C113.3 68.1029 112.897 67.7 112.4 67.7C111.903 67.7 111.5 68.1029 111.5 68.6C111.5 69.097 111.903 69.5 112.4 69.5Z" fill="black"/>
<path d="M112.4 69.5C112.897 69.5 113.3 69.097 113.3 68.6C113.3 68.1029 112.897 67.7 112.4 67.7C111.903 67.7 111.5 68.1029 111.5 68.6C111.5 69.097 111.903 69.5 112.4 69.5Z" stroke="black" stroke-width="0.2847" stroke-miterlimit="22.9256"/>
<path d="M112.4 63.8C112.897 63.8 113.3 63.3971 113.3 62.9C113.3 62.4029 112.897 62 112.4 62C111.903 62 111.5 62.4029 111.5 62.9C111.5 63.3971 111.903 63.8 112.4 63.8Z" fill="black"/>
<path d="M112.4 63.8C112.897 63.8 113.3 63.3971 113.3 62.9C113.3 62.4029 112.897 62 112.4 62C111.903 62 111.5 62.4029 111.5 62.9C111.5 63.3971 111.903 63.8 112.4 63.8Z" stroke="black" stroke-width="0.2847" stroke-miterlimit="22.9256"/>
<path d="M14 9.19995V57.2C53.2 59.3 63.8 109 117 111.4" stroke="black" stroke-width="1.4241" stroke-miterlimit="22.9256"/>
<path d="M69.7998 74.6C82.2998 85.2 95.7998 94.1 117.2 96.9" stroke="black" stroke-width="1.0679" stroke-miterlimit="22.9256" stroke-linecap="round" stroke-dasharray="5.34 5.34"/>
<path d="M115.8 102C89.0004 97.8 76.0004 86.2 56.9004 69.7" stroke="black" stroke-width="1.0679" stroke-miterlimit="22.9256" stroke-linecap="round" stroke-dasharray="5.34 5.34"/>
<path d="M115.8 96.7C114.8 98.1 114.6 101.3 112.9 101C111.2 100.7 113.2 96.1 111.5 95.9C109.7 95.7 110.2 100.9 108.4 100.5C106.5 100.1 108.7 95.5 106.8 94.9C105.2 94.4 105.5 99.4 103.8 99C102 98.5 104.1 94.3 102.4 93.7C100.7 93.1 100.2 97.8 98.5002 97.2C96.8002 96.6 99.2002 92.7 97.6002 92C96.0002 91.4 95.3002 95.9 93.8002 95.3C92.2002 94.6 94.5002 90.8 92.9002 90.1C91.5002 89.4 90.4002 93.7 89.0002 93C87.4002 92.2 89.8002 88.4 88.2002 87.7C86.6002 87 85.3002 91.6 83.8002 90.7C82.1002 89.7 84.9002 85.8 83.2002 84.7C81.6002 83.7 79.7002 88 78.1002 87C76.6002 85.9 79.8002 82.5 78.3002 81.4C76.9002 80.4 75.0002 84.8 73.7002 83.8C72.2002 82.6 75.4002 79.2 73.9002 78.1C72.5002 77 70.4002 81.3 69.1002 80.2C67.7002 79 71.2002 75.9 69.8002 74.7C68.4002 73.5 64.3002 78.2 64.4002 76.3L64.7002 72.7" stroke="black" stroke-width="0.2848" stroke-miterlimit="22.9256"/>
</g>
<defs>
<clipPath id="clip0">
<rect width="117.7" height="117.7" fill="white"/>
</clipPath>
</defs>
</svg>
