<svg width="118" height="118" viewBox="0 0 118 118" fill="none" xmlns="http://www.w3.org/2000/svg">
<g clip-path="url(#clip0)">
<path fill-rule="evenodd" clip-rule="evenodd" d="M35.5002 85.5H40.2002V103.2H13.2002V85.5H17.9002V35.5H13.4002V26.1L23.1002 15.2H35.5002V85.5Z" fill="white"/>
<path d="M33.7 87.3H38.5V101.4H15V87.3H19.7V33.7H15.2V26.8L23.9 17H33.7V87.3Z" fill="black"/>
<path fill-rule="evenodd" clip-rule="evenodd" d="M31.8998 18.8H24.6998L16.9998 27.5V31.9H21.4998V89.1001H16.7998V99.6001H36.6998V89.1001H31.8998V18.8Z" fill="black"/>
<path fill-rule="evenodd" clip-rule="evenodd" d="M88.0004 85.6V33H67.0004V85.6H88.0004ZM96.8004 15.4L105.6 24.2V94.5L96.8004 103.3H58.2004L49.4004 94.5V24.2L58.2004 15.4H96.8004Z" fill="white"/>
<path d="M89.7996 87.4V31.2H65.1996V87.4H89.7996ZM96.0996 17.1L103.9 24.9V93.7L96.0996 101.5H58.8996L51.0996 93.7V24.9L58.8996 17.1H96.0996Z" fill="black"/>
<path fill-rule="evenodd" clip-rule="evenodd" d="M91.6 89.2H63.5V29.5H91.6V89.2ZM95.4 18.9H59.7L53 25.6V93L59.7 99.7H95.4L102.1 93V25.6L95.4 18.9Z" fill="black"/>
<path d="M58 16L58.3 14.2L58.7 16L59 14.2L59.3 16L59.6 14.2L59.9 16L60.2 14.2L60.5 16L60.8 14.2L61.1 16L61.4 14.2L61.7 16L62 14.2L62.3 16L62.6 14.2L62.9 16.1L63.2 14.3L63.5 16.1L63.8 14.3L64.1 16.1L64.4 14.3L64.8 16.1L65.1 14.3L65.4 16.1L65.7 14.3L66 16.1L66.3 14.3L66.6 16.1L66.9 14.3L67.2 16.1L67.5 14.3L67.8 16.1L68.1 14.3L68.4 16.1L68.7 14.3L69 16.1L69.3 14.3L69.6 16.1L69.9 14.3L70.2 16.1L70.6 14.3L70.9 16.1L71.2 14.3L71.5 16.1L71.8 14.3L72.1 16.1L72.4 14.3L72.7 16.2L73 14.4L73.3 16.2L73.6 14.4L73.9 16.2L74.2 14.4L74.5 16.2L74.8 14.4L75.1 16.2L75.4 14.4L75.7 16.2L76 14.4L76.3 16.2L76.6 14.4L77 16.2L77.3 14.4L77.6 16.2L77.9 14.4L78.2 16.2L78.5 14.4L78.8 16.2L79.1 14.4L79.4 16.2L79.7 14.4L80 16.2L80.3 14.4L80.6 16.2L80.9 14.4L81.2 16.2L81.5 14.4L81.8 16.2L82.1 14.4L82.5 16.3L82.8 14.5L83.1 16.3L83.4 14.5L83.7 16.3L84 14.5L84.3 16.3L84.6 14.5L84.9 16.3L85.2 14.5L85.5 16.3L85.8 14.5L86.1 16.3L86.4 14.5L86.7 16.3L87 14.5L87.3 16.3L87.6 14.5L87.9 16.3L88.2 14.5L88.6 16.3L88.9 14.5L89.2 16.3L89.5 14.5L89.8 16.3L90.1 14.5L90.4 16.3L90.7 14.5L91 16.3L91.3 14.5L91.6 16.3L91.9 14.5L92.2 16.4L92.5 14.5L92.8 16.4L93.1 14.6L93.4 16.4L93.7 14.6L94 16.4L94.3 14.6L94.7 16.4L95 14.6L95.3 16.4L95.6 14.6L95.9 16.4L96.2 14.6L96.5 16.4L96.8 14.6L97.1 16.4" stroke="#676767" stroke-width="0.3547" stroke-miterlimit="22.9256" stroke-linejoin="round"/>
<path d="M105.8 95.4L104 95.1L105.8 94.8L104 94.5L105.8 94.2L104 93.9L105.8 93.6L104 93.3L105.8 93L104 92.7L105.8 92.4L104 92.1L105.8 91.8L104 91.5L105.9 91.2L104.1 90.9L105.9 90.6L104.1 90.2L105.9 89.9L104.1 89.6L105.9 89.3L104.1 89L105.9 88.7L104.1 88.4L105.9 88.1L104.1 87.8L105.9 87.5L104.1 87.2L105.9 86.9L104.1 86.6L105.9 86.3L104.1 86L105.9 85.7L104.1 85.4L105.9 85.1L104.1 84.8L105.9 84.4L104.1 84.1L105.9 83.8L104.1 83.5L105.9 83.2L104.1 82.9L105.9 82.6L104.1 82.3L105.9 82L104.1 81.7L106 81.4L104.1 81.1L106 80.8L104.2 80.5L106 80.2L104.2 79.9L106 79.6L104.2 79.3L106 78.9L104.2 78.6L106 78.3L104.2 78L106 77.7L104.2 77.4L106 77.1L104.2 76.8L106 76.5L104.2 76.2L106 75.9L104.2 75.6L106 75.3L104.2 75L106 74.7L104.2 74.4L106 74.1L104.2 73.8L106 73.5L104.2 73.2L106 72.9L104.2 72.5L106 72.2L104.2 71.9L106 71.6L104.2 71.3L106.1 71L104.3 70.7L106.1 70.4L104.3 70.1L106.1 69.8L104.3 69.5L106.1 69.2L104.3 68.9L106.1 68.6L104.3 68.3L106.1 68L104.3 67.7L106.1 67.4L104.3 67.1L106.1 66.8L104.3 66.4L106.1 66.1L104.3 65.8L106.1 65.5L104.3 65.2L106.1 64.9L104.3 64.6L106.1 64.3L104.3 64L106.1 63.7L104.3 63.4L106.1 63.1L104.3 62.8L106.1 62.5L104.3 62.2L106.1 61.9L104.3 61.5L106.1 61.2L104.3 60.9L106.1 60.6L104.3 60.3L106.1 60L104.3 59.7L106.1 59.4L104.3 59.1L106.1 58.8L104.3 58.5L106.1 58.2L104.3 57.9L106.1 57.6L104.3 57.3L106.1 57L104.3 56.7L106.2 56.4L104.4 56.1L106.1 55.8L104.3 55.4L106.2 55.1L104.4 54.8L106.2 54.5L104.4 54.2L106.2 53.9L104.4 53.6L106.2 53.3L104.4 53L106.2 52.7L104.4 52.4L106.2 52.1L104.4 51.8L106.2 51.5L104.4 51.2L106.2 50.9L104.4 50.6L106.2 50.3L104.4 50L106.2 49.7L104.4 49.3L106.2 49L104.4 48.7L106.2 48.4L104.4 48.1L106.2 47.8L104.4 47.5L106.2 47.2L104.4 46.9L106.3 46.6L104.4 46.3L106.3 46L104.4 45.7L106.3 45.4L104.5 45.1L106.3 44.8L104.5 44.5L106.3 44.2L104.5 43.9L106.3 43.5L104.5 43.2L106.3 42.9L104.5 42.6L106.3 42.3L104.5 42L106.3 41.7L104.5 41.4L106.3 41.1L104.5 40.8L106.3 40.5L104.5 40.2L106.3 39.9L104.5 39.6L106.3 39.3L104.5 39L106.3 38.7L104.5 38.4L106.3 38.1L104.5 37.8L106.3 37.4L104.5 37.1L106.3 36.8L104.5 36.5L106.3 36.2L104.5 35.9L106.4 35.6L104.6 35.3L106.4 35L104.6 34.7L106.4 34.4L104.6 34.1L106.4 33.8L104.6 33.5L106.4 33.2L104.6 32.9L106.4 32.6L104.6 32.3L106.4 32L104.6 31.7L106.4 31.3L104.6 31L106.4 30.7L104.6 30.4L106.4 30.1L104.6 29.8L106.4 29.5L104.6 29.2L106.4 28.9L104.6 28.6L106.4 28.3L104.6 28L106.4 27.7L104.6 27.4L106.4 27.1L104.6 26.8L106.5 26.5L104.6 26.2L106.5 25.9L104.7 25.6L106.5 25.2L104.7 24.9L106.5 24.6L104.7 24.3L106.5 24" stroke="#676767" stroke-width="0.356" stroke-miterlimit="22.9256" stroke-linejoin="round"/>
<path d="M49.8996 94.9L48.0996 94.6L49.8996 94.3L48.0996 94L49.8996 93.7L48.0996 93.4L49.8996 93.1L48.0996 92.8L49.8996 92.5L48.0996 92.1L49.8996 91.8L48.0996 91.5L49.8996 91.2L48.0996 90.9L49.8996 90.6L48.0996 90.3L49.8996 90L48.0996 89.7L49.8996 89.4L48.0996 89.1L49.8996 88.8L48.0996 88.5L49.8996 88.2L48.0996 87.9L49.8996 87.6L48.0996 87.3L49.9996 87L48.0996 86.7L49.9996 86.4L48.1996 86L49.9996 85.7L48.1996 85.4L49.9996 85.1L48.1996 84.8L49.9996 84.5L48.1996 84.2L49.9996 83.9L48.1996 83.6L49.9996 83.3L48.1996 83L49.9996 82.7L48.1996 82.4L49.9996 82.1L48.1996 81.8L49.9996 81.5L48.1996 81.2L49.9996 80.9L48.1996 80.5L49.9996 80.2L48.1996 79.9L49.9996 79.6L48.1996 79.3L49.9996 79L48.1996 78.7L49.9996 78.4L48.1996 78.1L49.9996 77.8L48.1996 77.5L49.9996 77.2L48.1996 76.9L50.0996 76.6L48.2996 76.3L50.0996 76L48.2996 75.7L50.0996 75.4L48.2996 75.1L50.0996 74.8L48.2996 74.5L50.0996 74.1L48.2996 73.8L50.0996 73.5L48.2996 73.2L50.0996 72.9L48.2996 72.6L50.0996 72.3L48.2996 72L50.0996 71.7L48.2996 71.4L50.0996 71.1L48.2996 70.8L50.0996 70.5L48.2996 70.2L50.0996 69.9L48.2996 69.6L50.0996 69.3L48.2996 69L50.0996 68.7L48.2996 68.3L50.0996 68L48.2996 67.7L50.0996 67.4L48.2996 67.1L50.1996 66.8L48.2996 66.5L50.1996 66.2L48.3996 65.9L50.1996 65.6L48.3996 65.3L50.1996 65L48.3996 64.7L50.1996 64.4L48.3996 64.1L50.1996 63.8L48.3996 63.5L50.1996 63.2L48.2996 62.8L50.0996 62.5L48.2996 62.2L50.0996 61.9L48.2996 61.6L50.1996 61.3L48.3996 61L50.1996 60.7L48.3996 60.4L50.1996 60.1L48.3996 59.8L50.1996 59.5L48.3996 59.2L50.1996 58.9L48.3996 58.6L50.1996 58.3L48.3996 58L50.1996 57.7L48.3996 57.4L50.1996 57.1L48.3996 56.7L50.1996 56.4L48.3996 56.1L50.1996 55.8L48.3996 55.5L50.1996 55.2L48.3996 54.9L50.1996 54.6L48.3996 54.3L50.1996 54L48.3996 53.7L50.1996 53.4L48.3996 53.1L50.1996 52.8L48.3996 52.5L50.2996 52.2L48.3996 51.9L50.2996 51.6L48.4996 51.3L50.2996 50.9L48.4996 50.6L50.2996 50.3L48.4996 50L50.2996 49.7L48.4996 49.4L50.2996 49.1L48.4996 48.8L50.2996 48.5L48.4996 48.2L50.2996 47.9L48.4996 47.6L50.2996 47.3L48.4996 47L50.2996 46.7L48.4996 46.4L50.2996 46.1L48.4996 45.8L50.2996 45.5L48.4996 45.2L50.2996 44.8L48.4996 44.5L50.2996 44.2L48.4996 43.9L50.2996 43.6L48.4996 43.3L50.2996 43L48.4996 42.7L50.3996 42.4L48.4996 42.1L50.3996 41.8L48.5996 41.5L50.3996 41.2L48.4996 40.9L50.3996 40.6L48.5996 40.3L50.3996 40L48.5996 39.7L50.3996 39.3L48.5996 39L50.3996 38.7L48.5996 38.4L50.3996 38.1L48.5996 37.8L50.3996 37.5L48.5996 37.2L50.3996 36.9L48.5996 36.6L50.3996 36.3L48.5996 36L50.3996 35.7L48.5996 35.4L50.3996 35.1L48.5996 34.8L50.3996 34.5L48.5996 34.2L50.3996 33.9L48.5996 33.6L50.3996 33.3L48.5996 32.9L50.3996 32.6L48.5996 32.3L50.4996 32L48.6996 31.7L50.4996 31.4L48.5996 31.1L50.4996 30.8L48.6996 30.5L50.4996 30.2L48.6996 29.9L50.4996 29.6L48.6996 29.3L50.4996 29L48.6996 28.7L50.4996 28.4L48.6996 28.1L50.4996 27.8L48.6996 27.5L50.4996 27.2L48.6996 26.8L50.4996 26.5L48.6996 26.2L50.4996 25.9L48.6996 25.6L50.4996 25.3L48.6996 25L50.4996 24.7L48.6996 24.4L50.4996 24.1" stroke="#676767" stroke-width="0.356" stroke-miterlimit="22.9256" stroke-linejoin="round"/>
<path d="M58.0996 103.9L58.3996 102.1L58.6996 103.9L58.9996 102.1L59.2996 103.9L59.5996 102.1L59.8996 103.9L60.1996 102.1L60.5996 103.9L60.8996 102.1L61.1996 103.9L61.4996 102.1L61.7996 103.9L62.0996 102.1L62.3996 103.9L62.6996 102.1L62.9996 104L63.2996 102.1L63.5996 104L63.8996 102.2L64.1996 104L64.4996 102.2L64.7996 104L65.0996 102.2L65.3996 104L65.6996 102.2L65.9996 104L66.2996 102.2L66.6996 104L66.9996 102.2L67.2996 104L67.5996 102.2L67.8996 104L68.1996 102.2L68.4996 104L68.7996 102.2L69.0996 104L69.3996 102.2L69.6996 104L69.9996 102.2L70.2996 104L70.5996 102.2L70.8996 104L71.1996 102.2L71.4996 104L71.7996 102.2L72.0996 104L72.3996 102.2L72.7996 104.1L73.0996 102.2L73.3996 104.1L73.6996 102.3L73.9996 104.1L74.2996 102.3L74.5996 104.1L74.8996 102.3L75.1996 104.1L75.4996 102.3L75.7996 104.1L76.0996 102.3L76.3996 104.1L76.6996 102.3L76.9996 104.1L77.2996 102.3L77.5996 104.1L77.8996 102.3L78.2996 104.1L78.5996 102.3L78.8996 104.1L79.1996 102.3L79.4996 104.1L79.7996 102.3L80.0996 104.1L80.3996 102.3L80.6996 104.1L80.9996 102.3L81.2996 104.1L81.5996 102.3L81.8996 104.1L82.1996 102.3L82.4996 104.2L82.7996 102.3L83.0996 104.2L83.3996 102.4L83.6996 104.2L83.9996 102.4L84.3996 104.2L84.6996 102.4L84.9996 104.2L85.2996 102.4L85.5996 104.2L85.8996 102.4L86.1996 104.2L86.4996 102.4L86.7996 104.2L87.0996 102.4L87.3996 104.2L87.6996 102.4L87.9996 104.2L88.2996 102.4L88.5996 104.2L88.8996 102.4L89.1996 104.2L89.4996 102.4L89.7996 104.2L90.0996 102.4L90.3996 104.2L90.7996 102.4L91.0996 104.2L91.3996 102.4L91.6996 104.2L91.9996 102.4L92.2996 104.2L92.5996 102.4L92.8996 104.3L93.1996 102.5L93.4996 104.3L93.7996 102.5L94.0996 104.3L94.3996 102.5L94.6996 104.3L94.9996 102.5L95.2996 104.3L95.5996 102.5L95.8996 104.3L96.1996 102.5L96.5996 104.3L96.8996 102.5L97.1996 104.3" stroke="#676767" stroke-width="0.3547" stroke-miterlimit="22.9256" stroke-linejoin="round"/>
<path d="M95.4004 103.3L96.9004 104.4L95.8004 102.9L97.3004 103.9L96.2004 102.5L97.8004 103.5L96.7004 102L98.2004 103L97.1004 101.6L98.6004 102.6L97.5004 101.1L99.0004 102.2L97.9004 100.7L99.5004 101.7L98.4004 100.3L99.9004 101.3L98.8004 99.8L100.3 100.8L99.2004 99.4L100.7 100.4L99.6004 98.9L101.2 100L100.1 98.5L101.6 99.5L100.5 98.1L102 99.1L100.9 97.6L102.4 98.6L101.3 97.2L102.8 98.2L101.8 96.7L103.3 97.8L102.2 96.3L103.7 97.3L102.6 95.9L104.1 96.9L103 95.4L104.6 96.5L103.4 95L105 96L103.9 94.6L105.4 95.6L104.3 94.1L105.8 95.1L104.7 93.7" stroke="#676767" stroke-width="0.3548" stroke-miterlimit="22.9256" stroke-linejoin="round"/>
<path d="M59.1002 103.2L57.6002 104.2L58.7002 102.7L57.1002 103.7L58.2002 102.3L56.7002 103.3L57.8002 101.8L56.3002 102.9L57.4002 101.4L55.9002 102.4L57.0002 101L55.5002 102L56.6002 100.5L55.0002 101.6L56.1002 100.1L54.6002 101.1L55.7002 99.7L54.2002 100.7L55.3002 99.2L53.8002 100.2L54.9002 98.8L53.3002 99.8L54.4002 98.3L52.9002 99.4L54.0002 97.9L52.5002 98.9L53.6002 97.5L52.1002 98.5L53.2002 97L51.6002 98L52.7002 96.6L51.2002 97.6L52.3002 96.1L50.8002 97.2L51.9002 95.7L50.4002 96.7L51.5002 95.3L49.9002 96.3L51.0002 94.8L49.5002 95.8L50.6002 94.4L49.1002 95.4L50.2002 93.9L48.7002 95L49.8002 93.5" stroke="#676767" stroke-width="0.3548" stroke-miterlimit="22.9256" stroke-linejoin="round"/>
<path d="M106.9 24.4L105.4 25.5L106.5 24L105 25L106.1 23.6L104.5 24.6L105.6 23.1L104.1 24.1L105.2 22.7L103.7 23.7L104.8 22.2L103.3 23.3L104.4 21.8L102.8 22.8L103.9 21.4L102.4 22.4L103.5 20.9L102 22L103.1 20.5L101.6 21.5L102.7 20.1L101.1 21.1L102.2 19.6L100.7 20.6L101.8 19.2L100.3 20.2L101.4 18.7L99.9 19.8L101 18.3L99.4 19.3L100.5 17.9L99 18.9L100.1 17.4L98.6 18.4L99.7 17L98.2 18L99.3 16.6L97.7 17.6L98.9 16.1L97.3 17.1L98.4 15.7L96.9 16.7L98 15.2L96.5 16.3L97.6 14.8" stroke="#676767" stroke-width="0.3548" stroke-miterlimit="22.9256" stroke-linejoin="round"/>
<path d="M48.9004 23.9L50.4004 24.9L49.3004 23.5L50.8004 24.5L49.7004 23L51.2004 24.1L50.1004 22.6L51.7004 23.6L50.6004 22.2L52.1004 23.2L51.0004 21.7L52.5004 22.7L51.4004 21.3L52.9004 22.3L51.8004 20.8L53.4004 21.9L52.3004 20.4L53.8004 21.4L52.7004 20L54.2004 21L53.1004 19.5L54.6004 20.6L53.5004 19.1L55.1004 20.1L54.0004 18.7L55.5004 19.7L54.4004 18.2L55.9004 19.2L54.8004 17.8L56.3004 18.8L55.2004 17.3L56.8004 18.4L55.7004 16.9L57.2004 17.9L56.1004 16.5L57.6004 17.5L56.5004 16L58.0004 17.1L56.9004 15.6L58.5004 16.6L57.4004 15.1L58.9004 16.2L57.8004 14.7L59.3004 15.7L58.2004 14.3" stroke="#676767" stroke-width="0.3548" stroke-miterlimit="22.9256" stroke-linejoin="round"/>
<path d="M36.0998 86L34.2998 85.7L36.0998 85.4L34.2998 85.1L36.0998 84.8L34.2998 84.5L36.0998 84.2L34.2998 83.9L36.0998 83.6L34.2998 83.3L36.1998 83L34.3998 82.7L36.1998 82.4L34.3998 82L36.1998 81.7L34.3998 81.4L36.1998 81.1L34.3998 80.8L36.1998 80.5L34.3998 80.2L36.1998 79.9L34.3998 79.6L36.1998 79.3L34.3998 79L36.1998 78.6999L34.3998 78.4L36.1998 78.0999L34.3998 77.8L36.1998 77.5L34.3998 77.1999L36.1998 76.9L34.3998 76.5999L36.1998 76.3L34.3998 76L36.1998 75.5999L34.3998 75.3L36.1998 75L34.3998 74.6999L36.1998 74.4L34.3998 74.0999L36.1998 73.8L34.3998 73.5L36.2998 73.1999L34.4998 72.9L36.2998 72.5999L34.4998 72.3L36.2998 72L34.4998 71.6999L36.2998 71.4L34.4998 71.0999L36.2998 70.8L34.4998 70.5L36.2998 70.0999L34.4998 69.8L36.2998 69.5L34.4998 69.1999L36.2998 68.9L34.4998 68.5999L36.2998 68.3L34.4998 68L36.2998 67.6999L34.4998 67.4L36.2998 67.0999L34.4998 66.8L36.2998 66.5L34.4998 66.1999L36.2998 65.9L34.4998 65.5999L36.2998 65.3L34.4998 65L36.2998 64.6999L34.4998 64.4L36.2998 64.0999L34.4998 63.7L36.3998 63.4L34.5998 63.0999L36.3998 62.7999L34.5998 62.5L36.3998 62.2L34.5998 61.9L36.3998 61.5999L34.5998 61.2999L36.3998 61L34.5998 60.7L36.3998 60.4L34.5998 60.0999L36.3998 59.7999L34.5998 59.5L36.3998 59.2L34.5998 58.9L36.3998 58.5999L34.5998 58.2999L36.3998 58L34.5998 57.5999L36.3998 57.2999L34.5998 57L36.3998 56.7L34.5998 56.4L36.3998 56.0999L34.5998 55.7999L36.3998 55.5L34.5998 55.2L36.3998 54.9L34.5998 54.5999L36.3998 54.2999L34.5998 54L36.3998 53.7L34.5998 53.4L36.3998 53.0999L34.5998 52.7L36.3998 52.4L34.5998 52.0999L36.3998 51.7999L34.5998 51.5L36.3998 51.2L34.5998 50.9L36.3998 50.5999L34.5998 50.2999L36.3998 50L34.5998 49.7L36.3998 49.4L34.5998 49.0999L36.3998 48.7999L34.5998 48.5L36.4998 48.2L34.5998 47.9L36.4998 47.5999L34.6998 47.2999L36.4998 47L34.6998 46.5999L36.4998 46.2999L34.6998 46L36.4998 45.7L34.6998 45.4L36.4998 45.0999L34.6998 44.7999L36.4998 44.5L34.6998 44.2L36.4998 43.9L34.6998 43.5999L36.4998 43.2999L34.6998 43L36.4998 42.7L34.6998 42.4L36.4998 42.0999L34.6998 41.7999L36.4998 41.5L34.6998 41.2L36.4998 40.7999L34.6998 40.5L36.4998 40.2L34.6998 39.9L36.4998 39.5999L34.6998 39.2999L36.4998 39L34.6998 38.7L36.5998 38.4L34.6998 38.0999L36.5998 37.7999L34.7998 37.5L36.5998 37.2L34.7998 36.9L36.5998 36.5999L34.7998 36.2999L36.5998 36L34.7998 35.7L36.5998 35.4L34.7998 35.0999L36.5998 34.7L34.7998 34.4L36.5998 34.0999L34.7998 33.7999L36.5998 33.5L34.7998 33.2L36.5998 32.9L34.7998 32.5999L36.5998 32.2999L34.7998 32L36.5998 31.7L34.7998 31.4L36.5998 31.1L34.7998 30.8L36.5998 30.5L34.7998 30.2L36.5998 29.9L34.7998 29.6L36.5998 29.3L34.7998 29L36.6998 28.6L34.7998 28.3L36.6998 28L34.8998 27.7L36.6998 27.4L34.8998 27.1L36.6998 26.8L34.8998 26.5L36.6998 26.2L34.8998 25.9L36.6998 25.6L34.8998 25.3L36.6998 25L34.8998 24.7L36.6998 24.4L34.8998 24.1L36.6998 23.8L34.8998 23.5L36.6998 23.2L34.8998 22.8L36.6998 22.5L34.8998 22.2L36.6998 21.9L34.8998 21.6L36.6998 21.3L34.8998 21L36.6998 20.7L34.8998 20.4L36.6998 20.1L34.8998 19.8L36.6998 19.5L34.8998 19.2L36.6998 18.9L34.8998 18.6L36.7998 18.3L34.9998 18L36.7998 17.7L34.8998 17.4L36.7998 17.1L34.9998 16.8L36.7998 16.4L34.9998 16.1L36.7998 15.8L34.9998 15.5L36.7998 15.2" stroke="#676767" stroke-width="0.356" stroke-miterlimit="22.9256" stroke-linejoin="round"/>
<path d="M18.3996 86.2L16.5996 85.9L18.3996 85.6L16.5996 85.3L18.3996 85L16.5996 84.7L18.3996 84.4L16.5996 84.1L18.3996 83.8L16.5996 83.5L18.3996 83.2L16.5996 82.9L18.3996 82.6L16.5996 82.3L18.3996 82L16.5996 81.7L18.3996 81.4L16.5996 81L18.3996 80.7L16.5996 80.4L18.4996 80.1L16.5996 79.8L18.4996 79.5L16.6996 79.2L18.4996 78.9L16.6996 78.6L18.4996 78.3L16.6996 78L18.4996 77.7L16.6996 77.4L18.4996 77.1L16.6996 76.8L18.4996 76.5L16.6996 76.2L18.4996 75.9L16.6996 75.6L18.4996 75.3L16.6996 75L18.4996 74.6L16.6996 74.3L18.4996 74L16.6996 73.7L18.4996 73.4L16.6996 73.1L18.4996 72.8L16.6996 72.5L18.4996 72.2L16.6996 71.9L18.4996 71.6L16.6996 71.3L18.4996 71L16.6996 70.7L18.4996 70.4L16.6996 70.1L18.4996 69.8L16.6996 69.4L18.4996 69.1L16.6996 68.8L18.4996 68.5L16.6996 68.2L18.4996 67.9L16.6996 67.6L18.4996 67.3L16.6996 67L18.4996 66.7L16.6996 66.4L18.4996 66.1L16.7996 65.8L18.5996 65.5L16.6996 65.2L18.5996 64.9L16.7996 64.6L18.5996 64.3L16.7996 64L18.5996 63.6L16.7996 63.3L18.5996 63L16.7996 62.7L18.5996 62.4L16.7996 62.1L18.5996 61.8L16.7996 61.5L18.5996 61.2L16.7996 60.9L18.5996 60.6L16.7996 60.3L18.5996 60L16.7996 59.7L18.5996 59.4L16.7996 59.1L18.5996 58.8L16.7996 58.5L18.5996 58.2L16.7996 57.9L18.5996 57.5L16.7996 57.2L18.5996 56.9L16.7996 56.6L18.5996 56.3L16.7996 56L18.6996 55.7L16.7996 55.4L18.6996 55.1L16.8996 54.8L18.6996 54.5L16.8996 54.2L18.6996 53.9L16.8996 53.6L18.6996 53.3L16.8996 53L18.6996 52.7L16.8996 52.4L18.6996 52.1L16.8996 51.7L18.6996 51.4L16.8996 51.1L18.6996 50.8L16.8996 50.5L18.6996 50.2L16.8996 49.9L18.6996 49.6L16.8996 49.3L18.6996 49L16.8996 48.7L18.6996 48.4L16.8996 48.1L18.6996 47.8L16.8996 47.5L18.6996 47.2L16.8996 46.9L18.6996 46.6L16.8996 46.3L18.7996 46L16.8996 45.6L18.7996 45.3L16.9996 45L18.7996 44.7L16.9996 44.4L18.7996 44.1L16.9996 43.8L18.7996 43.5L16.9996 43.2L18.7996 42.9L16.9996 42.6L18.7996 42.3L16.9996 42L18.7996 41.7L16.9996 41.4L18.7996 41.1L16.9996 40.8L18.7996 40.5L16.9996 40.2L18.7996 39.9L16.9996 39.5L18.7996 39.2L16.9996 38.9L18.7996 38.6L16.9996 38.3L18.7996 38L16.9996 37.7L18.7996 37.4L16.9996 37.1L18.7996 36.8L16.9996 36.5L18.7996 36.2L16.9996 35.9L18.8996 35.6L17.0996 35.3L18.8996 35" stroke="#676767" stroke-width="0.356" stroke-miterlimit="22.9256" stroke-linejoin="round"/>
<path d="M12.2002 36L14.0002 35.7L12.2002 35.4L14.1002 35.1L12.2002 34.8L14.1002 34.5L12.3002 34.2L14.1002 33.9L12.3002 33.6L14.1002 33.3L12.3002 33L14.1002 32.7L12.3002 32.4L14.1002 32.1L12.3002 31.8L14.1002 31.5L12.3002 31.2L14.1002 30.9L12.3002 30.6L14.1002 30.3L12.3002 29.9L14.1002 29.6L12.3002 29.3L14.1002 29L12.3002 28.7L14.1002 28.4L12.3002 28.1L14.1002 27.8L12.3002 27.5L14.1002 27.2L12.3002 26.9L14.1002 26.6L12.3002 26.3L14.1002 26" stroke="#676767" stroke-width="0.356" stroke-miterlimit="22.9256" stroke-linejoin="round"/>
<path d="M12.4004 103.5L14.2004 103.2L12.4004 102.9L14.2004 102.6L12.4004 102.3L14.2004 102L12.4004 101.7L14.2004 101.4L12.4004 101L14.2004 100.7L12.4004 100.4L14.3004 100.1L12.4004 99.8L14.3004 99.5L12.5004 99.2L14.3004 98.9L12.5004 98.6L14.3004 98.3L12.5004 98L14.3004 97.7L12.5004 97.4L14.3004 97.1L12.5004 96.8L14.3004 96.5L12.5004 96.2L14.3004 95.9L12.5004 95.6L14.3004 95.3L12.5004 94.9L14.3004 94.6L12.5004 94.3L14.3004 94L12.5004 93.7L14.3004 93.4L12.5004 93.1L14.3004 92.8L12.5004 92.5L14.3004 92.2L12.5004 91.9L14.3004 91.6L12.5004 91.3L14.3004 91L12.5004 90.7L14.3004 90.4L12.5004 90.1L14.4004 89.8L12.6004 89.5L14.4004 89.2L12.6004 88.8L14.4004 88.5L12.6004 88.2L14.4004 87.9L12.6004 87.6L14.4004 87.3L12.6004 87L14.4004 86.7L12.6004 86.4L14.4004 86.1L12.6004 85.8L14.4004 85.5" stroke="#676767" stroke-width="0.356" stroke-miterlimit="22.9256" stroke-linejoin="round"/>
<path d="M39 103.4L40.8 103.1L39 102.8L40.9 102.5L39 102.2L40.8 101.9L39 101.6L40.9 101.3L39 101L40.9 100.7L39.1 100.4L40.9 100.1L39.1 99.8L40.9 99.5L39.1 99.2L40.9 98.9L39.1 98.6L40.9 98.2L39.1 97.9L40.9 97.6L39.1 97.3L40.9 97L39.1 96.7L40.9 96.4L39.1 96.1L40.9 95.8L39.1 95.5L40.9 95.2L39.1 94.9L40.9 94.6L39.1 94.3L40.9 94L39.1 93.7L40.9 93.4L39.1 93.1L40.9 92.8L39.1 92.4L40.9 92.1L39.1 91.8L41 91.5L39.1 91.2L41 90.9L39.2 90.6L41 90.3L39.2 90L41 89.7L39.2 89.4L41 89.1L39.2 88.8L41 88.5L39.2 88.2L41 87.9L39.2 87.6L41 87.3L39.2 87L41 86.7L39.2 86.4L41 86L39.2 85.7L41 85.4" stroke="#676767" stroke-width="0.356" stroke-miterlimit="22.9256" stroke-linejoin="round"/>
<path d="M12.7002 103.9L13.1002 102.1L13.4002 103.9L13.7002 102.1L14.0002 103.9L14.3002 102.1L14.6002 103.9L14.9002 102.1L15.2002 103.9L15.5002 102.1L15.8002 103.9L16.1002 102.1L16.4002 103.9L16.7002 102.1L17.0002 103.9L17.3002 102.1L17.6002 103.9L17.9002 102.1L18.2002 103.9L18.5002 102.1L18.8002 103.9L19.2002 102.1L19.5002 103.9L19.8002 102.1L20.1002 103.9L20.4002 102.1L20.7002 103.9L21.0002 102.2L21.3002 104L21.6002 102.1L21.9002 104L22.2002 102.2L22.5002 104L22.8002 102.2L23.1002 104L23.4002 102.2L23.7002 104L24.0002 102.2L24.3002 104L24.6002 102.2L25.0002 104L25.3002 102.2L25.6002 104L25.9002 102.2L26.2002 104L26.5002 102.2L26.8002 104L27.1002 102.2L27.4002 104L27.7002 102.2L28.0002 104L28.3002 102.2L28.6002 104L28.9002 102.2L29.2002 104L29.5002 102.2L29.8002 104.1L30.1002 102.2L30.4002 104L30.7002 102.2L31.1002 104.1L31.4002 102.2L31.7002 104.1L32.0002 102.3L32.3002 104.1L32.6002 102.3L32.9002 104.1L33.2002 102.3L33.5002 104.1L33.8002 102.3L34.1002 104.1L34.4002 102.3L34.7002 104.1L35.0002 102.3L35.3002 104.1L35.6002 102.3L35.9002 104.1L36.2002 102.3L36.5002 104.1L36.9002 102.3L37.2002 104.1L37.5002 102.3L37.8002 104.1L38.1002 102.3L38.4002 104.1L38.7002 102.3L39.0002 104.1L39.3002 102.3L39.6002 104.1L39.9002 102.3L40.2002 104.1L40.5002 102.3" stroke="#676767" stroke-width="0.3547" stroke-miterlimit="22.9256" stroke-linejoin="round"/>
<path d="M22.9004 16.1L23.2004 14.3L23.5004 16.1L23.8004 14.3L24.1004 16.1L24.4004 14.3L24.7004 16.1L25.0004 14.3L25.3004 16.1L25.6004 14.3L25.9004 16.1L26.2004 14.3L26.6004 16.1L26.9004 14.3L27.2004 16.1L27.5004 14.3L27.8004 16.1L28.1004 14.3L28.4004 16.1L28.7004 14.3L29.0004 16.1L29.3004 14.3L29.6004 16.1L29.9004 14.3L30.2004 16.1L30.5004 14.3L30.8004 16.1L31.1004 14.3L31.4004 16.1L31.7004 14.3L32.0004 16.2L32.4004 14.3L32.7004 16.2L33.0004 14.4L33.3004 16.2L33.6004 14.4L33.9004 16.2L34.2004 14.4L34.5004 16.2L34.8004 14.4L35.1004 16.2L35.4004 14.4L35.7004 16.2L36.0004 14.4L36.3004 16.2L36.6004 14.4" stroke="#676767" stroke-width="0.3547" stroke-miterlimit="22.9256" stroke-linejoin="round"/>
<path d="M13.4998 27.4L12.2998 26L13.8998 27L12.6998 25.5L14.2998 26.5L13.0998 25.1L14.6998 26.1L13.5998 24.6L15.0998 25.6L13.9998 24.2L15.4998 25.2L14.3998 23.7L15.8998 24.7L14.7998 23.3L16.2998 24.3L15.1998 22.8L16.7998 23.8L15.5998 22.4L17.1998 23.4L15.9998 21.9L17.5998 22.9L16.3998 21.5L17.9998 22.5L16.7998 21L18.3998 22L17.2998 20.6L18.7998 21.6L17.6998 20.1L19.1998 21.1L18.0998 19.7L19.5998 20.6L18.4998 19.2L19.9998 20.2L18.8998 18.8L20.3998 19.7L19.2998 18.3L20.8998 19.3L19.6998 17.9L21.2998 18.8L20.0998 17.4L21.6998 18.4L20.4998 17L22.0998 17.9L20.8998 16.5L22.4998 17.5L21.3998 16.1L22.8998 17L21.7998 15.6L23.2998 16.6L22.1998 15.2L23.6998 16.1L22.5998 14.7L24.0998 15.7L22.9998 14.3L24.4998 15.2" stroke="#676767" stroke-width="0.356" stroke-miterlimit="22.9256" stroke-linejoin="round"/>
<path d="M18.6996 36.3L18.3996 34.5L18.0996 36.3L17.7996 34.5L17.4996 36.3L17.1996 34.5L16.8996 36.3L16.5996 34.5L16.2996 36.3L15.9996 34.4L15.6996 36.3L15.3996 34.4L15.0996 36.2L14.7996 34.4L14.4996 36.2L14.1996 34.4L13.8996 36.2L13.5996 34.4L13.2996 36.2L12.8996 34.4L12.5996 36.2" stroke="#676767" stroke-width="0.356" stroke-miterlimit="22.9256" stroke-linejoin="round"/>
<path d="M12.7998 86.9L13.0998 85L13.3998 86.8L13.6998 85L13.9998 86.8L14.2998 85L14.5998 86.8L14.8998 85L15.2998 86.8L15.5998 85L15.8998 86.8L16.1998 85L16.4998 86.8L16.7998 85L17.0998 86.8L17.3998 85L17.6998 86.8L17.9998 85L18.2998 86.8" stroke="#676767" stroke-width="0.356" stroke-miterlimit="22.9256" stroke-linejoin="round"/>
<path d="M34.9004 86.6L35.2004 84.8L35.5004 86.6L35.8004 84.8L36.2004 86.6L36.5004 84.8L36.8004 86.6L37.1004 84.8L37.4004 86.6L37.7004 84.8L38.0004 86.6L38.3004 84.8L38.6004 86.6L38.9004 84.8L39.2004 86.6L39.5004 84.8L39.8004 86.6L40.1004 84.8L40.4004 86.6" stroke="#676767" stroke-width="0.356" stroke-miterlimit="22.9256" stroke-linejoin="round"/>
<path d="M59.0996 20L59.3996 18.2L59.6996 20L59.9996 18.2L60.2996 20L60.5996 18.2L60.8996 20L61.1996 18.2L61.4996 20L61.7996 18.2L62.0996 20L62.3996 18.2L62.6996 20L62.9996 18.2L63.2996 20L63.5996 18.2L63.9996 20L64.2996 18.2L64.5996 20L64.8996 18.2L65.1996 20L65.4996 18.2L65.7996 20L66.0996 18.2L66.3996 20L66.6996 18.2L66.9996 20L67.2996 18.2L67.5996 20.1L67.8996 18.2L68.1996 20.1L68.4996 18.2999L68.7996 20.1L69.0996 18.2999L69.4996 20.1L69.7996 18.2999L70.0996 20.1L70.3996 18.2999L70.6996 20.1L70.9996 18.2999L71.2996 20.1L71.5996 18.2999L71.8996 20.1L72.1996 18.2999L72.4996 20.1L72.7996 18.2999L73.0996 20.1L73.3996 18.2999L73.6996 20.1L73.9996 18.2999L74.2996 20.1L74.5996 18.2999L74.8996 20.1L75.1996 18.2999L75.4996 20.1L75.7996 18.2999L76.1996 20.1L76.4996 18.2999L76.7996 20.1L77.0996 18.2999L77.3996 20.2L77.6996 18.2999L77.9996 20.2L78.2996 18.4L78.5996 20.2L78.8996 18.4L79.1996 20.2L79.4996 18.4L79.7996 20.2L80.0996 18.4L80.3996 20.2L80.6996 18.4L80.9996 20.2L81.2996 18.4L81.6996 20.2L81.9996 18.4L82.2996 20.2L82.5996 18.4L82.8996 20.2L83.1996 18.4L83.4996 20.2L83.7996 18.4L84.0996 20.2L84.3996 18.4L84.6996 20.2L84.9996 18.4L85.2996 20.2L85.5996 18.4L85.8996 20.2L86.1996 18.4L86.4996 20.2L86.7996 18.4L87.0996 20.2L87.3996 18.4L87.7996 20.2999L88.0996 18.4L88.3996 20.2999L88.6996 18.5L88.9996 20.2999L89.2996 18.5L89.5996 20.2999L89.8996 18.5L90.1996 20.2999L90.4996 18.5L90.7996 20.2999L91.0996 18.5L91.3996 20.2999L91.6996 18.5L91.9996 20.2999L92.2996 18.5L92.5996 20.2999L92.8996 18.5L93.1996 20.2999L93.4996 18.5L93.7996 20.2999L94.1996 18.5L94.4996 20.2999L94.7996 18.5L95.0996 20.2999L95.3996 18.5" stroke="#676767" stroke-width="0.3547" stroke-miterlimit="22.9256" stroke-linejoin="round"/>
<path d="M101.6 27.1L102.7 25.7L101.2 26.7L102.3 25.2L100.8 26.2999L101.9 24.7999L100.4 25.7999L101.5 24.4L99.9004 25.4L101 23.9L99.5004 24.9L100.6 23.5L99.1004 24.5L100.2 23L98.7004 24.1L99.8004 22.6L98.3004 23.6L99.4004 22.2L97.8004 23.2L98.9004 21.7L97.4004 22.7L98.5004 21.2999L97.0004 22.2999L98.1004 20.9L96.6004 21.9L97.7004 20.4L96.1004 21.4L97.2004 20L95.7004 21L96.8004 19.5L95.3004 20.6L96.4004 19.1L94.9004 20.1L96.0004 18.7L94.4004 19.7" stroke="#676767" stroke-width="0.3548" stroke-miterlimit="22.9256" stroke-linejoin="round"/>
<path d="M102.2 94.1L100.4 93.8L102.2 93.5L100.4 93.1L102.2 92.8L100.4 92.5L102.2 92.2L100.4 91.9L102.2 91.6L100.4 91.3L102.2 91L100.4 90.7L102.2 90.4L100.4 90.1L102.2 89.8L100.4 89.5L102.2 89.2L100.4 88.9L102.2 88.6L100.4 88.3L102.2 88L100.4 87.7L102.2 87.4L100.4 87L102.3 86.7L100.5 86.4L102.3 86.1L100.5 85.8L102.3 85.5L100.5 85.2L102.3 84.9L100.5 84.6L102.3 84.3L100.5 84L102.3 83.7L100.5 83.4L102.3 83.1L100.5 82.8L102.3 82.5L100.5 82.2L102.3 81.9L100.5 81.6L102.3 81.2L100.5 80.9L102.3 80.6L100.5 80.3L102.3 80L100.5 79.7L102.3 79.4L100.5 79.1L102.3 78.8L100.5 78.5L102.3 78.2L100.5 77.9L102.4 77.6L100.5 77.3L102.4 77L100.6 76.7L102.4 76.4L100.5 76.1L102.4 75.8L100.6 75.5L102.4 75.1L100.6 74.8L102.4 74.5L100.6 74.2L102.4 73.9L100.6 73.6L102.4 73.3L100.6 73L102.4 72.7L100.6 72.4L102.4 72.1L100.6 71.8L102.4 71.5L100.6 71.2L102.4 70.9L100.6 70.6L102.4 70.3L100.6 70L102.4 69.7L100.6 69.4L102.4 69L100.6 68.7L102.4 68.4L100.6 68.1L102.4 67.8L100.6 67.5L102.5 67.2L100.7 66.9L102.5 66.6L100.6 66.3L102.5 66L100.7 65.7L102.5 65.4L100.7 65.1L102.5 64.8L100.7 64.5L102.5 64.2L100.6 63.8L102.4 63.5L100.6 63.2L102.4 62.9L100.6 62.6L102.4 62.3L100.6 62L102.4 61.7L100.6 61.4L102.5 61.1L100.7 60.8L102.5 60.5L100.7 60.2L102.5 59.9L100.7 59.6L102.5 59.3L100.7 59L102.5 58.7L100.7 58.4L102.5 58.1L100.7 57.7L102.5 57.4L100.7 57.1L102.5 56.8L100.7 56.5L102.5 56.2L100.7 55.9L102.5 55.6L100.7 55.3L102.5 55L100.7 54.7L102.5 54.4L100.7 54.1L102.5 53.8L100.7 53.5L102.5 53.2L100.7 52.9L102.6 52.6L100.7 52.3L102.6 51.9L100.7 51.6L102.6 51.3L100.8 51L102.6 50.7L100.8 50.4L102.6 50.1L100.8 49.8L102.6 49.5L100.8 49.2L102.6 48.9L100.8 48.6L102.6 48.3L100.8 48L102.6 47.7L100.8 47.4L102.6 47.1L100.8 46.8L102.6 46.5L100.8 46.2L102.6 45.8L100.8 45.5L102.6 45.2L100.8 44.9L102.6 44.6L100.8 44.3L102.6 44L100.8 43.7L102.6 43.4L100.8 43.1L102.6 42.8L100.8 42.5L102.7 42.2L100.8 41.9L102.7 41.6L100.9 41.3L102.7 41L100.9 40.7L102.7 40.3L100.9 40L102.7 39.7L100.9 39.4L102.7 39.1L100.9 38.8L102.7 38.5L100.9 38.2L102.7 37.9L100.9 37.6L102.7 37.3L100.9 37L102.7 36.7L100.9 36.4L102.7 36.1L100.9 35.8L102.7 35.5L100.9 35.2L102.7 34.9L100.9 34.6L102.7 34.3L100.9 33.9L102.7 33.6L100.9 33.3L102.7 33L100.9 32.7L102.7 32.4L100.9 32.1L102.8 31.8L100.9 31.5L102.8 31.2L101 30.9L102.8 30.6L101 30.3L102.8 30L101 29.7L102.8 29.4L101 29.1L102.8 28.8L101 28.5L102.8 28.2L101 27.8L102.8 27.5L101 27.2L102.8 26.9L101 26.6L102.8 26.3L101 26L102.8 25.7L101 25.4" stroke="#676767" stroke-width="0.356" stroke-miterlimit="22.9256" stroke-linejoin="round"/>
<path d="M94.9004 99L96.5004 100L95.4004 98.5L96.9004 99.6L95.8004 98.1L97.3004 99.1L96.2004 97.7L97.7004 98.7L96.6004 97.2L98.1004 98.2L97.0004 96.8L98.6004 97.8L97.5004 96.3L99.0004 97.4L97.9004 95.9L99.4004 96.9L98.3004 95.5L99.8004 96.5L98.7004 95L100.3 96L99.2004 94.6L100.7 95.6L99.6004 94.1L101.1 95.2L100 93.7L101.5 94.7L100.4 93.3L102 94.3L100.9 92.8L102.4 93.9L101.3 92.4" stroke="#676767" stroke-width="0.3548" stroke-miterlimit="22.9256" stroke-linejoin="round"/>
<path d="M59.2002 98.2L59.5002 100L59.8002 98.2L60.2002 100.1L60.5002 98.3L60.8002 100.1L61.1002 98.3L61.4002 100.1L61.7002 98.3L62.0002 100.1L62.3002 98.3L62.6002 100.1L62.9002 98.3L63.2002 100.1L63.5002 98.3L63.8002 100.1L64.1002 98.3L64.4002 100.1L64.7002 98.3L65.0002 100.1L65.3002 98.3L65.6002 100.1L65.9002 98.3L66.3002 100.1L66.6002 98.3L66.9002 100.1L67.2002 98.3L67.5002 100.1L67.8002 98.3L68.1002 100.1L68.4002 98.3L68.7002 100.1L69.0002 98.3L69.3002 100.2L69.6002 98.3L69.9002 100.2L70.2002 98.3L70.5002 100.2L70.8002 98.4L71.1002 100.2L71.4002 98.4L71.7002 100.2L72.0002 98.4L72.4002 100.2L72.7002 98.4L73.0002 100.2L73.3002 98.4L73.6002 100.2L73.9002 98.4L74.2002 100.2L74.5002 98.4L74.8002 100.2L75.1002 98.4L75.4002 100.2L75.7002 98.4L76.0002 100.2L76.3002 98.4L76.6002 100.2L76.9002 98.4L77.2002 100.2L77.5002 98.4L77.9002 100.2L78.2002 98.4L78.5002 100.2L78.8002 98.4L79.1002 100.3L79.4002 98.4L79.7002 100.2L80.0002 98.4L80.3002 100.3L80.6002 98.5L80.9002 100.3L81.2002 98.5L81.5002 100.3L81.8002 98.5L82.1002 100.3L82.4002 98.5L82.7002 100.3L83.0002 98.5L83.3002 100.3L83.6002 98.5L83.9002 100.3L84.3002 98.5L84.6002 100.3L84.9002 98.5L85.2002 100.3L85.5002 98.5L85.8002 100.3L86.1002 98.5L86.4002 100.3L86.7002 98.5L87.0002 100.3L87.3002 98.5L87.6002 100.3L87.9002 98.5L88.2002 100.3L88.5002 98.5L88.8002 100.3L89.1002 98.5L89.4002 100.3L89.7002 98.5L90.1002 100.4L90.4002 98.5L90.7002 100.4L91.0002 98.6L91.3002 100.4L91.6002 98.6L91.9002 100.4L92.2002 98.6L92.5002 100.4L92.8002 98.6L93.1002 100.4L93.4002 98.6L93.7002 100.4L94.0002 98.6L94.3002 100.4L94.6002 98.6L94.9002 100.4L95.2002 98.6L95.5002 100.4L95.8002 98.6L96.2002 100.4" stroke="#676767" stroke-width="0.3547" stroke-miterlimit="22.9256" stroke-linejoin="round"/>
<path d="M60.5998 99.2L59.0998 100.3L60.1998 98.8L58.6998 99.8L59.7998 98.4L58.2998 99.4L59.2998 97.9L57.7998 99L58.8998 97.5L57.3998 98.5L58.4998 97.1L56.9998 98.1L58.0998 96.6L56.5998 97.6L57.6998 96.2L56.0998 97.2L57.1998 95.7L55.6998 96.8L56.7998 95.3L55.2998 96.3L56.3998 94.9L54.8998 95.9L55.9998 94.4L54.3998 95.5L55.4998 94L53.9998 95L55.0998 93.6L53.5998 94.6L54.6998 93.1L53.1998 94.1L54.2998 92.7L52.6998 93.7L53.7998 92.2L52.2998 93.3L53.3998 91.8" stroke="#676767" stroke-width="0.3548" stroke-miterlimit="22.9256" stroke-linejoin="round"/>
<path d="M54.0002 92.9L52.2002 92.6L54.0002 92.3L52.2002 92L54.0002 91.7L52.2002 91.4L54.0002 91L52.2002 90.7L54.0002 90.4L52.2002 90.1L54.0002 89.8L52.2002 89.5L54.0002 89.2L52.2002 88.9L54.0002 88.6L52.2002 88.3L54.0002 88L52.2002 87.7L54.0002 87.4L52.2002 87.1L54.0002 86.8L52.2002 86.5L54.1002 86.2L52.2002 85.9L54.1002 85.6L52.2002 85.3L54.1002 84.9L52.3002 84.6L54.1002 84.3L52.3002 84L54.1002 83.7L52.3002 83.4L54.1002 83.1L52.3002 82.8L54.1002 82.5L52.3002 82.2L54.1002 81.9L52.3002 81.6L54.1002 81.3L52.3002 81L54.1002 80.7L52.3002 80.4L54.1002 80.1L52.3002 79.8L54.1002 79.4L52.3002 79.1L54.1002 78.8L52.3002 78.5L54.1002 78.2L52.3002 77.9L54.1002 77.6L52.3002 77.3L54.1002 77L52.3002 76.7L54.1002 76.4L52.3002 76.1L54.1002 75.8L52.3002 75.5L54.2002 75.2L52.3002 74.9L54.2002 74.6L52.4002 74.3L54.2002 74L52.4002 73.7L54.2002 73.4L52.4002 73L54.2002 72.7L52.4002 72.4L54.2002 72.1L52.4002 71.8L54.2002 71.5L52.4002 71.2L54.2002 70.9L52.4002 70.6L54.2002 70.3L52.4002 70L54.2002 69.7L52.4002 69.4L54.2002 69.1L52.4002 68.8L54.2002 68.5L52.4002 68.2L54.2002 67.9L52.4002 67.6L54.2002 67.3L52.4002 66.9L54.3002 66.6L52.4002 66.3L54.2002 66L52.4002 65.7L54.3002 65.4L52.4002 65.1L54.3002 64.8L52.5002 64.5L54.3002 64.2L52.4002 63.9L54.2002 63.6L52.4002 63.3L54.2002 63L52.4002 62.7L54.2002 62.4L52.4002 62.1L54.2002 61.7L52.4002 61.4L54.2002 61.1L52.4002 60.8L54.2002 60.5L52.4002 60.2L54.3002 59.9L52.5002 59.6L54.3002 59.3L52.5002 59L54.3002 58.7L52.5002 58.4L54.3002 58.1L52.5002 57.8L54.3002 57.5L52.5002 57.2L54.3002 56.9L52.5002 56.6L54.3002 56.3L52.5002 56L54.3002 55.6L52.5002 55.3L54.3002 55L52.5002 54.7L54.3002 54.4L52.5002 54.1L54.3002 53.8L52.5002 53.5L54.3002 53.2L52.5002 52.9L54.3002 52.6L52.5002 52.3L54.3002 52L52.5002 51.7L54.3002 51.4L52.5002 51.1L54.4002 50.8L52.5002 50.5L54.4002 50.1L52.6002 49.8L54.4002 49.5L52.6002 49.2L54.4002 48.9L52.6002 48.6L54.4002 48.3L52.6002 48L54.4002 47.7L52.6002 47.4L54.4002 47.1L52.6002 46.8L54.4002 46.5L52.6002 46.2L54.4002 45.9L52.6002 45.6L54.4002 45.3L52.6002 45L54.4002 44.7L52.6002 44.4L54.4002 44L52.6002 43.7L54.4002 43.4L52.6002 43.1L54.4002 42.8L52.6002 42.5L54.4002 42.2L52.6002 41.9L54.4002 41.6L52.6002 41.3L54.4002 41L52.6002 40.7L54.5002 40.4L52.6002 40.1L54.5002 39.8L52.7002 39.5L54.5002 39.2L52.7002 38.9L54.5002 38.6L52.7002 38.3L54.5002 37.9L52.7002 37.6L54.5002 37.3L52.7002 37L54.5002 36.7L52.7002 36.4L54.5002 36.1L52.7002 35.8L54.5002 35.5L52.7002 35.2L54.5002 34.9L52.7002 34.6L54.5002 34.3L52.7002 34L54.5002 33.7L52.7002 33.4L54.5002 33.1L52.7002 32.8L54.5002 32.5L52.7002 32.1L54.5002 31.8L52.7002 31.5L54.5002 31.2L52.7002 30.9L54.6002 30.6L52.7002 30.3L54.6002 30L52.8002 29.7L54.6002 29.4L52.8002 29.1L54.6002 28.8L52.8002 28.5L54.6002 28.2L52.8002 27.9L54.6002 27.6L52.8002 27.3L54.6002 27L52.8002 26.7L54.6002 26.4L52.8002 26.1L54.6002 25.7L52.8002 25.4L54.6002 25.1" stroke="#676767" stroke-width="0.356" stroke-miterlimit="22.9256" stroke-linejoin="round"/>
<path d="M54.1996 26.4L53.0996 24.9L54.5996 25.9L53.4996 24.5L54.9996 25.5L53.8996 24L55.4996 25.1L54.2996 23.6L55.8996 24.6L54.7996 23.2001L56.2996 24.2001L55.1996 22.7001L56.6996 23.8L55.5996 22.3L57.0996 23.3L55.9996 21.9L57.5996 22.9L56.4996 21.4L57.9996 22.4L56.8996 21L58.3996 22L57.2996 20.5L58.7996 21.6L57.6996 20.1L59.2996 21.1L58.1996 19.7001L59.6996 20.7001L58.5996 19.2001L60.0996 20.3L58.9996 18.8L60.4996 19.8L59.3996 18.3L60.9996 19.4" stroke="#676767" stroke-width="0.3548" stroke-miterlimit="22.9256" stroke-linejoin="round"/>
<path d="M32.9 89.3L31.1 89L32.9 88.7L31.1 88.4L32.9 88.1L31.1 87.8L32.9 87.5L31.1 87.2L32.9 86.9L31.1 86.6L32.9 86.3L31.1 86L32.9 85.7L31.1 85.4L32.9 85.1L31.1 84.8L32.9 84.4L31.1 84.2L32.9 83.8L31.1 83.5L32.9 83.2L31.1 82.9L32.9 82.6L31.1 82.3L32.9 82L31.1 81.7L32.9 81.4L31.1 81.1L32.9 80.8L31.1 80.5L32.9 80.2L31.1 79.9L32.9 79.6L31.1 79.3L32.9 78.9L31.1 78.7L32.9 78.3L31.1 78.1L32.9 77.7L31.1 77.4L32.9 77.1L31.1 76.8L32.9 76.5L31.1 76.2L32.9 75.9L31.1 75.6L32.9 75.3L31.1 75L32.9 74.7L31.1 74.4L32.9 74.1L31.1 73.8L32.9 73.5L31.1 73.2L32.9 72.8L31.1 72.6L32.9 72.2L31.1 71.9L32.9 71.6L31.1 71.3L32.9 71L31.1 70.7L32.9 70.4L31.1 70.1L32.9 69.8L31.1 69.5L32.9 69.2L31.1 68.9L32.9 68.6L31.1 68.3L32.9 68L31.1 67.7L32.9 67.4L31.1 67.1L32.9 66.7L31.1 66.5L32.9 66.1L31.1 65.8L32.9 65.5L31.1 65.2L32.9 64.9L31.1 64.6L32.9 64.3L31.1 64L32.9 63.7L31.1 63.4L32.9 63.1L31.1 62.8L32.9 62.5L31.1 62.2L32.9 61.9L31.1 61.6L32.9 61.3L31.1 61L32.9 60.6L31.1 60.4L32.9 60L31.1 59.7L32.9 59.4L31.1 59.1L32.9 58.8L31.1 58.5L32.9 58.2L31.1 57.9L32.9 57.6L31.1 57.3L32.9 57L31 56.7L32.9 56.4L31 56.1L32.8 55.7L31.1 55.5L32.8 55.1L31 54.8L32.8 54.5L31 54.2L32.8 53.9L31 53.6L32.9 53.3L31 53L32.9 52.7L31 52.4L32.9 52.1L31.1 51.8L32.9 51.5L31 51.2L32.9 50.9L31.1 50.6L32.8 50.3L31 50L32.9 49.6L31.1 49.4L32.9 49L31 48.7L32.9 48.4L31 48.1L32.9 47.8L31.1 47.5L32.9 47.2L31.1 46.9L32.9 46.6L31.1 46.3L32.9 46L31.1 45.7L32.9 45.4L31 45.1L32.9 44.8L31 44.5L32.9 44.2L31 43.9L32.9 43.5L31.1 43.3L32.9 42.9L31.1 42.6L32.9 42.3L31.1 42L32.9 41.7L31.1 41.4L32.9 41.1L31.1 40.8L32.9 40.5L31 40.2L32.9 39.9L31.1 39.6L32.9 39.3L31 39L32.9 38.7L31.1 38.4L32.9 38L31.1 37.8L32.9 37.4L31.1 37.1L32.9 36.8L31.1 36.5L32.9 36.2L31.1 35.9L32.9 35.6L31 35.3L32.9 35L31.1 34.7L32.9 34.4L31.1 34.1L32.9 33.8L31.1 33.5L32.9 33.2L31.1 32.9L32.9 32.6L31.1 32.3L32.9 31.9L31.1 31.7L32.9 31.3L31.1 31.1L32.9 30.7L31.1 30.4L32.9 30.1L31.1 29.8L32.9 29.5L31.1 29.2L32.9 28.9L31.1 28.6L32.9 28.3L31.1 28L32.9 27.7L31.1 27.4L32.9 27.1L31.1 26.8L32.9 26.5L31.1 26.2L32.9 25.8L31.1 25.6L32.9 25.2L31.1 24.9L32.9 24.6L31.1 24.3L32.9 24L31.1 23.7L32.9 23.4L31.1 23.1L32.9 22.8L31.1 22.5L32.9 22.2L31.1 21.9L32.9 21.6L31.1 21.3L32.9 21L31.1 20.7L32.9 20.4L31.1 20.1L32.9 19.7L31.1 19.5L32.9 19.1L31.1 18.8L32.9 18.5" stroke="#676767" stroke-width="0.356" stroke-miterlimit="22.9256" stroke-linejoin="round"/>
<path d="M23.7998 18.2L24.0998 20L24.3998 18.2L24.6998 20L24.9998 18.2L25.2998 20L25.5998 18.2L25.8998 20L26.1998 18.2L26.4998 20L26.7998 18.2L27.0998 20L27.3998 18.2L27.7998 20L28.0998 18.2L28.3998 20L28.6998 18.2L28.9998 20L29.2998 18.2L29.5998 20L29.8998 18.2L30.1998 20L30.4998 18.2L30.7998 20.1L31.0998 18.2L31.3998 20.1L31.6998 18.2999L31.9998 20.1L32.2998 18.2L32.5998 20.1L32.8998 18.2999" stroke="#676767" stroke-width="0.3547" stroke-miterlimit="22.9256" stroke-linejoin="round"/>
<path d="M17.1 28.7L16 27.2L17.5 28.2L16.4 26.7999L18 27.7999L16.8 26.2999L18.4 27.2999L17.2 25.9L18.8 26.9L17.6 25.4L19.2 26.4L18.1 25L19.6 26L18.5 24.5L20 25.5L18.9 24.1L20.4 25.1L19.3 23.6L20.8 24.6L19.7 23.2L21.2 24.1L20.1 22.7L21.7 23.7L20.5 22.2999L22.1 23.2L20.9 21.7999L22.5 22.7999L21.3 21.4L22.9 22.2999L21.7 20.9L23.3 21.9L22.2 20.5L23.7 21.4L22.6 20L24.1 21L23 19.5L24.5 20.5L23.4 19.1L24.9 20.1L23.8 18.7L25.3 19.6L24.2 18.2L25.8 19.2" stroke="#676767" stroke-width="0.356" stroke-miterlimit="22.9256" stroke-linejoin="round"/>
<path d="M18.0998 32.5L16.2998 32.2L18.0998 31.9L16.2998 31.6L18.0998 31.3L16.2998 31L18.0998 30.7L16.2998 30.4L18.0998 30.1L16.2998 29.8L18.0998 29.5L16.2998 29.2L18.0998 28.9L16.2998 28.6L18.0998 28.2L16.2998 27.9L18.0998 27.6L16.2998 27.3L18.1998 27" stroke="#676767" stroke-width="0.356" stroke-miterlimit="22.9256" stroke-linejoin="round"/>
<path d="M22.5004 30.8L22.2004 32.7001L21.9004 30.8L21.6004 32.6L21.3004 30.8L20.9004 32.6L20.6004 30.8L20.3004 32.6L20.0004 30.8L19.7004 32.6L19.4004 30.8L19.1004 32.6L18.8004 30.8L18.5004 32.6L18.2004 30.8L17.9004 32.6L17.6004 30.8L17.3004 32.6L17.0004 30.8L16.7004 32.6L16.4004 30.8" stroke="#676767" stroke-width="0.356" stroke-miterlimit="22.9256" stroke-linejoin="round"/>
<path d="M20.7998 89.7L22.6998 89.4001L20.7998 89.1L22.6998 88.8001L20.8998 88.5L22.6998 88.2L20.7998 87.9001L22.6998 87.5L20.8998 87.3001L22.6998 86.9001L20.7998 86.7L22.6998 86.3001L20.7998 86L22.6998 85.7L20.7998 85.4001L22.6998 85.1L20.7998 84.8001L22.6998 84.5L20.7998 84.2L22.6998 83.9001L20.8998 83.6L22.6998 83.3001L20.8998 83L22.6998 82.7L20.8998 82.4001L22.5998 82.1L20.7998 81.8001L22.6998 81.4001L20.7998 81.2L22.6998 80.8001L20.7998 80.6L22.6998 80.2L20.7998 79.9001L22.6998 79.6L20.8998 79.3001L22.6998 79L20.8998 78.7L22.6998 78.4001L20.8998 78.1L22.6998 77.8001L20.8998 77.5L22.6998 77.2L20.7998 76.9001L22.6998 76.6L20.8998 76.3001L22.6998 76L20.7998 75.7L22.6998 75.4001L20.8998 75.1L22.6998 74.7L20.8998 74.5L22.6998 74.1L20.8998 73.8001L22.6998 73.5L20.8998 73.2L22.6998 72.9001L20.8998 72.6L22.6998 72.3001L20.7998 72L22.6998 71.7L20.8998 71.4001L22.6998 71.1L20.8998 70.8001L22.6998 70.5L20.8998 70.2L22.6998 69.9001L20.7998 69.6L22.5998 69.2L20.7998 68.9001L22.5998 68.6L20.7998 68.3001L22.5998 68L20.7998 67.7L22.5998 67.4001L20.7998 67.1L22.5998 66.8001L20.7998 66.5L22.5998 66.2L20.7998 65.9001L22.5998 65.6L20.7998 65.3001L22.5998 65L20.7998 64.7L22.5998 64.4001L20.7998 64.1L22.5998 63.7001L20.7998 63.5L22.5998 63.1L20.7998 62.8L22.5998 62.5L20.7998 62.2001L22.5998 61.9001L20.7998 61.6L22.5998 61.3L20.7998 61L22.5998 60.7001L20.7998 60.4001L22.5998 60.1L20.7998 59.8L22.5998 59.5L20.7998 59.2001L22.5998 58.9001L20.7998 58.6L22.5998 58.3L20.7998 58L22.5998 57.6L20.7998 57.4001L22.5998 57L20.7998 56.7001L22.5998 56.4001L20.7998 56.1L22.5998 55.8L20.7998 55.5L22.5998 55.2001L20.7998 54.9001L22.5998 54.6L20.7998 54.3L22.5998 54L20.7998 53.7001L22.5998 53.4001L20.7998 53.1L22.5998 52.8L20.7998 52.5L22.5998 52.1L20.7998 51.9001L22.5998 51.5L20.7998 51.3L22.5998 50.9001L20.7998 50.6L22.5998 50.3L20.7998 50L22.5998 49.7001L20.7998 49.4001L22.5998 49.1L20.7998 48.8L22.5998 48.5L20.7998 48.2001L22.5998 47.9001L20.7998 47.6L22.5998 47.3L20.7998 47L22.5998 46.7001L20.7998 46.4001L22.5998 46L20.7998 45.8L22.5998 45.4001L20.7998 45.1L22.5998 44.8L20.7998 44.5L22.5998 44.2001L20.7998 43.9001L22.5998 43.6L20.7998 43.3L22.5998 43L20.7998 42.7001L22.5998 42.4001L20.7998 42.1L22.5998 41.8L20.7998 41.5L22.5998 41.2001L20.7998 40.9001L22.5998 40.6L20.7998 40.3L22.5998 39.9001L20.7998 39.7001L22.5998 39.3L20.7998 39L22.5998 38.7001L20.7998 38.4001L22.5998 38.1L20.7998 37.8L22.5998 37.5L20.7998 37.2001L22.5998 36.9001L20.7998 36.6L22.5998 36.3L20.7998 36L22.5998 35.7001L20.7998 35.4001L22.5998 35.1L20.7998 34.8L22.5998 34.5L20.7998 34.2001L22.5998 33.8L20.7998 33.6L22.5998 33.2001L20.7998 32.9001L22.5998 32.6L20.7998 32.3L22.5998 32L20.7998 31.7001L22.5998 31.4L20.7998 31.1L22.5998 30.8" stroke="#676767" stroke-width="0.356" stroke-miterlimit="22.9256" stroke-linejoin="round"/>
<path d="M16.9004 90.2L17.2004 88.3L17.5004 90.1L17.8004 88.3L18.1004 90.1L18.5004 88.3L18.8004 90.1L19.1004 88.3L19.4004 90.1L19.7004 88.3L20.0004 90.1L20.3004 88.3L20.6004 90.1L20.9004 88.3L21.2004 90.1L21.5004 88.3L21.8004 90.1L22.1004 88.3L22.4004 90.1" stroke="#676767" stroke-width="0.356" stroke-miterlimit="22.9256" stroke-linejoin="round"/>
<path d="M17.8 100.1L16 99.8L17.8 99.5L16 99.2L17.8 98.9L16 98.6L17.9 98.3L16.1 98L17.9 97.7L16.1 97.4L17.9 97.1L16.1 96.7L17.9 96.4L16.1 96.1L17.9 95.8L16.1 95.5L17.9 95.2L16.1 94.9L17.9 94.6L16.1 94.3L17.9 94L16.1 93.7L17.9 93.4L16.1 93.1L17.9 92.8L16.1 92.5L17.9 92.2L16.1 91.9L17.9 91.6L16.1 91.3L17.9 91L16.1 90.6L17.9 90.3L16.1 90L17.9 89.7L16.1 89.4L17.9 89.1L16.1 88.8L18 88.5" stroke="#676767" stroke-width="0.356" stroke-miterlimit="22.9256" stroke-linejoin="round"/>
<path d="M16.2998 98.5L16.5998 100.3L16.8998 98.5L17.1998 100.3L17.4998 98.5L17.7998 100.3L18.0998 98.5L18.4998 100.3L18.7998 98.5L19.0998 100.3L19.3998 98.5L19.6998 100.4L19.9998 98.5L20.2998 100.4L20.5998 98.6L20.8998 100.4L21.1998 98.6L21.4998 100.4L21.7998 98.6L22.0998 100.4L22.3998 98.6L22.6998 100.4L22.9998 98.6L23.2998 100.4L23.5998 98.6L23.8998 100.4L24.1998 98.6L24.5998 100.4L24.8998 98.6L25.1998 100.4L25.4998 98.6L25.7998 100.4L26.0998 98.6L26.3998 100.4L26.6998 98.6L26.9998 100.4L27.2998 98.6L27.5998 100.4L27.8998 98.6L28.1998 100.5L28.4998 98.6L28.7998 100.4L29.0998 98.6L29.3998 100.5L29.6998 98.6L30.0998 100.5L30.3998 98.7L30.6998 100.5L30.9998 98.7L31.2998 100.5L31.5998 98.7L31.8998 100.5L32.1998 98.7L32.4998 100.5L32.7998 98.7L33.0998 100.5L33.3998 98.7L33.6998 100.5L33.9998 98.7L34.2998 100.5L34.5998 98.7L34.8998 100.5L35.1998 98.7L35.4998 100.5L35.7998 98.7L36.1998 100.5L36.4998 98.7L36.7998 100.5L37.0998 98.7" stroke="#676767" stroke-width="0.3547" stroke-miterlimit="22.9256" stroke-linejoin="round"/>
<path d="M35.5 100.1L37.3 99.7L35.5 99.4L37.3 99.1L35.5 98.8L37.3 98.5L35.5 98.2L37.3 97.9L35.5 97.6L37.3 97.3L35.5 97L37.3 96.7L35.5 96.4L37.3 96.1L35.5 95.8L37.3 95.5L35.5 95.2L37.3 94.9L35.5 94.6L37.4 94.3L35.5 94L37.4 93.7L35.6 93.3L37.4 93L35.6 92.7L37.4 92.4L35.6 92.1L37.4 91.8L35.6 91.5L37.4 91.2L35.6 90.9L37.4 90.6L35.6 90.3L37.4 90L35.6 89.7L37.4 89.4L35.6 89.1L37.4 88.8" stroke="#676767" stroke-width="0.356" stroke-miterlimit="22.9256" stroke-linejoin="round"/>
<path d="M31.7002 89.7L32.0002 87.9L32.3002 89.7L32.6002 87.9L32.9002 89.7L33.2002 87.9L33.5002 89.7L33.8002 87.9L34.1002 89.7L34.4002 87.9L34.7002 89.7L35.0002 87.9L35.4002 89.7L35.7002 87.9L36.0002 89.7L36.3002 87.9L36.6002 89.7L36.9002 87.9L37.2002 89.7" stroke="#676767" stroke-width="0.356" stroke-miterlimit="22.9256" stroke-linejoin="round"/>
<path d="M63.4004 30L63.7004 28.2L64.0004 30L64.3004 28.2L64.6004 30L64.9004 28.2L65.2004 30L65.5004 28.2L65.8004 30L66.1004 28.2L66.4004 30.1L66.7004 28.2L67.0004 30.1L67.3004 28.2999L67.6004 30.1L67.9004 28.2999L68.2004 30.1L68.5004 28.2999L68.8004 30.1L69.1004 28.2999L69.5004 30.1L69.8004 28.2999L70.1004 30.1L70.4004 28.2999L70.7004 30.1L71.0004 28.2999L71.3004 30.1L71.6004 28.2999L71.9004 30.1L72.2004 28.2999L72.5004 30.1L72.8004 28.2999L73.1004 30.1L73.4004 28.2999L73.7004 30.1L74.0004 28.2999L74.3004 30.1L74.6004 28.2999L74.9004 30.1L75.3004 28.2999L75.6004 30.2L75.9004 28.2999L76.2004 30.2L76.5004 28.2999L76.8004 30.2L77.1004 28.4L77.4004 30.2L77.7004 28.4L78.0004 30.2L78.3004 28.4L78.6004 30.2L78.9004 28.4L79.2004 30.2L79.5004 28.4L79.8004 30.2L80.1004 28.4L80.4004 30.2L80.7004 28.4L81.1004 30.2L81.4004 28.4L81.7004 30.2L82.0004 28.4L82.3004 30.2L82.6004 28.4L82.9004 30.2L83.2004 28.4L83.5004 30.2L83.8004 28.4L84.1004 30.2L84.4004 28.4L84.7004 30.2L85.0004 28.4L85.3004 30.2999L85.6004 28.4L85.9004 30.2L86.2004 28.4L86.5004 30.2999L86.8004 28.4L87.2004 30.2999L87.5004 28.5L87.8004 30.2999L88.1004 28.5L88.4004 30.2999L88.7004 28.5L89.0004 30.2999L89.3004 28.5L89.6004 30.2999L89.9004 28.5L90.2004 30.2999L90.5004 28.5L90.8004 30.2999L91.1004 28.5L91.4004 30.2999L91.7004 28.5L92.0004 30.2999L92.3004 28.5L92.6004 30.2999" stroke="#676767" stroke-width="0.3547" stroke-miterlimit="22.9256" stroke-linejoin="round"/>
<path d="M90.7002 89.8001L92.5002 89.5L90.7002 89.2L92.5002 88.9001L90.7002 88.6L92.5002 88.3001L90.7002 88L92.5002 87.7L90.7002 87.4001L92.5002 87.1L90.7002 86.8001L92.5002 86.5L90.7002 86.2L92.5002 85.9001L90.7002 85.6L92.5002 85.2L90.7002 84.9001L92.5002 84.6L90.7002 84.3001L92.5002 84L90.7002 83.7L92.5002 83.4001L90.7002 83.1L92.5002 82.8001L90.7002 82.5L92.5002 82.2L90.7002 81.9001L92.5002 81.6L90.7002 81.3001L92.5002 81L90.7002 80.7L92.5002 80.4001L90.7002 80.1L92.5002 79.8001L90.7002 79.5L92.5002 79.1L90.7002 78.8001L92.5002 78.5L90.7002 78.2L92.5002 77.9001L90.7002 77.6L92.5002 77.3001L90.7002 77L92.6002 76.7L90.7002 76.4001L92.6002 76.1L90.8002 75.8001L92.6002 75.5L90.8002 75.2L92.6002 74.9001L90.8002 74.6L92.6002 74.3001L90.8002 74L92.6002 73.7L90.8002 73.4001L92.6002 73L90.8002 72.7L92.6002 72.4001L90.8002 72.1L92.6002 71.8001L90.8002 71.5L92.6002 71.2L90.8002 70.9001L92.6002 70.6L90.8002 70.3001L92.6002 70L90.8002 69.7L92.6002 69.4001L90.8002 69.1L92.6002 68.8001L90.8002 68.5L92.6002 68.2L90.8002 67.9001L92.6002 67.6L90.8002 67.2L92.6002 66.9001L90.8002 66.6L92.6002 66.3001L90.8002 66L92.6002 65.7L90.8002 65.4001L92.6002 65.1L90.8002 64.8001L92.6002 64.5L90.8002 64.2L92.6002 63.9001L90.8002 63.6L92.6002 63.3L90.8002 63L92.6002 62.7001L90.8002 62.4001L92.6002 62L90.8002 61.8L92.6002 61.4001L90.8002 61.1L92.6002 60.8L90.8002 60.5L92.6002 60.2001L90.8002 59.9001L92.6002 59.6L90.8002 59.3L92.6002 59L90.8002 58.7001L92.6002 58.4001L90.8002 58.1L92.6002 57.8L90.8002 57.5L92.6002 57.2001L90.8002 56.9001L92.6002 56.6L90.8002 56.3L92.6002 55.9001L90.8002 55.6L92.7002 55.3L90.8002 55L92.6002 54.7001L90.8002 54.4001L92.7002 54.1L90.8002 53.8L92.7002 53.5L90.9002 53.2001L92.7002 52.9001L90.9002 52.6L92.7002 52.3L90.9002 52L92.7002 51.7001L90.9002 51.4001L92.7002 51.1L90.9002 50.8L92.7002 50.5L90.9002 50.2001L92.7002 49.8L90.9002 49.5L92.7002 49.2001L90.9002 48.9001L92.7002 48.6L90.9002 48.3L92.7002 48L90.9002 47.7001L92.7002 47.4001L90.9002 47.1L92.7002 46.8L90.9002 46.5L92.7002 46.2001L90.9002 45.9001L92.7002 45.6L90.9002 45.3L92.7002 45L90.9002 44.7001L92.7002 44.3L90.9002 44L92.7002 43.7001L90.9002 43.4001L92.7002 43.1L90.9002 42.8L92.7002 42.5L90.9002 42.2001L92.7002 41.9001L90.9002 41.6L92.7002 41.3L90.9002 41L92.7002 40.7001L90.9002 40.4001L92.7002 40.1L90.9002 39.8L92.8002 39.5L90.9002 39.2001L92.8002 38.9001L90.9002 38.6L92.8002 38.3L91.0002 37.9001L92.8002 37.6L91.0002 37.3L92.8002 37L91.0002 36.7001L92.8002 36.4001L91.0002 36.1L92.8002 35.8L91.0002 35.5L92.8002 35.2001L91.0002 34.9001L92.8002 34.6L91.0002 34.3L92.8002 34L91.0002 33.7001L92.8002 33.4001L91.0002 33.1L92.8002 32.8L91.0002 32.5L92.8002 32.2001L91.0002 31.8L92.8002 31.5L91.0002 31.2001L92.8002 30.9L91.0002 30.6L92.8002 30.3L91.0002 30L92.8002 29.7001L91.0002 29.4L92.8002 29.1L91.0002 28.8" stroke="#676767" stroke-width="0.356" stroke-miterlimit="22.9256" stroke-linejoin="round"/>
<path d="M63 90L63.3 88.2L63.6 90L63.9 88.2L64.2 90L64.5 88.2L64.8 90L65.1 88.2L65.4 90L65.7 88.2L66 90L66.3 88.2L66.6 90L66.9 88.2L67.2 90.1L67.5 88.3L67.8 90.1L68.1 88.3L68.5 90.1L68.8 88.3L69.1 90.1L69.4 88.3L69.7 90.1L70 88.3L70.3 90.1L70.6 88.3L70.9 90.1L71.2 88.3L71.5 90.1L71.8 88.3L72.1 90.1L72.4 88.3L72.7 90.1L73 88.3L73.3 90.1L73.6 88.3L73.9 90.1L74.3 88.3L74.6 90.1L74.9 88.3L75.2 90.1L75.5 88.3L75.8 90.1L76.1 88.3L76.4 90.2L76.7 88.3L77 90.2L77.3 88.4L77.6 90.2L77.9 88.4L78.2 90.2L78.5 88.4L78.8 90.2L79.1 88.4L79.4 90.2L79.7 88.4L80 90.2L80.4 88.4L80.7 90.2L81 88.4L81.3 90.2L81.6 88.4L81.9 90.2L82.2 88.4L82.5 90.2L82.8 88.4L83.1 90.2L83.4 88.4L83.7 90.2L84 88.4L84.3 90.2L84.6 88.4L84.9 90.2L85.2 88.4L85.5 90.2L85.8 88.4L86.2 90.2L86.5 88.4L86.8 90.3L87.1 88.4L87.4 90.3L87.7 88.5L88 90.3L88.3 88.5L88.6 90.3L88.9 88.5L89.2 90.3L89.5 88.5L89.8 90.3L90.1 88.5L90.4 90.3L90.7 88.5L91 90.3L91.3 88.5L91.6 90.3L91.9 88.5L92.3 90.3" stroke="#676767" stroke-width="0.3547" stroke-miterlimit="22.9256" stroke-linejoin="round"/>
<path d="M62.0996 89.5L63.8996 89.2L62.0996 88.9L63.8996 88.6L62.0996 88.3L63.8996 88L62.0996 87.7L63.8996 87.4L62.0996 87.1L63.8996 86.7L62.0996 86.4L63.8996 86.1L62.0996 85.8L63.8996 85.5L62.0996 85.2L63.8996 84.9L62.0996 84.6L63.9996 84.3L62.0996 84L63.9996 83.7L62.0996 83.4L63.9996 83.1L62.0996 82.8L63.9996 82.5L62.1996 82.2L63.9996 81.9L62.1996 81.6L63.9996 81.3L62.1996 81L63.9996 80.6L62.1996 80.3L63.9996 80L62.1996 79.7L63.9996 79.4L62.1996 79.1L63.9996 78.8L62.1996 78.5L63.9996 78.2L62.1996 77.9L63.9996 77.6L62.1996 77.3L63.9996 77L62.1996 76.7L63.9996 76.4L62.1996 76.1L63.9996 75.8L62.1996 75.5L63.9996 75.2L62.1996 74.9L63.9996 74.5L62.1996 74.2L63.9996 73.9L62.1996 73.6L63.9996 73.3L62.1996 73L63.9996 72.7L62.1996 72.4L63.9996 72.1L62.1996 71.8L63.9996 71.5L62.1996 71.2L63.9996 70.9L62.1996 70.6L63.9996 70.3L62.1996 70L64.0996 69.7L62.1996 69.4L64.0996 69.1L62.1996 68.8L64.0996 68.4L62.1996 68.1L64.0996 67.8L62.2996 67.5L64.0996 67.2L62.1996 66.9L63.9996 66.6L62.1996 66.3L63.9996 66L62.1996 65.7L63.9996 65.4L62.1996 65.1L63.9996 64.8L62.1996 64.5L63.9996 64.2L62.1996 63.9L63.9996 63.6L62.1996 63.2L63.9996 62.9L62.1996 62.6L63.9996 62.3L62.1996 62L64.0996 61.7L62.1996 61.4L64.0996 61.1L62.2996 60.8L64.0996 60.5L62.2996 60.2L64.0996 59.9L62.2996 59.6L64.0996 59.3L62.2996 59L64.0996 58.7L62.2996 58.4L64.0996 58.1L62.2996 57.8L64.0996 57.5L62.2996 57.1L64.0996 56.8L62.2996 56.5L64.0996 56.2L62.2996 55.9L64.0996 55.6L62.2996 55.3L64.0996 55L62.2996 54.7L64.0996 54.4L62.2996 54.1L64.0996 53.8L62.2996 53.5L64.0996 53.2L62.2996 52.9L64.0996 52.6L62.2996 52.3L64.0996 52L62.2996 51.7L64.0996 51.4L62.2996 51L64.0996 50.7L62.2996 50.4L64.0996 50.1L62.2996 49.8L64.0996 49.5L62.2996 49.2L64.0996 48.9L62.2996 48.6L64.0996 48.3L62.2996 48L64.0996 47.7L62.2996 47.4L64.1996 47.1L62.2996 46.8L64.1996 46.5L62.3996 46.2L64.1996 45.8L62.3996 45.6L64.1996 45.2L62.3996 44.9L64.1996 44.6L62.3996 44.3L64.1996 44L62.3996 43.7L64.1996 43.4L62.3996 43.1L64.1996 42.8L62.3996 42.5L64.1996 42.2L62.3996 41.9L64.1996 41.6L62.3996 41.3L64.1996 41L62.3996 40.7L64.1996 40.4L62.3996 40.1L64.1996 39.7L62.3996 39.5L64.1996 39.1L62.3996 38.8L64.1996 38.5L62.3996 38.2L64.1996 37.9L62.3996 37.6L64.1996 37.3L62.3996 37L64.1996 36.7L62.3996 36.4L64.1996 36.1L62.3996 35.8L64.1996 35.5L62.3996 35.2L64.1996 34.9L62.3996 34.6L64.1996 34.3L62.3996 34L64.1996 33.7L62.3996 33.4L64.1996 33L62.3996 32.7L64.2996 32.4L62.4996 32.1L64.2996 31.8L62.4996 31.5L64.2996 31.2L62.4996 30.9L64.2996 30.6L62.4996 30.3L64.2996 30L62.4996 29.7L64.2996 29.4L62.4996 29.1L64.2996 28.8L62.4996 28.5" stroke="#676767" stroke-width="0.356" stroke-miterlimit="22.9256" stroke-linejoin="round"/>
<path d="M67.7004 86.2L65.9004 85.9L67.7004 85.6L65.9004 85.3L67.7004 85L65.9004 84.7L67.7004 84.4L65.9004 84.1L67.7004 83.8L65.9004 83.5L67.7004 83.1L65.9004 82.8L67.8004 82.5L65.9004 82.2L67.8004 81.9L65.9004 81.6L67.8004 81.3L66.0004 81L67.8004 80.7L66.0004 80.4L67.8004 80.1L66.0004 79.8L67.8004 79.5L66.0004 79.2L67.8004 78.9L66.0004 78.6L67.8004 78.3L66.0004 78L67.8004 77.7L66.0004 77.3L67.8004 77L66.0004 76.7L67.8004 76.4L66.0004 76.1L67.8004 75.8L66.0004 75.5L67.8004 75.2L66.0004 74.9L67.8004 74.6L66.0004 74.3L67.8004 74L66.0004 73.7L67.8004 73.4L66.0004 73.1L67.8004 72.8L66.0004 72.5L67.8004 72.2L66.0004 71.9L67.8004 71.6L66.0004 71.2L67.8004 70.9L66.0004 70.6L67.8004 70.3L66.0004 70L67.8004 69.7L66.0004 69.4L67.8004 69.1L66.0004 68.8L67.8004 68.5L66.0004 68.2L67.8004 67.9L66.0004 67.6L67.8004 67.3L66.0004 67L67.8004 66.7L66.0004 66.4L67.8004 66L66.0004 65.7L67.8004 65.4L66.0004 65.1L67.8004 64.8L66.0004 64.5L67.8004 64.2L66.0004 63.9L67.8004 63.6L66.0004 63.3L67.8004 63L66.0004 62.7L67.8004 62.4L66.0004 62.1L67.8004 61.8L66.0004 61.5L67.8004 61.2L66.0004 60.9L67.9004 60.6L66.0004 60.3L67.9004 59.9L66.1004 59.6L67.9004 59.3L66.0004 59L67.9004 58.7L66.1004 58.4L67.9004 58.1L66.1004 57.8L67.9004 57.5L66.1004 57.2L67.9004 56.9L66.1004 56.6L67.9004 56.3L66.1004 56L67.9004 55.7L66.1004 55.4L67.9004 55.1L66.1004 54.8L67.9004 54.5L66.1004 54.2L67.9004 53.8L66.1004 53.5L67.9004 53.2L66.1004 52.9L67.9004 52.6L66.1004 52.3L67.9004 52L66.1004 51.7L67.9004 51.4L66.1004 51.1L67.9004 50.8L66.1004 50.5L67.9004 50.2L66.1004 49.9L67.9004 49.6L66.1004 49.3L67.9004 49L66.1004 48.7L67.9004 48.3L66.1004 48L67.9004 47.7L66.1004 47.4L67.9004 47.1L66.1004 46.8L67.9004 46.5L66.1004 46.2L67.9004 45.9L66.1004 45.6L68.0004 45.3L66.1004 45L67.9004 44.7L66.1004 44.4L68.0004 44.1L66.1004 43.8L68.0004 43.5L66.2004 43.2L68.0004 42.9L66.2004 42.6L68.0004 42.2L66.2004 41.9L68.0004 41.6L66.2004 41.3L68.0004 41L66.2004 40.7L68.0004 40.4L66.2004 40.1L68.0004 39.8L66.2004 39.5L68.0004 39.2L66.2004 38.9L68.0004 38.6L66.2004 38.3L68.0004 38L66.2004 37.7L68.0004 37.4L66.2004 37.1L68.0004 36.8L66.2004 36.5L68.0004 36.1L66.2004 35.8L68.0004 35.5L66.2004 35.2L68.0004 34.9L66.2004 34.6L68.0004 34.3L66.2004 34L68.0004 33.7L66.2004 33.4" stroke="#676767" stroke-width="0.356" stroke-miterlimit="22.9256" stroke-linejoin="round"/>
<path d="M66.5 33.8L66.8 32L67.1 33.8L67.4 32L67.7 33.8L68 32L68.3 33.8L68.6 32L68.9 33.8L69.2 32L69.5 33.8L69.8 32L70.1 33.8L70.5 32L70.8 33.8L71.1 32L71.4 33.8L71.7 32L72 33.8L72.3 32L72.6 33.9L72.9 32L73.2 33.9L73.5 32.1L73.8 33.9L74.1 32.1L74.4 33.9L74.7 32.1L75 33.9L75.3 32.1L75.6 33.9L75.9 32.1L76.2 33.9L76.6 32.1L76.9 33.9L77.2 32.1L77.5 33.9L77.8 32.1L78.1 33.9L78.4 32.1L78.7 33.9L79 32.1L79.3 33.9L79.6 32.1L79.9 33.9L80.2 32.1L80.5 33.9L80.8 32.1L81.1 33.9L81.4 32.1L81.7 33.9L82 32.1L82.3 34L82.7 32.1L83 34L83.3 32.2L83.6 34L83.9 32.2L84.2 34L84.5 32.2L84.8 34L85.1 32.2L85.4 34L85.7 32.2L86 34L86.3 32.2L86.6 34L86.9 32.2L87.2 34L87.5 32.2L87.8 34L88.2 32.2L88.5 34L88.8 32.2L89.1 34" stroke="#676767" stroke-width="0.3547" stroke-miterlimit="22.9256" stroke-linejoin="round"/>
<path d="M88.7004 86L86.9004 85.7L88.7004 85.4L86.9004 85.1L88.7004 84.8L86.9004 84.5L88.7004 84.2L86.9004 83.9L88.7004 83.6L86.9004 83.3L88.7004 83L86.9004 82.7L88.7004 82.4L86.9004 82.1L88.7004 81.7L86.9004 81.5L88.7004 81.1L86.9004 80.8L88.7004 80.5L86.9004 80.2L88.7004 79.9L86.9004 79.6L88.7004 79.3L86.9004 79L88.7004 78.7L86.9004 78.4L88.7004 78.1L86.9004 77.8L88.7004 77.5L86.9004 77.2L88.7004 76.9L86.9004 76.6L88.7004 76.3L86.9004 76L88.7004 75.7L86.9004 75.3L88.7004 75L86.9004 74.7L88.8004 74.4L87.0004 74.1L88.8004 73.8L86.9004 73.5L88.8004 73.2L87.0004 72.9L88.8004 72.6L87.0004 72.3L88.8004 72L87.0004 71.7L88.8004 71.4L86.9004 71.1L88.7004 70.8L86.9004 70.5L88.7004 70.1L86.9004 69.8L88.7004 69.5L86.9004 69.2L88.7004 68.9L86.9004 68.6L88.7004 68.3L86.9004 68L88.7004 67.7L86.9004 67.4L88.7004 67.1L86.9004 66.8L88.8004 66.5L86.9004 66.2L88.8004 65.9L87.0004 65.6L88.8004 65.3L87.0004 65L88.8004 64.6L87.0004 64.4L88.8004 64L87.0004 63.7L88.8004 63.4L87.0004 63.1L88.8004 62.8L87.0004 62.5L88.8004 62.2L87.0004 61.9L88.8004 61.6L87.0004 61.3L88.8004 61L87.0004 60.7L88.8004 60.4L87.0004 60.1L88.8004 59.8L87.0004 59.5L88.8004 59.2L87.0004 58.9L88.8004 58.5L87.0004 58.3L88.8004 57.9L87.0004 57.6L88.8004 57.3L87.0004 57L88.8004 56.7L87.0004 56.4L88.8004 56.1L87.0004 55.8L88.8004 55.5L87.0004 55.2L88.8004 54.9L87.0004 54.6L88.8004 54.3L87.0004 54L88.8004 53.7L87.0004 53.4L88.8004 53.1L87.0004 52.8L88.8004 52.4L87.0004 52.2L88.8004 51.8L87.0004 51.5L88.9004 51.2L87.1004 50.9L88.9004 50.6L87.1004 50.3L88.9004 50L87.1004 49.7L88.9004 49.4L87.1004 49.1L88.9004 48.8L87.1004 48.5L88.9004 48.2L87.1004 47.9L88.9004 47.6L87.1004 47.3L88.9004 47L87.1004 46.7L88.9004 46.3L87.1004 46L88.9004 45.7L87.1004 45.4L88.9004 45.1L87.1004 44.8L88.9004 44.5L87.1004 44.2L88.9004 43.9L87.1004 43.6L88.9004 43.3L87.1004 43L88.9004 42.7L87.1004 42.4L88.9004 42.1L87.1004 41.8L88.9004 41.5L87.1004 41.2L88.9004 40.9L87.1004 40.6L88.9004 40.2L87.1004 39.9L88.9004 39.6L87.1004 39.3L88.9004 39L87.1004 38.7L88.9004 38.4L87.1004 38.1L88.9004 37.8L87.1004 37.5L88.9004 37.2L87.1004 36.9L89.0004 36.6L87.2004 36.3L89.0004 36L87.2004 35.7L89.0004 35.4L87.2004 35.1L89.0004 34.8L87.2004 34.5L89.0004 34.1L87.2004 33.8L89.0004 33.5" stroke="#676767" stroke-width="0.356" stroke-miterlimit="22.9256" stroke-linejoin="round"/>
<path d="M66.2002 86.3L66.5002 84.5L66.8002 86.3L67.1002 84.5L67.4002 86.3L67.7002 84.5L68.0002 86.3L68.3002 84.5L68.6002 86.3L68.9002 84.5L69.2002 86.3L69.5002 84.5L69.8002 86.3L70.1002 84.5L70.4002 86.3L70.7002 84.5L71.0002 86.3L71.3002 84.5L71.7002 86.3L72.0002 84.5L72.3002 86.3L72.6002 84.5L72.9002 86.3L73.2002 84.5L73.5002 86.3L73.8002 84.5L74.1002 86.3L74.4002 84.5L74.7002 86.4L75.0002 84.5L75.3002 86.4L75.6002 84.6L75.9002 86.4L76.2002 84.6L76.5002 86.4L76.8002 84.6L77.1002 86.4L77.5002 84.6L77.8002 86.4L78.1002 84.6L78.4002 86.4L78.7002 84.6L79.0002 86.4L79.3002 84.6L79.6002 86.4L79.9002 84.6L80.2002 86.4L80.5002 84.6L80.8002 86.4L81.1002 84.6L81.4002 86.4L81.7002 84.6L82.0002 86.4L82.3002 84.6L82.6002 86.4L82.9002 84.6L83.2002 86.4L83.6002 84.6L83.9002 86.4L84.2002 84.6L84.5002 86.5L84.8002 84.6L85.1002 86.5L85.4002 84.7L85.7002 86.5L86.0002 84.7L86.3002 86.5L86.6002 84.7L86.9002 86.5L87.2002 84.7L87.5002 86.5L87.8002 84.7L88.1002 86.5L88.4002 84.7L88.7002 86.5" stroke="#676767" stroke-width="0.3547" stroke-miterlimit="22.9256" stroke-linejoin="round"/>
<path d="M6.3002 0.699951H111.4C114.5 0.699951 117 3.19995 117 6.29995V111.4C117 114.5 114.5 117 111.4 117H6.3002C3.2002 117 0.700195 114.5 0.700195 111.4V6.29995C0.700195 3.19995 3.2002 0.699951 6.3002 0.699951Z" stroke="black" stroke-width="1.424" stroke-miterlimit="22.9256"/>
</g>
<defs>
<clipPath id="clip0">
<rect width="117.7" height="117.7" fill="white"/>
</clipPath>
</defs>
</svg>
