<svg width="118" height="118" viewBox="0 0 118 118" fill="none" xmlns="http://www.w3.org/2000/svg">
<g clip-path="url(#clip0)">
<path d="M30.1 25.1C31.5 25.5 31.1 25 31.3 23.7C55.4 28.9 61.7 28.9 84.9 23.5L85 24.7V24.9V25C85.5 24.9 85.9 24.8 86.4 24.6V31.6C64.2 37.5 51.7 37 30 31.8L30.1 25.1Z" fill="black"/>
<path d="M30.1 25.1C31.5 25.5 31.1 25 31.3 23.7C55.4 28.9 61.7 28.9 84.9 23.5L85 24.7V24.9V25C85.5 24.9 85.9 24.8 86.4 24.6V31.6C64.2 37.5 51.7 37 30 31.8L30.1 25.1Z" stroke="black" stroke-width="0.712" stroke-miterlimit="22.9256" stroke-linejoin="round"/>
<path fill-rule="evenodd" clip-rule="evenodd" d="M58.1998 81.4001C53.1998 76.6001 47.6998 69.7001 42.3998 61.7001C37.9998 55.1 34.4998 48.2001 32.9998 42.7001C32.1998 39.7001 31.7998 37.0001 31.4998 34.2001C31.3998 33.3001 31.3998 32.3 31.2998 31.3C51.5998 36.1 63.9998 36.6001 84.5998 31.7001C84.5998 32.7001 84.4998 33.6001 84.4998 34.4001C84.1998 37.3001 83.7998 39.9001 82.9998 42.9001C81.5998 48.4001 77.9998 55.3001 73.5998 61.9001C68.4998 69.9001 63.1998 76.5 58.1998 81.4001Z" fill="white"/>
<path d="M22.8 28.3H1" stroke="black" stroke-width="1.424" stroke-miterlimit="22.9256" stroke-linecap="round"/>
<path d="M116.8 28.3H93.5" stroke="black" stroke-width="1.4218" stroke-miterlimit="22.9256" stroke-linecap="round"/>
<path fill-rule="evenodd" clip-rule="evenodd" d="M59.3004 82.2L57.3004 81.8L39.9004 60.4H77.4004L59.3004 82.2Z" fill="white"/>
<path d="M59.3004 82.2L57.3004 81.8L39.9004 60.4H77.4004L59.3004 82.2Z" stroke="black" stroke-width="0.712" stroke-miterlimit="22.9256"/>
<path d="M29.9002 24.4V28.9C30.2002 45.8 34.4002 53.2 46.0002 68.8C51.3002 76 51.6002 77.1 58.1002 83.2V90.9C51.4002 84.7 45.4002 77.8 40.0002 70.5C27.7002 54 23.5002 46 23.2002 27.9L29.9002 24.4Z" fill="white"/>
<path d="M29.9002 24.4V28.9C30.2002 45.8 34.4002 53.2 46.0002 68.8C51.3002 76 51.6002 77.1 58.1002 83.2V90.9C51.4002 84.7 45.4002 77.8 40.0002 70.5C27.7002 54 23.5002 46 23.2002 27.9L29.9002 24.4Z" stroke="black" stroke-width="1.4237" stroke-miterlimit="22.9256" stroke-linejoin="round"/>
<path d="M31.3002 23.7C31.4002 27.5 31.4002 31.3 31.7002 34.2C32.0002 37.1 32.4002 39.7 33.2002 42.7C34.6002 48.2 38.2002 55.1 42.6002 61.7C47.9002 69.7 53.3002 76.5 58.4002 81.4L58.3002 85.3C53.1002 80.3 45.7002 71.5 40.3002 63.2999C35.8002 56.5 32.1002 49.2999 30.6002 43.5C29.8002 40.2999 29.3002 37.5 29.1002 34.5C28.8002 31.6 28.8002 29.1 28.7002 25.2L31.3002 23.7Z" fill="black"/>
<path d="M31.3002 23.7C31.4002 27.5 31.4002 31.3 31.7002 34.2C32.0002 37.1 32.4002 39.7 33.2002 42.7C34.6002 48.2 38.2002 55.1 42.6002 61.7C47.9002 69.7 53.3002 76.5 58.4002 81.4L58.3002 85.3C53.1002 80.3 45.7002 71.4999 40.3002 63.2999C35.8002 56.4999 32.1002 49.3 30.6002 43.5C29.8002 40.3 29.3002 37.5 29.1002 34.5C28.8002 31.6 28.8002 29.1 28.7002 25.2L31.3002 23.7Z" stroke="black" stroke-width="0.7119" stroke-miterlimit="22.9256" stroke-linejoin="round"/>
<path d="M86.4002 24.5V29C86.1002 45.9 81.9002 53.3 70.3002 68.9C65.0002 76.1 64.7002 77.2 58.2002 83.3V91C64.9002 84.7 70.9002 77.8 76.3002 70.5C88.6002 54 92.7002 46.1 93.0002 28L86.4002 24.5Z" fill="white"/>
<path d="M86.4002 24.5V29C86.1002 45.9 81.9002 53.3 70.3002 68.9C65.0002 76.1 64.7002 77.2 58.2002 83.3V91C64.9002 84.7 70.9002 77.8 76.3002 70.5C88.6002 54 92.7002 46.1 93.0002 28L86.4002 24.5Z" stroke="black" stroke-width="1.4237" stroke-miterlimit="22.9256" stroke-linejoin="round"/>
<path d="M87.8002 25.2C87.7002 29.2 87.7002 31.8 87.4002 34.7C87.1002 37.7 86.7002 40.5 85.9002 43.7C84.4002 49.6 80.7002 56.7 76.2002 63.5C70.8002 71.7 63.3002 80.4 58.2002 85.3L58.3002 81.4C63.3002 76.6 68.6002 69.9 73.9002 61.9C78.3002 55.3 81.8002 48.4 83.3002 42.9C84.1002 39.9 84.5002 37.2 84.8002 34.4C85.1002 31.5 85.0002 27.3 85.1002 23.5L87.8002 25.2Z" fill="black"/>
<path d="M87.8002 25.2C87.7002 29.2 87.7002 31.8 87.4002 34.7C87.1002 37.7 86.7002 40.5 85.9002 43.7C84.4002 49.6 80.7002 56.7 76.2002 63.5C70.8002 71.7 63.3002 80.4 58.2002 85.3L58.3002 81.4C63.3002 76.6 68.6002 69.9 73.9002 61.9C78.3002 55.3 81.8002 48.4 83.3002 42.9C84.1002 39.9 84.5002 37.2 84.8002 34.4C85.1002 31.5 85.0002 27.3 85.1002 23.5L87.8002 25.2Z" stroke="black" stroke-width="0.7119" stroke-miterlimit="22.9256" stroke-linejoin="round"/>
<path d="M64.4004 67.8L64.0004 68.1C63.9004 68.2 63.9004 68.3 63.9004 68.4V70.9V71C63.9004 71.1 63.8004 71.2 63.8004 71.3L58.7004 75C58.6004 75.1 58.4004 75.1 58.2004 75L53.1004 71.3C53.0004 71.2 53.0004 71.1 53.0004 71V70.9V68.4C53.0004 68.3 53.0004 68.2 52.9004 68.1L52.5004 67.8C52.3004 67.6 51.9004 67.8 51.9004 68.1V71V71.5C51.9004 71.6 52.0004 71.7 52.0004 71.8C54.1004 73.4 56.1004 74.7 58.2004 76.4C58.3004 76.5 58.5004 76.5 58.7004 76.4C60.8004 74.7 62.8004 73.5 64.9004 71.8C65.0004 71.7 65.0004 71.6 65.0004 71.5V71V68.1C65.0004 67.8 64.6004 67.6 64.4004 67.8Z" fill="black"/>
<path d="M54.1002 62.3L54.5002 62.7C54.6002 62.8 54.7002 62.8 54.7002 62.8H62.1002C62.2002 62.8 62.3002 62.8 62.3002 62.7L62.7002 62.3C63.0002 62.1 62.8002 61.6 62.5002 61.6H54.2002C54.0002 61.6 53.8002 62.1 54.1002 62.3Z" fill="black"/>
<path d="M63.1002 64.3V64.8H63.3002C63.4002 64.8 63.5002 64.8 63.5002 64.7C63.6002 64.7 63.6002 64.6 63.6002 64.5C63.6002 64.3 63.5002 64.2 63.3002 64.2H63.1002V64.3ZM64.7002 66.7H63.6002L63.1002 65.5V66.7H62.1002V63.6H63.4002C63.8002 63.6 64.1002 63.7 64.3002 63.8C64.5002 64 64.6002 64.2 64.6002 64.6C64.6002 64.8 64.5002 64.9 64.4002 65.1C64.3002 65.2 64.2002 65.3 64.0002 65.4L64.7002 66.7ZM59.0002 63.6H60.0002V65.4C60.0002 65.6 60.0002 65.7 60.1002 65.8C60.1002 65.9 60.2002 65.9 60.4002 65.9C60.5002 65.9 60.6002 65.9 60.7002 65.8C60.7002 65.7 60.8002 65.6 60.8002 65.4V63.6H61.8002V65.5C61.8002 66 61.7002 66.3 61.5002 66.5C61.3002 66.7 61.0002 66.8 60.5002 66.8C60.0002 66.8 59.7002 66.7 59.5002 66.5C59.3002 66.3 59.2002 66 59.2002 65.5V63.6H59.0002ZM56.2002 65.2C56.2002 65.3 56.2002 65.4 56.3002 65.5C56.3002 65.6 56.4002 65.7 56.5002 65.7C56.6002 65.8 56.6002 65.8 56.7002 65.9C56.8002 65.9 56.9002 66 57.0002 66C57.1002 66 57.2002 66 57.3002 65.9C57.4002 65.9 57.5002 65.8 57.5002 65.7C57.5002 65.6 57.6002 65.6 57.7002 65.5C57.7002 65.4 57.8002 65.3 57.8002 65.2C57.8002 65.1 57.8002 65 57.7002 64.9C57.7002 64.8 57.6002 64.7 57.5002 64.7C57.4002 64.7 57.4002 64.6 57.3002 64.5C57.2002 64.5 57.1002 64.4 57.0002 64.4C56.9002 64.4 56.8002 64.4 56.7002 64.5C56.6002 64.5 56.5002 64.6 56.5002 64.7C56.4002 64.8 56.4002 64.8 56.3002 64.9C56.3002 64.9 56.2002 65 56.2002 65.2ZM56.9002 63.5C57.1002 63.5 57.3002 63.5 57.5002 63.6C57.7002 63.7 57.9002 63.8 58.0002 63.9C58.2002 64 58.3002 64.2 58.4002 64.4C58.5002 64.6 58.5002 64.8 58.5002 65.1C58.5002 65.4 58.5002 65.6 58.4002 65.8C58.3002 66 58.2002 66.2 58.0002 66.3C57.8002 66.4 57.7002 66.6 57.5002 66.6C57.3002 66.7 57.1002 66.7 56.9002 66.7C56.7002 66.7 56.5002 66.7 56.3002 66.6C56.1002 66.5 55.9002 66.4 55.8002 66.3C55.6002 66.2 55.5002 66 55.4002 65.8C55.3002 65.6 55.3002 65.4 55.3002 65.1C55.3002 64.8 55.4002 64.6 55.4002 64.4C55.5002 64.2 55.6002 64 55.8002 63.9C56.0002 63.8 56.1002 63.6 56.3002 63.6C56.5002 63.6 56.7002 63.5 56.9002 63.5ZM53.2002 65.5L52.2002 63.6H53.2002L53.7002 64.7L54.2002 63.6H55.2002L54.2002 65.5V66.7H53.2002V65.5Z" fill="black"/>
<path d="M61.4996 69.3C61.4996 69.4 61.4996 69.5 61.4996 69.6C61.4996 69.7 61.5996 69.7 61.5996 69.8C61.5996 69.8 61.6996 69.9 61.7996 69.9C61.8996 69.9 61.8996 69.9 61.9996 69.9C62.0996 69.9 62.0996 69.9 62.1996 69.9C62.2996 69.9 62.2996 69.8 62.3996 69.8C62.3996 69.8 62.4996 69.7 62.4996 69.6C62.4996 69.5 62.4996 69.4 62.4996 69.3C62.4996 69.2 62.4996 69.1 62.4996 69C62.4996 68.9 62.3996 68.9 62.3996 68.8C62.3996 68.8 62.2996 68.7 62.1996 68.7C62.0996 68.7 62.0996 68.7 61.9996 68.7C61.8996 68.7 61.8996 68.7 61.7996 68.7C61.6996 68.7 61.6996 68.8 61.5996 68.8C61.5996 68.8 61.4996 68.9 61.4996 69C61.4996 69.1 61.4996 69.2 61.4996 69.3ZM61.9996 68C62.1996 68 62.2996 68 62.4996 68.1C62.6996 68.2 62.7996 68.2 62.8996 68.3C62.9996 68.4 63.0996 68.5 63.1996 68.7C63.2996 68.9 63.2996 69 63.2996 69.2C63.2996 69.4 63.2996 69.6 63.1996 69.7C63.0996 69.9 62.9996 70 62.8996 70.1C62.7996 70.2 62.6996 70.3 62.4996 70.3C62.2996 70.4 62.1996 70.4 61.9996 70.4C61.7996 70.4 61.6996 70.4 61.4996 70.3C61.2996 70.2 61.1996 70.2 61.0996 70.1C60.9996 70 60.8996 69.9 60.7996 69.7C60.6996 69.5 60.6996 69.4 60.6996 69.2C60.6996 69 60.6996 68.8 60.7996 68.7C60.8996 68.5 60.9996 68.4 61.0996 68.3C61.1996 68.2 61.2996 68.1 61.4996 68.1C61.6996 68.1 61.7996 68 61.9996 68ZM59.6996 69.8C59.7996 69.8 59.7996 69.8 59.6996 69.8C59.7996 69.8 59.7996 69.8 59.8996 69.8V69.2H60.5996V70.1C60.4996 70.2 60.3996 70.3 60.1996 70.3C59.9996 70.4 59.8996 70.4 59.6996 70.4C59.4996 70.4 59.3996 70.4 59.1996 70.3C58.9996 70.2 58.8996 70.2 58.7996 70.1C58.6996 70 58.5996 69.9 58.4996 69.7C58.3996 69.5 58.3996 69.4 58.3996 69.2C58.3996 69 58.3996 68.8 58.4996 68.7C58.5996 68.5 58.6996 68.4 58.7996 68.3C58.8996 68.2 59.0996 68.1 59.1996 68.1C59.3996 68 59.4996 68 59.6996 68C59.8996 68 60.0996 68 60.1996 68.1C60.2996 68.2 60.4996 68.3 60.5996 68.4L60.1996 68.9C60.0996 68.8 60.0996 68.8 59.9996 68.7C59.8996 68.7 59.7996 68.6 59.7996 68.6C59.6996 68.6 59.6996 68.6 59.5996 68.6C59.4996 68.6 59.4996 68.7 59.3996 68.7C59.3996 68.7 59.2996 68.8 59.2996 68.9C59.2996 69 59.2996 69.1 59.2996 69.2C59.2996 69.3 59.2996 69.4 59.2996 69.5C59.2996 69.6 59.3996 69.6 59.3996 69.7C59.3996 69.7 59.4996 69.8 59.5996 69.8H59.6996ZM56.5996 69.3C56.5996 69.4 56.5996 69.5 56.5996 69.6C56.5996 69.7 56.6996 69.7 56.6996 69.8C56.6996 69.8 56.7996 69.9 56.8996 69.9C56.9996 69.9 56.9996 69.9 57.0996 69.9C57.1996 69.9 57.1996 69.9 57.2996 69.9C57.3996 69.9 57.3996 69.8 57.4996 69.8C57.4996 69.8 57.5996 69.7 57.5996 69.6C57.5996 69.5 57.5996 69.4 57.5996 69.3C57.5996 69.2 57.5996 69.1 57.5996 69C57.5996 68.9 57.4996 68.9 57.4996 68.8C57.4996 68.8 57.3996 68.7 57.2996 68.7C57.1996 68.7 57.1996 68.7 57.0996 68.7C56.9996 68.7 56.9996 68.7 56.8996 68.7C56.7996 68.7 56.7996 68.8 56.6996 68.8C56.6996 68.8 56.5996 68.9 56.5996 69C56.5996 69.1 56.5996 69.2 56.5996 69.3ZM57.0996 68C57.2996 68 57.3996 68 57.5996 68.1C57.7996 68.2 57.8996 68.2 57.9996 68.3C58.0996 68.4 58.1996 68.5 58.2996 68.7C58.3996 68.9 58.3996 69 58.3996 69.2C58.3996 69.4 58.3996 69.6 58.2996 69.7C58.1996 69.9 58.0996 70 57.9996 70.1C57.8996 70.2 57.7996 70.3 57.5996 70.3C57.3996 70.4 57.2996 70.4 57.0996 70.4C56.8996 70.4 56.7996 70.4 56.5996 70.3C56.3996 70.2 56.2996 70.2 56.1996 70.1C56.0996 70 55.9996 69.9 55.8996 69.7C55.7996 69.5 55.7996 69.4 55.7996 69.2C55.7996 69 55.7996 68.8 55.8996 68.7C55.9996 68.5 56.0996 68.4 56.1996 68.3C56.2996 68.2 56.3996 68.1 56.5996 68.1C56.7996 68.1 56.8996 68 57.0996 68ZM54.0996 70.4V68.1H54.7996V69.8H55.6996L55.5996 70.4H54.0996Z" fill="black"/>
<path fill-rule="evenodd" clip-rule="evenodd" d="M58.5002 73.6L55.2002 71.3H58.5002H61.8002L58.5002 73.6Z" fill="black"/>
<path d="M6.3002 0.699951H111.4C114.5 0.699951 117 3.19995 117 6.29995V111.4C117 114.5 114.5 117 111.4 117H6.3002C3.2002 117 0.700195 114.5 0.700195 111.4V6.29995C0.700195 3.19995 3.2002 0.699951 6.3002 0.699951Z" stroke="black" stroke-width="1.424" stroke-miterlimit="22.9256"/>
</g>
<defs>
<clipPath id="clip0">
<rect width="117.7" height="117.7" fill="white"/>
</clipPath>
</defs>
</svg>
