<svg width="15" height="15" viewBox="0 0 15 15" fill="none" xmlns="http://www.w3.org/2000/svg">
<path d="M7.415 4.94352C6.05309 4.94352 4.94167 6.05495 4.94167 7.41686C4.94167 8.77877 6.05309 9.8902 7.415 9.8902C8.77692 9.8902 9.88834 8.77877 9.88834 7.41686C9.88834 6.05495 8.77692 4.94352 7.415 4.94352ZM14.8332 7.41686C14.8332 6.39264 14.8424 5.3777 14.7849 4.35534C14.7274 3.16784 14.4565 2.11393 13.5882 1.24557C12.7179 0.375356 11.6659 0.106314 10.4784 0.048794C9.45417 -0.00872547 8.43922 0.000551898 7.41686 0.000551898C6.39264 0.000551898 5.3777 -0.00872547 4.35534 0.048794C3.16784 0.106314 2.11393 0.377212 1.24557 1.24557C0.375357 2.11579 0.106314 3.16784 0.0487941 4.35534C-0.00872547 5.37955 0.000551898 6.3945 0.000551898 7.41686C0.000551898 8.43922 -0.00872547 9.45602 0.0487941 10.4784C0.106314 11.6659 0.377212 12.7198 1.24557 13.5881C2.11579 14.4584 3.16784 14.7274 4.35534 14.7849C5.37956 14.8424 6.3945 14.8332 7.41686 14.8332C8.44108 14.8332 9.45602 14.8424 10.4784 14.7849C11.6659 14.7274 12.7198 14.4565 13.5882 13.5881C14.4584 12.7179 14.7274 11.6659 14.7849 10.4784C14.8443 9.45602 14.8332 8.44108 14.8332 7.41686V7.41686ZM7.415 11.2224C5.30905 11.2224 3.60944 9.52282 3.60944 7.41686C3.60944 5.3109 5.30905 3.61129 7.415 3.61129C9.52096 3.61129 11.2206 5.3109 11.2206 7.41686C11.2206 9.52282 9.52096 11.2224 7.415 11.2224ZM11.3764 4.3442C10.8847 4.3442 10.4877 3.94713 10.4877 3.45543C10.4877 2.96373 10.8847 2.56666 11.3764 2.56666C11.8681 2.56666 12.2652 2.96373 12.2652 3.45543C12.2653 3.57219 12.2425 3.68783 12.1978 3.79572C12.1532 3.90362 12.0878 4.00166 12.0052 4.08422C11.9227 4.16677 11.8246 4.23224 11.7167 4.27685C11.6088 4.32146 11.4932 4.34435 11.3764 4.3442V4.3442Z" fill="black"/>
</svg>
