<svg width="36" height="38" viewBox="0 0 36 38" fill="none" xmlns="http://www.w3.org/2000/svg">
<path fill-rule="evenodd" clip-rule="evenodd" d="M7.89602 14.2218V15.0584V15.348C7.89602 15.9594 7.86353 17.2464 7.92851 17.3108L7.961 17.3429V17.3751C7.961 17.729 8.48086 17.729 8.77328 17.6969H8.80577H9.13068L9.06569 17.3751L8.93573 16.6029C8.90324 16.2489 8.90324 15.5089 8.87075 14.8975C8.87075 14.4793 8.87075 14.1575 8.83826 14.0931C8.80577 13.9966 8.80577 13.9323 8.80577 13.9001C8.74078 13.6749 8.70829 13.3853 8.64331 13.1922C8.28591 13.16 8.09097 13.2566 7.99349 13.3853C7.92851 13.5461 7.89602 13.8357 7.89602 14.2218ZM17.5133 35.0076H17.3834C17.3509 35.2007 17.2859 35.4903 17.2209 35.812C17.1559 36.1016 17.1235 36.359 17.0585 36.6164H18.943C18.9105 36.2303 18.813 35.7798 18.7155 35.3937C18.683 35.265 18.6505 35.1685 18.6505 35.0076C18.2606 35.0076 17.9032 35.0076 17.5133 35.0076ZM36.0007 34.8789V34.9754C36.0007 35.265 36.0007 35.5868 35.9682 35.8764C35.7733 37.9678 33.5639 37.9356 31.9718 37.9035C31.8419 37.9035 31.7119 37.9035 31.517 37.9035C28.0729 37.9035 24.6614 37.9035 21.2173 37.9356C17.7733 37.9356 14.3617 37.9678 10.9177 37.9678C10.4628 37.9678 10.0404 37.9678 9.58555 37.9678C8.54584 37.9678 7.50613 37.9678 6.49891 37.9678C6.07652 37.9678 4.80938 38 3.70468 37.9678C2.95739 37.9678 2.30757 37.9678 2.08013 37.9356C1.8527 37.8713 1.69024 37.8391 1.4953 37.7748C0.845477 37.5174 0.488077 37.1312 0.293131 36.6808C0.098185 36.2303 0.0332031 35.7155 0.0332031 35.1685C0.0332031 34.9433 0.0656941 34.4928 0.0981851 34.0102C0.130676 33.6562 0.163167 33.3023 0.228149 32.9483C0.293131 32.5622 0.390604 32.2405 0.488077 31.9509C0.618041 31.597 0.748005 31.3074 0.877968 31.0821C0.910459 31.0178 0.94295 30.9534 1.00793 30.8891C1.04042 30.8247 1.10541 30.7604 1.1379 30.6638C1.30035 30.4386 1.43032 30.2456 1.59277 30.0847C1.72273 29.9238 1.88519 29.7629 2.04764 29.602C3.31479 28.4115 5.71912 27.8967 7.73356 27.4784C8.3184 27.3497 8.83826 27.2532 9.32562 27.1245C9.55306 26.8027 9.7805 26.4166 10.0404 26.0627C10.2029 25.8053 10.3653 25.5478 10.5278 25.3226C10.6253 25.1939 10.7552 25.0652 10.9177 24.9687C11.0801 24.8721 11.2751 24.8078 11.4375 24.8078C11.8599 24.7756 12.2173 25.033 12.5747 25.3226L12.6397 25.387C12.7372 25.4835 12.8346 25.5478 12.9321 25.6122C13.0946 25.7409 13.257 25.8696 13.3545 25.9661C13.9393 26.4809 14.9141 27.2532 15.8238 28.0576C16.6361 28.7655 17.4484 29.4412 18.0007 29.8916C19.4303 28.6367 20.8599 27.4462 22.322 26.1914L22.6794 25.9018C22.8094 25.8053 22.9069 25.7087 23.0043 25.6122C23.2318 25.4191 23.4592 25.1939 23.6866 25.033C23.8166 24.9365 23.9791 24.8721 24.1415 24.84C24.304 24.8078 24.4989 24.8078 24.6939 24.84C24.8563 24.8721 24.9863 24.9043 25.1162 25.0008C25.2462 25.0974 25.3762 25.1939 25.5061 25.3548C25.7011 25.6122 25.9285 25.934 26.1235 26.2879C26.3509 26.6418 26.5783 26.9958 26.7733 27.2532C27.1957 27.3497 27.9105 27.5106 28.6902 27.6715C29.5675 27.8645 30.5097 28.0576 31.1596 28.1541C31.387 28.2185 31.5819 28.2506 31.7769 28.315C31.9718 28.3793 32.1668 28.4115 32.3292 28.4759C33.1415 28.7333 33.7913 29.1837 34.3112 29.7629C34.8635 30.4064 35.2859 31.1787 35.5458 32.0474C35.6758 32.4979 35.7733 32.9483 35.8383 33.3988C35.9032 33.8815 35.9357 34.3641 36.0007 34.8789ZM10.9827 36.6486H15.5964C15.6939 36.2947 15.9213 35.2007 16.0188 34.7502L16.0513 34.6537C15.9213 34.5893 15.8563 34.4928 15.7588 34.3641C15.7263 34.2676 15.6614 34.2032 15.6614 34.0745L15.4989 34.2354C15.2065 34.4928 14.8491 34.8467 14.7191 34.9754C14.4917 35.072 14.2967 35.0398 14.1018 34.9433C13.9393 34.8467 13.8094 34.6859 13.7119 34.5572C12.4448 32.8196 11.2101 31.1465 9.94295 29.4412L9.35811 28.6367C8.90324 28.7011 7.73356 28.8942 6.62887 29.1516C5.58916 29.3768 4.61443 29.602 4.3545 29.7307C4.15956 29.8273 3.96461 29.9238 3.80216 30.0203C3.57472 30.149 3.37977 30.3099 3.21732 30.4064C3.11985 30.4708 3.02237 30.5673 2.9249 30.6638C2.82743 30.7604 2.69746 30.8891 2.59999 31.0178C2.40504 31.243 2.2101 31.5326 2.04764 31.79C1.91768 32.0474 1.78772 32.2727 1.72273 32.4979C1.59277 32.8518 1.52779 33.2701 1.46281 33.6884C1.39782 34.2354 1.36533 34.7502 1.36533 35.072C1.36533 35.2972 1.36533 35.4903 1.39782 35.6511C1.39782 35.7799 1.39782 35.8442 1.43032 35.8442L1.46281 35.8764V35.9086V35.9407C1.46281 36.0051 1.46281 36.0051 1.4953 36.1016L1.52779 36.1338V36.166H1.56028L1.59277 36.1981C1.62526 36.2625 1.65775 36.2947 1.69024 36.3268C1.72273 36.359 1.75522 36.3912 1.8527 36.4234H1.88519V36.4555C1.91768 36.5199 2.01515 36.5521 2.11263 36.5843C2.27508 36.6164 2.47003 36.6486 2.5675 36.6486H3.37977H4.15956H4.97183H5.71912C6.92129 36.6164 8.18844 36.6164 9.45559 36.6164C9.94295 36.6164 10.4628 36.6486 10.9827 36.6486ZM20.405 34.1389L20.3401 34.0745C20.3076 34.2032 20.2751 34.2997 20.2101 34.3963C20.1451 34.525 20.0152 34.6215 19.9177 34.6537C19.9827 34.9111 20.0476 35.2007 20.1126 35.4581C20.2101 35.8442 20.2751 36.2303 20.3726 36.6164C23.3617 36.6164 26.3184 36.6164 29.3076 36.6164C30.5422 36.6164 31.7769 36.6164 33.0115 36.6164C33.4664 36.6164 33.8888 36.6164 34.1812 36.4555C34.4736 36.3268 34.6361 36.0373 34.6361 35.5224C34.6361 34.1389 34.4411 32.5301 33.6939 31.3074C33.174 30.4064 32.3292 29.7307 31.0946 29.5055C30.6397 29.409 30.0874 29.3124 29.5025 29.1837C28.4628 28.9585 27.2606 28.7333 26.6108 28.6046C25.961 29.5055 25.1162 30.696 24.239 31.8865C23.5242 32.8518 22.8094 33.8493 22.1596 34.718L22.0946 34.7502L22.0621 34.7824L22.0296 34.8146C21.9971 34.8467 21.9646 34.8467 21.9646 34.8789C21.8671 34.9433 21.8346 34.9433 21.7372 34.9754H21.6722C21.2823 35.0398 21.0549 34.8146 20.8599 34.5893L20.8274 34.5572C20.6975 34.4285 20.535 34.2676 20.405 34.1389ZM17.6433 33.6562H18.3906C18.6505 33.6562 18.8455 33.5919 18.9754 33.4632C19.0404 33.3988 19.0729 33.3666 19.1054 33.3023C19.1379 33.2379 19.1379 33.1736 19.1379 33.1092C19.1379 32.9805 19.1054 32.884 19.0079 32.7553C18.9105 32.6266 18.5856 32.3048 18.3256 32.0474C18.1957 31.9187 18.0657 31.79 18.0007 31.7578C17.8383 31.9509 17.6758 32.1118 17.5133 32.2405C17.3509 32.4014 17.1884 32.5622 17.0585 32.7231C16.961 32.8518 16.896 32.9805 16.896 33.1092C16.896 33.1736 16.9285 33.2701 16.961 33.3345C16.9935 33.3988 17.0585 33.4632 17.1235 33.5275C17.1884 33.5919 17.3834 33.6562 17.6433 33.6562ZM14.0368 28.2506C12.9646 27.3175 11.9249 26.4488 11.5675 26.2235C11.4375 26.3844 11.1126 26.8671 10.8527 27.2854C10.6902 27.5106 10.5603 27.7358 10.4953 27.8645C11.7624 29.6664 13.1596 31.597 14.5242 33.3345C14.9141 32.9805 15.3365 32.5944 15.7263 32.1761C16.1487 31.7578 16.5711 31.3074 16.9935 30.8569C16.7985 30.6317 15.3689 29.409 14.0368 28.2506ZM20.3401 32.1761C20.73 32.5622 21.1198 32.9805 21.4772 33.3023C21.6722 33.0771 22.1271 32.4335 22.6794 31.6613C23.7841 30.1168 25.2462 28.0898 25.4736 27.8002C25.4087 27.6715 25.2787 27.5106 25.1487 27.2854C24.8888 26.8992 24.5964 26.4488 24.4014 26.1914C23.9791 26.5131 21.9971 28.2185 20.5025 29.5055C19.7552 30.149 19.1379 30.696 18.9754 30.8569C19.3978 31.2108 19.8852 31.6935 20.3401 32.1761ZM20.2101 20.8823C20.1126 20.7858 19.9502 20.7214 19.7877 20.7214C19.6253 20.7214 19.4628 20.7858 19.3653 20.8823C19.2679 20.9788 19.2029 21.1397 19.2029 21.3006C19.2029 21.4615 19.2679 21.6224 19.3653 21.7189C19.4628 21.8154 19.6253 21.8798 19.7877 21.8798C19.9502 21.8798 20.1126 21.8154 20.2101 21.7189C20.3076 21.6224 20.3726 21.4615 20.3726 21.3006C20.405 21.1397 20.3401 21.011 20.2101 20.8823ZM26.7733 17.6969H27.1307C27.3256 17.6969 27.5531 17.6969 27.7155 17.6325C27.8455 17.5682 27.943 17.5038 27.943 17.3429L27.9754 13.6105C27.943 13.3853 27.8455 13.2887 27.7155 13.2244C27.5531 13.16 27.3256 13.16 27.1307 13.16H26.9682V13.4818V14.2862V15.0584V15.8307L26.9032 16.6672V16.7316C26.8708 16.9246 26.8383 17.1499 26.8383 17.3108V17.3429L26.8058 17.3751C26.8058 17.3751 26.8058 17.3751 26.8058 17.4073L26.7733 17.6969ZM11.0152 11.1651L10.7552 11.9373C10.7227 12.066 10.6902 12.1626 10.6578 12.2591C10.4628 12.967 10.3004 13.5461 10.2679 14.3184C10.2679 14.608 10.2679 14.8975 10.2679 15.1871C10.2679 15.4767 10.2679 15.7663 10.3004 16.0237C10.3328 16.4742 10.3653 16.8925 10.4628 17.3108C10.5278 17.729 10.6253 18.1152 10.7552 18.5013C10.8202 18.6943 10.8852 18.9196 11.0152 19.2091C11.1126 19.4666 11.2426 19.7883 11.405 20.0457C12.0549 21.2684 12.8022 22.3624 13.7769 23.199C14.7191 24.0356 15.8888 24.6147 17.3509 24.7756C17.6758 24.8078 18.0332 24.8078 18.3581 24.8078C18.683 24.7756 19.0079 24.7434 19.3328 24.6791C19.8852 24.5504 20.3076 24.4217 20.6975 24.2286C21.0224 24.0677 21.3148 23.8747 21.6397 23.6816C21.3473 23.5207 20.9574 23.2955 20.6325 23.1025C20.3076 23.2312 20.0152 23.2633 19.7227 23.2633C19.3328 23.2633 18.9754 23.1025 18.7155 22.9094C18.4556 22.7163 18.2281 22.4268 18.1307 22.105C17.9357 21.7832 17.8707 21.4937 17.8707 21.2362C17.8707 21.2041 17.8707 21.2041 17.8707 21.1719C17.9032 20.7214 18.0982 20.3031 18.3906 19.9814C18.7155 19.6596 19.1704 19.4666 19.7552 19.4987C19.7877 19.4987 19.8202 19.4987 19.8202 19.4987C20.1126 19.5309 20.3726 19.5953 20.6 19.724C20.8599 19.8527 21.0549 20.0457 21.1848 20.2388C21.2823 20.3675 21.3473 20.4962 21.4123 20.6249C21.4772 20.7536 21.5097 20.9145 21.5422 21.1075C21.6072 21.4936 21.5422 21.6867 21.4772 21.9119C21.4448 21.9763 21.4448 22.0085 21.4123 22.0728C21.6722 22.2337 21.9646 22.3946 22.2895 22.5555C22.6144 22.7163 22.9718 22.845 23.2967 22.8772C23.8491 22.9416 24.4339 22.7807 24.9863 22.5233C25.6361 22.1693 26.2534 21.6545 26.7083 21.1075C27.1957 20.5284 27.4881 19.9492 27.618 19.5309C27.683 19.37 27.683 19.2413 27.683 19.1448C27.683 19.0804 27.683 19.0483 27.683 19.0483L26.3834 19.0804L26.3509 19.1448V19.177C26.3184 19.2091 26.2859 19.3379 26.2534 19.4344C26.2209 19.5631 26.1884 19.6918 26.1559 19.7561V19.7883L26.1235 19.8205C26.091 19.8527 26.026 19.9492 25.9935 20.0779C25.896 20.271 25.7985 20.5284 25.7661 20.6249V20.6571L25.7336 20.6892C25.7336 20.6892 25.6036 20.9145 25.5061 21.1075C25.4411 21.2041 25.4087 21.3006 25.3762 21.3328C25.3437 21.3971 25.3112 21.4615 25.2787 21.4937C25.1487 21.7189 25.1162 21.7511 24.8238 21.9441H24.7913H24.7588C24.6939 21.9441 24.6289 21.9441 24.5964 21.9441C24.4014 21.9441 24.239 21.8798 24.1415 21.7511C24.044 21.6545 23.9791 21.4936 23.9466 21.3006C23.9466 21.2362 23.9466 21.2041 23.9466 21.1397V21.1075V21.0754C23.9791 21.0432 23.9791 21.011 24.0115 20.9467C24.109 20.7858 24.2065 20.5927 24.239 20.5284V20.4962L24.2715 20.464C24.3689 20.3997 24.4664 20.2066 24.5639 19.9814C24.7263 19.6274 24.8888 19.177 24.9863 18.9196L25.0188 18.8552C25.0837 18.6621 25.2137 18.3726 25.1812 18.2439V18.2117L25.2137 18.1795C25.3112 18.0508 25.3762 17.5682 25.4087 17.3751C25.6036 16.5064 25.6036 15.5411 25.6036 14.608V14.5114C25.6036 14.4471 25.6036 14.3827 25.6036 14.3184C25.6036 13.9001 25.6036 13.1922 25.5711 13.0635C25.5386 12.967 25.1812 12.0982 24.8888 11.4225C24.6939 11.0042 24.5314 10.6503 24.5314 10.6181C23.6866 10.0711 21.7047 9.65284 19.5278 9.36325C16.6036 9.00931 13.2895 8.88061 11.8274 9.00931C11.7949 9.10584 11.73 9.26672 11.665 9.4276C11.405 10.0068 11.0476 10.8434 11.0476 11.0686V11.1008C11.0152 11.1329 11.0152 11.1329 11.0152 11.1651ZM12.4123 2.54191C12.6722 2.54191 12.8346 2.54191 13.0621 2.38103C13.1271 2.34886 13.1596 2.31668 13.2245 2.25233C13.3545 2.1558 13.4845 2.05927 13.6469 1.99492C14.2967 1.57663 15.1415 1.38357 16.0837 1.3514C17.026 1.31922 18.0657 1.41575 19.0079 1.57663C19.6902 1.64098 20.3726 1.80186 21.1198 1.93057C22.8094 2.25233 24.6289 2.63844 26.091 2.57409C26.1235 2.57409 26.1559 2.57409 26.1884 2.57409C26.2534 2.57409 26.2859 2.57409 26.3184 2.57409C26.3509 2.57409 26.3834 2.57409 26.4159 2.57409L26.5783 3.28196C26.7733 4.82642 26.8058 6.08129 26.7083 7.30398C26.6108 8.43014 26.4484 9.55631 26.1559 10.8434C25.961 10.3929 25.6686 9.68501 25.5061 9.55631C24.4664 8.78408 22.257 8.26926 19.8527 7.97968C16.6036 7.56139 12.9646 7.49704 11.2101 7.72227H11.1776H11.1451L10.8852 7.85097L10.8527 7.88315L10.8202 7.91533C10.7877 8.01185 10.5278 8.65538 10.2354 9.33108C10.0079 9.94242 9.748 10.5859 9.58555 10.9721L9.52057 10.6503C9.35811 9.62066 9.16317 8.36579 9.13068 7.1431C9.06569 4.82642 9.58555 2.63844 12.1198 2.54191C12.2823 2.54191 12.3473 2.54191 12.4123 2.54191ZM12.7697 0.99746C12.8346 0.933107 12.8996 0.900931 12.9971 0.868755C13.2895 0.707875 13.5819 0.57917 13.8744 0.450466C14.1668 0.321761 14.4917 0.225233 14.8491 0.160881C15.4664 0.0321761 16.1162 0 16.7985 0C17.6108 0 18.3906 0.0965284 19.1054 0.193057C19.8852 0.321761 20.665 0.482642 21.4448 0.611346C22.7769 0.868755 24.109 1.12616 25.5711 1.22269L26.6108 1.15834C26.6433 1.15834 26.6758 1.15834 26.7083 1.15834C26.9682 1.15834 27.1632 1.12616 27.3906 1.38357C27.5856 1.60881 27.6505 1.93057 27.748 2.22015C27.748 2.2845 27.7805 2.31668 27.7805 2.38103C27.813 2.50974 27.813 2.67062 27.8455 2.79932C27.878 2.99238 27.9105 3.18544 27.943 3.41067C28.1379 4.72989 28.1379 6.11346 28.0404 7.46486C27.943 8.91279 27.683 10.3929 27.3256 11.7443C27.3906 11.7443 27.4231 11.7443 27.4881 11.7443C27.5856 11.7443 27.6505 11.7443 27.748 11.7765C28.3004 11.8408 28.6902 12.0982 28.9502 12.4522C29.2426 12.8383 29.3401 13.3853 29.3401 13.9323V16.0881V16.3455C29.3401 17.3108 29.3401 18.0186 29.0801 19.0161C28.7227 20.464 27.878 21.8154 26.8058 22.7485C25.7985 23.6173 24.5639 24.1321 23.1993 24.0677H23.1668C23.0368 24.1964 22.9068 24.293 22.7769 24.3895C22.6469 24.486 22.517 24.5826 22.387 24.6791C22.0946 24.8721 21.8022 25.0652 21.5097 25.2261C21.2173 25.387 20.9249 25.5157 20.6 25.6444C20.1776 25.8052 19.7877 25.934 19.3978 25.9983C19.0079 26.0627 18.618 26.0948 18.1957 26.0948C18.0007 26.0948 17.8058 26.0948 17.6108 26.0948C17.4159 26.0948 17.2534 26.0627 17.091 26.0627C14.9141 25.8053 13.322 24.8078 12.1198 23.5207C10.9502 22.2337 10.1379 20.6571 9.55306 19.0804C9.42309 19.0804 9.32562 19.0804 9.19566 19.0804C8.96822 19.0804 8.70829 19.0804 8.48086 19.0483C8.02598 19.0161 7.57111 18.8874 7.2462 18.6622C6.8888 18.4047 6.66136 18.0186 6.59638 17.3751C6.56389 17.1499 6.56389 16.8603 6.59638 16.6029C6.59638 16.5063 6.59638 16.4098 6.59638 16.3133V15.2515C6.59638 14.801 6.59638 14.4149 6.59638 14.1897C6.59638 13.6427 6.62887 13.16 6.79133 12.7739C6.95378 12.3556 7.27869 12.066 7.86353 11.873C8.09097 11.8086 8.22093 11.7765 8.41587 11.7765H8.44837C8.25342 10.8112 8.05847 9.65284 7.92851 8.46232C7.53862 5.18036 7.92851 1.60881 11.8599 1.22269L12.3473 1.19052C12.3798 1.19052 12.3798 1.19052 12.4123 1.19052L12.4448 1.15834H12.4772C12.5422 1.12616 12.6397 1.06181 12.7697 0.99746Z" fill="#5F6466"/>
</svg>
