<svg width="52" height="95" viewBox="0 0 52 95" fill="none" xmlns="http://www.w3.org/2000/svg">
<g clip-path="url(#clip0)">
<path fill-rule="evenodd" clip-rule="evenodd" d="M42.3882 33.7454C43.6329 38.3187 44.8084 43.0306 46.1222 47.5346C52.3456 45.9409 52.8988 44.8322 51.3084 37.2794L49.8563 31.5281L42.3882 33.7454Z" fill="white"/>
<path fill-rule="evenodd" clip-rule="evenodd" d="M19.4308 4.36543C18.2552 5.33552 17.8403 6.72137 18.8084 8.45368C19.6382 10.0474 21.5052 12.8191 25.2393 15.9373V16.4223V51.0686H12.101V25.2918C11.4095 25.2918 12.7925 25.2918 12.101 25.2918C11.8935 25.9154 11.6861 26.4697 11.5478 27.0241L3.94141 24.8067L6.36162 15.1751C6.43077 14.8286 6.49992 14.5514 6.56907 14.2743C7.19141 11.849 7.81375 10.9482 10.0265 9.77024C10.9946 9.28519 12.3084 8.66156 14.1754 7.83005C13.3457 5.61269 13.8297 3.94967 15.2818 2.21736C17.4946 -0.346464 19.2925 -1.90362e-06 22.8191 -1.90362e-06H25.9999H29.1808C32.7074 -1.90362e-06 34.5052 -0.346464 36.718 2.21736C38.1701 3.94967 38.6542 5.61269 37.8244 7.83005C39.6914 8.66156 41.0052 9.28519 41.9733 9.77024C44.2552 10.9482 44.8084 11.849 45.4308 14.2743C45.4999 14.5514 45.5691 14.8286 45.6382 15.1751L48.0584 24.8067L40.5212 27.0241C40.3829 26.4697 40.1754 25.9154 39.968 25.2918C39.2765 25.2918 40.6595 25.2918 39.968 25.2918V50.9993H26.8297V16.353V15.9373C30.4946 12.8191 32.3616 10.1167 33.2606 8.45368C34.1595 6.72137 33.7446 5.33552 32.5691 4.36543H26.8989H25.9999H25.9308H25.0318H19.4308Z" fill="white"/>
<path fill-rule="evenodd" clip-rule="evenodd" d="M10.7871 29.4493C10.5796 30.1422 10.4413 30.7658 10.303 31.2509L2.83496 29.1028L3.319 27.3012L10.7871 29.4493Z" fill="white"/>
<path fill-rule="evenodd" clip-rule="evenodd" d="M9.68057 33.7454C8.43589 38.3187 7.26036 43.0306 5.94653 47.5346C-0.276875 45.9409 -0.830067 44.8322 0.760358 37.2794L2.21249 31.5281L9.68057 33.7454Z" fill="white"/>
<path fill-rule="evenodd" clip-rule="evenodd" d="M25.2389 54.6025H12.1006V62.4325V89.9416C12.1006 93.8913 13.4144 95 16.3878 95H23.441V63.0562H25.2389V54.6025Z" fill="white"/>
<path fill-rule="evenodd" clip-rule="evenodd" d="M26.8296 54.6025H39.9679V62.4325V89.9416C39.9679 93.8913 38.6541 95 35.6807 95H28.6275V63.0562H26.8296V54.6025Z" fill="white"/>
<path fill-rule="evenodd" clip-rule="evenodd" d="M41.2124 29.4493C41.4198 30.1422 41.5581 30.7658 41.6964 31.2509L49.2337 29.1028L48.7496 27.3012L41.2124 29.4493Z" fill="white"/>
</g>
<defs>
<clipPath id="clip0">
<rect width="52" height="95" fill="white"/>
</clipPath>
</defs>
</svg>
