<svg width="30" height="34" viewBox="0 0 30 34" fill="none" xmlns="http://www.w3.org/2000/svg">
<g clip-path="url(#clip0)">
<path fill-rule="evenodd" clip-rule="evenodd" d="M2.69006 0H21.5497C22.2807 0 22.9532 0.298507 23.4503 0.80597C23.9474 1.31343 24.2398 2 24.2398 2.74627V18.4478L22.5731 18.2687V2.74627C22.5731 2.44776 22.4561 2.1791 22.2807 2C22.1053 1.8209 21.8421 1.70149 21.5497 1.70149H2.69006C2.39766 1.70149 2.1345 1.8209 1.95906 2C1.78363 2.1791 1.66667 2.44776 1.66667 2.74627V29.1642C1.66667 29.4627 1.78363 29.7313 1.95906 29.9104C2.1345 30.0896 2.39766 30.209 2.69006 30.209H14.9415L15.4094 31.9104H2.69006C1.95906 31.9104 1.28655 31.6119 0.789474 31.1045C0.292398 30.597 0 29.9104 0 29.1642V2.74627C0 2 0.292398 1.31343 0.789474 0.80597C1.28655 0.298507 1.95906 0 2.69006 0Z" fill="#5F6466"/>
<path fill-rule="evenodd" clip-rule="evenodd" d="M9.09309 6.50745H13.713C14.941 6.50745 16.0522 7.01491 16.8416 7.79103C17.6603 8.597 18.1574 9.70147 18.1574 10.9254C18.1574 12.1492 17.6603 13.2537 16.8416 14.0597C16.0229 14.8657 14.9118 15.3433 13.713 15.3433H9.09309V16.3582H15.1165V17.9403H9.09309V22.6865H7.54338V17.9701H6.75391V16.388H7.54338V15.3731H6.75391V13.791H7.54338V6.50745H9.09309ZM9.09309 13.8209H13.713C14.5317 13.8209 15.2627 13.4925 15.789 12.9851C16.3153 12.4776 16.6369 11.7612 16.6369 10.9552C16.6369 10.1791 16.3153 9.46267 15.789 8.92536C15.2627 8.38804 14.5317 8.08954 13.713 8.08954H9.09309V13.8209Z" fill="#5F6466"/>
<path d="M25.9776 25.082C25.9776 28.3771 23.3677 31.0205 20.1822 31.0205C16.9966 31.0205 14.3867 28.3771 14.3867 25.082C14.3867 21.7868 16.9966 19.1434 20.1822 19.1434C23.3677 19.1434 25.9776 21.7868 25.9776 25.082Z" stroke="#5F6466" stroke-width="1.5"/>
<path d="M17.4645 24.5753C17.6708 24.6093 17.8366 24.7246 17.9618 24.921C18.0871 25.1174 18.1497 25.3422 18.1497 25.5953V25.839C18.1497 26.2621 18.065 26.5794 17.8955 26.791C17.7297 26.9988 17.4571 27.1027 17.0776 27.1027C16.7387 27.1027 16.4789 27.0026 16.2984 26.8023C16.1179 26.6021 16.0184 26.315 16 25.941H16.7405C16.7516 26.0808 16.7811 26.1847 16.8289 26.2527C16.8805 26.3207 16.9597 26.3547 17.0666 26.3547C17.1955 26.3547 17.2821 26.315 17.3263 26.2357C17.3742 26.1526 17.3982 26.0147 17.3982 25.822V25.6237C17.3982 25.4423 17.3668 25.3196 17.3042 25.2553C17.2416 25.1873 17.1421 25.1533 17.0058 25.1533H16.6411V24.6547L17.1661 23.765H16.1326V23.068H18.0668V23.5723L17.4645 24.5753Z" fill="#5F6466"/>
<path d="M20.507 26.7797C20.3117 26.9874 20.0391 27.0913 19.6891 27.0913C19.3391 27.0913 19.0664 26.9874 18.8712 26.7797C18.6759 26.5681 18.5783 26.2734 18.5783 25.8957V24.2183C18.5783 23.8406 18.6759 23.5459 18.8712 23.3343C19.0664 23.119 19.3391 23.0113 19.6891 23.0113C20.0391 23.0113 20.3117 23.119 20.507 23.3343C20.7059 23.5459 20.8054 23.8406 20.8054 24.2183V25.8957C20.8054 26.2734 20.7059 26.5681 20.507 26.7797ZM19.6891 26.3773C19.9543 26.3773 20.087 26.2168 20.087 25.8957V24.2183C20.087 23.8897 19.9543 23.7253 19.6891 23.7253C19.4275 23.7253 19.2967 23.8897 19.2967 24.2183V25.8957C19.2967 26.2168 19.4275 26.3773 19.6891 26.3773Z" fill="#5F6466"/>
<path d="M22.0837 24.6887C21.9805 24.7944 21.8368 24.8473 21.6526 24.8473C21.4684 24.8473 21.3229 24.7944 21.216 24.6887C21.1092 24.5791 21.0558 24.4242 21.0558 24.224V23.629C21.0558 23.4288 21.1092 23.2739 21.216 23.1643C21.3229 23.0548 21.4684 23 21.6526 23C21.8368 23 21.9805 23.0548 22.0837 23.1643C22.1905 23.2739 22.2439 23.4288 22.2439 23.629V24.224C22.2439 24.4242 22.1905 24.5791 22.0837 24.6887ZM21.1165 27.0347L23.7802 23.068H24.2776L21.6139 27.0347H21.1165ZM21.6526 24.445C21.7079 24.445 21.7465 24.4299 21.7687 24.3997C21.7908 24.3694 21.8018 24.3147 21.8018 24.2353V23.6177C21.8018 23.5383 21.7908 23.4836 21.7687 23.4533C21.7465 23.4193 21.7079 23.4023 21.6526 23.4023C21.5494 23.4023 21.4979 23.4741 21.4979 23.6177V24.2353C21.4979 24.3751 21.5494 24.445 21.6526 24.445ZM24.0787 26.927C23.9755 27.0328 23.8318 27.0857 23.6476 27.0857C23.4634 27.0857 23.3179 27.0328 23.211 26.927C23.1042 26.8174 23.0508 26.6626 23.0508 26.4623V25.8673C23.0508 25.6671 23.1042 25.5122 23.211 25.4027C23.3179 25.2931 23.4634 25.2383 23.6476 25.2383C23.8318 25.2383 23.9755 25.2931 24.0787 25.4027C24.1855 25.5122 24.2389 25.6671 24.2389 25.8673V26.4623C24.2389 26.6626 24.1855 26.8174 24.0787 26.927ZM23.6476 26.6833C23.7029 26.6833 23.7415 26.6682 23.7637 26.638C23.7858 26.6078 23.7968 26.553 23.7968 26.4737V25.856C23.7968 25.7767 23.7858 25.7219 23.7637 25.6917C23.7415 25.6577 23.7029 25.6407 23.6476 25.6407C23.5444 25.6407 23.4929 25.7124 23.4929 25.856V26.4737C23.4929 26.6134 23.5444 26.6833 23.6476 26.6833Z" fill="#5F6466"/>
</g>
<defs>
<clipPath id="clip0">
<rect width="30" height="34" fill="white"/>
</clipPath>
</defs>
</svg>
