<svg width="128" height="128" viewBox="0 0 128 128" fill="none" xmlns="http://www.w3.org/2000/svg">
<path d="M21.964 18.0253C21.2624 17.2572 21.3146 16.0634 22.103 15.3849C31.9285 6.92924 44.1181 1.66928 57.0424 0.33571C70.5921 -1.06238 84.2325 1.92903 95.9535 8.86911C107.675 15.8092 116.856 26.3308 122.146 38.8836C127.435 51.4363 128.552 65.3561 125.332 78.5917C122.113 91.8273 114.727 103.679 104.262 112.399C93.7982 121.12 80.8095 126.248 67.2103 127.029C53.6111 127.81 40.1207 124.201 28.7273 116.736C17.8596 109.615 9.44808 99.3433 4.60447 87.3193C4.21579 86.3544 4.71776 85.27 5.69374 84.9101V84.9101C6.66972 84.5502 7.74994 85.0511 8.14042 86.0152C12.7035 97.2821 20.5995 106.906 30.7919 113.585C41.5102 120.608 54.2011 124.003 66.9944 123.268C79.7876 122.534 92.0067 117.709 101.851 109.505C111.695 101.302 118.643 90.1526 121.672 77.7013C124.701 65.2501 123.65 52.1551 118.674 40.3463C113.698 28.5375 105.061 18.6393 94.0343 12.1105C83.0078 5.58173 70.1757 2.76759 57.4291 4.08283C45.3078 5.33354 33.8734 10.2555 24.6449 18.1675C23.8551 18.8445 22.6655 18.7933 21.964 18.0253V18.0253Z" fill="white"/>
<path d="M4.41955 81.072C3.42208 81.3672 2.37131 80.7985 2.10578 79.7927C-0.360292 70.4518 -0.666828 60.6629 1.22028 51.1712C3.10739 41.6796 7.135 32.7524 12.9866 25.0651C13.6166 24.2374 14.805 24.1139 15.6137 24.7682V24.7682C16.4224 25.4225 16.545 26.6068 15.9164 27.4357C10.4482 34.6472 6.68299 43.0132 4.91498 51.9058C3.14697 60.7985 3.42575 69.9684 5.71961 78.7232C5.98326 79.7295 5.41701 80.7768 4.41955 81.072V81.072Z" fill="#D61D1D"/>
<path d="M86.7025 21.7404C87.1874 20.8638 88.2931 20.5434 89.1513 21.06C96.5604 25.5196 102.685 31.8448 106.905 39.4172C111.419 47.5184 113.572 56.7228 113.12 65.9858C112.668 75.2488 109.628 84.1997 104.346 91.8227C99.0646 99.4458 91.7519 105.436 83.238 109.113C74.7242 112.79 65.35 114.008 56.1793 112.627C47.0086 111.246 38.4085 107.323 31.3548 101.302C24.3011 95.2806 19.0763 87.4029 16.2732 78.5626C13.653 70.2994 13.2468 61.5044 15.0794 53.0531C15.2917 52.0741 16.283 51.4888 17.2535 51.7367V51.7367C18.2241 51.9847 18.8062 52.9719 18.5968 53.9515C16.9303 61.7451 17.316 69.8494 19.7311 77.4662C22.3293 85.6601 27.1721 92.9617 33.71 98.5426C40.248 104.123 48.2193 107.76 56.7194 109.04C65.2196 110.32 73.9083 109.191 81.7996 105.783C89.6909 102.374 96.469 96.8224 101.365 89.7567C106.26 82.6911 109.077 74.3947 109.496 65.8089C109.916 57.2232 107.92 48.6919 103.736 41.183C99.8462 34.203 94.2105 28.3663 87.3941 24.2366C86.5374 23.7175 86.2177 22.6169 86.7025 21.7404V21.7404Z" fill="white"/>
<path d="M23.0296 38.2372C22.18 37.7064 21.9189 36.5852 22.4805 35.7557C27.7353 27.9925 35.0906 21.8659 43.7036 18.1031C52.3167 14.3402 61.8095 13.1063 71.0758 14.5255C72.066 14.6771 72.7112 15.6305 72.5235 16.6145V16.6145C72.3357 17.5985 71.3862 18.2402 70.3956 18.0914C61.8483 16.8077 53.0986 17.9574 45.1559 21.4273C37.2133 24.8973 30.4246 30.536 25.5591 37.6795C24.9952 38.5074 23.8791 38.768 23.0296 38.2372V38.2372Z" fill="#D61D1D"/>
<g filter="url(#filter0_d)">
<path d="M51.6955 43.3333L86.0109 63.5668L51.6955 83.8003L51.6955 43.3333Z" stroke="#D61D1D" stroke-width="9"/>
</g>
<defs>
<filter id="filter0_d" x="23.1953" y="17.703" width="92.7686" height="99.7277" filterUnits="userSpaceOnUse" color-interpolation-filters="sRGB">
<feFlood flood-opacity="0" result="BackgroundImageFix"/>
<feColorMatrix in="SourceAlpha" type="matrix" values="0 0 0 0 0 0 0 0 0 0 0 0 0 0 0 0 0 0 127 0"/>
<feOffset dy="4"/>
<feGaussianBlur stdDeviation="12"/>
<feColorMatrix type="matrix" values="0 0 0 0 0.839216 0 0 0 0 0.113725 0 0 0 0 0.113725 0 0 0 1 0"/>
<feBlend mode="normal" in2="BackgroundImageFix" result="effect1_dropShadow"/>
<feBlend mode="normal" in="SourceGraphic" in2="effect1_dropShadow" result="shape"/>
</filter>
</defs>
</svg>
