<svg width="33" height="36" viewBox="0 0 33 36" fill="none" xmlns="http://www.w3.org/2000/svg">
<g clip-path="url(#clip0)">
<path fill-rule="evenodd" clip-rule="evenodd" d="M24.5083 36.0001C26.406 36.0001 27.4031 35.842 29.1077 34.8622C31.0376 33.7244 32.6458 31.2907 32.7423 29.0782C32.8066 27.6559 32.7422 27.2134 32.3884 26.0124C32.292 25.6647 32.1311 25.4751 32.0668 25.159H31.9382C31.8738 25.3802 31.6808 25.6331 31.5522 25.8543C31.4235 26.0756 31.2949 26.2652 31.1341 26.5181C30.6194 27.3398 31.0376 26.7077 31.0376 28.6041C31.0376 31.67 28.3358 34.3249 24.8943 34.3249C21.7423 34.3249 19.0083 31.6067 19.0083 28.6041C19.0083 27.5295 19.137 26.7709 19.5873 25.8543C20.4879 24.0528 22.4499 22.504 24.7978 22.504C25.4732 22.504 25.7949 22.4724 26.4703 22.6621C26.6311 22.6937 26.792 22.7569 26.9528 22.7885C27.2101 22.8517 27.1779 22.9149 27.4352 22.9465C27.7569 22.504 28.0463 21.9983 28.3358 21.5242C25.3768 20.1335 21.9996 20.7973 19.6516 22.9149C19.4586 23.1046 19.3621 23.1994 19.2013 23.4206C18.6224 24.116 18.558 24.116 18.0434 25.0958C17.754 25.6647 17.4323 26.5497 17.3358 27.2134C17.3037 27.5295 17.3037 27.8139 17.2393 28.13C17.0142 29.7103 17.8183 31.7648 18.7832 33.0607C18.9762 33.3135 19.0405 33.3767 19.2656 33.598C20.2949 34.6726 21.3563 35.3679 22.8037 35.7788C23.2861 35.842 23.9616 36.0001 24.5083 36.0001Z" fill="#5F6466"/>
<path fill-rule="evenodd" clip-rule="evenodd" d="M24.7977 29.1413C24.5725 29.0781 24.3152 28.604 24.0901 28.288C23.8649 27.9719 23.672 27.6874 23.4468 27.3714C23.2217 27.0553 23.0287 26.7392 22.7714 26.4548C21.5491 25.1273 19.4907 26.676 20.5842 28.2248L23.2538 31.9543C23.8328 32.8393 24.0258 33.0922 25.0228 33.0922C25.3123 33.0922 25.7304 32.8393 25.8591 32.6813L32.6778 21.935C33.0959 21.3345 33.1281 20.6392 32.6135 20.0702C31.938 19.3433 30.8123 19.5645 30.3299 20.3231L27.9497 24.0843C27.4029 24.9377 26.9205 25.7278 26.3737 26.5812C26.1164 27.0237 25.8591 27.403 25.6018 27.8139C25.4731 28.0351 25.3445 28.2248 25.2158 28.446C25.0872 28.6672 24.862 28.9201 24.7977 29.1413Z" fill="#5F6466"/>
<path fill-rule="evenodd" clip-rule="evenodd" d="M2.95906 0H23.7047C24.5088 0 25.2485 0.316067 25.7953 0.85338C26.3421 1.39069 26.6637 2.11765 26.6637 2.90781V19.5329L24.8304 19.3433V2.90781C24.8304 2.59175 24.7018 2.30729 24.5088 2.11765C24.3158 1.92801 24.0263 1.80158 23.7047 1.80158H2.95906C2.63743 1.80158 2.34795 1.92801 2.15497 2.11765C1.96199 2.30729 1.83333 2.59175 1.83333 2.90781V30.8797C1.83333 31.1958 1.96199 31.4802 2.15497 31.6699C2.34795 31.8595 2.63743 31.986 2.95906 31.986H16.4357L16.9503 33.7875H2.95906C2.15497 33.7875 1.4152 33.4715 0.868421 32.9342C0.321637 32.3968 0 31.6699 0 30.8797V2.90781C0 2.11765 0.321637 1.39069 0.868421 0.85338C1.4152 0.316067 2.15497 0 2.95906 0Z" fill="#5F6466"/>
<path fill-rule="evenodd" clip-rule="evenodd" d="M10.0028 6.89026H15.0847C16.4355 6.89026 17.6578 7.42757 18.5262 8.24935C19.4268 9.10273 19.9735 10.2722 19.9735 11.568C19.9735 12.8639 19.4268 14.0334 18.5262 14.8867C17.6256 15.7401 16.4034 16.2458 15.0847 16.2458H10.0028V17.3205H16.6285V18.9956H10.0028V24.0211H8.29811V19.0272H7.42969V17.3521H8.29811V16.2774H7.42969V14.6023H8.29811V6.89026H10.0028ZM10.0028 14.6339H15.0847C15.9852 14.6339 16.7893 14.2862 17.3683 13.7489C17.9472 13.2116 18.301 12.453 18.301 11.5997C18.301 10.7779 17.9472 10.0193 17.3683 9.4504C16.7893 8.88148 15.9852 8.56541 15.0847 8.56541H10.0028V14.6339Z" fill="#5F6466"/>
</g>
<defs>
<clipPath id="clip0">
<rect width="33" height="36" fill="white"/>
</clipPath>
</defs>
</svg>
