<svg width="60" height="59" viewBox="0 0 60 59" fill="none" xmlns="http://www.w3.org/2000/svg">
<g clip-path="url(#clip0)">
<path fill-rule="evenodd" clip-rule="evenodd" d="M34.8727 17.1328C34.9901 17.1913 35.1076 17.2498 35.1663 17.3667C35.8121 18.0099 36.8688 19.2379 37.5146 19.7057L40.45 16.782L42.7397 19.004L41.7416 19.998C41.2132 20.7582 40.2152 21.4014 39.8042 22.0446C40.2152 22.6293 41.5068 23.7988 42.1526 24.3836C42.2113 24.5005 42.3287 24.559 42.3874 24.6759L43.3267 25.6115L41.0958 27.9505L37.5146 24.3836L36.1643 25.7285L34.9314 26.8979C34.9314 26.9564 34.9314 26.9564 34.9901 27.0149L38.5126 30.5233L36.2817 32.8623L32.6418 29.2369L29.9999 31.8097L29.9412 31.8682L33.4637 35.3766L31.2328 37.7156L27.7103 34.2071H27.6516L26.0077 35.7859L24.951 36.8385C24.951 36.8969 25.0097 36.8969 25.0097 36.9554L26.8884 38.8266C27.0058 38.9435 27.1232 39.002 27.1819 39.1189L28.4148 40.3469L26.1839 42.6858L22.6614 39.1774L21.6046 40.2884C21.4872 40.4638 21.3111 40.5808 21.135 40.7562L19.726 42.1011L17.4363 39.8791L20.3717 36.9554L16.8492 33.447L19.0802 31.108L20.2543 32.2775C20.4892 32.4529 20.724 32.6868 20.9001 32.9207L21.3698 33.3885C21.722 33.7394 22.133 34.0902 22.4265 34.441L22.7201 34.7334L25.362 32.1021C25.362 32.0436 25.4207 32.0436 25.4207 31.9851L21.8982 28.5352L24.1291 26.1962L27.7103 29.7047L30.4109 27.0149L26.9471 23.6234L29.178 21.2845L32.6418 24.7344C32.6418 24.7344 32.7005 24.7344 32.7005 24.6759L35.2837 22.1031L31.7612 18.6531L33.9921 16.3142L34.8727 17.1328ZM24.8923 57.2458C25.362 57.1873 26.0665 57.0119 26.5361 56.8365C44.0312 51.4569 51.9569 43.5629 57.2406 27.5411C57.4168 26.9564 57.5342 26.5471 57.6516 25.9039C58.2387 23.5649 58.5909 24.6175 55.7142 21.7522C49.1976 15.3201 42.4461 8.65412 36.1056 2.22201C35.2837 1.40338 35.4598 1.52033 32.4657 2.33896C29.2954 3.21607 25.7729 4.67791 22.8375 6.19823C15.7338 9.88207 9.21714 16.1972 6.04689 23.6819C4.22693 28.0089 3.81597 28.5352 2.52438 33.6224C2.05472 35.0843 1.99601 34.4995 5.22497 37.7156C5.69464 38.1834 24.3052 56.8365 24.8923 57.2458Z" fill="white"/>
<path fill-rule="evenodd" clip-rule="evenodd" d="M39.3345 0.818631C39.4519 1.28642 40.0977 1.75421 40.4499 2.10505L57.5928 19.1794C57.945 19.5302 58.4147 20.2319 58.9431 20.3489C59.7063 17.2498 60.7043 5.49653 59.4128 1.16947C51.5458 -0.467791 46.2621 -0.116948 39.3345 0.818631Z" fill="white"/>
<path fill-rule="evenodd" clip-rule="evenodd" d="M20.6653 58.1813C20.5479 57.7136 19.9021 57.2458 19.5498 56.8949L2.40697 39.8791C2.05472 39.5282 1.58505 38.8265 1.05668 38.7096C0.352178 41.8087 -0.645865 53.5619 0.587011 57.889C8.45394 59.5262 13.7377 59.1169 20.6653 58.1813Z" fill="white"/>
</g>
<defs>
<clipPath id="clip0">
<rect width="60" height="59" fill="white"/>
</clipPath>
</defs>
</svg>
