<svg width="15" height="17" viewBox="0 0 15 17" fill="none" xmlns="http://www.w3.org/2000/svg">
<path d="M11.3777 0.38214C8.70969 -0.12738 5.939 -0.12738 3.27094 0.38214C2.09084 0.636899 0.60288 2.06355 0.346335 3.1845C-0.115445 5.37543 -0.115445 7.61731 0.346335 9.80825C0.654189 10.9292 2.14215 12.3558 3.27094 12.6106C3.32225 12.6106 3.37356 12.6616 3.37356 12.7125V15.9225C3.37356 16.0753 3.5788 16.1772 3.68141 16.0244L5.22068 14.4449C5.22068 14.4449 6.45209 13.1711 6.65733 12.9673C6.65733 12.9673 6.70864 12.9163 6.75995 12.9163C8.29922 12.9673 9.88979 12.8144 11.4291 12.5597C12.6092 12.3049 14.0971 10.8782 14.3537 9.7573C14.8154 7.56636 14.8154 5.32448 14.3537 3.13354C14.0458 2.06355 12.5579 0.636899 11.3777 0.38214ZM11.4291 9.96111C11.1725 10.4706 10.8647 10.8782 10.3516 11.133C10.1976 11.184 10.0437 11.2349 9.88979 11.2859C9.68455 11.2349 9.53063 11.184 9.3767 11.133C7.73482 10.4706 6.19555 9.55349 4.96414 8.22874C4.29712 7.46446 3.73272 6.59828 3.27094 5.68114C3.06571 5.22257 2.86047 4.81496 2.70654 4.35639C2.55262 3.94878 2.80916 3.54116 3.0657 3.23545C3.32225 2.92974 3.6301 2.72593 3.98927 2.57307C4.24581 2.42022 4.50236 2.52212 4.70759 2.72593C5.11806 3.23545 5.52853 3.74497 5.83639 4.30544C6.04162 4.6621 5.99031 5.06972 5.63115 5.32448C5.52853 5.37543 5.47722 5.42638 5.37461 5.52829C5.3233 5.57924 5.22068 5.63019 5.16937 5.73209C5.06675 5.88495 5.06675 6.03781 5.11806 6.19066C5.52853 7.36256 6.29817 8.27969 7.47827 8.78921C7.68351 8.89111 7.83743 8.94207 8.09398 8.94207C8.45314 8.89112 8.60707 8.4835 8.86361 8.27969C9.12016 8.07588 9.42801 8.07588 9.73586 8.22874C9.99241 8.38159 10.249 8.5854 10.5568 8.78921C10.8133 8.99302 11.0699 9.14587 11.3264 9.34968C11.4804 9.45159 11.5317 9.70635 11.4291 9.96111ZM9.27408 6.13971C9.17146 6.13971 9.22277 6.13971 9.27408 6.13971C9.06885 6.13971 9.01754 6.03781 8.96623 5.88495C8.96623 5.78305 8.96623 5.63019 8.91492 5.52829C8.86361 5.32448 8.761 5.12067 8.55576 4.96781C8.45314 4.91686 8.35052 4.86591 8.2479 4.81496C8.09398 4.76401 7.99136 4.76401 7.83743 4.76401C7.68351 4.71306 7.6322 4.61115 7.6322 4.4583C7.6322 4.35639 7.78613 4.25449 7.88874 4.25449C8.70969 4.30544 9.32539 4.76401 9.42801 5.73209C9.42801 5.78304 9.42801 5.88495 9.42801 5.9359C9.42801 6.03781 9.3767 6.13971 9.27408 6.13971ZM8.76099 3.89782C8.50445 3.79592 8.2479 3.69402 7.94005 3.64306C7.83743 3.64306 7.68351 3.59211 7.58089 3.59211C7.42696 3.59211 7.32434 3.49021 7.37565 3.33735C7.37565 3.1845 7.47827 3.08259 7.6322 3.13354C8.14529 3.1845 8.60707 3.2864 9.06885 3.49021C9.99241 3.94878 10.5055 4.71305 10.6594 5.73209C10.6594 5.78304 10.6594 5.834 10.6594 5.88495C10.6594 5.98685 10.6594 6.08876 10.6594 6.24161C10.6594 6.29256 10.6594 6.34352 10.6594 6.39447C10.6081 6.59828 10.249 6.64923 10.1976 6.39447C10.1976 6.34352 10.1463 6.24161 10.1463 6.19066C10.1463 5.73209 10.0437 5.27353 9.83848 4.86591C9.53063 4.40734 9.17146 4.10163 8.76099 3.89782ZM11.5317 6.95494C11.3777 6.95494 11.2751 6.80209 11.2751 6.64923C11.2751 6.34352 11.2238 6.0378 11.1725 5.73209C10.9673 4.10163 9.63325 2.77688 8.04267 2.52212C7.78613 2.47117 7.52958 2.47117 7.32435 2.42022C7.17042 2.42022 6.96518 2.42022 6.91387 2.21641C6.86256 2.06355 7.01649 1.9107 7.17042 1.9107C7.22173 1.9107 7.27304 1.9107 7.27304 1.9107C9.3767 1.96165 7.37566 1.9107 7.27304 1.9107C9.42801 1.96165 11.2238 3.3883 11.583 5.52829C11.6343 5.88495 11.6856 6.24161 11.6856 6.64923C11.7882 6.80209 11.6856 6.95494 11.5317 6.95494Z" fill="black"/>
</svg>
