<svg width="71" height="71" viewBox="0 0 71 71" fill="none" xmlns="http://www.w3.org/2000/svg">
<g clip-path="url(#clip0)">
<path fill-rule="evenodd" clip-rule="evenodd" d="M17.834 47.9384C18.4397 48.3418 18.9108 48.8797 19.4491 49.3504C19.9875 49.821 20.5259 50.2244 21.1316 50.6951C23.7563 52.7793 25.506 53.9223 28.4672 55.6032C28.8037 55.8049 29.1401 55.9394 29.4766 56.1411L34.6586 58.6288C39.5041 60.7131 46.907 62.4612 52.2909 62.4612C53.233 62.4612 58.4823 62.4612 59.0207 62.125C59.1553 62.0578 59.2226 61.9233 59.4245 61.7888C59.6264 61.6543 59.6937 61.5871 59.8283 61.3854C60.0975 61.1165 60.2994 60.9148 60.5686 60.6458L62.3856 58.696C62.5202 58.5615 62.5875 58.4271 62.7221 58.2926L65.2795 54.8636C65.5487 54.393 67.2984 51.5019 67.433 51.0312C65.8852 51.1657 65.7506 51.3002 63.7316 51.3002L59.2899 51.1657C57.3382 51.0312 53.0311 50.2244 51.416 49.821L46.6378 48.5435C45.8302 48.3418 45.0899 48.0729 44.3496 47.804C41.3885 46.7954 38.4273 45.5852 35.5335 44.375L33.38 43.4337C33.0435 43.232 32.707 43.1648 32.3705 42.9631C32.034 42.7613 31.6975 42.6269 31.361 42.4252C30.688 42.089 30.015 41.7528 29.342 41.4167L25.3041 39.2651L18.6416 46.7954C18.507 46.9971 18.3724 47.1316 18.1705 47.3333C18.0359 47.6023 17.9013 47.6023 17.834 47.9384Z" fill="white"/>
<path fill-rule="evenodd" clip-rule="evenodd" d="M0 34.357C0 38.3239 0 39.9375 0.94218 43.8371L2.08626 41.5511C2.28815 41.1477 2.42275 40.8115 2.69194 40.4081L3.29763 39.2651C6.05687 34.5587 6.46066 33.8191 9.96019 29.3816L14.5365 24.4735C14.873 24.2045 16.5555 22.5909 17.2957 21.9858C17.6322 21.7168 17.9014 21.5151 18.2379 21.179L21.1991 18.9602C22.7469 17.8172 24.9005 16.6742 26.6502 15.7329C27.054 15.5312 27.4578 15.3968 27.8616 15.1951C27.8616 14.8589 27.3232 13.9176 27.1886 13.5814L24.1602 7.32859C23.6218 6.25283 22.7469 4.50472 22.1412 3.56344C22.0066 3.36173 21.8047 2.95832 21.7374 2.82385C20.9299 3.02556 17.9687 4.63919 17.2957 5.0426C15.2768 6.25283 14.1327 7.12688 12.4502 8.53882C12.2483 8.67329 12.181 8.74052 12.0464 8.87499C11.8446 9.07669 11.7773 9.07669 11.5754 9.2784L8.68152 12.2367C8.00853 12.9091 6.66256 14.7917 6.12417 15.5312C4.50901 17.75 3.16303 20.7083 2.15355 23.196C0.94218 26.2216 0 31.0625 0 34.357Z" fill="white"/>
<path fill-rule="evenodd" clip-rule="evenodd" d="M2.69189 49.1486C2.69189 49.4848 4.37436 52.7793 4.64355 53.1827C4.98005 53.7878 5.38384 54.393 5.78763 54.9981C5.98953 55.3343 6.19142 55.6032 6.39332 55.9394C6.66251 56.3428 6.86441 56.6789 7.1336 56.7462C7.2009 56.4772 8.21038 54.9308 8.41227 54.6619C10.2966 51.838 12.0464 49.4176 14.2 46.7282C14.4691 46.392 14.671 46.1231 14.9402 45.7869L23.7563 35.7689C24.6312 34.8949 28.2654 31.1969 28.9383 30.6591C29.2075 30.4574 29.544 30.1212 29.7459 29.8522C30.0824 29.4488 32.4379 27.4318 32.4379 27.3646C32.4379 27.0284 31.563 24.6752 31.3611 24.07L29.6786 19.6998C29.544 19.3636 29.4094 18.9602 29.2748 18.624C28.7364 18.6913 26.381 19.9687 25.708 20.3721C23.1507 21.7841 21.6028 23.1288 19.4492 24.8096C19.1127 25.0786 18.7763 25.4147 18.5071 25.6164L16.69 27.3646C16.0843 27.9697 15.4786 28.5075 14.9402 29.1127C14.7383 29.3144 14.7383 29.3816 14.5364 29.5833L13.2578 31.0625C11.7772 32.8778 11.1715 33.6174 9.82554 35.5672C8.88336 36.9119 8.27768 37.9877 7.40279 39.3996C6.46061 40.946 5.72033 42.4924 4.91275 44.106C4.50896 44.7111 2.69189 48.678 2.69189 49.1486Z" fill="white"/>
<path fill-rule="evenodd" clip-rule="evenodd" d="M27.9961 36.643L29.8132 37.6515C30.4188 37.9877 31.1591 38.3239 31.7648 38.5928C33.0435 39.2651 34.3222 39.8703 35.6681 40.4754C37.6871 41.3494 39.6387 42.2907 41.725 43.0303C43.8113 43.8371 45.9648 44.5767 48.1184 45.249C51.0122 46.1231 54.6463 46.9971 57.6075 47.3333C60.8378 47.7367 64.0681 47.9384 67.2985 47.4006C68.106 47.2661 68.3752 47.1316 69.0482 47.2661L70.125 43.5682C70.2596 42.8958 70.3942 42.2235 70.5288 41.5511C70.6634 40.946 70.798 40.1392 70.798 39.4668C70.3269 39.4668 69.9904 39.3996 69.5866 39.3324C64.8084 38.7945 56.3288 36.8447 52.0217 35.5672C48.6568 34.6259 42.5999 32.8106 39.1004 31.4659L34.9278 29.9195C34.5241 30.1884 34.3895 30.3901 34.053 30.7263C33.8511 30.928 33.7838 30.928 33.5819 31.1297C33.4473 31.2642 33.3127 31.3987 33.1108 31.5331L29.6113 34.8949C29.3421 35.231 28.0634 36.374 27.9961 36.643Z" fill="white"/>
<path fill-rule="evenodd" clip-rule="evenodd" d="M9.48926 59.7045C9.75845 60.108 11.8447 62.0578 12.3158 62.4612C12.5177 62.6629 12.7196 62.7973 12.9888 62.999C15.0077 64.6799 17.4305 66.2936 19.8532 67.4366C22.276 68.5795 23.4874 69.1174 26.3812 69.9242C29.0058 70.5966 31.6305 71 34.2551 71.0672H36.8125C38.4276 71 40.0428 70.8655 41.658 70.5966C45.2921 69.9915 48.4551 68.8485 51.6855 67.2348C52.022 67.0331 53.2333 66.4953 53.4352 66.2263C44.148 66.2263 36.0722 63.6714 29.4096 60.3097C29.0731 60.1079 28.6694 59.9735 28.2656 59.7718C27.9291 59.5701 27.5253 59.3684 27.1888 59.1667L25.0352 57.822C24.2949 57.4186 23.6893 57.0151 23.0163 56.5445L16.0172 51.0985C15.8153 50.8968 15.8153 50.7623 15.5461 50.6951C15.4788 50.8968 14.1329 52.6449 13.9983 52.8466C13.4599 53.5862 12.9215 54.2585 12.4504 55.0653C11.7101 56.2083 10.9025 57.2841 10.2295 58.4943C10.0949 58.696 10.0276 58.8977 9.89305 59.0994C9.69115 59.3011 9.55656 59.4356 9.48926 59.7045Z" fill="white"/>
<path fill-rule="evenodd" clip-rule="evenodd" d="M48.2533 30.8608L52.9642 32.2727C53.7045 32.4744 54.5794 32.7434 55.387 32.9451L57.877 33.6174C57.877 32.5416 57.877 31.4659 57.877 30.4574C57.877 28.3059 57.6078 26.4905 57.4732 24.4735C57.2713 22.1875 56.3291 17.2121 55.6561 14.9934C55.5215 14.5899 55.3869 14.1193 55.2524 13.7159C54.5794 11.4299 53.4353 8.94222 52.3585 6.92517C51.2817 4.90813 50.0704 3.6979 49.8685 3.36172C49.8012 3.29449 49.8012 3.16002 49.7339 3.09278C49.1955 2.42044 43.8116 1.0085 42.3983 0.739565L39.5718 0.268921C39.5718 0.605095 39.7737 0.8068 39.9756 1.14297C40.1102 1.47915 40.2448 1.61362 40.3794 1.94979C41.2542 3.6979 41.9945 5.17706 42.8021 6.99241C43.2732 8.20263 43.7443 9.27839 44.2154 10.4886C44.6865 11.6988 45.0903 12.9091 45.5614 14.1865C46.5035 16.9432 47.5803 20.9773 48.0514 24.0701C48.1187 24.7424 48.2533 25.482 48.3206 26.2216C48.4552 27.2973 48.3879 28.1041 48.4552 28.5748C48.3879 29.2471 48.2533 29.9195 48.2533 30.8608Z" fill="white"/>
<path fill-rule="evenodd" clip-rule="evenodd" d="M25.1699 1.47917C25.1699 1.88258 25.9775 3.02557 26.1794 3.42898L27.1216 5.37879C27.3235 5.71496 27.3908 5.9839 27.5927 6.32008C27.7946 6.65625 27.8619 6.99242 28.0638 7.3286C28.4003 8.00095 28.804 8.6733 29.0732 9.34564L30.9576 13.447C32.3036 16.4725 33.1784 18.9602 34.3898 21.9858C34.659 22.7254 34.8609 23.465 35.1974 24.2045L36.005 26.4905C36.1396 26.6922 36.2742 26.6922 36.4761 26.7595C38.3604 27.3646 40.4467 28.3059 42.4657 28.9782C42.8694 29.1127 43.2059 29.2472 43.6097 29.3816C43.8789 29.4489 44.5519 29.7178 44.7538 29.785C44.7538 28.0369 44.6865 26.6922 44.4846 25.1458C44.2827 23.7339 44.0135 22.322 43.677 21.0445C43.0713 18.5568 42.3311 15.8002 41.3889 13.3797L40.0429 9.81629C39.841 9.21117 39.5718 8.6733 39.3026 8.06818C38.1585 5.58049 37.8221 4.84091 36.4761 2.28598C36.3415 2.01705 36.2069 1.74811 36.005 1.47917C35.8031 1.14299 35.6685 1.00852 35.4666 0.672348C35.1301 0.13447 35.0628 0 34.7936 0H34.3225C29.8808 0 25.5064 1.41193 25.1699 1.47917Z" fill="white"/>
<path fill-rule="evenodd" clip-rule="evenodd" d="M70.9997 36.0379C70.9997 30.054 70.0575 25.0786 67.2983 19.6326C66.0196 17.0104 64.2026 14.321 62.2509 12.1023C61.4433 11.161 59.8954 9.61461 58.886 8.74056C58.7514 8.60609 58.6841 8.60609 58.5495 8.47162C58.3476 8.26991 58.0784 8.06821 57.8765 7.8665C57.6073 7.6648 56.5978 6.79075 56.3286 6.72351L57.1362 8.60609C59.2225 13.2453 60.4338 18.9603 60.9722 24.0701C61.0395 24.4735 61.1068 24.8769 61.1068 25.2803L61.3087 27.8353C61.376 28.3059 61.376 28.7765 61.376 29.1127C61.376 29.5161 61.376 30.054 61.376 30.4574C61.376 30.9281 61.4433 31.197 61.4433 31.7349V33.0796C61.4433 33.2813 61.4433 33.5502 61.4433 33.7519C61.4433 34.4243 61.3087 34.2226 62.7893 34.5587C63.1931 34.626 63.5296 34.6932 63.9334 34.7604C65.0101 35.0294 70.0575 35.9707 70.9997 36.0379Z" fill="white"/>
</g>
<defs>
<clipPath id="clip0">
<rect width="71" height="71" fill="white"/>
</clipPath>
</defs>
</svg>
