<svg width="13" height="9" viewBox="0 0 13 9" fill="none" xmlns="http://www.w3.org/2000/svg">
<path d="M12.3992 3.43919C12.3992 3.16767 12.3539 2.85091 12.3539 2.48889C12.3087 2.12687 12.2634 1.76485 12.2182 1.44808C12.1277 1.08606 11.9919 0.814547 11.7204 0.588284C11.4941 0.362022 11.1774 0.22626 10.8606 0.181007C9.8198 0.0452498 8.28122 0 6.1996 0C4.11799 0 2.53414 0.0452498 1.53858 0.181007C1.22182 0.22626 0.905051 0.362022 0.678788 0.588284C0.452525 0.814547 0.271512 1.08606 0.181007 1.44808C0.0905023 1.76485 0.0452553 2.08162 0.0452553 2.48889C2.76044e-06 2.85091 0 3.16767 0 3.43919C0 3.7107 0 4.02747 0 4.48C0 4.93252 0 5.29454 0 5.52081C0 5.79232 0.0452553 6.10909 0.0452553 6.47111C0.0905078 6.83313 0.135755 7.19515 0.181007 7.51192C0.271512 7.87394 0.407273 8.14545 0.678788 8.37172C0.905051 8.59798 1.22182 8.73374 1.53858 8.77899C2.57939 8.91475 4.11799 8.96 6.1996 8.96C8.28122 8.96 9.86505 8.91475 10.8606 8.77899C11.1774 8.73374 11.4941 8.59798 11.7204 8.37172C11.9467 8.14545 12.1277 7.87394 12.2182 7.51192C12.3087 7.19515 12.3539 6.87839 12.3539 6.47111C12.3992 6.10909 12.3992 5.79232 12.3992 5.52081C12.3992 5.24929 12.3992 4.93252 12.3992 4.48C12.3992 4.02747 12.3992 3.66545 12.3992 3.43919ZM8.59798 4.84202L5.02303 7.05939C4.97778 7.10464 4.88728 7.1499 4.79677 7.1499C4.70627 7.1499 4.66101 7.1499 4.57051 7.10465C4.43475 7.01414 4.34425 6.87839 4.34425 6.69738V2.21737C4.34425 2.03636 4.43475 1.90061 4.57051 1.8101C4.70627 1.7196 4.88728 1.7196 5.02303 1.8101L8.59798 4.02747C8.73374 4.11798 8.82424 4.25374 8.82424 4.38949C8.82424 4.52525 8.73374 4.75151 8.59798 4.84202Z" fill="black"/>
</svg>
