<svg width="14" height="11" viewBox="0 0 14 11" fill="none" xmlns="http://www.w3.org/2000/svg">
<path d="M14 4.22222C14 3.88888 13.9489 3.5 13.9489 3.05556C13.8978 2.61111 13.8467 2.16666 13.7956 1.77778C13.6934 1.33333 13.5401 1 13.2336 0.722224C12.9781 0.444446 12.6204 0.277774 12.2628 0.222219C11.0876 0.0555522 9.35037 0 7.00001 0C4.64964 0 2.86131 0.0555522 1.73722 0.222219C1.37956 0.277774 1.0219 0.444446 0.766424 0.722224C0.510949 1 0.306566 1.33333 0.204376 1.77778C0.102187 2.16666 0.051098 2.55556 0.051098 3.05556C3.11534e-06 3.5 0 3.88888 0 4.22222C0 4.55555 0 4.94444 0 5.5C0 6.05555 0 6.5 0 6.77777C0 7.11111 0.051098 7.5 0.051098 7.94444C0.102193 8.38889 0.153282 8.83333 0.204376 9.22222C0.306566 9.66666 0.459854 10 0.766424 10.2778C1.0219 10.5556 1.37956 10.7222 1.73722 10.7778C2.91241 10.9444 4.64964 11 7.00001 11C9.35037 11 11.1387 10.9444 12.2628 10.7778C12.6204 10.7222 12.9781 10.5556 13.2336 10.2778C13.4891 10 13.6934 9.66666 13.7956 9.22222C13.8978 8.83333 13.9489 8.44444 13.9489 7.94444C14 7.5 14 7.11111 14 6.77777C14 6.44444 14 6.05555 14 5.5C14 4.94444 14 4.49999 14 4.22222ZM9.70803 5.94444L5.67154 8.66666C5.62044 8.72222 5.51825 8.77778 5.41606 8.77778C5.31387 8.77778 5.26278 8.77777 5.16059 8.72222C5.0073 8.61111 4.90511 8.44444 4.90511 8.22222V2.72222C4.90511 2.5 5.0073 2.33333 5.16059 2.22222C5.31387 2.11111 5.51825 2.11111 5.67154 2.22222L9.70803 4.94444C9.86132 5.05555 9.96351 5.22222 9.96351 5.38889C9.96351 5.55555 9.86132 5.83333 9.70803 5.94444Z" fill="black"/>
</svg>
