<svg width="310" height="483" viewBox="0 0 310 483" fill="none" xmlns="http://www.w3.org/2000/svg">
<path d="M32 426.5L38 441.5L45.2173 426.5H32Z" fill="#2B2F34"/>
<path d="M192.5 62.5L192.5 47L182 62.5L192.5 62.5Z" fill="#2B2F34"/>
<g filter="url(#filter0_dd)">
<path d="M193 47.5V118.5L38 441.5H101L258 118.5V47.5H193Z" fill="#3E444C"/>
<path d="M193 47.5V118.5L38 441.5H101L258 118.5V47.5H193Z" stroke="#505966"/>
</g>
<rect x="193" y="117.5" width="65" height="1" fill="#444A52"/>
<path fill-rule="evenodd" clip-rule="evenodd" d="M206 74.0211C206 73.937 206.07 73.8599 206.091 73.7758C206.264 73.0873 206.653 72.4724 207.2 72.0211C207.747 71.5697 208.424 71.3057 209.131 71.2675H209.753H225.57C225.763 71.253 225.957 71.253 226.15 71.2675C226.346 71.2992 226.524 71.4 226.652 71.5515C226.78 71.7031 226.85 71.8956 226.849 72.0943C226.841 72.2882 226.768 72.4736 226.641 72.62C226.514 72.7664 226.341 72.8652 226.15 72.9C226.02 72.9083 225.889 72.9083 225.759 72.9H209.565C209.106 72.8679 208.651 73.0049 208.286 73.2854C208.117 73.41 207.979 73.5699 207.878 73.7538C207.778 73.9377 207.719 74.1413 207.705 74.3504C207.705 74.9599 207.705 75.5695 207.705 76.2281H212.64V97.9482H207.629C207.638 98.7058 207.699 99.4619 207.81 100.211C207.883 100.507 208.05 100.771 208.286 100.963C208.522 101.155 208.814 101.265 209.117 101.276C209.273 101.287 209.43 101.287 209.586 101.276C220.536 101.276 231.485 101.276 242.435 101.276C242.808 101.279 243.177 101.195 243.512 101.031C243.788 100.873 244.013 100.638 244.158 100.355C244.303 100.071 244.363 99.7507 244.33 99.4336C244.33 97.2265 244.33 95.0195 244.33 92.8124C244.33 86.8476 244.33 80.8827 244.33 74.9179C244.338 74.6324 244.308 74.3471 244.239 74.0701C244.136 73.7371 243.931 73.4455 243.652 73.2376C243.373 73.0298 243.035 72.9164 242.687 72.914C242.578 72.909 242.471 72.8824 242.372 72.8358C242.273 72.7892 242.184 72.7236 242.11 72.6426C242.037 72.5616 241.979 72.4668 241.942 72.3637C241.905 72.2606 241.889 72.1512 241.894 72.0417C241.899 71.9322 241.925 71.8248 241.972 71.7256C242.018 71.6264 242.084 71.5373 242.165 71.4635C242.245 71.3896 242.34 71.3324 242.443 71.2952C242.546 71.258 242.655 71.2414 242.764 71.2465C243.62 71.2628 244.435 71.6117 245.039 72.2196C245.643 72.8275 245.987 73.6468 246 74.5045C246 82.9123 246 91.3201 246 99.7278C245.987 100.586 245.643 101.405 245.039 102.013C244.435 102.621 243.62 102.97 242.764 102.986H209.243C208.515 102.968 207.813 102.712 207.243 102.257C206.674 101.801 206.269 101.171 206.091 100.464C206.091 100.365 206.028 100.267 206 100.169V74.0211ZM207.726 77.9447V82.9193H210.976V77.9447H207.726ZM210.983 84.6499H207.726V89.5544H210.983V84.6499ZM210.983 91.3341H207.726V96.2737H210.983V91.3341Z" fill="#5F6466"/>
<path fill-rule="evenodd" clip-rule="evenodd" d="M214.352 99.6297V74.6096C214.452 74.6043 214.552 74.6043 214.653 74.6096H222.502C222.725 74.5765 222.953 74.6307 223.138 74.7611C223.322 74.8915 223.45 75.0881 223.494 75.3102C223.517 75.4433 223.509 75.5799 223.469 75.709C223.43 75.8381 223.361 75.9562 223.268 76.0537C223.175 76.1512 223.06 76.2254 222.933 76.2703C222.806 76.3152 222.67 76.3295 222.537 76.3122H216.029V97.9622H240.946V76.3122C240.45 76.3122 239.961 76.3122 239.472 76.3122C239.277 76.3089 239.085 76.2685 238.906 76.1931C238.744 76.111 238.614 75.978 238.536 75.8146C238.457 75.6512 238.434 75.4664 238.471 75.2887C238.508 75.1111 238.601 74.9504 238.738 74.8315C238.875 74.7126 239.047 74.642 239.227 74.6306C240.345 74.6306 241.464 74.6306 242.603 74.6306V99.6297H214.352Z" fill="#5F6466"/>
<path fill-rule="evenodd" clip-rule="evenodd" d="M243.429 66.223C243.432 66.704 243.338 67.1806 243.151 67.6238C242.965 68.0671 242.691 68.4677 242.345 68.8014L232.092 79.0729C230.617 80.5162 229.149 82.0296 227.668 83.501C227.51 83.6485 227.321 83.7586 227.116 83.8233C225.571 84.3277 224.026 84.8112 222.482 85.3157C222.326 85.3754 222.185 85.4687 222.069 85.5889C221.657 85.9883 221.258 86.4017 220.853 86.808C220.779 86.9044 220.685 86.9838 220.577 87.0408C220.47 87.0978 220.352 87.1312 220.23 87.1386C220.109 87.146 219.987 87.1273 219.874 87.0838C219.76 87.0402 219.657 86.9729 219.572 86.8862C219.486 86.7996 219.42 86.6956 219.378 86.5813C219.336 86.467 219.319 86.345 219.328 86.2234C219.337 86.1019 219.371 85.9837 219.429 85.8766C219.488 85.7696 219.568 85.6763 219.665 85.6029L219.721 85.5469C220.735 84.742 221.431 83.6023 221.685 82.3309C221.936 81.2869 222.314 80.264 222.649 79.241C222.702 79.083 222.791 78.9392 222.908 78.8206L237.648 64.03C238.175 63.4891 238.865 63.1385 239.611 63.0333C240.358 62.928 241.118 63.074 241.772 63.4484C242.266 63.7253 242.679 64.1272 242.97 64.6141C243.261 65.1009 243.419 65.6557 243.429 66.223ZM226.969 81.7213L234.657 74.0142L232.413 71.7721L224.725 79.4793L226.969 81.7213ZM239.403 69.3058L237.159 67.0217L233.755 70.4479L235.985 72.704L239.403 69.3058ZM238.375 65.7045L240.717 68.0587C240.967 67.8179 241.2 67.5604 241.416 67.288C241.597 67.0473 241.705 66.7594 241.728 66.4588C241.75 66.1581 241.685 65.8573 241.542 65.5924C241.414 65.3207 241.211 65.0916 240.957 64.9325C240.703 64.7735 240.408 64.6912 240.109 64.6956C239.761 64.7154 239.423 64.817 239.122 64.9923C238.821 65.1676 238.565 65.4116 238.375 65.7045ZM223.111 83.3188L225.305 82.6182L223.81 81.1328L223.111 83.3188Z" fill="#5F6466"/>
<defs>
<filter id="filter0_dd" x="0.205566" y="0" width="309.295" height="483" filterUnits="userSpaceOnUse" color-interpolation-filters="sRGB">
<feFlood flood-opacity="0" result="BackgroundImageFix"/>
<feColorMatrix in="SourceAlpha" type="matrix" values="0 0 0 0 0 0 0 0 0 0 0 0 0 0 0 0 0 0 127 0"/>
<feOffset dx="7" dy="-3"/>
<feGaussianBlur stdDeviation="22"/>
<feColorMatrix type="matrix" values="0 0 0 0 0 0 0 0 0 0 0 0 0 0 0 0 0 0 0.38 0"/>
<feBlend mode="normal" in2="BackgroundImageFix" result="effect1_dropShadow"/>
<feColorMatrix in="SourceAlpha" type="matrix" values="0 0 0 0 0 0 0 0 0 0 0 0 0 0 0 0 0 0 127 0"/>
<feOffset dx="-18" dy="4"/>
<feGaussianBlur stdDeviation="9"/>
<feColorMatrix type="matrix" values="0 0 0 0 0 0 0 0 0 0 0 0 0 0 0 0 0 0 0.35 0"/>
<feBlend mode="normal" in2="effect1_dropShadow" result="effect2_dropShadow"/>
<feBlend mode="normal" in="SourceGraphic" in2="effect2_dropShadow" result="shape"/>
</filter>
</defs>
</svg>
