<svg width="484" height="310" viewBox="0 0 484 310" fill="none" xmlns="http://www.w3.org/2000/svg">
<path d="M52.75 42.25L37.75 48.25L52.75 55.4673L52.75 42.25Z" fill="#2B2F34"/>
<path d="M416.75 202.75L432.25 202.75L416.75 192.25L416.75 202.75Z" fill="#2B2F34"/>
<g filter="url(#filter0_dd)">
<path d="M431.75 203.25L360.75 203.25L37.75 48.25L37.75 111.25L360.75 268.25L431.75 268.25L431.75 203.25Z" fill="#3E444C"/>
<path d="M431.75 203.25L360.75 203.25L37.75 48.25L37.75 111.25L360.75 268.25L431.75 268.25L431.75 203.25Z" stroke="#505966"/>
</g>
<rect x="361.75" y="203.25" width="65" height="1" transform="rotate(90 361.75 203.25)" fill="#444A52"/>
<path fill-rule="evenodd" clip-rule="evenodd" d="M376.257 227.278C376.257 227.194 376.327 227.117 376.348 227.033C376.521 226.344 376.91 225.729 377.457 225.278C378.004 224.827 378.681 224.563 379.388 224.525H380.01H395.827C396.02 224.51 396.214 224.51 396.407 224.525C396.603 224.556 396.781 224.657 396.909 224.809C397.037 224.96 397.107 225.153 397.106 225.351C397.098 225.545 397.025 225.731 396.898 225.877C396.77 226.024 396.598 226.122 396.407 226.157C396.277 226.165 396.146 226.165 396.016 226.157H379.821C379.362 226.125 378.908 226.262 378.542 226.542C378.374 226.667 378.235 226.827 378.135 227.011C378.035 227.195 377.976 227.398 377.962 227.607C377.962 228.217 377.962 228.827 377.962 229.485H382.897V251.205H377.885C377.895 251.963 377.956 252.719 378.067 253.468C378.14 253.764 378.307 254.028 378.543 254.22C378.778 254.413 379.07 254.522 379.374 254.533C379.53 254.544 379.686 254.544 379.842 254.533C390.792 254.533 401.742 254.533 412.692 254.533C413.065 254.536 413.433 254.452 413.769 254.288C414.045 254.13 414.27 253.895 414.415 253.612C414.56 253.328 414.62 253.008 414.586 252.691C414.586 250.484 414.586 248.277 414.586 246.07C414.586 240.105 414.586 234.14 414.586 228.175C414.595 227.89 414.565 227.604 414.496 227.327C414.393 226.994 414.187 226.703 413.908 226.495C413.629 226.287 413.292 226.173 412.944 226.171C412.835 226.166 412.728 226.139 412.629 226.093C412.53 226.046 412.441 225.981 412.367 225.9C412.293 225.819 412.236 225.724 412.199 225.621C412.162 225.518 412.146 225.408 412.151 225.299C412.156 225.189 412.182 225.082 412.229 224.983C412.275 224.883 412.341 224.794 412.421 224.721C412.502 224.647 412.597 224.59 412.7 224.552C412.802 224.515 412.912 224.499 413.021 224.504C413.876 224.52 414.692 224.869 415.296 225.477C415.9 226.085 416.244 226.904 416.257 227.762C416.257 236.169 416.257 244.577 416.257 252.985C416.244 253.843 415.9 254.662 415.296 255.27C414.692 255.878 413.876 256.227 413.021 256.243H379.5C378.772 256.225 378.069 255.969 377.5 255.514C376.931 255.058 376.526 254.428 376.348 253.721C376.348 253.623 376.285 253.524 376.257 253.426V227.278ZM377.983 231.202V236.176H381.233V231.202H377.983ZM381.24 237.907H377.983V242.812H381.24V237.907ZM381.24 244.591H377.983V249.531H381.24V244.591Z" fill="#5F6466"/>
<path fill-rule="evenodd" clip-rule="evenodd" d="M384.608 252.887V227.867C384.709 227.861 384.809 227.861 384.909 227.867H392.758C392.981 227.834 393.209 227.888 393.394 228.018C393.579 228.149 393.706 228.345 393.75 228.567C393.773 228.7 393.765 228.837 393.726 228.966C393.686 229.095 393.617 229.213 393.524 229.311C393.431 229.408 393.316 229.482 393.189 229.527C393.062 229.572 392.926 229.587 392.793 229.569H386.286V251.219H411.203V229.569C410.707 229.569 410.217 229.569 409.728 229.569C409.534 229.566 409.341 229.526 409.162 229.45C409.001 229.368 408.871 229.235 408.792 229.072C408.714 228.908 408.691 228.723 408.727 228.546C408.764 228.368 408.858 228.207 408.994 228.089C409.131 227.97 409.303 227.899 409.483 227.888C410.602 227.888 411.72 227.888 412.859 227.888V252.887H384.608Z" fill="#5F6466"/>
<path fill-rule="evenodd" clip-rule="evenodd" d="M413.686 219.48C413.689 219.961 413.595 220.438 413.409 220.881C413.223 221.324 412.948 221.725 412.603 222.058L402.349 232.33C400.875 233.773 399.407 235.287 397.925 236.758C397.767 236.906 397.579 237.016 397.373 237.08C395.828 237.585 394.284 238.068 392.739 238.573C392.583 238.632 392.442 238.726 392.327 238.846C391.914 239.245 391.516 239.659 391.11 240.065C391.036 240.162 390.942 240.241 390.835 240.298C390.727 240.355 390.609 240.388 390.488 240.396C390.366 240.403 390.245 240.384 390.131 240.341C390.018 240.297 389.915 240.23 389.829 240.143C389.744 240.057 389.678 239.953 389.636 239.838C389.594 239.724 389.576 239.602 389.585 239.481C389.594 239.359 389.629 239.241 389.687 239.134C389.745 239.027 389.825 238.933 389.922 238.86L389.978 238.804C390.992 237.999 391.688 236.859 391.942 235.588C392.194 234.544 392.571 233.521 392.907 232.498C392.96 232.34 393.048 232.196 393.165 232.078L407.906 217.287C408.432 216.746 409.122 216.396 409.869 216.29C410.615 216.185 411.375 216.331 412.03 216.706C412.524 216.982 412.937 217.384 413.227 217.871C413.518 218.358 413.676 218.913 413.686 219.48ZM397.226 234.978L404.914 227.271L402.671 225.029L394.983 232.736L397.226 234.978ZM409.66 222.563L407.417 220.279L404.013 223.705L406.242 225.961L409.66 222.563ZM408.633 218.962L410.974 221.316C411.224 221.075 411.458 220.817 411.673 220.545C411.854 220.304 411.963 220.017 411.985 219.716C412.007 219.415 411.943 219.114 411.799 218.849C411.671 218.578 411.468 218.349 411.214 218.19C410.96 218.031 410.666 217.948 410.366 217.953C410.018 217.972 409.68 218.074 409.379 218.249C409.078 218.425 408.822 218.669 408.633 218.962ZM393.368 236.576L395.563 235.875L394.067 234.39L393.368 236.576Z" fill="#5F6466"/>
<defs>
<filter id="filter0_dd" x="0.25" y="0.455566" width="483" height="309.295" filterUnits="userSpaceOnUse" color-interpolation-filters="sRGB">
<feFlood flood-opacity="0" result="BackgroundImageFix"/>
<feColorMatrix in="SourceAlpha" type="matrix" values="0 0 0 0 0 0 0 0 0 0 0 0 0 0 0 0 0 0 127 0"/>
<feOffset dx="7" dy="-3"/>
<feGaussianBlur stdDeviation="22"/>
<feColorMatrix type="matrix" values="0 0 0 0 0 0 0 0 0 0 0 0 0 0 0 0 0 0 0.38 0"/>
<feBlend mode="normal" in2="BackgroundImageFix" result="effect1_dropShadow"/>
<feColorMatrix in="SourceAlpha" type="matrix" values="0 0 0 0 0 0 0 0 0 0 0 0 0 0 0 0 0 0 127 0"/>
<feOffset dx="-18" dy="4"/>
<feGaussianBlur stdDeviation="9"/>
<feColorMatrix type="matrix" values="0 0 0 0 0 0 0 0 0 0 0 0 0 0 0 0 0 0 0.35 0"/>
<feBlend mode="normal" in2="effect1_dropShadow" result="effect2_dropShadow"/>
<feBlend mode="normal" in="SourceGraphic" in2="effect2_dropShadow" result="shape"/>
</filter>
</defs>
</svg>
