<svg width="484" height="310" viewBox="0 0 484 310" fill="none" xmlns="http://www.w3.org/2000/svg">
<path d="M52.75 42.25L37.75 48.25L52.75 55.4673L52.75 42.25Z" fill="#2B2F34"/>
<path d="M416.75 202.75L432.25 202.75L416.75 192.25L416.75 202.75Z" fill="#2B2F34"/>
<g filter="url(#filter0_dd)">
<path d="M431.75 203.25L360.75 203.25L37.75 48.25L37.75 111.25L360.75 268.25L431.75 268.25L431.75 203.25Z" fill="#3E444C"/>
<path d="M431.75 203.25L360.75 203.25L37.75 48.25L37.75 111.25L360.75 268.25L431.75 268.25L431.75 203.25Z" stroke="#505966"/>
</g>
<rect x="361.75" y="203.25" width="65" height="1" transform="rotate(90 361.75 203.25)" fill="#444A52"/>
<path fill-rule="evenodd" clip-rule="evenodd" d="M379.021 240.682L378.526 240.517C378.03 240.358 377.613 240.051 377.347 239.648C377.081 239.246 376.983 238.773 377.07 238.313C377.222 237.424 377.381 236.537 377.548 235.651C377.579 235.516 377.575 235.377 377.536 235.244C377.496 235.111 377.423 234.988 377.321 234.884C376.686 234.209 376.069 233.525 375.446 232.824C375.081 232.463 374.877 231.998 374.872 231.514C374.867 231.03 375.06 230.56 375.417 230.193C376.04 229.503 376.663 228.813 377.309 228.134C377.417 228.025 377.495 227.895 377.537 227.754C377.578 227.614 377.582 227.467 377.548 227.325C377.381 226.44 377.222 225.552 377.07 224.663C376.987 224.219 377.079 223.763 377.331 223.372C377.584 222.98 377.981 222.678 378.457 222.516C379.392 222.173 380.334 221.854 381.281 221.558C381.452 221.512 381.607 221.43 381.734 221.32C381.862 221.21 381.958 221.074 382.015 220.925C382.329 220.163 382.673 219.406 382.993 218.649C383.151 218.139 383.527 217.703 384.043 217.435C384.559 217.166 385.173 217.086 385.754 217.213C386.715 217.341 387.676 217.47 388.637 217.614C388.776 217.638 388.92 217.633 389.058 217.6C389.195 217.567 389.322 217.507 389.429 217.424L391.758 215.735C392.168 215.422 392.691 215.25 393.232 215.25C393.773 215.25 394.296 215.422 394.705 215.735C395.482 216.284 396.258 216.837 397.035 217.393C397.155 217.491 397.3 217.563 397.458 217.602C397.616 217.642 397.782 217.647 397.943 217.619C398.91 217.47 399.883 217.346 400.855 217.207C401.402 217.11 401.971 217.193 402.453 217.442C402.935 217.691 403.297 218.087 403.47 218.556C403.814 219.36 404.175 220.158 404.507 220.966C404.561 221.108 404.652 221.236 404.772 221.34C404.892 221.445 405.039 221.523 405.2 221.569C406.12 221.867 407.034 222.181 407.949 222.501C408.463 222.654 408.896 222.967 409.168 223.382C409.44 223.797 409.533 224.285 409.428 224.756C409.282 225.621 409.125 226.486 408.962 227.33C408.928 227.471 408.932 227.617 408.974 227.757C409.015 227.896 409.093 228.025 409.201 228.134C409.841 228.813 410.464 229.503 411.093 230.193C411.449 230.556 411.644 231.019 411.644 231.498C411.644 231.978 411.449 232.441 411.093 232.804C410.476 233.478 409.865 234.158 409.236 234.822C409.109 234.935 409.015 235.074 408.964 235.227C408.912 235.38 408.903 235.541 408.939 235.697C409.113 236.578 409.265 237.458 409.416 238.339C409.497 238.781 409.407 239.234 409.159 239.625C408.912 240.016 408.522 240.321 408.053 240.491L407.471 240.692L408.024 241.521C410.043 244.61 412.062 247.7 414.081 250.789C414.181 250.936 414.239 251.102 414.25 251.273C414.251 251.361 414.231 251.448 414.19 251.528C414.149 251.608 414.09 251.679 414.015 251.737C413.94 251.795 413.852 251.838 413.757 251.862C413.662 251.887 413.562 251.893 413.464 251.881C412.421 251.881 411.379 251.829 410.331 251.793C409.282 251.757 408.17 251.726 407.092 251.68C406.871 251.68 406.801 251.783 406.72 251.917L403.843 256.7L403.767 256.824C403.708 256.937 403.614 257.032 403.496 257.099C403.378 257.166 403.241 257.202 403.1 257.202C402.96 257.202 402.822 257.166 402.704 257.099C402.586 257.032 402.492 256.937 402.433 256.824C401.938 256.077 401.455 255.32 400.96 254.569L395.835 246.778C395.8 246.721 395.759 246.675 395.695 246.588C395.41 246.788 395.113 246.979 394.862 247.18C394.435 247.556 393.856 247.767 393.252 247.767C392.649 247.767 392.07 247.556 391.642 247.18C391.374 246.984 391.1 246.794 390.809 246.588C390.704 246.737 390.611 246.866 390.518 247L384.112 256.819C384.057 256.946 383.96 257.055 383.834 257.132C383.707 257.209 383.557 257.25 383.404 257.25C383.25 257.25 383.101 257.209 382.974 257.132C382.848 257.055 382.751 256.946 382.696 256.819C381.735 255.217 380.769 253.616 379.784 252.01C379.744 251.916 379.669 251.838 379.572 251.787C379.475 251.736 379.36 251.717 379.249 251.731C377.909 251.762 376.535 251.819 375.16 251.819L373.151 251.881C373.004 251.908 372.851 251.898 372.71 251.85C372.57 251.803 372.448 251.72 372.359 251.613C372.28 251.494 372.243 251.356 372.251 251.218C372.259 251.08 372.313 250.947 372.406 250.836L378.858 240.955L379.021 240.682ZM379.021 227.469C379.054 227.989 378.863 228.501 378.486 228.901L376.599 230.96C376.511 231.029 376.44 231.113 376.392 231.208C376.344 231.302 376.319 231.405 376.319 231.509C376.319 231.612 376.344 231.715 376.392 231.81C376.44 231.904 376.511 231.989 376.599 232.057L378.515 234.158C378.714 234.37 378.86 234.618 378.941 234.885C379.023 235.151 379.038 235.43 378.987 235.703C378.829 236.609 378.66 237.51 378.497 238.411C378.467 238.503 378.458 238.6 378.471 238.696C378.483 238.791 378.518 238.883 378.573 238.967C378.627 239.05 378.7 239.123 378.787 239.18C378.874 239.238 378.974 239.279 379.08 239.302L381.904 240.259C382.237 240.36 382.54 240.525 382.79 240.744C383.04 240.962 383.231 241.228 383.349 241.521C383.704 242.365 384.071 243.2 384.443 244.039C384.499 244.208 384.627 244.352 384.799 244.44C384.972 244.528 385.176 244.554 385.369 244.513L388.38 244.096C388.719 244.039 389.067 244.049 389.4 244.126C389.734 244.202 390.044 244.343 390.308 244.538C391.077 245.125 391.851 245.64 392.632 246.207C392.71 246.287 392.807 246.352 392.916 246.396C393.025 246.44 393.144 246.463 393.264 246.463C393.384 246.463 393.502 246.44 393.611 246.396C393.72 246.352 393.817 246.287 393.896 246.207C394.653 245.666 395.416 245.13 396.161 244.58C396.433 244.369 396.756 244.216 397.105 244.132C397.455 244.048 397.821 244.036 398.176 244.096C399.143 244.24 400.115 244.368 401.088 244.502C401.193 244.53 401.303 244.539 401.412 244.528C401.52 244.517 401.625 244.486 401.72 244.438C401.815 244.39 401.898 244.325 401.963 244.247C402.029 244.17 402.076 244.081 402.101 243.987C402.451 243.179 402.812 242.371 403.15 241.557C403.269 241.25 403.467 240.972 403.727 240.743C403.988 240.515 404.304 240.342 404.652 240.239C405.567 239.945 406.469 239.626 407.378 239.317C407.486 239.292 407.587 239.248 407.675 239.188C407.763 239.128 407.837 239.052 407.891 238.966C407.946 238.88 407.98 238.785 407.992 238.687C408.004 238.589 407.993 238.49 407.96 238.396C407.797 237.515 407.646 236.635 407.483 235.754C407.423 235.462 407.437 235.161 407.525 234.875C407.612 234.588 407.771 234.322 407.989 234.096L409.876 232.037C409.961 231.968 410.029 231.885 410.076 231.791C410.122 231.698 410.146 231.598 410.146 231.496C410.146 231.394 410.122 231.293 410.076 231.2C410.029 231.107 409.961 231.024 409.876 230.955L407.972 228.896C407.766 228.686 407.614 228.439 407.526 228.173C407.439 227.906 407.418 227.625 407.465 227.351C407.611 226.44 407.785 225.528 407.954 224.617C407.991 224.521 408.004 224.42 407.994 224.32C407.984 224.219 407.951 224.122 407.896 224.033C407.842 223.945 407.767 223.867 407.677 223.805C407.586 223.744 407.483 223.699 407.372 223.675L404.501 222.696C404.203 222.599 403.932 222.445 403.708 222.246C403.483 222.047 403.311 221.807 403.202 221.543L402.131 219.113C401.886 218.546 401.635 218.417 400.966 218.515L398.141 218.917C397.794 218.977 397.436 218.967 397.094 218.887C396.751 218.806 396.435 218.658 396.167 218.453C395.398 217.887 394.612 217.321 393.837 216.806C393.762 216.736 393.672 216.68 393.572 216.642C393.472 216.604 393.364 216.585 393.255 216.585C393.146 216.585 393.038 216.604 392.938 216.642C392.838 216.68 392.748 216.736 392.673 216.806C391.915 217.321 391.141 217.836 390.395 218.417C390.112 218.635 389.775 218.793 389.411 218.876C389.048 218.96 388.667 218.969 388.299 218.901C387.32 218.752 386.342 218.623 385.387 218.495C385.287 218.473 385.184 218.47 385.083 218.484C384.982 218.499 384.885 218.531 384.799 218.579C384.712 218.627 384.637 218.69 384.578 218.764C384.519 218.838 384.477 218.921 384.455 219.01C384.117 219.792 383.756 220.554 383.448 221.352C383.323 221.699 383.106 222.014 382.816 222.271C382.525 222.529 382.168 222.72 381.776 222.83C380.885 223.108 380.029 223.422 379.126 223.721C379.022 223.744 378.925 223.785 378.839 223.841C378.753 223.898 378.681 223.969 378.627 224.05C378.573 224.132 378.537 224.222 378.523 224.316C378.509 224.41 378.516 224.505 378.544 224.596C378.602 224.915 378.666 225.235 378.724 225.554C378.829 226.234 378.952 226.924 379.045 227.469H379.021ZM383.413 255.238L383.663 254.908L387.623 248.843C388.245 247.875 388.875 246.903 389.516 245.929C389.557 245.862 389.586 245.728 389.545 245.687C389.447 245.574 389.316 245.486 389.167 245.431C389.018 245.377 388.855 245.359 388.695 245.378C387.711 245.522 386.721 245.651 385.736 245.79C385.169 245.913 384.57 245.838 384.064 245.581C383.558 245.324 383.182 244.905 383.017 244.41C382.749 243.792 382.487 243.174 382.213 242.556C381.759 241.526 381.945 241.681 380.745 241.264C380.501 241.181 380.384 241.197 380.244 241.408C378.303 244.391 376.362 247.37 374.421 250.346C374.38 250.403 374.351 250.47 374.298 250.563H374.677C376.424 250.506 378.171 250.455 379.918 250.388C380.105 250.369 380.293 250.405 380.456 250.488C380.618 250.571 380.746 250.699 380.821 250.851C381.363 251.773 381.922 252.694 382.469 253.611L383.413 255.238ZM412.159 250.506L412.054 250.274L408.484 244.827C407.733 243.673 406.976 242.52 406.231 241.361C406.126 241.197 406.021 241.161 405.829 241.238C405.609 241.327 405.383 241.404 405.153 241.47C405.004 241.512 404.868 241.586 404.757 241.684C404.647 241.783 404.565 241.903 404.518 242.036C404.169 242.863 403.812 243.687 403.447 244.507C403.264 244.971 402.895 245.36 402.41 245.599C401.925 245.839 401.357 245.912 400.814 245.805C399.818 245.661 398.823 245.527 397.827 245.388C397.709 245.369 397.587 245.372 397.471 245.398C397.354 245.424 397.245 245.471 397.151 245.537C396.86 245.738 396.854 245.738 397.04 246.021L402.864 254.97C402.917 255.047 402.975 255.12 403.045 255.223L403.214 254.96L405.701 250.841C405.765 250.706 405.875 250.592 406.016 250.514C406.157 250.437 406.321 250.4 406.487 250.408C407.681 250.449 408.875 250.491 410.068 250.521C410.785 250.521 411.472 250.506 412.182 250.506H412.159Z" fill="#5F6466"/>
<path fill-rule="evenodd" clip-rule="evenodd" d="M393.286 222.197C390.795 222.179 388.378 222.947 386.469 224.362C384.559 225.778 383.283 227.748 382.868 229.92C382.775 230.645 382.73 231.374 382.734 232.103C382.744 232.211 382.723 232.32 382.673 232.419C382.624 232.518 382.547 232.605 382.449 232.671C382.352 232.737 382.237 232.781 382.116 232.797C381.995 232.814 381.871 232.804 381.755 232.767C381.612 232.731 381.486 232.655 381.396 232.55C381.306 232.445 381.256 232.317 381.254 232.186C381.139 230.851 381.338 229.51 381.837 228.247C382.459 226.501 383.584 224.929 385.103 223.686C386.622 222.442 388.481 221.571 390.497 221.156C391.677 220.902 392.896 220.813 394.108 220.894C394.302 220.879 394.495 220.933 394.645 221.042C394.795 221.152 394.891 221.31 394.911 221.481C394.925 221.569 394.918 221.66 394.889 221.746C394.861 221.832 394.812 221.911 394.746 221.979C394.679 222.047 394.598 222.101 394.506 222.139C394.414 222.176 394.314 222.196 394.212 222.197C393.91 222.207 393.595 222.197 393.286 222.197Z" fill="#5F6466"/>
<path fill-rule="evenodd" clip-rule="evenodd" d="M393.215 228.087L392.463 228.53C392.347 228.602 392.23 228.674 392.102 228.736C391.939 228.823 391.745 228.85 391.56 228.811C391.375 228.773 391.214 228.672 391.112 228.53C391.058 228.461 391.021 228.384 391.001 228.302C390.982 228.22 390.981 228.136 390.999 228.054C391.017 227.972 391.053 227.894 391.106 227.825C391.158 227.755 391.226 227.696 391.304 227.649C391.799 227.34 392.312 227.052 392.813 226.753L393.506 226.347C393.625 226.256 393.774 226.201 393.931 226.19C394.088 226.179 394.245 226.212 394.379 226.285C394.509 226.349 394.615 226.444 394.685 226.56C394.754 226.677 394.784 226.808 394.769 226.939C394.769 228.92 394.769 230.899 394.769 232.876V234.853H395.608C395.829 234.853 396.057 234.853 396.278 234.853C396.472 234.853 396.659 234.921 396.797 235.043C396.934 235.165 397.012 235.33 397.012 235.502C397.012 235.674 396.934 235.839 396.797 235.961C396.659 236.082 396.472 236.151 396.278 236.151C395.503 236.151 394.723 236.151 393.948 236.151C393.174 236.151 392.556 236.151 391.863 236.151C391.749 236.157 391.635 236.14 391.53 236.102C391.424 236.063 391.33 236.004 391.254 235.929C391.179 235.853 391.123 235.764 391.093 235.667C391.062 235.569 391.057 235.467 391.077 235.368C391.112 235.22 391.205 235.088 391.339 234.994C391.473 234.9 391.64 234.85 391.811 234.853C392.236 234.853 392.667 234.853 393.098 234.853C393.249 234.853 393.325 234.827 393.325 234.673C393.325 232.527 393.325 230.382 393.325 228.236C393.293 228.184 393.256 228.134 393.215 228.087Z" fill="#5F6466"/>
<path fill-rule="evenodd" clip-rule="evenodd" d="M405.292 231.423C405.305 233.145 404.843 234.843 403.946 236.372C403.906 236.452 403.849 236.524 403.776 236.583C403.704 236.643 403.619 236.689 403.526 236.719C403.433 236.749 403.334 236.762 403.236 236.758C403.137 236.753 403.04 236.731 402.951 236.692C402.863 236.654 402.784 236.6 402.719 236.533C402.655 236.467 402.606 236.39 402.576 236.307C402.546 236.223 402.535 236.135 402.544 236.048C402.554 235.961 402.583 235.877 402.63 235.8C403.042 235.108 403.347 234.37 403.539 233.607C403.914 232.219 403.92 230.774 403.557 229.384C403.194 227.994 402.472 226.697 401.448 225.595L401.192 225.322C401.126 225.259 401.075 225.186 401.042 225.106C401.008 225.025 400.993 224.94 400.998 224.855C401.002 224.77 401.026 224.686 401.067 224.609C401.108 224.532 401.166 224.462 401.238 224.405C401.307 224.342 401.391 224.293 401.483 224.261C401.576 224.23 401.675 224.216 401.774 224.221C401.873 224.227 401.97 224.251 402.057 224.293C402.145 224.334 402.221 224.392 402.281 224.462C402.846 225.091 403.366 225.751 403.836 226.439C404.788 227.966 405.289 229.68 405.292 231.423Z" fill="#5F6466"/>
<path fill-rule="evenodd" clip-rule="evenodd" d="M397.873 221.733C397.973 221.747 398.071 221.773 398.164 221.81C398.84 222.145 399.521 222.475 400.179 222.84C400.262 222.885 400.333 222.945 400.388 223.016C400.443 223.086 400.48 223.166 400.498 223.251C400.516 223.335 400.514 223.422 400.493 223.505C400.471 223.589 400.429 223.668 400.371 223.736C400.264 223.874 400.1 223.97 399.914 224.004C399.729 224.037 399.536 224.006 399.375 223.916L397.494 222.964C397.345 222.897 397.226 222.789 397.155 222.655C397.085 222.522 397.067 222.371 397.104 222.227C397.149 222.08 397.25 221.95 397.39 221.86C397.53 221.77 397.7 221.725 397.873 221.733Z" fill="#5F6466"/>
<path fill-rule="evenodd" clip-rule="evenodd" d="M388.917 239.554C389.036 239.546 389.156 239.564 389.266 239.607C389.376 239.65 389.472 239.716 389.545 239.8C389.619 239.883 389.668 239.982 389.689 240.086C389.709 240.191 389.7 240.298 389.662 240.398C389.47 240.846 389.255 241.289 389.022 241.722C388.983 241.799 388.928 241.868 388.86 241.927C388.791 241.985 388.71 242.031 388.621 242.061C388.533 242.092 388.438 242.107 388.343 242.105C388.248 242.103 388.154 242.085 388.067 242.051C387.979 242.017 387.901 241.969 387.835 241.908C387.769 241.847 387.717 241.776 387.682 241.697C387.648 241.619 387.631 241.535 387.633 241.451C387.635 241.367 387.656 241.284 387.694 241.207C387.886 240.764 388.096 240.331 388.317 239.899C388.372 239.799 388.457 239.714 388.563 239.653C388.668 239.592 388.791 239.558 388.917 239.554Z" fill="#5F6466"/>
<path fill-rule="evenodd" clip-rule="evenodd" d="M391.766 241.521C391.766 241.299 391.766 241.078 391.766 240.862C391.766 240.69 391.843 240.525 391.981 240.403C392.118 240.281 392.305 240.213 392.499 240.213C392.694 240.213 392.881 240.281 393.018 240.403C393.156 240.525 393.233 240.69 393.233 240.862C393.233 241.31 393.233 241.758 393.233 242.206C393.235 242.291 393.217 242.376 393.18 242.455C393.143 242.535 393.088 242.606 393.019 242.666C392.95 242.726 392.868 242.773 392.777 242.803C392.687 242.834 392.59 242.848 392.494 242.844C392.398 242.844 392.302 242.827 392.214 242.795C392.125 242.762 392.044 242.714 391.977 242.654C391.909 242.594 391.856 242.522 391.819 242.443C391.783 242.365 391.765 242.28 391.766 242.195C391.766 241.974 391.766 241.753 391.766 241.531V241.521Z" fill="#5F6466"/>
<path fill-rule="evenodd" clip-rule="evenodd" d="M400.7 239.354C400.714 239.49 400.681 239.626 400.605 239.745C400.529 239.864 400.414 239.959 400.275 240.018C400.152 240.079 400.01 240.103 399.871 240.087C399.732 240.071 399.602 240.016 399.5 239.931C399.104 239.606 398.714 239.266 398.335 238.901C398.221 238.776 398.164 238.618 398.174 238.458C398.185 238.298 398.262 238.147 398.392 238.035C398.522 237.923 398.694 237.858 398.875 237.852C399.056 237.847 399.234 237.901 399.372 238.005C399.756 238.324 400.129 238.654 400.484 238.993C400.578 239.102 400.651 239.224 400.7 239.354Z" fill="#5F6466"/>
<path fill-rule="evenodd" clip-rule="evenodd" d="M397.181 241.469C397.185 241.615 397.133 241.757 397.035 241.873C396.937 241.99 396.798 242.074 396.639 242.113C396.484 242.155 396.316 242.146 396.167 242.088C396.017 242.031 395.896 241.928 395.824 241.799C395.591 241.341 395.376 240.872 395.189 240.398C395.139 240.26 395.148 240.11 395.213 239.976C395.279 239.843 395.396 239.735 395.545 239.672C395.694 239.597 395.87 239.575 396.037 239.611C396.204 239.648 396.349 239.74 396.441 239.868C396.715 240.383 396.919 240.898 397.152 241.413C397.164 241.43 397.174 241.449 397.181 241.469Z" fill="#5F6466"/>
<path fill-rule="evenodd" clip-rule="evenodd" d="M382.733 236.974C382.576 236.975 382.423 236.93 382.298 236.846C382.173 236.762 382.082 236.645 382.04 236.511C381.989 236.378 381.992 236.233 382.05 236.102C382.107 235.971 382.215 235.863 382.354 235.795C382.896 235.574 383.449 235.373 384.008 235.203C384.167 235.17 384.333 235.187 384.478 235.252C384.623 235.317 384.737 235.426 384.8 235.558C384.882 235.688 384.904 235.841 384.863 235.986C384.822 236.13 384.721 236.255 384.579 236.336C383.997 236.578 383.414 236.763 382.832 236.974C382.799 236.979 382.766 236.979 382.733 236.974Z" fill="#5F6466"/>
<path fill-rule="evenodd" clip-rule="evenodd" d="M385.126 240.089C384.98 240.096 384.835 240.067 384.707 240.004C384.579 239.941 384.474 239.847 384.404 239.734C384.332 239.628 384.3 239.504 384.314 239.381C384.327 239.257 384.385 239.141 384.48 239.049C384.864 238.678 385.266 238.323 385.685 237.983C385.82 237.882 385.995 237.831 386.171 237.84C386.348 237.85 386.514 237.92 386.634 238.035C386.767 238.144 386.848 238.294 386.86 238.454C386.871 238.613 386.814 238.771 386.698 238.895C386.32 239.26 385.918 239.605 385.534 239.925C385.411 240.002 385.273 240.058 385.126 240.089Z" fill="#5F6466"/>
<defs>
<filter id="filter0_dd" x="0.25" y="0.455566" width="483" height="309.295" filterUnits="userSpaceOnUse" color-interpolation-filters="sRGB">
<feFlood flood-opacity="0" result="BackgroundImageFix"/>
<feColorMatrix in="SourceAlpha" type="matrix" values="0 0 0 0 0 0 0 0 0 0 0 0 0 0 0 0 0 0 127 0"/>
<feOffset dx="7" dy="-3"/>
<feGaussianBlur stdDeviation="22"/>
<feColorMatrix type="matrix" values="0 0 0 0 0 0 0 0 0 0 0 0 0 0 0 0 0 0 0.38 0"/>
<feBlend mode="normal" in2="BackgroundImageFix" result="effect1_dropShadow"/>
<feColorMatrix in="SourceAlpha" type="matrix" values="0 0 0 0 0 0 0 0 0 0 0 0 0 0 0 0 0 0 127 0"/>
<feOffset dx="-18" dy="4"/>
<feGaussianBlur stdDeviation="9"/>
<feColorMatrix type="matrix" values="0 0 0 0 0 0 0 0 0 0 0 0 0 0 0 0 0 0 0.35 0"/>
<feBlend mode="normal" in2="effect1_dropShadow" result="effect2_dropShadow"/>
<feBlend mode="normal" in="SourceGraphic" in2="effect2_dropShadow" result="shape"/>
</filter>
</defs>
</svg>
