<svg width="484" height="310" viewBox="0 0 484 310" fill="none" xmlns="http://www.w3.org/2000/svg">
<path d="M52.75 42.25L37.75 48.25L52.75 55.4673L52.75 42.25Z" fill="#2B2F34"/>
<path d="M416.75 202.75L432.25 202.75L416.75 192.25L416.75 202.75Z" fill="#2B2F34"/>
<g filter="url(#filter0_dd)">
<path d="M431.75 203.25L360.75 203.25L37.75 48.25L37.75 111.25L360.75 268.25L431.75 268.25L431.75 203.25Z" fill="#3E444C"/>
<path d="M431.75 203.25L360.75 203.25L37.75 48.25L37.75 111.25L360.75 268.25L431.75 268.25L431.75 203.25Z" stroke="#505966"/>
</g>
<rect x="361.75" y="203.25" width="65" height="1" transform="rotate(90 361.75 203.25)" fill="#444A52"/>
<path fill-rule="evenodd" clip-rule="evenodd" d="M413.236 236.274V236.61C413.201 236.787 413.129 236.949 413.028 237.079C412.927 237.21 412.801 237.304 412.662 237.353C412.189 237.592 405.981 240.029 405.584 240.069C406.196 240.616 406.851 241.085 407.538 241.467L411.546 244.087C412.044 244.399 413.236 244.982 413.236 245.813C413.236 246.979 411.918 247.115 411.105 247.41C408.962 248.321 406.832 249.008 404.701 249.919C404.172 250.143 402.69 250.846 402.69 249.432C402.69 248.265 403.617 248.201 404.323 247.93C405.029 247.658 405.659 247.442 406.29 247.131C406.92 246.819 407.55 246.643 408.269 246.332C408.653 246.164 408.899 246.068 409.284 245.925C409.598 245.757 409.929 245.644 410.267 245.589V245.405C410.042 245.316 409.83 245.184 409.637 245.014L403.485 241.091C403.264 240.995 403.163 241.091 402.854 241.259L390.04 246.252C387.909 247.051 388.426 246.771 386.258 245.381L383.441 243.504C383.176 243.336 383.043 243.152 382.735 243.224C381.783 243.488 376.847 245.677 376.204 245.733V245.94C376.876 246.268 377.52 246.681 378.127 247.171L387.462 253.362C388.269 253.881 388.458 254.257 388.931 254.065L393.816 252.116C394.963 251.708 395.959 251.205 397.106 250.838C397.913 250.574 398.619 251.397 398.133 252.34C397.913 252.771 397.616 252.787 397.194 252.939L390.683 255.471C389.977 255.871 389.23 256.14 388.464 256.27C387.767 255.935 387.097 255.512 386.466 255.008L385.514 254.361L374.83 247.275C374.314 246.867 373.229 246.476 373.229 245.677C373.22 245.419 373.286 245.165 373.413 244.964C373.541 244.762 373.722 244.627 373.923 244.582L376.917 243.4C377.471 243.176 380.308 241.97 380.881 241.914C380.26 241.359 379.597 240.882 378.902 240.492L374.893 237.856C374.433 237.504 373.229 237.009 373.229 236.146C373.229 235.012 374.257 234.94 374.874 234.676L378.927 233.078C379.236 232.951 379.602 232.839 379.942 232.687C380.274 232.514 380.618 232.383 380.97 232.296C380.837 232.072 380.705 232.072 380.472 231.944C380.239 231.816 380.15 231.76 379.93 231.648C378.196 230.698 376.614 229.436 374.925 228.381C374.528 228.141 374.295 227.95 373.91 227.694C373.713 227.625 373.54 227.476 373.417 227.269C373.293 227.063 373.228 226.811 373.229 226.552C373.229 225.697 373.904 225.569 374.402 225.385C374.9 225.202 375.442 224.938 375.959 224.77C379.11 223.676 382.262 222.246 385.413 221.071C389.101 219.697 392.681 218.171 396.381 216.797C398.007 216.182 397.572 215.903 399.009 216.853C399.35 217.077 399.64 217.261 400.005 217.484C402.457 219.026 405.231 221.031 407.739 222.629C408.105 222.853 408.37 223.061 408.71 223.276C409.681 223.907 410.689 224.506 411.628 225.21C412.139 225.601 413.229 226.008 413.229 226.807C413.246 227.038 413.197 227.269 413.092 227.459C412.987 227.65 412.833 227.786 412.656 227.846C412.082 228.125 405.918 230.538 405.577 230.562C405.754 230.858 409.202 233.055 409.529 233.254L412.555 235.275C412.719 235.363 412.866 235.496 412.983 235.667C413.1 235.837 413.184 236.04 413.229 236.258L413.236 236.274ZM402.52 239.174L406.775 233.813L408.496 234.932C408.968 235.227 409.977 235.97 410.273 236.066V236.21C409.936 236.273 409.606 236.386 409.29 236.546L404.499 238.447C403.869 238.647 403.182 239.022 402.533 239.246L402.52 239.174ZM383.39 241.091C383.081 241.003 380.453 239.246 380.163 239.006C380.383 238.575 384.317 233.67 384.373 233.67L386.384 234.189C387.087 234.371 387.799 234.494 388.515 234.556L383.39 241.091ZM378.606 237.896C378.184 237.7 377.777 237.457 377.389 237.169C377.011 236.85 376.608 236.582 376.186 236.37V236.21C376.671 236.21 380.661 234.405 381.568 234.149L378.606 237.896ZM388.395 244.455L384.859 242.154L390.494 234.964C390.771 234.628 390.922 234.74 391.42 234.756C392.807 234.677 394.189 234.509 395.562 234.253C395.895 234.149 396.234 234.082 396.576 234.053L388.395 244.455ZM391.509 243.464C391.761 243.017 398.215 234.932 398.997 233.949C399.23 233.62 399.479 233.308 399.741 233.015C399.93 232.831 402.735 231.768 403.163 231.601C403.592 231.433 403.56 231.672 404.146 232.032C404.479 232.293 404.829 232.515 405.193 232.695C405.105 233.102 404.808 233.326 404.562 233.606C403.636 234.772 399.306 240.388 398.984 240.596C398.634 240.767 398.276 240.912 397.913 241.027L393.683 242.681C392.963 243.001 392.228 243.267 391.483 243.48L391.509 243.464ZM389.712 228.733C389.996 229.067 390.257 229.43 390.494 229.819C390.77 230.201 391.065 230.561 391.376 230.898C391.968 231.499 392.601 232.034 393.267 232.495C393.412 232.607 393.324 232.495 393.4 232.607L390.595 232.719C388.836 232.612 387.085 232.345 385.357 231.92C385.521 231.641 386.737 231.401 387.765 230.618C388.467 230.081 389.125 229.457 389.731 228.757L389.712 228.733ZM383.314 230.011C381.228 230.011 381.424 230.274 379.936 229.364L376.198 226.743C376.96 226.542 377.709 226.275 378.442 225.944L385.25 223.268C387.279 222.413 389.857 221.487 391.988 220.632L397.61 218.435C397.906 218.339 397.862 218.363 398.083 218.531L398.593 218.866C399.942 219.721 401.146 220.592 402.495 221.447L409.265 225.944C409.572 226.208 409.908 226.415 410.261 226.56L397.024 231.8C396.715 231.896 396.715 231.8 396.349 231.672C395.412 231.394 394.505 230.975 393.645 230.426C392.511 229.638 391.557 228.491 390.878 227.095C390.601 226.552 390.084 225.106 389.164 226.52C388.586 227.345 387.925 228.07 387.197 228.677C386.02 229.553 384.68 230.014 383.314 230.011Z" fill="#5F6466"/>
<path fill-rule="evenodd" clip-rule="evenodd" d="M399.64 250.591C399.658 250.852 399.752 251.094 399.904 251.271C400.057 251.448 400.256 251.546 400.462 251.546C400.669 251.546 400.868 251.448 401.02 251.271C401.172 251.094 401.267 250.852 401.285 250.591C401.285 249.329 399.64 249.257 399.64 250.591Z" fill="#5F6466"/>
<defs>
<filter id="filter0_dd" x="0.25" y="0.455566" width="483" height="309.295" filterUnits="userSpaceOnUse" color-interpolation-filters="sRGB">
<feFlood flood-opacity="0" result="BackgroundImageFix"/>
<feColorMatrix in="SourceAlpha" type="matrix" values="0 0 0 0 0 0 0 0 0 0 0 0 0 0 0 0 0 0 127 0"/>
<feOffset dx="7" dy="-3"/>
<feGaussianBlur stdDeviation="22"/>
<feColorMatrix type="matrix" values="0 0 0 0 0 0 0 0 0 0 0 0 0 0 0 0 0 0 0.38 0"/>
<feBlend mode="normal" in2="BackgroundImageFix" result="effect1_dropShadow"/>
<feColorMatrix in="SourceAlpha" type="matrix" values="0 0 0 0 0 0 0 0 0 0 0 0 0 0 0 0 0 0 127 0"/>
<feOffset dx="-18" dy="4"/>
<feGaussianBlur stdDeviation="9"/>
<feColorMatrix type="matrix" values="0 0 0 0 0 0 0 0 0 0 0 0 0 0 0 0 0 0 0.35 0"/>
<feBlend mode="normal" in2="effect1_dropShadow" result="effect2_dropShadow"/>
<feBlend mode="normal" in="SourceGraphic" in2="effect2_dropShadow" result="shape"/>
</filter>
</defs>
</svg>
