<svg width="310" height="483" viewBox="0 0 310 483" fill="none" xmlns="http://www.w3.org/2000/svg">
<path d="M32 426.5L38 441.5L45.2173 426.5H32Z" fill="#2B2F34"/>
<path d="M192.5 62.5L192.5 47L182 62.5L192.5 62.5Z" fill="#2B2F34"/>
<g filter="url(#filter0_dd)">
<path d="M193 47.5V118.5L38 441.5H101L258 118.5V47.5H193Z" fill="#3E444C"/>
<path d="M193 47.5V118.5L38 441.5H101L258 118.5V47.5H193Z" stroke="#505966"/>
</g>
<rect x="193" y="117.5" width="65" height="1" fill="#444A52"/>
<path fill-rule="evenodd" clip-rule="evenodd" d="M246.006 86.0389V86.3744C245.971 86.5516 245.899 86.7137 245.799 86.8443C245.698 86.9748 245.572 87.0691 245.433 87.1174C244.96 87.3571 238.751 89.7936 238.354 89.8336C238.967 90.3813 239.621 90.8497 240.308 91.2316L244.317 93.852C244.815 94.1635 246.006 94.7467 246.006 95.5776C246.006 96.7439 244.689 96.8797 243.876 97.1753C241.733 98.086 239.602 98.7731 237.472 99.6838C236.942 99.9075 235.461 100.611 235.461 99.1965C235.461 98.0301 236.388 97.9662 237.093 97.6946C237.799 97.423 238.43 97.2073 239.06 96.8957C239.69 96.5841 240.321 96.4084 241.039 96.0968C241.424 95.9291 241.67 95.8332 242.054 95.6894C242.368 95.5219 242.699 95.409 243.037 95.3539V95.1701C242.813 95.0807 242.6 94.9487 242.407 94.7787L236.255 90.8562C236.035 90.7603 235.934 90.8562 235.625 91.0239L222.81 96.0169C220.68 96.8158 221.197 96.5362 219.029 95.1462L216.211 93.2688C215.946 93.101 215.814 92.9173 215.505 92.9892C214.553 93.2528 209.618 95.4417 208.975 95.4977V95.7054C209.647 96.0333 210.291 96.4455 210.897 96.9357L220.232 103.127C221.039 103.646 221.228 104.022 221.701 103.83L226.586 101.881C227.733 101.473 228.729 100.97 229.876 100.603C230.683 100.339 231.389 101.162 230.904 102.104C230.683 102.536 230.387 102.552 229.965 102.704L223.453 105.236C222.748 105.636 222.001 105.905 221.235 106.035C220.537 105.699 219.868 105.277 219.237 104.773L218.285 104.126L207.601 97.0395C207.084 96.6321 206 96.2406 206 95.4417C205.991 95.1837 206.056 94.9302 206.184 94.7287C206.311 94.5273 206.492 94.3917 206.693 94.3473L209.687 93.1649C210.242 92.9412 213.078 91.7349 213.652 91.679C213.031 91.1236 212.368 90.6473 211.673 90.257L207.664 87.6207C207.204 87.2692 206 86.7739 206 85.9111C206 84.7767 207.027 84.7048 207.645 84.4411L211.698 82.8434C212.007 82.7156 212.372 82.6037 212.713 82.4519C213.044 82.2793 213.388 82.1482 213.74 82.0605C213.608 81.8368 213.475 81.8368 213.242 81.709C213.009 81.5811 212.921 81.5252 212.7 81.4134C210.967 80.4627 209.385 79.2005 207.695 78.146C207.298 77.9063 207.065 77.7146 206.681 77.4589C206.484 77.3902 206.31 77.241 206.187 77.0344C206.064 76.8278 205.998 76.5754 206 76.3165C206 75.4617 206.674 75.3339 207.172 75.1502C207.67 74.9664 208.212 74.7028 208.729 74.535C211.881 73.4405 215.032 72.0105 218.184 70.8362C221.871 69.4621 225.451 67.9362 229.151 66.5622C230.778 65.947 230.343 65.6674 231.78 66.6181C232.12 66.8418 232.41 67.0255 232.776 67.2492C235.228 68.7911 238.001 70.7962 240.51 72.394C240.875 72.6177 241.14 72.8254 241.48 73.0411C242.451 73.6722 243.46 74.2714 244.399 74.9744C244.909 75.3658 246 75.7733 246 76.5722C246.016 76.8032 245.968 77.0343 245.863 77.2243C245.758 77.4144 245.603 77.5513 245.426 77.6107C244.853 77.8903 238.688 80.3029 238.348 80.3269C238.524 80.6225 241.972 82.8194 242.3 83.0191L245.325 85.0403C245.49 85.1274 245.636 85.2614 245.753 85.4318C245.87 85.6022 245.955 85.8045 246 86.0229L246.006 86.0389ZM235.291 88.9388L239.545 83.5784L241.266 84.6968C241.739 84.9924 242.747 85.7353 243.044 85.8312V85.975C242.707 86.0384 242.377 86.151 242.06 86.3105L237.27 88.2119C236.64 88.4116 235.953 88.7871 235.303 89.0107L235.291 88.9388ZM216.161 90.8562C215.852 90.7683 213.223 89.0107 212.933 88.7711C213.154 88.3397 217.087 83.4346 217.144 83.4346L219.155 83.9538C219.858 84.1356 220.569 84.2584 221.285 84.3213L216.161 90.8562ZM211.376 87.6606C210.955 87.465 210.547 87.2217 210.16 86.9337C209.782 86.6151 209.378 86.3473 208.956 86.1348V85.975C209.441 85.975 213.431 84.1695 214.339 83.9139L211.376 87.6606ZM221.165 94.2195L217.629 91.9187L223.264 84.7287C223.542 84.3932 223.693 84.5051 224.191 84.521C225.577 84.4419 226.959 84.2739 228.332 84.0177C228.665 83.914 229.005 83.8472 229.347 83.818L221.165 94.2195ZM224.279 93.2288C224.531 92.7815 230.986 84.6968 231.767 83.7142C232.001 83.3848 232.249 83.0727 232.511 82.7795C232.7 82.5957 235.505 81.5332 235.934 81.3654C236.362 81.1977 236.331 81.4373 236.917 81.7968C237.249 82.0577 237.599 82.2796 237.963 82.4599C237.875 82.8673 237.579 83.091 237.333 83.3706C236.406 84.537 232.076 90.1531 231.755 90.3609C231.405 90.5324 231.047 90.6764 230.683 90.7923L226.454 92.4459C225.733 92.7655 224.999 93.0322 224.254 93.2448L224.279 93.2288ZM222.483 78.4975C222.766 78.8318 223.028 79.1952 223.264 79.5839C223.541 79.9659 223.836 80.326 224.147 80.6624C224.739 81.2642 225.372 81.7989 226.038 82.2602C226.183 82.372 226.094 82.2602 226.17 82.372L223.365 82.4839C221.606 82.3765 219.856 82.1095 218.127 81.685C218.291 81.4054 219.508 81.1657 220.535 80.3828C221.237 79.8456 221.896 79.2222 222.502 78.5214L222.483 78.4975ZM216.085 79.7757C213.999 79.7757 214.194 80.0393 212.706 79.1286L208.969 76.5082C209.73 76.3068 210.48 76.0399 211.213 75.7094L218.02 73.0331C220.05 72.1783 222.628 71.2516 224.758 70.3968L230.381 68.1999C230.677 68.104 230.633 68.128 230.853 68.2957L231.364 68.6313C232.713 69.4861 233.917 70.3569 235.266 71.2117L242.035 75.7094C242.343 75.9725 242.678 76.1795 243.031 76.3245L229.794 81.5652C229.486 81.661 229.486 81.5652 229.12 81.4373C228.183 81.1585 227.275 80.7402 226.416 80.1911C225.281 79.4034 224.328 78.2554 223.649 76.8598C223.371 76.3165 222.855 74.8705 221.934 76.2846C221.356 77.1099 220.695 77.8352 219.968 78.4415C218.791 79.3179 217.45 79.7786 216.085 79.7757Z" fill="#5F6466"/>
<path fill-rule="evenodd" clip-rule="evenodd" d="M232.41 100.356C232.428 100.616 232.523 100.859 232.675 101.036C232.827 101.213 233.026 101.311 233.233 101.311C233.439 101.311 233.638 101.213 233.791 101.036C233.943 100.859 234.037 100.616 234.055 100.356C234.055 99.0934 232.41 99.0215 232.41 100.356Z" fill="#5F6466"/>
<defs>
<filter id="filter0_dd" x="0.205566" y="0" width="309.295" height="483" filterUnits="userSpaceOnUse" color-interpolation-filters="sRGB">
<feFlood flood-opacity="0" result="BackgroundImageFix"/>
<feColorMatrix in="SourceAlpha" type="matrix" values="0 0 0 0 0 0 0 0 0 0 0 0 0 0 0 0 0 0 127 0"/>
<feOffset dx="7" dy="-3"/>
<feGaussianBlur stdDeviation="22"/>
<feColorMatrix type="matrix" values="0 0 0 0 0 0 0 0 0 0 0 0 0 0 0 0 0 0 0.38 0"/>
<feBlend mode="normal" in2="BackgroundImageFix" result="effect1_dropShadow"/>
<feColorMatrix in="SourceAlpha" type="matrix" values="0 0 0 0 0 0 0 0 0 0 0 0 0 0 0 0 0 0 127 0"/>
<feOffset dx="-18" dy="4"/>
<feGaussianBlur stdDeviation="9"/>
<feColorMatrix type="matrix" values="0 0 0 0 0 0 0 0 0 0 0 0 0 0 0 0 0 0 0.35 0"/>
<feBlend mode="normal" in2="effect1_dropShadow" result="effect2_dropShadow"/>
<feBlend mode="normal" in="SourceGraphic" in2="effect2_dropShadow" result="shape"/>
</filter>
</defs>
</svg>
