<svg width="484" height="310" viewBox="0 0 484 310" fill="none" xmlns="http://www.w3.org/2000/svg">
<path d="M52.75 42.25L37.75 48.25L52.75 55.4673L52.75 42.25Z" fill="#2B2F34"/>
<path d="M416.75 202.75L432.25 202.75L416.75 192.25L416.75 202.75Z" fill="#2B2F34"/>
<g filter="url(#filter0_dd)">
<path d="M431.75 203.25L360.75 203.25L37.75 48.25L37.75 111.25L360.75 268.25L431.75 268.25L431.75 203.25Z" fill="#3E444C"/>
<path d="M431.75 203.25L360.75 203.25L37.75 48.25L37.75 111.25L360.75 268.25L431.75 268.25L431.75 203.25Z" stroke="#505966"/>
</g>
<rect x="361.75" y="203.25" width="65" height="1" transform="rotate(90 361.75 203.25)" fill="#444A52"/>
<path d="M409.51 228.588C409.447 228.469 409.409 228.339 409.397 228.205C409.386 228.072 409.401 227.937 409.443 227.809C409.485 227.681 409.552 227.564 409.641 227.463C409.73 227.362 409.838 227.28 409.959 227.222C410.08 227.164 410.211 227.131 410.345 227.126C410.479 227.12 410.613 227.142 410.739 227.189C410.864 227.237 410.979 227.309 411.075 227.402C411.172 227.495 411.249 227.607 411.302 227.731C411.929 229.061 412.415 230.454 412.752 231.886C413.072 233.317 413.235 234.779 413.238 236.245C413.234 240.204 412.059 244.072 409.861 247.362C407.663 250.652 404.541 253.215 400.889 254.728C397.237 256.241 393.219 256.636 389.343 255.862C385.467 255.089 381.907 253.182 379.113 250.382C376.316 247.587 374.41 244.022 373.637 240.141C372.865 236.259 373.259 232.236 374.772 228.579C376.284 224.922 378.846 221.798 382.132 219.601C385.419 217.404 389.283 216.233 393.234 216.238C397.012 216.229 400.714 217.295 403.911 219.311C404.136 219.452 404.296 219.676 404.355 219.935C404.415 220.194 404.37 220.466 404.23 220.691C404.087 220.913 403.863 221.071 403.606 221.131C403.348 221.191 403.078 221.147 402.852 221.011C401.42 220.107 399.87 219.406 398.246 218.926C396.615 218.466 394.929 218.234 393.234 218.236C389.677 218.239 386.2 219.298 383.244 221.28C380.287 223.262 377.984 226.078 376.625 229.371C375.267 232.664 374.913 236.287 375.61 239.782C376.307 243.276 378.023 246.485 380.54 249.002C383.058 251.52 386.264 253.233 389.754 253.926C393.244 254.618 396.86 254.258 400.146 252.892C403.431 251.526 406.239 249.214 408.213 246.25C410.187 243.285 411.239 239.801 411.236 236.238C411.247 234.908 411.104 233.582 410.808 232.286C410.515 231.009 410.079 229.768 409.51 228.588Z" fill="#5F6466"/>
<path d="M412.056 235.235C412.32 235.235 412.574 235.341 412.761 235.528C412.948 235.715 413.053 235.969 413.053 236.234C413.053 236.499 412.948 236.753 412.761 236.941C412.574 237.128 412.32 237.233 412.056 237.233H406.761C406.496 237.233 406.243 237.128 406.056 236.941C405.869 236.753 405.764 236.499 405.764 236.234C405.764 235.969 405.869 235.715 406.056 235.528C406.243 235.341 406.496 235.235 406.761 235.235H412.056Z" fill="#5F6466"/>
<path d="M379.772 235.235C380.037 235.235 380.291 235.341 380.478 235.528C380.665 235.715 380.77 235.969 380.77 236.234C380.77 236.499 380.665 236.753 380.478 236.941C380.291 237.128 380.037 237.233 379.772 237.233H374.478C374.213 237.233 373.96 237.128 373.773 236.941C373.586 236.753 373.48 236.499 373.48 236.234C373.48 235.969 373.586 235.715 373.773 235.528C373.96 235.341 374.213 235.235 374.478 235.235H379.772Z" fill="#5F6466"/>
<path d="M392.32 217.56C392.32 217.295 392.425 217.041 392.612 216.854C392.799 216.666 393.053 216.561 393.318 216.561C393.582 216.561 393.836 216.666 394.023 216.854C394.21 217.041 394.315 217.295 394.315 217.56V222.856C394.315 223.121 394.21 223.375 394.023 223.562C393.836 223.75 393.582 223.855 393.318 223.855C393.053 223.855 392.799 223.75 392.612 223.562C392.425 223.375 392.32 223.121 392.32 222.856V217.56Z" fill="#5F6466"/>
<path d="M392.32 249.656C392.32 249.391 392.425 249.137 392.612 248.949C392.799 248.762 393.053 248.657 393.318 248.657C393.582 248.657 393.836 248.762 394.023 248.949C394.21 249.137 394.315 249.391 394.315 249.656V254.966C394.315 255.231 394.21 255.485 394.023 255.673C393.836 255.86 393.582 255.965 393.318 255.965C393.053 255.965 392.799 255.86 392.612 255.673C392.425 255.485 392.32 255.231 392.32 254.966V249.656Z" fill="#5F6466"/>
<path d="M385.633 232.01C385.536 231.922 385.457 231.817 385.402 231.698C385.346 231.58 385.315 231.452 385.309 231.321C385.304 231.19 385.325 231.06 385.37 230.938C385.416 230.815 385.486 230.703 385.575 230.608C385.665 230.505 385.774 230.422 385.897 230.364C386.019 230.305 386.152 230.272 386.288 230.267C386.424 230.261 386.559 230.284 386.686 230.332C386.813 230.381 386.928 230.455 387.026 230.55L393.249 236.42L411.287 218.359C411.378 218.267 411.487 218.194 411.607 218.144C411.726 218.094 411.855 218.068 411.984 218.068C412.114 218.068 412.242 218.093 412.362 218.142C412.482 218.192 412.591 218.264 412.683 218.356C412.775 218.447 412.848 218.556 412.898 218.676C412.948 218.796 412.974 218.924 412.974 219.054C412.974 219.184 412.949 219.313 412.9 219.433C412.851 219.553 412.778 219.662 412.687 219.754L393.923 238.534L393.256 239.202L392.531 238.548L385.633 232.01Z" fill="#5F6466"/>
<defs>
<filter id="filter0_dd" x="0.25" y="0.455566" width="483" height="309.295" filterUnits="userSpaceOnUse" color-interpolation-filters="sRGB">
<feFlood flood-opacity="0" result="BackgroundImageFix"/>
<feColorMatrix in="SourceAlpha" type="matrix" values="0 0 0 0 0 0 0 0 0 0 0 0 0 0 0 0 0 0 127 0"/>
<feOffset dx="7" dy="-3"/>
<feGaussianBlur stdDeviation="22"/>
<feColorMatrix type="matrix" values="0 0 0 0 0 0 0 0 0 0 0 0 0 0 0 0 0 0 0.38 0"/>
<feBlend mode="normal" in2="BackgroundImageFix" result="effect1_dropShadow"/>
<feColorMatrix in="SourceAlpha" type="matrix" values="0 0 0 0 0 0 0 0 0 0 0 0 0 0 0 0 0 0 127 0"/>
<feOffset dx="-18" dy="4"/>
<feGaussianBlur stdDeviation="9"/>
<feColorMatrix type="matrix" values="0 0 0 0 0 0 0 0 0 0 0 0 0 0 0 0 0 0 0.35 0"/>
<feBlend mode="normal" in2="effect1_dropShadow" result="effect2_dropShadow"/>
<feBlend mode="normal" in="SourceGraphic" in2="effect2_dropShadow" result="shape"/>
</filter>
</defs>
</svg>
