<svg width="310" height="483" viewBox="0 0 310 483" fill="none" xmlns="http://www.w3.org/2000/svg">
<path d="M32 426.5L38 441.5L45.2173 426.5H32Z" fill="#2B2F34"/>
<path d="M192.5 62.5L192.5 47L182 62.5L192.5 62.5Z" fill="#2B2F34"/>
<g filter="url(#filter0_dd)">
<path d="M193 47.5V118.5L38 441.5H101L258 118.5V47.5H193Z" fill="#3E444C"/>
<path d="M193 47.5V118.5L38 441.5H101L258 118.5V47.5H193Z" stroke="#505966"/>
</g>
<rect x="193" y="117.5" width="65" height="1" fill="#444A52"/>
<path fill-rule="evenodd" clip-rule="evenodd" d="M211.771 90.4317L211.276 90.2669C210.78 90.1083 210.363 89.8009 210.097 89.3982C209.831 88.9955 209.733 88.5231 209.82 88.0632C209.972 87.1741 210.131 86.2868 210.298 85.4011C210.329 85.2664 210.325 85.1271 210.286 84.9941C210.246 84.8611 210.173 84.7378 210.071 84.6339C209.436 83.9594 208.819 83.2746 208.196 82.5743C207.831 82.2133 207.627 81.7475 207.622 81.2636C207.617 80.7797 207.81 80.3105 208.167 79.9432C208.79 79.2532 209.413 78.5633 210.059 77.8836C210.167 77.7746 210.245 77.6447 210.287 77.5044C210.328 77.364 210.332 77.2171 210.298 77.0752C210.131 76.1896 209.972 75.3022 209.82 74.4132C209.737 73.9689 209.829 73.5127 210.081 73.1215C210.334 72.7304 210.731 72.4282 211.207 72.266C212.142 71.9228 213.084 71.6035 214.031 71.3083C214.202 71.2618 214.357 71.1801 214.484 71.0699C214.612 70.9598 214.708 70.8244 214.765 70.675C215.079 69.9129 215.423 69.156 215.743 68.3991C215.901 67.8887 216.277 67.4529 216.793 67.1845C217.309 66.9161 217.923 66.8365 218.504 66.9626C219.465 67.0913 220.426 67.22 221.387 67.3642C221.526 67.388 221.67 67.3832 221.808 67.3502C221.945 67.3172 222.072 67.2568 222.179 67.1737L224.508 65.4848C224.918 65.1721 225.441 65 225.982 65C226.523 65 227.046 65.1721 227.455 65.4848C228.232 66.034 229.008 66.5867 229.785 67.1428C229.905 67.2411 230.05 67.3128 230.208 67.3522C230.366 67.3915 230.532 67.3974 230.693 67.3693C231.66 67.22 232.633 67.0964 233.605 66.9574C234.152 66.8599 234.721 66.9434 235.203 67.1921C235.685 67.4408 236.047 67.8373 236.22 68.3064C236.564 69.1097 236.925 69.9078 237.257 70.7162C237.311 70.8576 237.402 70.9858 237.522 71.0904C237.642 71.1951 237.789 71.2732 237.95 71.3186C238.87 71.6173 239.784 71.9313 240.699 72.2506C241.213 72.4039 241.646 72.7172 241.918 73.1321C242.19 73.547 242.283 74.0353 242.178 74.5058C242.032 75.3709 241.875 76.2359 241.712 77.0803C241.678 77.2214 241.682 77.3675 241.724 77.5069C241.765 77.6464 241.843 77.7753 241.951 77.8836C242.591 78.5633 243.214 79.2532 243.843 79.9432C244.199 80.3055 244.394 80.7689 244.394 81.2485C244.394 81.728 244.199 82.1914 243.843 82.5537C243.226 83.2283 242.615 83.9079 241.986 84.5721C241.859 84.6854 241.765 84.8244 241.714 84.9771C241.662 85.1297 241.653 85.2912 241.689 85.4475C241.863 86.328 242.015 87.2084 242.166 88.0889C242.247 88.531 242.157 88.9844 241.909 89.3753C241.662 89.7661 241.272 90.0713 240.803 90.2412L240.221 90.442L240.774 91.271C242.793 94.3604 244.812 97.4498 246.831 100.539C246.931 100.686 246.989 100.852 247 101.023C247.001 101.111 246.981 101.198 246.94 101.278C246.899 101.358 246.84 101.429 246.765 101.487C246.69 101.545 246.602 101.588 246.507 101.612C246.412 101.637 246.312 101.643 246.214 101.631C245.171 101.631 244.129 101.579 243.081 101.543C242.032 101.507 240.92 101.476 239.842 101.43C239.621 101.43 239.551 101.533 239.47 101.667L236.593 106.45L236.517 106.574C236.458 106.687 236.364 106.782 236.246 106.849C236.128 106.916 235.991 106.952 235.85 106.952C235.71 106.952 235.572 106.916 235.454 106.849C235.336 106.782 235.242 106.687 235.183 106.574C234.688 105.827 234.205 105.07 233.71 104.319L228.585 96.5281C228.55 96.4715 228.509 96.4252 228.445 96.3376C228.16 96.5384 227.863 96.7289 227.612 96.9298C227.185 97.3061 226.606 97.5174 226.002 97.5174C225.399 97.5174 224.82 97.3061 224.392 96.9298C224.124 96.7341 223.85 96.5436 223.559 96.3376C223.454 96.4869 223.361 96.6157 223.268 96.7495L216.862 106.569C216.807 106.696 216.71 106.805 216.584 106.882C216.457 106.959 216.307 107 216.154 107C216 107 215.851 106.959 215.724 106.882C215.598 106.805 215.501 106.696 215.446 106.569C214.485 104.967 213.519 103.366 212.534 101.76C212.494 101.666 212.419 101.588 212.322 101.537C212.225 101.486 212.11 101.467 211.999 101.481C210.659 101.512 209.285 101.569 207.91 101.569L205.901 101.631C205.754 101.658 205.601 101.648 205.46 101.6C205.32 101.553 205.198 101.47 205.109 101.363C205.03 101.244 204.993 101.106 205.001 100.968C205.009 100.83 205.063 100.697 205.156 100.586L211.608 90.7046L211.771 90.4317ZM211.771 77.2194C211.804 77.7392 211.613 78.2507 211.236 78.6508L209.349 80.7104C209.261 80.779 209.19 80.8634 209.142 80.9579C209.094 81.0525 209.069 81.155 209.069 81.2588C209.069 81.3625 209.094 81.465 209.142 81.5596C209.19 81.6541 209.261 81.7385 209.349 81.8071L211.265 83.9079C211.464 84.1203 211.61 84.3682 211.691 84.6348C211.773 84.9013 211.788 85.1803 211.737 85.4526C211.579 86.3589 211.41 87.2599 211.247 88.161C211.217 88.2533 211.208 88.3502 211.221 88.4457C211.233 88.5412 211.268 88.6334 211.323 88.7167C211.377 88.8 211.45 88.8726 211.537 88.9302C211.624 88.9878 211.724 89.0292 211.83 89.0518L214.654 90.0095C214.987 90.1098 215.29 90.2753 215.54 90.4938C215.79 90.7123 215.981 90.978 216.099 91.271C216.454 92.1154 216.821 92.9496 217.193 93.7889C217.249 93.958 217.377 94.1015 217.549 94.1898C217.722 94.278 217.926 94.3041 218.119 94.2626L221.13 93.8455C221.469 93.7887 221.817 93.799 222.15 93.8756C222.484 93.9522 222.794 94.0931 223.058 94.2883C223.827 94.8753 224.601 95.3902 225.382 95.9566C225.46 96.0371 225.557 96.1017 225.666 96.146C225.775 96.1903 225.894 96.2133 226.014 96.2133C226.134 96.2133 226.252 96.1903 226.361 96.146C226.47 96.1017 226.567 96.0371 226.646 95.9566C227.403 95.416 228.166 94.8805 228.911 94.3295C229.183 94.1188 229.506 93.9657 229.855 93.8819C230.205 93.798 230.571 93.7856 230.926 93.8455C231.893 93.9897 232.865 94.1184 233.838 94.2523C233.943 94.2802 234.053 94.2889 234.162 94.2778C234.27 94.2667 234.375 94.2362 234.47 94.188C234.565 94.1398 234.648 94.0749 234.713 93.9974C234.779 93.92 234.826 93.8315 234.851 93.7374C235.201 92.929 235.562 92.1206 235.9 91.307C236.019 91.0002 236.217 90.7217 236.477 90.4931C236.738 90.2646 237.054 90.0921 237.402 89.9889C238.317 89.6954 239.219 89.3762 240.128 89.0672C240.236 89.0424 240.337 88.9985 240.425 88.9382C240.513 88.8778 240.587 88.8024 240.641 88.7163C240.696 88.6301 240.73 88.5352 240.742 88.4371C240.754 88.339 240.743 88.2399 240.71 88.1456C240.547 87.2651 240.396 86.3846 240.233 85.5041C240.173 85.2118 240.187 84.9114 240.275 84.6247C240.362 84.3379 240.521 84.072 240.739 83.8461L242.626 81.7865C242.711 81.718 242.779 81.6345 242.826 81.5414C242.872 81.4483 242.896 81.3477 242.896 81.2459C242.896 81.1441 242.872 81.0434 242.826 80.9503C242.779 80.8573 242.711 80.7738 242.626 80.7052L240.722 78.6456C240.516 78.436 240.364 78.1893 240.276 77.9226C240.189 77.6559 240.168 77.3755 240.215 77.1009C240.361 76.1896 240.535 75.2782 240.704 74.3668C240.741 74.2712 240.754 74.17 240.744 74.0696C240.734 73.9691 240.701 73.8716 240.646 73.7831C240.592 73.6946 240.517 73.6171 240.427 73.5554C240.336 73.4936 240.233 73.4491 240.122 73.4246L237.251 72.4462C236.953 72.3489 236.682 72.1952 236.458 71.9961C236.233 71.7969 236.061 71.5569 235.952 71.2929L234.881 68.8625C234.636 68.2961 234.385 68.1674 233.716 68.2653L230.891 68.6669C230.544 68.7273 230.186 68.717 229.844 68.6367C229.501 68.5564 229.185 68.4082 228.917 68.2035C228.148 67.6371 227.362 67.0707 226.587 66.5558C226.512 66.486 226.422 66.4304 226.322 66.3924C226.222 66.3545 226.114 66.3349 226.005 66.3349C225.896 66.3349 225.788 66.3545 225.688 66.3924C225.588 66.4304 225.498 66.486 225.423 66.5558C224.665 67.0707 223.891 67.5856 223.145 68.1674C222.862 68.3854 222.525 68.5425 222.161 68.6265C221.798 68.7104 221.417 68.719 221.049 68.6514C220.07 68.5021 219.092 68.3734 218.137 68.2447C218.037 68.2234 217.934 68.2198 217.833 68.2343C217.732 68.2488 217.635 68.2809 217.549 68.3289C217.462 68.3768 217.387 68.4396 217.328 68.5136C217.269 68.5875 217.227 68.6712 217.205 68.7596C216.867 69.5422 216.506 70.3043 216.198 71.1024C216.073 71.449 215.856 71.7642 215.566 72.0213C215.275 72.2785 214.918 72.4701 214.526 72.5801C213.635 72.8582 212.779 73.1723 211.876 73.4709C211.772 73.4937 211.675 73.5345 211.589 73.5911C211.503 73.6476 211.431 73.7188 211.377 73.8003C211.323 73.8818 211.287 73.9721 211.273 74.0659C211.259 74.1596 211.266 74.2549 211.294 74.3462C211.352 74.6655 211.416 74.9847 211.474 75.3039C211.579 75.9836 211.702 76.6736 211.795 77.2194H211.771ZM216.163 104.988L216.413 104.658L220.373 98.5929C220.995 97.6249 221.625 96.6534 222.266 95.6786C222.307 95.6116 222.336 95.4777 222.295 95.4365C222.197 95.3237 222.066 95.2357 221.917 95.1815C221.768 95.1272 221.605 95.1087 221.445 95.1276C220.461 95.2718 219.471 95.4005 218.486 95.5395C217.919 95.6627 217.32 95.5881 216.814 95.3311C216.308 95.0741 215.932 94.6546 215.767 94.1596C215.499 93.5417 215.237 92.9238 214.963 92.306C214.509 91.2762 214.695 91.4306 213.495 91.0136C213.251 90.9312 213.134 90.9466 212.994 91.1577C211.053 94.1407 209.112 97.1203 207.171 100.096C207.13 100.153 207.101 100.22 207.048 100.313H207.427C209.174 100.256 210.921 100.205 212.668 100.138C212.855 100.119 213.043 100.155 213.206 100.238C213.368 100.321 213.496 100.449 213.571 100.601C214.113 101.523 214.672 102.444 215.219 103.361L216.163 104.988ZM244.909 100.256L244.804 100.024L241.234 94.5767C240.483 93.4233 239.726 92.2699 238.981 91.1114C238.876 90.9466 238.771 90.9106 238.579 90.9878C238.359 91.0769 238.133 91.1543 237.903 91.2195C237.754 91.262 237.618 91.3356 237.507 91.4342C237.397 91.5328 237.315 91.6534 237.268 91.7859C236.919 92.6132 236.562 93.437 236.197 94.2574C236.014 94.7215 235.645 95.1101 235.16 95.3493C234.675 95.5886 234.107 95.6618 233.564 95.555C232.568 95.4108 231.573 95.2769 230.577 95.1379C230.459 95.1189 230.337 95.1224 230.221 95.1481C230.104 95.1739 229.995 95.2213 229.901 95.2872C229.61 95.488 229.604 95.488 229.79 95.7712L235.614 104.72C235.667 104.797 235.725 104.87 235.795 104.973L235.964 104.71L238.451 100.591C238.515 100.456 238.625 100.342 238.766 100.264C238.907 100.187 239.071 100.15 239.237 100.158C240.431 100.199 241.625 100.241 242.818 100.271C243.535 100.271 244.222 100.256 244.932 100.256H244.909Z" fill="#5F6466"/>
<path fill-rule="evenodd" clip-rule="evenodd" d="M226.036 71.9465C223.545 71.9292 221.128 72.697 219.219 74.1124C217.309 75.5277 216.033 77.498 215.618 79.67C215.525 80.3948 215.48 81.1238 215.484 81.8532C215.494 81.9614 215.473 82.07 215.423 82.1692C215.374 82.2684 215.297 82.355 215.199 82.4211C215.102 82.4872 214.987 82.5306 214.866 82.5475C214.745 82.5643 214.621 82.554 214.505 82.5174C214.362 82.4809 214.236 82.4046 214.146 82.2998C214.056 82.195 214.006 82.0673 214.004 81.9356C213.889 80.6011 214.088 79.2601 214.587 77.9966C215.209 76.2511 216.334 74.6792 217.853 73.4358C219.372 72.1924 221.231 71.3206 223.247 70.9064C224.427 70.6518 225.646 70.5632 226.858 70.6438C227.052 70.6294 227.245 70.6828 227.395 70.7925C227.545 70.9022 227.641 71.0595 227.661 71.2308C227.675 71.3195 227.668 71.4098 227.639 71.4957C227.611 71.5816 227.562 71.6611 227.496 71.7289C227.429 71.7966 227.348 71.8511 227.256 71.8887C227.164 71.9262 227.064 71.9459 226.962 71.9465C226.66 71.9568 226.345 71.9465 226.036 71.9465Z" fill="#5F6466"/>
<path fill-rule="evenodd" clip-rule="evenodd" d="M225.965 77.8371L225.213 78.2799C225.097 78.352 224.98 78.4241 224.852 78.4859C224.689 78.5726 224.495 78.5996 224.31 78.5612C224.125 78.5227 223.964 78.4217 223.862 78.2799C223.808 78.2112 223.771 78.1338 223.751 78.052C223.732 77.9703 223.731 77.886 223.749 77.804C223.767 77.7221 223.803 77.644 223.856 77.5746C223.908 77.5051 223.976 77.4456 224.054 77.3994C224.549 77.0905 225.062 76.8021 225.563 76.5035L226.256 76.0967C226.375 76.0062 226.524 75.9514 226.681 75.9403C226.838 75.9292 226.995 75.9623 227.129 76.0349C227.259 76.0985 227.365 76.1943 227.435 76.3104C227.504 76.4266 227.534 76.5581 227.519 76.6889C227.519 78.6696 227.519 80.6486 227.519 82.6258V84.6031H228.358C228.579 84.6031 228.807 84.6031 229.028 84.6031C229.222 84.6031 229.409 84.6714 229.547 84.7931C229.684 84.9148 229.762 85.0798 229.762 85.2519C229.762 85.424 229.684 85.589 229.547 85.7106C229.409 85.8323 229.222 85.9007 229.028 85.9007C228.253 85.9007 227.473 85.9007 226.698 85.9007C225.924 85.9007 225.306 85.9007 224.613 85.9007C224.499 85.907 224.385 85.8903 224.28 85.8519C224.174 85.8135 224.08 85.7543 224.004 85.6788C223.929 85.6034 223.873 85.5137 223.843 85.4165C223.812 85.3193 223.807 85.2173 223.827 85.118C223.862 84.97 223.955 84.8376 224.089 84.7435C224.223 84.6495 224.39 84.5998 224.561 84.6031C224.986 84.6031 225.417 84.6031 225.848 84.6031C225.999 84.6031 226.075 84.5773 226.075 84.4229C226.075 82.2774 226.075 80.1319 226.075 77.9864C226.043 77.9341 226.006 77.8842 225.965 77.8371Z" fill="#5F6466"/>
<path fill-rule="evenodd" clip-rule="evenodd" d="M238.042 81.1734C238.055 82.895 237.593 84.5934 236.696 86.1216C236.656 86.2016 236.599 86.2736 236.526 86.3334C236.454 86.3932 236.369 86.4394 236.276 86.4693C236.183 86.4993 236.084 86.5123 235.986 86.5076C235.887 86.5029 235.79 86.4806 235.701 86.4421C235.613 86.4035 235.534 86.3495 235.469 86.2833C235.405 86.217 235.356 86.1399 235.326 86.0566C235.296 85.9733 235.285 85.8855 235.294 85.7984C235.304 85.7114 235.333 85.6269 235.38 85.5501C235.792 84.8578 236.097 84.1202 236.289 83.3566C236.664 81.9691 236.67 80.5237 236.307 79.1336C235.944 77.7436 235.222 76.4467 234.198 75.3447L233.942 75.0718C233.876 75.0092 233.825 74.9357 233.792 74.8556C233.758 74.7754 233.743 74.6902 233.748 74.6049C233.752 74.5196 233.776 74.4359 233.817 74.3587C233.858 74.2815 233.916 74.2124 233.988 74.1553C234.057 74.0922 234.141 74.0431 234.233 74.0114C234.326 73.9796 234.425 73.966 234.524 73.9714C234.623 73.9767 234.72 74.001 234.807 74.0426C234.895 74.0841 234.971 74.1419 235.031 74.2119C235.596 74.841 236.116 75.5014 236.586 76.1891C237.538 77.7157 238.039 79.4301 238.042 81.1734Z" fill="#5F6466"/>
<path fill-rule="evenodd" clip-rule="evenodd" d="M230.623 71.483C230.723 71.4974 230.821 71.5234 230.914 71.5603C231.59 71.895 232.271 72.2246 232.929 72.5902C233.012 72.6353 233.083 72.6951 233.138 72.7658C233.193 72.8365 233.23 72.9165 233.248 73.0008C233.266 73.0851 233.264 73.1718 233.243 73.2553C233.221 73.3389 233.179 73.4176 233.121 73.4862C233.014 73.6242 232.85 73.7199 232.664 73.7535C232.479 73.7871 232.286 73.7559 232.125 73.6665L230.244 72.7138C230.095 72.6473 229.976 72.5386 229.905 72.4051C229.835 72.2716 229.817 72.121 229.854 71.9774C229.899 71.8297 230 71.7002 230.14 71.6102C230.28 71.5203 230.45 71.4754 230.623 71.483Z" fill="#5F6466"/>
<path fill-rule="evenodd" clip-rule="evenodd" d="M221.667 89.3041C221.786 89.2961 221.906 89.3144 222.016 89.3573C222.126 89.4002 222.222 89.4663 222.295 89.5498C222.369 89.6334 222.418 89.7317 222.439 89.8362C222.459 89.9406 222.45 90.0478 222.412 90.1484C222.22 90.5964 222.005 91.0391 221.772 91.4716C221.733 91.5487 221.678 91.6184 221.61 91.6766C221.541 91.7349 221.46 91.7807 221.371 91.8113C221.283 91.8419 221.188 91.8567 221.093 91.855C220.998 91.8532 220.904 91.8349 220.817 91.8011C220.729 91.7673 220.651 91.7187 220.585 91.6579C220.519 91.5972 220.467 91.5256 220.432 91.4472C220.398 91.3688 220.381 91.2851 220.383 91.201C220.385 91.1168 220.406 91.0338 220.444 90.9568C220.636 90.514 220.846 90.0815 221.067 89.649C221.122 89.5487 221.207 89.4636 221.313 89.4028C221.418 89.342 221.541 89.3079 221.667 89.3041Z" fill="#5F6466"/>
<path fill-rule="evenodd" clip-rule="evenodd" d="M224.516 91.2709C224.516 91.0494 224.516 90.828 224.516 90.6117C224.516 90.4396 224.593 90.2746 224.731 90.1529C224.868 90.0312 225.055 89.9629 225.249 89.9629C225.444 89.9629 225.631 90.0312 225.768 90.1529C225.906 90.2746 225.983 90.4396 225.983 90.6117C225.983 91.0597 225.983 91.5077 225.983 91.9557C225.985 92.0413 225.967 92.1263 225.93 92.2054C225.893 92.2846 225.838 92.3563 225.769 92.4161C225.7 92.4759 225.618 92.5225 225.527 92.5532C225.437 92.5838 225.34 92.5978 225.244 92.5943C225.148 92.5943 225.052 92.5775 224.964 92.5448C224.875 92.5121 224.794 92.4642 224.727 92.4039C224.659 92.3436 224.606 92.272 224.569 92.1933C224.533 92.1147 224.515 92.0304 224.516 91.9454C224.516 91.724 224.516 91.5026 224.516 91.2812V91.2709Z" fill="#5F6466"/>
<path fill-rule="evenodd" clip-rule="evenodd" d="M233.45 89.1039C233.464 89.2397 233.431 89.3761 233.355 89.4949C233.279 89.6136 233.164 89.709 233.025 89.7682C232.902 89.8286 232.76 89.8527 232.621 89.837C232.482 89.8212 232.352 89.7664 232.25 89.6806C231.854 89.3562 231.464 89.0164 231.085 88.6507C230.971 88.5261 230.914 88.3683 230.924 88.2083C230.935 88.0482 231.012 87.8973 231.142 87.7852C231.272 87.6731 231.444 87.6078 231.625 87.6022C231.806 87.5966 231.984 87.6509 232.122 87.7547C232.506 88.074 232.879 88.4036 233.234 88.7434C233.328 88.852 233.401 88.9739 233.45 89.1039Z" fill="#5F6466"/>
<path fill-rule="evenodd" clip-rule="evenodd" d="M229.931 91.2193C229.935 91.3646 229.883 91.5067 229.785 91.6233C229.687 91.7398 229.548 91.8242 229.389 91.8631C229.234 91.9046 229.066 91.8959 228.917 91.8383C228.767 91.7808 228.646 91.6782 228.574 91.5489C228.341 91.0906 228.126 90.6219 227.939 90.1481C227.889 90.0096 227.898 89.8597 227.963 89.7263C228.029 89.5928 228.146 89.4848 228.295 89.422C228.444 89.3466 228.62 89.3248 228.787 89.3612C228.954 89.3977 229.099 89.4895 229.191 89.6177C229.465 90.1327 229.669 90.6477 229.902 91.1627C229.914 91.1804 229.924 91.1995 229.931 91.2193Z" fill="#5F6466"/>
<path fill-rule="evenodd" clip-rule="evenodd" d="M215.483 86.7242C215.326 86.7248 215.173 86.6798 215.048 86.596C214.923 86.5123 214.832 86.3945 214.79 86.2608C214.739 86.1279 214.742 85.9832 214.8 85.8524C214.857 85.7215 214.965 85.6127 215.104 85.5451C215.646 85.3237 216.199 85.1229 216.758 84.953C216.917 84.9197 217.083 84.9372 217.228 85.0023C217.373 85.0673 217.487 85.1757 217.55 85.3082C217.632 85.4385 217.654 85.5913 217.613 85.7356C217.572 85.8799 217.471 86.0051 217.329 86.0857C216.747 86.3277 216.164 86.5131 215.582 86.7242C215.549 86.7293 215.516 86.7293 215.483 86.7242Z" fill="#5F6466"/>
<path fill-rule="evenodd" clip-rule="evenodd" d="M217.876 89.8393C217.73 89.8464 217.585 89.8168 217.457 89.7539C217.329 89.691 217.224 89.5975 217.154 89.484C217.082 89.3778 217.05 89.2539 217.064 89.1305C217.077 89.0072 217.135 88.891 217.23 88.7992C217.614 88.4285 218.016 88.0732 218.435 87.7334C218.57 87.6321 218.745 87.5809 218.921 87.5905C219.098 87.6001 219.264 87.6697 219.384 87.7849C219.517 87.894 219.598 88.0437 219.61 88.2036C219.621 88.3634 219.564 88.5212 219.448 88.6447C219.07 89.0103 218.668 89.3553 218.284 89.6745C218.161 89.7523 218.023 89.8082 217.876 89.8393Z" fill="#5F6466"/>
<defs>
<filter id="filter0_dd" x="0.205078" y="0" width="309.295" height="483" filterUnits="userSpaceOnUse" color-interpolation-filters="sRGB">
<feFlood flood-opacity="0" result="BackgroundImageFix"/>
<feColorMatrix in="SourceAlpha" type="matrix" values="0 0 0 0 0 0 0 0 0 0 0 0 0 0 0 0 0 0 127 0"/>
<feOffset dx="7" dy="-3"/>
<feGaussianBlur stdDeviation="22"/>
<feColorMatrix type="matrix" values="0 0 0 0 0 0 0 0 0 0 0 0 0 0 0 0 0 0 0.38 0"/>
<feBlend mode="normal" in2="BackgroundImageFix" result="effect1_dropShadow"/>
<feColorMatrix in="SourceAlpha" type="matrix" values="0 0 0 0 0 0 0 0 0 0 0 0 0 0 0 0 0 0 127 0"/>
<feOffset dx="-18" dy="4"/>
<feGaussianBlur stdDeviation="9"/>
<feColorMatrix type="matrix" values="0 0 0 0 0 0 0 0 0 0 0 0 0 0 0 0 0 0 0.35 0"/>
<feBlend mode="normal" in2="effect1_dropShadow" result="effect2_dropShadow"/>
<feBlend mode="normal" in="SourceGraphic" in2="effect2_dropShadow" result="shape"/>
</filter>
</defs>
</svg>
