<svg width="38" height="38" viewBox="0 0 38 38" fill="none" xmlns="http://www.w3.org/2000/svg">
<g clip-path="url(#clip0)">
<path fill-rule="evenodd" clip-rule="evenodd" d="M36.4446 25.9211C36.4446 27.9966 36.2921 29.4617 35.0417 31.2014C33.6998 33.0633 31.504 34.4978 29.0947 34.4978C26.6244 34.4978 25.13 34.2231 23.2392 32.636C23.0562 32.4834 22.9952 32.4528 22.8122 32.3002C22.5377 32.0561 22.3547 31.8119 22.1413 31.5067C20.7079 29.7058 20.1284 26.9589 20.6774 24.6392C21.0128 23.2352 21.7753 21.8311 22.7817 20.8239C25.0995 18.5042 28.5762 17.9854 31.565 19.1147C32.8764 19.603 34.0353 20.5187 34.8892 21.6175C35.5907 22.5332 36.4446 24.2729 36.4446 25.9211ZM1.55538 8.44634L4.39165 9.63671C4.81862 9.81984 7.01445 10.8271 7.28892 10.8271C7.28892 11.8648 7.28892 12.872 7.28892 13.9098C7.28892 14.917 7.04494 16.2295 8.05136 16.2295C8.96629 16.2295 8.8138 15.2528 8.8138 14.3371C8.8138 13.4214 8.8138 12.5058 8.8138 11.5901L13.8154 13.6961C14.0899 13.8182 14.2119 13.9403 14.5474 13.9708V28.8656L8.8748 26.4239C8.53933 26.2712 8.32584 26.1797 8.05136 26.0576L1.55538 23.2801V8.44634ZM15.4013 12.75C15.4928 12.75 18.2376 11.5291 18.573 11.3765L21.7448 10.003C22.6597 9.57566 27.7223 7.53068 27.9968 7.16442C27.4783 7.04233 26.3194 6.46241 25.7095 6.21823L22.8427 4.96683C22.4157 4.81421 21.9888 5.14996 21.1958 5.4857L9.91172 10.3387C10.0642 10.5524 10.8571 10.8271 11.2231 10.9797L15.4013 12.75ZM2.74478 7.34755C3.08026 7.37807 6.95345 9.11783 7.31942 9.30096C7.38042 9.33148 7.86838 9.54514 7.92937 9.54514C8.26485 9.60618 13.4494 7.22546 14.0899 6.95076L19.7014 4.50899C19.9149 4.41743 20.0674 4.35638 20.2504 4.26482C20.3419 4.20377 20.4334 4.17325 20.5554 4.11221L20.7384 4.02064C20.7384 3.99012 20.7689 3.99012 20.7994 3.99012C20.4334 3.89855 19.9759 3.6849 19.6405 3.53229L16.1332 2.06723C15.3098 1.70096 15.4623 1.67044 15.0353 1.85357L2.74478 7.34755ZM0 7.10337V23.799C0 24.4704 0.701445 24.562 1.55538 24.9588C4.48315 26.3323 8.32584 27.8889 11.4061 29.2319C11.8026 29.415 15.0048 30.8801 15.4013 30.8801C15.4928 30.8801 18.7255 29.4761 19 29.3235C19.717 30.8302 20.4334 31.7814 21.8973 33.2769C23.6051 34.9862 25.8925 35.9934 28.8507 35.9934C31.138 35.9934 33.6083 34.803 35.1942 33.1854C35.8347 32.5444 36.7191 31.354 37.0851 30.5299C38.7319 26.7147 38.183 22.7468 35.2552 19.8167C33.7303 18.2906 31.321 16.9781 29.0337 16.9781H28.0578C24.2151 16.9781 20.4944 20.0914 19.3965 23.632C18.695 25.9516 19.7929 27.3395 16.8652 28.5604C16.5297 28.6825 16.4077 28.8351 16.0722 28.8656V14.1235L22.5682 11.2849C23.6356 10.7965 24.7335 10.3387 25.8315 9.85036C26.3804 9.60618 26.8989 9.39253 27.4478 9.14835C27.7528 8.99574 28.8812 8.47687 29.1557 8.44634C29.1557 9.11783 28.6792 15.7736 29.0337 16.1321C29.3882 16.4906 30.6806 16.8491 30.6806 16.666V7.25598C30.6806 6.55397 29.8266 6.40136 29.1252 6.06562L19.366 1.82305C14.0594 -0.405064 16.5602 -0.34402 11.3756 1.79253C10.7656 2.0367 10.0947 2.37245 9.45425 2.61662C8.78331 2.89132 8.11236 3.22707 7.47191 3.47124C6.16051 4.02064 4.94061 4.60056 3.59872 5.14996L0.731942 6.40136C0.518459 6.52345 0 6.73711 0 7.10337Z" fill="#5F6466"/>
<path fill-rule="evenodd" clip-rule="evenodd" d="M28.6969 32.3711C27.3178 30.45 26.5249 29.2624 25.8353 27.5159C25.0424 25.5599 24.4563 23.4291 25.9388 21.6128C26.5593 20.8443 27.4902 20.3903 28.6969 20.3903C29.938 20.3903 30.8344 20.8443 31.455 21.6128C32.9375 23.4291 32.3514 25.5599 31.5584 27.5159C30.9034 29.2275 30.0759 30.45 28.6969 32.3711ZM28.6969 21.7525C27.4213 21.7525 26.387 22.8004 26.387 24.0928C26.387 25.3852 27.4213 26.4331 28.6969 26.4331C29.9725 26.4331 31.0068 25.3852 31.0068 24.0928C31.0068 22.8004 29.9725 21.7525 28.6969 21.7525Z" fill="#5F6466"/>
<path d="M28.7316 25.9512C29.7553 25.9512 30.5852 25.1213 30.5852 24.0976C30.5852 23.0738 29.7553 22.2439 28.7316 22.2439C27.7078 22.2439 26.8779 23.0738 26.8779 24.0976C26.8779 25.1213 27.7078 25.9512 28.7316 25.9512Z" fill="#5F6466"/>
</g>
<defs>
<clipPath id="clip0">
<rect width="38" height="38" fill="white"/>
</clipPath>
</defs>
</svg>
