<svg width="38" height="40" viewBox="0 0 38 40" fill="none" xmlns="http://www.w3.org/2000/svg">
<path fill-rule="evenodd" clip-rule="evenodd" d="M4.02848 7.36604C4.02848 8.15094 4.96044 8.18113 5.29114 10.566C5.44146 11.5623 5.38133 13.7358 5.38133 14.8528L4.29905 14.6717C3.57753 14.5208 2.55538 14.2189 1.86392 13.9472C1.74367 13.8868 1.53323 13.8264 1.41297 13.7962C1.41297 12.6491 1.74367 10.4151 1.95411 9.26792C2.19462 7.84906 2.67563 5.52453 3.39715 4.37736C3.54747 4.16604 3.81804 3.92453 4.02848 3.7434C5.17089 2.89811 7.03481 2.29434 8.41772 1.81132C8.5981 1.75094 8.74842 1.72075 8.89874 1.66038C9.74051 1.38868 9.46994 1.50943 9.89082 2.05283C9.98101 2.1434 10.0111 2.20377 10.1013 2.29434C10.1614 2.35472 10.2516 2.47547 10.3418 2.53585C10.7927 2.89811 10.913 3.01887 11.4842 3.29057C13.4383 4.2566 16.1741 4.28679 18.1282 3.29057C18.8497 2.9283 18.6994 2.98868 19.2405 2.53585L20.0823 1.47925C20.2025 1.53962 20.443 1.56981 20.5633 1.63019C21.9462 2.11321 25.3734 3.07925 26.1851 4.31698C27.2674 5.91698 27.9589 10.5057 28.1392 12.5585C28.1693 12.7698 28.2896 13.5547 28.1994 13.7358C28.1092 13.8868 27.4778 14.0679 27.3275 14.1283C26.3956 14.4302 25.2532 14.7925 24.231 14.883C24.231 14.0377 24.2611 13.2528 24.2611 12.3472C24.2611 10.8377 24.3212 9.44906 25.2231 8.21132C25.3734 8 25.644 7.69811 25.5839 7.36604C25.4937 6.82264 24.7722 6.30943 24.0206 7.4566C23.269 8.57358 22.9383 9.78113 22.9383 11.1396C22.9383 12.2264 22.9082 13.1925 22.9082 14.2491C22.9082 15.3057 22.9082 16.3623 22.9082 17.4189C22.9082 17.8415 22.9082 18.2642 22.9082 18.6868H24.2911C24.2911 17.9321 24.2911 17.1774 24.2911 16.4226C24.2911 16.0906 24.2911 16.2415 25.4335 16.0604C26.3354 15.9094 27.7184 15.4868 28.5601 15.1547C29.3117 14.8528 29.6123 14.7321 29.6725 14.2189V13.7962C29.6725 13.6755 29.6424 13.5245 29.6123 13.3736L29.4019 11.2906C29.3117 10.4151 29.1614 9.50943 29.0111 8.66415C28.7405 7.24528 28.0491 4.07547 27.0269 3.07924C26.7864 2.83774 26.4858 2.59623 26.1851 2.41509C25.4335 1.96226 25.4035 1.96226 24.712 1.63019C23.8402 1.23774 20.3528 0 19.6013 0C19.1804 0 17.7674 0.271698 17.2864 0.362264C14.4304 0.845283 13.9794 0.633962 11.2437 0.181132C10.6424 0.090566 10.3718 0.0301887 10.1313 0.0301887H10.0111C9.74051 0.0301887 9.46994 0.120755 8.80854 0.332075C7.06487 0.784906 4.20886 1.78113 2.85601 2.89811C2.76582 2.98868 2.73576 2.98868 2.64557 3.07924C1.59335 4.22641 0.992089 7.03396 0.661392 8.60377C0.390823 9.90189 0.27057 11.2 0.0901899 12.5283C0.0601266 12.7698 0.0601266 13.0113 0.0300633 13.2226C0 13.4641 0 13.6755 0 13.917V14.0981C0 14.6415 0.0601266 14.7019 0.992089 15.0943C2.07437 15.5472 4.20886 16.1811 5.35127 16.1811L5.38133 25.4792C5.38133 26.9283 5.41139 28.3774 5.41139 29.8264H6.76424H17.1661L17.2864 28.6491H6.76424C6.76424 24.8755 6.73418 21.1623 6.73418 17.3887L6.70411 11.8943C6.70411 11.5925 6.67405 11.4415 6.67405 11.1396C6.67405 10.6566 6.64399 10.083 6.5538 9.69057C6.46361 9.26792 6.31329 8.87547 6.16297 8.51321C6.04272 8.24151 5.80222 7.7283 5.62184 7.48679C5.56171 7.42641 5.50158 7.33585 5.44146 7.27547C5.38133 7.18491 5.35127 7.12453 5.26108 7.06415C4.62975 6.43019 4.02848 6.97358 4.02848 7.36604ZM11.4241 1.63019L12.2358 1.75094C12.5063 1.81132 12.7468 1.84151 13.0475 1.8717C14.9114 2.1434 15.9937 1.99245 17.7975 1.69057C17.9177 1.66038 18.068 1.63019 18.1883 1.63019C18.038 1.8717 17.106 2.23396 16.7453 2.38491C15.6329 2.80755 14.0396 2.74717 12.9272 2.38491C12.6566 2.29434 12.3861 2.17358 12.1456 2.05283C11.9351 1.96226 11.5142 1.75094 11.4241 1.63019ZM18.2184 1.6C18.2484 1.6 18.2184 1.6 18.2184 1.6V1.6Z" fill="#5F6466"/>
<path fill-rule="evenodd" clip-rule="evenodd" d="M23.9513 3.95592C23.9513 3.95592 23.7605 3.79649 23.7304 3.73612C23.3596 3.59959 23.2175 3.57796 23.2885 3.73613L23.3296 3.89422H23.1793C23.1492 3.89422 23.1492 3.89422 23.1191 3.92441C23.0891 3.95459 23.059 3.95459 23.0289 3.98478C22.9989 3.98478 22.9989 4.01497 22.9688 4.01497L22.9388 4.04516C22.8185 4.13573 22.7283 4.25648 22.6381 4.34705C22.6081 4.34705 22.6081 4.37724 22.6081 4.37724L22.3676 4.61875C22.2774 4.70931 22.127 4.86025 22.0669 4.92063L22.0369 4.95082C21.9467 5.04139 21.8264 5.19233 21.7362 5.25271L21.616 5.37346C21.5558 5.43384 21.4657 5.52441 21.4055 5.58478C21.3755 5.61497 21.3153 5.67535 21.2853 5.70554L20.9846 6.00742C20.8944 6.09799 20.8343 6.18856 20.7441 6.24893L18.9403 8.03007C18.8501 8.12063 18.7299 8.2112 18.6397 8.33195L18.5194 8.45271C18.4293 8.54327 18.3691 8.63384 18.2789 8.69422C18.2489 8.69422 18.2489 8.7244 18.2489 8.7244C18.2489 8.7244 18.2489 8.72441 18.2188 8.75459C18.1286 8.84516 18.0384 8.90554 17.9783 8.9961C17.9783 8.9961 17.9783 9.02629 17.9482 9.02629C17.9783 9.05648 18.0084 9.08667 18.0384 9.11686L18.2489 9.32818C18.3691 9.44893 18.4894 9.56969 18.6096 9.69044L19.0907 10.1433C19.1207 10.1735 19.1207 10.1735 19.1508 10.1735C19.1808 10.2037 19.3011 10.3244 19.3312 10.3244C19.3913 10.2037 19.4815 10.0829 19.5717 9.99233C19.5717 9.96214 19.6017 9.96214 19.6017 9.93195C19.6619 9.87158 19.6919 9.8112 19.752 9.75082C19.9625 9.47912 20.1729 9.20742 20.4134 8.93573C20.4134 8.90554 20.4435 8.90554 20.4435 8.87535L21.135 7.99988C21.165 7.96969 21.1951 7.9395 21.1951 7.90931L21.2552 7.81874C21.3755 7.6678 21.4957 7.51686 21.616 7.36591L22.0669 6.82252C22.1872 6.67158 22.3375 6.49044 22.4577 6.30931C22.4577 6.27912 22.4878 6.27912 22.4878 6.24893L22.7884 5.88667C22.9688 5.64516 23.1492 5.40365 23.3296 5.19233L23.6302 4.76969C23.6603 4.7395 23.6603 4.70931 23.6903 4.67912L23.8407 4.49799C23.8407 4.49799 23.8407 4.4678 23.8707 4.4678V4.31686L23.9513 3.95592Z" fill="#5F6466"/>
<path fill-rule="evenodd" clip-rule="evenodd" d="M15.9072 11.6959V12.2393C15.9072 12.2997 15.9072 12.3601 15.9373 12.4204L16.0575 12.994L16.1778 13.4469C16.1778 13.477 16.2079 13.5072 16.2079 13.5374C16.2079 13.3865 16.2379 13.2053 16.268 13.0544C16.298 12.8733 16.3882 12.6921 16.5085 12.5714C16.6287 12.3902 16.8392 12.2695 17.0496 12.2091C17.0797 12.2091 17.1098 12.2091 17.1098 12.1789L17.2601 12.1487C17.3803 12.1185 17.5607 12.1487 17.6208 12.1487C17.6509 12.1487 17.681 12.1487 17.711 12.1487C17.9215 12.1185 18.2822 11.9374 18.4325 11.7865L18.5528 11.6355C18.5829 11.6053 18.5829 11.6053 18.5829 11.5752L18.6731 11.4846C18.8234 11.2733 18.9436 10.9714 19.0037 10.7299C19.0338 10.6091 19.0639 10.5789 19.0037 10.4582C18.9737 10.428 18.8835 10.3374 18.8534 10.277L17.8914 9.311C17.8613 9.28081 17.8313 9.25062 17.8012 9.25062C17.681 9.19025 17.5908 9.28081 17.4705 9.34119C17.3503 9.40157 17.23 9.49213 17.1098 9.55251L17.0196 9.61289C16.9895 9.64308 16.9594 9.64308 16.9594 9.67327L16.8091 9.79402C16.8091 9.79402 16.8091 9.79402 16.7791 9.82421L16.749 9.8544L16.6588 9.94496C16.6588 9.94496 16.6588 9.94496 16.6287 9.97515L16.4784 10.1563C16.3281 10.3374 16.2379 10.5185 16.1477 10.7601C16.1177 10.8506 16.0575 10.9714 16.0575 11.0619C16.0575 11.0921 16.0575 11.0921 16.0275 11.1223C16.0275 11.1525 15.9072 11.6657 15.9072 11.6959Z" fill="#5F6466"/>
<path fill-rule="evenodd" clip-rule="evenodd" d="M9.71065 15.6679C9.28976 15.5169 9.07932 15.0641 9.19957 14.6415C9.34989 14.2188 9.80084 14.0075 10.2217 14.1283L13.679 15.3358L11.0936 11.1698C10.8531 10.8075 10.9733 10.2943 11.3341 10.0528C11.4543 9.96222 11.6046 9.93203 11.755 9.93203L14.8815 9.81128C15.3325 9.81128 15.6932 10.1434 15.6932 10.5962C15.6932 11.049 15.3625 11.4113 14.9116 11.4113L13.1679 11.4717L16.2344 16.3622C16.3847 16.5735 16.4448 16.8452 16.3546 17.0868C16.2043 17.5094 15.7534 17.7207 15.3325 17.6L9.71065 15.6679Z" fill="#5F6466"/>
<path fill-rule="evenodd" clip-rule="evenodd" d="M18.0378 20.7397H35.9856H36.6771L36.7372 21.434L37.9397 37.9774L37.9998 38.6114L37.3986 38.7623C36.0157 39.1246 34.6027 39.4566 33.0695 39.668C31.5362 39.9095 29.9128 40.0302 28.1992 39.9397L27.5378 39.9095L27.4777 39.2453C26.9967 33.751 27.1771 31.5774 26.9967 31.5774C26.7862 31.5774 27.0267 33.751 26.5457 39.2453L26.4856 39.9095L25.7941 39.9397C23.9302 40 22.2767 39.8491 20.7435 39.6076C19.2103 39.3661 17.7973 39.0038 16.4745 38.5812L15.9033 38.4L15.9634 37.7963L17.3163 21.4038L17.3764 20.7095H18.0378V20.7397ZM35.2641 22.2793H18.7293L17.4967 37.3736C18.579 37.7057 19.7214 37.9774 20.954 38.1585C22.2166 38.3698 23.5695 38.4906 25.0726 38.4906C25.5837 32.5132 25.3733 29.5548 26.9666 29.5548C28.4698 29.5849 28.3495 32.5434 28.8907 38.5208C30.2736 38.551 31.5663 38.4302 32.829 38.2491C34.0615 38.068 35.234 37.7963 36.4065 37.5246L35.2641 22.2793Z" fill="#5F6466"/>
<path fill-rule="evenodd" clip-rule="evenodd" d="M18.1585 17.9321H35.8057H36.5272L36.5573 18.6567L36.6775 21.585L36.7076 22.3699H35.9259C27.899 22.3699 29.0414 22.3699 26.9671 22.3699C24.8927 22.3699 26.0351 22.3699 18.0082 22.3699H17.2266L17.2566 21.585L17.3769 18.6567L17.4069 17.9321H18.1585ZM35.1142 19.4718H18.88L18.8199 20.8906C19.9323 20.8906 20.293 20.8906 26.9971 20.8906C33.7013 20.8906 34.062 20.8906 35.1744 20.8906L35.1142 19.4718Z" fill="#5F6466"/>
<path fill-rule="evenodd" clip-rule="evenodd" d="M25.824 18.8679C26.0645 18.8679 26.2749 19.0792 26.2749 19.3208V25.1774C26.2749 25.4189 26.0645 25.6302 25.824 25.6302C25.5835 25.6302 25.373 25.4189 25.373 25.1774V19.3208C25.4031 19.0792 25.5835 18.8679 25.824 18.8679Z" fill="#5F6466"/>
<path fill-rule="evenodd" clip-rule="evenodd" d="M28.0193 18.8679C28.2598 18.8679 28.4703 19.0792 28.4703 19.3208V25.1774C28.4703 25.4189 28.2598 25.6302 28.0193 25.6302C27.7788 25.6302 27.5684 25.4189 27.5684 25.1774V19.3208C27.5684 19.0792 27.7487 18.8679 28.0193 18.8679Z" fill="#5F6466"/>
</svg>
