<svg width="60" height="60" viewBox="0 0 60 60" fill="none" xmlns="http://www.w3.org/2000/svg">
<path d="M57.2052 2.18731L30.8297 21.5713C30.3057 21.9485 29.6943 21.9485 29.1703 21.5713C29.1703 21.4959 2.79476 2.18731 2.79476 2.18731C1.74672 1.43307 0 2.11189 0 3.31867V11.0119C0 11.4645 0.174672 11.8416 0.611354 12.1433L16.8559 24.2112L19.738 26.3231C20.9607 27.2282 20.262 28.8875 18.6026 28.8875H10.3057C9.34498 28.8875 8.55895 29.5663 8.55895 30.396V35.8265C8.55895 36.6562 9.34498 37.335 10.3057 37.335H25.4148C25.8515 37.335 26.2009 37.1842 26.5502 36.9579L29.9563 34.3935L33.4498 36.9579C33.7991 37.1842 34.1485 37.335 34.5852 37.335H49.6943C50.655 37.335 51.4411 36.6562 51.4411 35.8265V30.396C51.4411 29.5663 50.655 28.8875 49.6943 28.8875H41.3974C39.8253 28.8875 39.0393 27.1527 40.262 26.3231L43.1441 24.2112L59.3886 12.1433C59.738 11.8416 60 11.4645 60 11.0119V3.31867C60 2.03646 58.2533 1.35764 57.2052 2.18731Z" fill="#D61D1D"/>
<path d="M57.2052 18.7806L55.4585 20.0629C55.1092 20.3646 54.8472 20.7417 54.8472 21.1942V31.2257V37.335C54.8472 37.7876 54.5852 38.1647 54.2358 38.4664L31.0917 54.5317C30.4804 54.9843 29.607 54.9843 28.9956 54.5317L5.76419 38.4664C5.32751 38.1647 5.15284 37.7876 5.15284 37.335V31.2257V21.1942C5.15284 20.7417 4.97817 20.3646 4.54149 20.0629L2.79476 18.7806C1.74673 17.951 0 18.6298 0 19.912V31.2257V38.9189C0 39.3715 0.262009 39.7486 0.611354 40.0503L12.5764 48.347L28.9083 59.6606C29.5197 60.1131 30.393 60.1131 31.0044 59.6606L47.3363 48.347L59.3013 40.0503C59.738 39.7486 59.9127 39.3715 59.9127 38.9189V31.2257V19.912C60 18.6298 58.3406 17.951 57.2052 18.7806Z" fill="#D61D1D"/>
<path d="M9.78098 2.56443L11.7897 4.07291C12.1391 4.29918 12.4884 4.45003 12.9251 4.45003H46.9862C47.4229 4.45003 47.7722 4.29918 48.1216 4.07291L50.1303 2.56443C51.353 1.65933 50.6543 0 49.0823 0H10.9163C9.3443 0 8.64561 1.65933 9.78098 2.56443Z" fill="#D61D1D"/>
</svg>
