<svg width="118" height="118" viewBox="0 0 118 118" fill="none" xmlns="http://www.w3.org/2000/svg">
<g clip-path="url(#clip0)">
<path d="M6.3002 0.699951H111.4C114.5 0.699951 117 3.19995 117 6.29995V111.4C117 114.5 114.5 117 111.4 117H6.3002C3.2002 117 0.700195 114.5 0.700195 111.4V6.29995C0.700195 3.19995 3.2002 0.699951 6.3002 0.699951Z" stroke="black" stroke-width="1.424" stroke-miterlimit="22.9256"/>
<path d="M21.3004 21.3L17.5004 22.1L21.3004 22.2L17.5004 23L21.2004 23.1L17.4004 23.9L21.2004 24L17.4004 24.8H21.2004L17.4004 25.6L21.2004 25.7L17.4004 26.5L21.2004 26.6L17.4004 27.4L21.1004 27.5L17.5004 28.4L21.3004 28.5L17.5004 29.3L21.3004 29.4L17.5004 30.2001L21.3004 30.3L17.5004 31.1H21.2004L17.4004 31.9L21.2004 32L17.4004 32.8L21.2004 32.9001L17.4004 33.7001L21.2004 33.8L17.4004 34.6L21.2004 34.7001L17.4004 35.5H21.1004L17.3004 36.3L21.1004 36.4001L17.3004 37.2001L21.1004 37.3L17.3004 38.1L21.1004 38.2001L17.3004 39L21.1004 39.1L17.3004 39.9001L21.0004 40L17.2004 40.8L21.0004 40.9001L17.2004 41.7001H21.0004L17.2004 42.5L21.0004 42.6L17.2004 43.4001L21.0004 43.5L17.2004 44.3L21.0004 44.4001L17.2004 45.2001L21.0004 45.3L17.2004 46.1H20.9004L17.1004 46.9001L20.9004 47L17.1004 47.8L20.9004 47.9001L17.1004 48.7001L20.9004 48.8L17.1004 49.6L20.9004 49.7001L17.1004 50.5L20.8004 50.6L17.0004 51.4001L20.8004 51.5L17.0004 52.3L20.8004 52.4001L17.0004 53.1L20.8004 53.2001L17.0004 54L20.8004 54.1L17.0004 54.9001L20.7004 55L16.9004 55.8L20.7004 55.9001L17.1004 56.8H20.9004L17.1004 57.6L20.9004 57.7001L17.0004 58.6L20.8004 58.5L17.1004 59.5L20.8004 59.4001L17.1004 60.4001L20.8004 60.3L17.1004 61.3L20.9004 61.2001L17.2004 62.1L21.0004 62L17.2004 63L21.0004 62.9001L17.2004 63.9001L21.0004 63.8L17.2004 64.8001L21.0004 64.7L17.3004 65.7L21.0004 65.6L17.3004 66.6L21.1004 66.5L17.3004 67.5L21.1004 67.4001L17.3004 68.3001L21.1004 68.2L17.3004 69.2L21.1004 69.1L17.4004 70.1L21.1004 70L17.4004 71L21.2004 70.9001L17.4004 71.9001L21.2004 71.8001L17.4004 72.8001L21.2004 72.7L17.5004 73.6H21.1004L17.5004 74.5L21.1004 74.4001L17.5004 75.2L21.2004 74.9001L17.7004 76.2L21.3004 75.3001L18.0004 77.3L21.5004 75.6L18.6004 78.2L21.8004 76L19.6004 79.3L22.2004 76.5L20.6004 79.9L22.8004 76.9L21.3004 80.5L23.6004 77.4L22.0004 81L24.3004 78L22.7004 81.5L25.0004 78.5L23.4004 82.1L25.7004 79L24.1004 82.6L26.4004 79.5L24.9004 83.1L27.1004 80.1L25.6004 83.6L27.8004 80.6L26.3004 84.2L28.5004 81.1L27.0004 84.7L29.2004 81.7L27.7004 85.2L30.0004 82.2L28.4004 85.8L30.7004 82.7L29.1004 86.3L31.4004 83.2L29.8004 86.8L32.1004 83.8L30.5004 87.3L32.8004 84.3L31.2004 87.9L33.5004 84.8L32.1004 88.3L34.4004 85.2L32.8004 88.8L35.1004 85.8L33.6004 89.3L35.8004 86.3L34.3004 89.9L36.5004 86.8L35.0004 90.4L37.2004 87.4L35.7004 90.9L37.9004 87.9L36.4004 91.5L38.6004 88.4L37.1004 92L39.4004 88.9L37.8004 92.5L40.1004 89.5L38.5004 93L40.8004 90L39.2004 93.6L41.5004 90.5L39.9004 94.1L42.2004 91.1L40.6004 94.6L42.9004 91.6L41.4004 95.1L43.6004 92.1L42.1004 95.7L44.3004 92.6L42.8004 96.2L45.0004 93.2L43.5004 96.7L45.8004 93.6L44.2004 97.2L46.5004 94.2L44.9004 97.7L47.2004 94.7L45.6004 98.3L47.9004 95.2L46.3004 98.8L48.6004 95.7L47.1004 99.3L49.3004 96.3L47.8004 99.8L50.0004 96.8L48.5004 100.4L50.7004 97.3L49.2004 100.9L51.4004 97.9L49.9004 101.4L52.2004 98.4L50.6004 102L52.9004 98.9L51.3004 102.5L53.6004 99.4L52.0004 103L54.3004 100L52.7004 103.5L55.0004 100.5L53.5004 104.1L55.7004 101L54.2004 104.6L56.4004 101.5L55.0004 105L57.5004 102.1L55.8004 105.5L58.2004 102.5L56.5004 106.1L58.5004 102.6L57.2004 106.6L58.9004 102.7L58.2004 106.9L59.3004 102.7L59.5004 107L59.7004 102.7L60.8004 106.7L60.1004 102.6L62.0004 106.1L60.5004 102.4L62.7004 105.5L61.2004 102L63.5004 105L62.1004 101.5L64.3004 104.6L62.8004 101L65.0004 104.1L63.5004 100.5L65.8004 103.5L64.2004 100L66.5004 103L64.9004 99.4L67.2004 102.5L65.6004 98.9L67.9004 102L66.3004 98.4L68.6004 101.4L67.1004 97.9L69.3004 100.9L67.8004 97.3L70.0004 100.4L68.5004 96.8L70.7004 99.8L69.2004 96.3L71.4004 99.3L69.9004 95.7L72.2004 98.8L70.6004 95.2L72.9004 98.3L71.3004 94.7L73.6004 97.7L72.0004 94.2L74.3004 97.2L72.7004 93.6L75.0004 96.7L73.5004 93.2L75.7004 96.2L74.2004 92.6L76.4004 95.7L74.9004 92.1L77.1004 95.1L75.6004 91.6L77.9004 94.6L76.3004 91.1L78.6004 94.1L77.0004 90.5L79.3004 93.6L77.7004 90L80.0004 93L78.4004 89.5L80.7004 92.5L79.1004 88.9L81.4004 92L79.9004 88.4L82.1004 91.5L80.6004 87.9L82.8004 90.9L81.3004 87.4L83.5004 90.4L82.0004 86.8L84.2004 89.9L82.7004 86.3L85.0004 89.3L83.4004 85.8L85.7004 88.8L84.1004 85.2L86.4004 88.3L85.0004 84.8L87.3004 87.9L85.7004 84.3L88.0004 87.3L86.4004 83.8L88.7004 86.8L87.1004 83.2L89.4004 86.3L87.8004 82.7L90.1004 85.8L88.6004 82.2L90.8004 85.2L89.3004 81.7L91.5004 84.7L90.0004 81.1L92.2004 84.2L90.7004 80.6L92.9004 83.6L91.4004 80.1L93.6004 83.1L92.1004 79.5L94.4004 82.6L92.8004 79L95.1004 82.1L93.5004 78.5L95.8004 81.5L94.2004 78L96.5004 81L95.0004 77.4L97.2004 80.5L95.7004 76.9L97.9004 79.9L96.3004 76.5L98.9004 79.3L96.7004 76L99.9004 78.2L97.0004 75.6L100.5 77.3L97.2004 75.3001L100.8 76.2L97.3004 74.9001L101 75.2L97.4004 74.4001L101 74.5L97.4004 73.6H101.1L97.3004 72.7L101.1 72.8001L97.3004 71.8001L101.1 71.9001L97.3004 70.9001L101.1 71L97.4004 70L101.1 70.1L97.4004 69.1L101.2 69.2L97.4004 68.2L101.2 68.3001L97.4004 67.4001L101.2 67.5L97.4004 66.5L101.2 66.6L97.5004 65.6L101.2 65.7L97.5004 64.7L101.3 64.8001L97.5004 63.8L101.3 63.9001L97.5004 62.9001L101.3 63L97.6004 62L101.3 62.1L97.6004 61.2001L101.4 61.3L97.7004 60.3L101.4 60.4001L97.7004 59.4001L101.4 59.5L97.7004 58.5L101.5 58.6L97.6004 57.7001L101.4 57.6L97.6004 56.8H101.4L97.8004 55.9001L101.6 55.8L97.8004 55L101.5 54.9001L97.7004 54.1L101.5 54L97.7004 53.2001L101.5 53.1L97.7004 52.4001L101.5 52.3L97.7004 51.5L101.5 51.4001L97.7004 50.6L101.4 50.5L97.6004 49.7001L101.4 49.6L97.6004 48.8L101.4 48.7001L97.6004 47.9001L101.4 47.8L97.6004 47L101.4 46.9001L97.6004 46.1H101.3L97.5004 45.3L101.3 45.2001L97.5004 44.4001L101.3 44.3L97.5004 43.5L101.3 43.4001L97.5004 42.6L101.3 42.5L97.5004 41.7001H101.3L97.5004 40.9001L101.3 40.8L97.5004 40L101.2 39.9001L97.4004 39.1L101.2 39L97.4004 38.2001L101.2 38.1L97.4004 37.3L101.2 37.2001L97.4004 36.4001L101.2 36.3L97.4004 35.5H101.1L97.3004 34.7001L101.1 34.6L97.3004 33.8L101.1 33.7001L97.3004 32.9001L101.1 32.8L97.3004 32L101.1 31.9L97.3004 31.1H101L97.2004 30.3L101 30.2001L97.2004 29.4L101 29.3L97.2004 28.5L101 28.4L97.4004 27.5L101.1 27.4L97.3004 26.6L101.1 26.5L97.3004 25.7L101.1 25.6L97.3004 24.8H101.1L97.3004 24L101.1 23.9L97.3004 23.1L101 23L97.2004 22.2L101 21.9L97.3004 21.3L101.2 20.5L97.3004 20.4L101.3 19L97.2004 19.7L100.9 17.4L97.1004 19L100.3 16.2L96.8004 18.7L99.7004 15.1L96.5004 18.4L98.6004 14.3L96.0004 18L97.6004 13.6L95.4004 17.6L96.5004 13.2L94.9004 17.2L95.4004 13L94.5004 17L94.2004 12.9L94.1004 16.9L93.3004 12.9V16.8L92.5004 12.9L92.4004 16.7L91.6004 12.9V16.7L90.7004 12.9V16.7L89.8004 12.9V16.7L88.9004 12.9V16.7L88.0004 12.9V16.7L87.1004 12.9V16.7L86.3004 12.9L86.2004 16.7L85.4004 12.9V16.7L84.5004 12.9V16.7L83.6004 12.9V16.7L82.7004 12.9V16.7L81.8004 13.1L81.7004 16.8L80.9004 13V16.8L80.0004 13V16.8L79.1004 13V16.8L78.2004 13V16.8L77.3004 13V16.8L76.5004 13L76.4004 16.8L75.6004 13L75.5004 16.8L74.7004 13V16.8L73.8004 13V16.8L72.9004 13V16.8L72.0004 13V16.8L71.2004 13L71.1004 16.8L70.3004 13L70.2004 16.8L69.3004 12.8V16.6L68.4004 12.8V16.6L67.5004 13V16.8L66.6004 13V16.8L65.7004 13V16.8L64.8004 13V16.7L63.9004 13V16.7L63.1004 13L63.0004 16.7L62.2004 12.9L62.1004 16.7L61.3004 12.9V16.7L60.4004 12.9V16.7L59.5004 12.9V16.7L58.6004 12.9V16.7L57.7004 12.9V16.7L56.9004 12.9L56.8004 16.7L56.0004 12.9V16.7L55.1004 12.9V16.7L54.2004 12.9V16.7L53.3004 13V16.7L52.5004 12.9L52.4004 16.7L51.6004 12.9L51.5004 16.7L50.7004 12.9V16.7L49.8004 12.9V16.7L48.9004 12.9V16.7L48.0004 12.9V16.7L47.1004 12.9V16.7L46.3004 12.9L46.2004 16.7L45.4004 12.9V16.7L44.5004 12.9V16.7L43.6004 12.9V16.7L42.7004 12.9V16.7L41.8004 12.9V16.7L40.9004 12.9V16.7L40.1004 12.9L40.0004 16.7L39.1004 13.1V16.8L38.2004 13V16.8L37.3004 13V16.8L36.4004 13V16.8L35.6004 13V16.8L34.7004 13V16.8L33.8004 13V16.8L32.9004 13V16.8L32.0004 13V16.8L31.1004 13V16.8L30.2004 13V16.8L29.4004 13L29.3004 16.8L28.5004 13V16.8L27.6004 13V16.8L26.8004 13L26.6004 16.9L26.0004 13.1L25.6004 16.9L25.2004 13.1L24.9004 17L24.4004 13.1L24.3004 17.2L23.4004 13.2L23.8004 17.4L22.3004 13.3L23.4004 17.7L21.2004 13.8L22.8004 18.1L20.1004 14.4L22.3004 18.5L19.1004 15.3L22.0004 18.8L18.5004 16.3L21.7004 19.2L17.9004 17.5L21.6004 19.8L17.5004 19.1L21.4004 20.5L17.5004 20.7L21.3004 21.3Z" stroke="#676767" stroke-width="0.3559" stroke-miterlimit="22.9256" stroke-linejoin="round"/>
</g>
<path fill-rule="evenodd" clip-rule="evenodd" d="M88.8757 52.4282L86.9231 53.9815C86.5325 54.3699 86.3373 54.7582 86.3373 55.3408L86.3373 67.9618L86.3373 68.5443C86.3373 69.1268 86.142 69.7093 85.5562 69.9035L60.1716 88.1555C59.5858 88.738 58.6095 88.738 57.8284 88.1555L32.4438 69.9035C32.0533 69.5152 31.6627 68.9326 31.6627 68.5443L31.6627 67.9618L31.6627 55.3407C31.6627 54.7582 31.4675 54.3699 31.0769 53.9815L29.1243 52.4282C27.9527 51.4573 26 52.234 26 53.7874L26 67.9618L26 70.486C26 71.0685 26.1953 71.651 26.7811 71.8452C37.1302 80.0003 47.4793 86.408 57.8284 94.5631C58.4142 95.1456 59.3905 95.1456 60.1716 94.5631C70.5207 86.408 80.8698 80.0003 91.2189 71.8452C91.6095 71.4569 92 70.8743 92 70.486L92 67.9618L92 53.9815C92 52.234 90.0473 51.4574 88.8757 52.4282Z" fill="black"/>
<path fill-rule="evenodd" clip-rule="evenodd" d="M36.6584 24.9311L38.831 26.6552C39.226 26.8276 39.621 27 40.0161 27L77.9382 27C78.3332 27 78.7283 26.8276 79.1233 26.6552L81.2959 24.9311C82.6785 23.8966 81.8884 22 80.1108 22L37.8434 22C36.2633 22 35.2758 23.8966 36.6584 24.9311Z" fill="black"/>
<path fill-rule="evenodd" clip-rule="evenodd" d="M33.0062 41.1999L28 31.4L33.0062 31.4L35.3168 37.1999L37.6273 31.4L42.6335 31.4L37.6273 41.1999L37.6273 47.6L32.8137 47.6L32.8137 41.1999L33.0062 41.1999ZM51.4907 31C52.646 31 53.6087 31.2 54.764 31.6C55.7267 32 56.6894 32.5999 57.4596 33.1999C58.2298 34 58.8075 34.8 59.3851 35.8C59.7702 36.8 60.1553 38 60.1553 39.4C60.1553 40.8 59.9627 41.8 59.3851 43C59 44 58.2298 45 57.4596 45.6C56.6894 46.4 55.7267 46.8 54.764 47.2C53.8012 47.6 52.646 47.8 51.4907 47.8C50.3354 47.8 49.3727 47.6 48.2174 47.2C47.2547 46.8 46.2919 46.2 45.5217 45.6C44.7515 44.8 44.1739 44 43.5963 43C43.2112 42 42.8261 40.8 42.8261 39.4C42.8261 38 43.0186 37 43.5963 35.8C43.9814 34.8 44.7515 33.7999 45.5217 33.1999C46.2919 32.3999 47.2547 32 48.2174 31.6C49.1801 31.2 50.3354 31 51.4907 31ZM48.0248 39.6C48.0248 40.2 48.2174 40.8 48.4099 41.4C48.6025 42 48.795 42.4 49.1801 42.6C49.5652 43 49.9503 43.2 50.3354 43.4C50.7205 43.6 51.1056 43.6 51.6832 43.6C52.0683 43.6 52.646 43.6 53.0311 43.4C53.4161 43.2 53.8012 43 54.1863 42.6C54.5714 42.2 54.764 41.8 54.9565 41.4C55.1491 40.8 55.3416 40.4 55.3416 39.6C55.3416 39 55.1491 38.4 54.9565 37.8C54.764 37.2 54.5714 36.8 54.1863 36.6C53.8012 36.2 53.4161 36 53.0311 35.8C52.646 35.6 52.2609 35.6 51.6832 35.6C51.2981 35.6 50.913 35.6 50.3354 35.8C49.9503 36 49.5652 36.2 49.1801 36.6C48.795 37 48.6025 37.4 48.4099 37.8C48.0248 38.2 48.0248 38.8 48.0248 39.6ZM61.6957 31.4L66.5093 31.4L66.5093 40.8C66.5093 41.8 66.7019 42.4 66.8944 42.8C67.0869 43.2 67.4721 43.4 68.2422 43.4C68.8199 43.4 69.3975 43.2 69.5901 42.8C69.7826 42.4 69.9752 41.8 69.9752 40.8L69.9752 31.4L74.7888 31.4L74.7888 41.2C74.7888 43.6 74.2112 45.2 73.2484 46.4C72.2857 47.4 70.5528 48 68.4348 48C66.1242 48 64.5838 47.4 63.6211 46.4C62.6584 45.4 62.0807 43.6 62.0807 41.2L62.0807 31.4L61.6957 31.4ZM90 47.6L84.8012 47.6L82.2981 41.2L82.1056 41.2L82.1056 47.6L77.2919 47.6L77.2919 31.4L83.4534 31.4C85.1863 31.4 86.7267 31.8 87.882 32.6C89.0373 33.4 89.4224 34.8 89.4224 36.6C89.4224 37.6 89.2298 38.4 88.6522 39C88.0745 39.6 87.4969 40.2 86.5342 40.6L90 47.6ZM82.1056 35.2L82.1056 37.8L82.8758 37.8C83.4534 37.8 83.8385 37.6 84.0311 37.4C84.2236 37.2 84.4162 36.8 84.4162 36.6C84.4162 35.8 83.8385 35.2 82.8758 35.2L82.1056 35.2Z" fill="black"/>
<path fill-rule="evenodd" clip-rule="evenodd" d="M36 65.8095L36 54.381L39.4615 54.381L39.4615 62.9524L43.6923 62.9524L43.1154 65.8095L36 65.8095ZM50.6154 54C51.3846 54 52.1539 54.1905 52.9231 54.381C53.6923 54.5714 54.2692 55.1429 54.8462 55.5238C55.4231 56.0953 55.8077 56.6667 56.1923 57.4286C56.5769 58.1905 56.7692 58.9524 56.7692 59.9048C56.7692 60.8571 56.5769 61.6191 56.1923 62.381C55.8077 63.1429 55.4231 63.7143 54.8462 64.2857C54.2692 64.8572 53.6923 65.2381 52.9231 65.4285C52.1539 65.619 51.3846 65.8095 50.6154 65.8095C49.8462 65.8095 49.0769 65.619 48.3077 65.4285C47.5385 65.2381 46.9615 64.6667 46.3846 64.2857C45.8077 63.7143 45.4231 63.1429 45.0385 62.381C44.6538 61.6191 44.4615 60.8571 44.4615 59.9048C44.4615 58.9524 44.6538 58.1905 45.0385 57.4286C45.4231 56.6667 45.8077 56.0953 46.3846 55.5238C46.9615 54.9524 47.5385 54.5714 48.3077 54.381C48.8846 54.1905 49.6538 54 50.6154 54ZM47.9231 60.0952C47.9231 60.4762 47.9231 61.0476 48.1154 61.2381C48.3077 61.6191 48.5 61.8095 48.6923 62.1905C48.8846 62.381 49.2692 62.5714 49.4615 62.7619C49.8462 62.9524 50.0385 62.9524 50.4231 62.9524C50.8077 62.9524 51 62.9524 51.3846 62.7619C51.7692 62.5714 51.9615 62.381 52.1538 62.1905C52.3462 62 52.5385 61.6191 52.7308 61.2381C52.9231 60.8572 52.9231 60.4762 52.9231 60.0952C52.9231 59.7143 52.9231 59.1429 52.7308 58.9524C52.5385 58.5714 52.3462 58.381 52.1538 58C51.9615 57.8095 51.5769 57.6191 51.3846 57.4286C51 57.2381 50.8077 57.2381 50.4231 57.2381C50.0385 57.2381 49.8462 57.2381 49.4615 57.4286C49.0769 57.6191 48.8846 57.8095 48.6923 58C48.5 58.1905 48.3077 58.5714 48.1154 58.9524C48.1154 59.1429 47.9231 59.5238 47.9231 60.0952ZM63.6923 62.9524C63.8846 62.9524 63.8846 62.9524 64.0769 62.9524C64.2692 62.9524 64.2692 62.9524 64.4615 62.7619L64.4615 60.0952L67.9231 60.0952L67.9231 64.4762C67.3461 65.0476 66.7692 65.4286 66 65.619C65.2308 65.8095 64.4615 66 63.6923 66C62.9231 66 62.1538 65.8095 61.3846 65.619C60.6154 65.4286 60.0385 64.8571 59.4615 64.4762C58.8846 63.9047 58.5 63.3333 58.1154 62.5714C57.7308 61.8095 57.5385 61.0476 57.5385 60.0952C57.5385 59.1429 57.7308 58.381 58.1154 57.6191C58.5 56.8572 58.8846 56.2858 59.4615 55.7143C60.0385 55.1429 60.6154 54.7619 61.3846 54.5715C62.1538 54.381 62.9231 54.1905 63.6923 54.1905C64.6538 54.1905 65.4231 54.381 66.1923 54.7619C66.9615 55.1429 67.5385 55.5238 67.9231 56.2857L65.8077 58.5715C65.6154 58.1905 65.2308 58 64.8462 57.8095C64.4615 57.619 64.0769 57.4286 63.6923 57.4286C63.3077 57.4286 63.1154 57.4286 62.7308 57.6191C62.3462 57.8096 62.1538 58 61.9615 58.1905C61.7692 58.381 61.5769 58.7619 61.3846 59.1429C61.1923 59.5238 61.1923 59.9048 61.1923 60.2857C61.1923 60.6667 61.1923 61.2381 61.3846 61.4286C61.5769 61.8095 61.7692 62 61.9615 62.381C62.1538 62.5715 62.5385 62.7619 62.7308 62.9524C62.9231 62.7619 63.3077 62.9524 63.6923 62.9524ZM74.8461 54C75.6154 54 76.3846 54.1905 77.1538 54.381C77.9231 54.5715 78.5 55.1429 79.0769 55.5238C79.6538 56.0953 80.0385 56.6667 80.4231 57.4286C80.8077 58.1905 81 58.9524 81 59.9048C81 60.8571 80.8077 61.6191 80.4231 62.381C80.0385 63.1429 79.6538 63.7143 79.0769 64.2857C78.5 64.8572 77.9231 65.2381 77.1538 65.4285C76.3846 65.619 75.6154 65.8095 74.8461 65.8095C74.0769 65.8095 73.3077 65.619 72.5385 65.4285C71.7692 65.2381 71.1923 64.6667 70.6154 64.2857C70.0385 63.7143 69.6539 63.1429 69.2692 62.381C68.8846 61.6191 68.6923 60.8571 68.6923 59.9048C68.6923 58.9524 68.8846 58.1905 69.2692 57.4286C69.6539 56.6667 70.0385 56.0953 70.6154 55.5238C71.1923 54.9524 71.7692 54.5714 72.5385 54.381C73.1154 54.1905 74.0769 54 74.8461 54ZM72.3462 60.0952C72.3462 60.4762 72.3462 61.0476 72.5385 61.2381C72.7308 61.6191 72.9231 61.8095 73.1154 62.1905C73.3077 62.381 73.6923 62.5714 73.8846 62.7619C74.2692 62.9524 74.4615 62.9524 74.8461 62.9524C75.2308 62.9524 75.4231 62.9524 75.8077 62.7619C76.1923 62.5714 76.3846 62.381 76.5769 62.1905C76.7692 62 76.9615 61.6191 77.1538 61.2381C77.3462 60.8572 77.3462 60.4762 77.3462 60.0952C77.3462 59.7143 77.3462 59.1429 77.1538 58.9524C76.9615 58.5714 76.7692 58.381 76.5769 58C76.3846 57.8095 76 57.6191 75.8077 57.4286C75.4231 57.2381 75.2308 57.2381 74.8461 57.2381C74.4615 57.2381 74.2692 57.2381 73.8846 57.4286C73.5 57.6191 73.3077 57.8095 73.1154 58C72.9231 58.1905 72.7308 58.5714 72.5385 58.9524C72.3462 59.1429 72.3462 59.5238 72.3462 60.0952Z" fill="black"/>
<path fill-rule="evenodd" clip-rule="evenodd" d="M58.5 82L42 70L58.5 70L75 70L58.5 82Z" fill="black"/>
<defs>
<clipPath id="clip0">
<rect width="117.7" height="117.7" fill="white"/>
</clipPath>
</defs>
</svg>
