<svg width="34" height="27" viewBox="0 0 34 27" fill="none" xmlns="http://www.w3.org/2000/svg">
<g clip-path="url(#clip0)">
<path fill-rule="evenodd" clip-rule="evenodd" d="M8.56062 9.29348C6.7609 9.29348 6.90682 9.48913 5.6908 8.85326L2.52914 7.09239C2.86963 7.09239 4.03701 6.65217 4.42614 6.55435L10.2144 4.74457C11.9168 4.15761 14.1543 3.52174 15.954 2.93478L20.7208 1.46739C20.964 1.41848 20.9154 1.41848 21.11 1.5163C21.2559 1.61413 21.3532 1.66304 21.5477 1.76087C22.7151 2.34783 23.7366 2.93478 24.8553 3.52174L30.6436 6.55435C30.8868 6.70109 31.2273 6.89674 31.4705 6.94565L20.2344 10.4674C19.9426 10.5163 19.9912 10.4674 19.6507 10.3696C18.8238 10.125 17.997 9.92935 17.3646 9.53804C16.2459 8.85326 15.6622 8.36413 14.9812 7.28804C14.738 6.94565 14.3002 5.96739 13.522 6.89674C13.0842 7.43478 12.4032 7.97283 11.8196 8.36413C11.0899 8.90217 9.82528 9.29348 8.56062 9.29348ZM14.0084 8.41304C14.1543 8.51087 14.5434 9 14.6894 9.14674C14.8839 9.44022 15.1758 9.63587 15.419 9.88043C15.9054 10.3207 16.5377 10.6141 17.0241 10.9565C17.1214 11.0543 17.0728 10.9565 17.1214 11.0543L14.738 11.1033C12.6951 11.1033 10.6522 10.5652 10.263 10.5652C10.409 10.3696 11.4304 10.2228 12.306 9.68478C13.6679 8.90217 13.6193 8.70652 14.0084 8.41304ZM15.5649 18.3913C15.7595 18.0978 21.2559 12.6196 21.8882 11.9837C22.0828 11.788 22.326 11.4946 22.5206 11.3478C22.6665 11.2011 25.0499 10.5163 25.439 10.4185C25.7309 10.3207 25.7795 10.4674 26.2659 10.712C26.6064 10.8587 26.8982 11.1033 27.1414 11.1522C27.0442 11.4457 26.801 11.5924 26.6064 11.788C25.8281 12.5707 22.1314 16.3859 21.8396 16.4837C21.5964 16.5815 21.2073 16.6793 20.9154 16.7772L17.316 17.9022C17.0241 17.9511 15.8568 18.3913 15.5649 18.3913ZM12.8897 19.0761L9.87392 17.5109L14.6894 12.6685C14.9326 12.4239 15.0785 12.5217 15.4676 12.5217C16.1486 12.5217 18.2402 12.3261 18.9698 12.1793C19.2616 12.1304 19.5048 12.0326 19.8453 12.0326L12.8897 19.0761ZM4.57206 14.625C4.28021 14.5761 3.7938 14.2826 3.5506 14.1359C3.21011 13.9891 2.86963 13.6957 2.52914 13.6467V13.5C2.96691 13.4511 6.32313 12.2772 7.10139 12.0815L4.57206 14.625ZM8.6579 16.8261C8.36605 16.7283 6.12857 15.5543 5.93401 15.4076C6.12857 15.1141 9.48479 11.788 9.53343 11.788L11.2359 12.1304C11.625 12.2283 12.5978 12.375 13.0356 12.375L8.6579 16.8261ZM24.904 15.5054L28.5034 11.837L29.9626 12.6196C30.3517 12.8152 31.2273 13.3043 31.4705 13.3533V13.5C31.1786 13.5489 30.8868 13.6467 30.6436 13.7446L26.5578 15.0163C26.0713 15.163 25.4877 15.4076 24.904 15.5054ZM33.9998 13.5489V13.7935C33.9512 13.9891 33.8053 14.1848 33.5134 14.2826C33.1243 14.4293 27.8224 16.0924 27.4819 16.0924C27.6279 16.288 28.8439 16.875 29.1357 17.0217L32.5406 18.7826C32.9784 18.9783 33.9998 19.3696 33.9998 19.9565C33.9998 20.7391 32.8811 20.837 32.2001 21.0815C30.4004 21.6685 28.552 22.1576 26.7523 22.7446C26.3146 22.8913 25.0499 23.3804 25.0499 22.4022C25.0499 21.6196 25.8281 21.5707 26.4605 21.375C26.9955 21.2283 27.6279 21.0326 28.1629 20.837C28.7466 20.6413 29.2816 20.4946 29.8653 20.2989C30.2058 20.2011 30.4004 20.1522 30.7409 20.0054C31.0327 19.9076 31.2273 19.8098 31.5678 19.7609V19.6141C31.3246 19.5652 31.2273 19.4674 31.0327 19.3696L25.7795 16.6304C25.5849 16.5815 25.4877 16.6304 25.1958 16.7283L14.3489 20.1033C12.5492 20.6413 12.9869 20.4457 11.1386 19.5163L8.75518 18.2446C8.51197 18.1467 8.41469 18 8.17149 18.0489C7.34459 18.2446 3.16147 19.712 2.62642 19.7609V20.0543C3.16147 20.1522 3.7938 20.6413 4.28021 20.8859L12.2087 25.0924C12.8897 25.4348 13.0842 25.6793 13.4733 25.5815L17.6078 24.2609C18.5806 23.9674 19.4562 23.625 20.3804 23.3804C21.0613 23.1848 21.6937 23.7717 21.2559 24.4076C21.0613 24.7011 20.8181 24.7011 20.4776 24.7989L14.9326 26.5109C14.3975 26.7065 13.6193 27 13.0356 27C12.7924 27 11.625 26.3152 11.3331 26.1685C11.0413 26.0217 10.7981 25.875 10.5063 25.7283L1.36176 20.9348C0.92399 20.6902 -0.000187203 20.4457 -0.000187203 19.8587C-0.000187203 19.4674 0.194377 19.2228 0.583504 19.125L3.11283 18.3424C3.59924 18.1957 5.98265 17.3641 6.46906 17.3152C6.32313 17.1196 5.10711 16.5326 4.81526 16.3859L1.4104 14.625C0.972631 14.3804 -0.0488281 14.038 -0.0488281 13.4511C-0.0488281 12.6685 0.826708 12.6196 1.36176 12.4728L4.81526 11.3967C5.10711 11.2989 5.39896 11.25 5.6908 11.1522C5.93401 11.0543 6.32313 10.9076 6.56634 10.9076C6.46906 10.7609 6.32313 10.7609 6.12857 10.663C5.93401 10.5652 5.83672 10.5652 5.64216 10.4674C4.18293 9.83152 2.82099 9 1.4104 8.2663C1.06991 8.11956 0.875349 7.97283 0.534863 7.77717C0.243017 7.58152 -0.000187203 7.38587 -0.000187203 6.94565C-0.000187203 6.3587 0.583504 6.30978 1.02127 6.16304C1.45904 6.0163 1.89681 5.86957 2.33458 5.77174C5.00983 5.03804 7.68508 4.05978 10.3603 3.27717C13.522 2.34783 16.5377 1.32065 19.6994 0.391304C21.0613 -3.39001e-07 20.7208 -0.195652 21.9369 0.440217C22.2287 0.586956 22.4719 0.733695 22.7638 0.880434C24.8553 1.90761 27.1901 3.27717 29.3303 4.35326C29.6708 4.45109 29.8653 4.59783 30.1572 4.74457C30.9841 5.18478 31.8596 5.57609 32.6379 6.06522C33.0756 6.30978 33.9998 6.55435 33.9998 7.1413C33.9998 7.53261 33.8539 7.72826 33.5134 7.875C33.027 8.07065 27.7738 9.68478 27.4819 9.68478C27.6279 9.88043 30.5463 11.3478 30.8382 11.4946L33.4161 12.8641C33.7566 13.0598 33.9512 13.3043 33.9998 13.5489Z" fill="white"/>
<path fill-rule="evenodd" clip-rule="evenodd" d="M22.4722 23.1848C22.4722 24.0652 23.8828 24.0652 23.8828 23.1848C23.8341 22.3533 22.4722 22.3044 22.4722 23.1848Z" fill="white"/>
</g>
<defs>
<clipPath id="clip0">
<rect width="34" height="27" fill="white"/>
</clipPath>
</defs>
</svg>
