<svg width="33" height="36" viewBox="0 0 33 36" fill="none" xmlns="http://www.w3.org/2000/svg">
<g clip-path="url(#clip0)">
<path fill-rule="evenodd" clip-rule="evenodd" d="M2.95906 0H23.7047C24.5088 0 25.2485 0.316067 25.7953 0.85338C26.3421 1.39069 26.6637 2.11765 26.6637 2.90781V19.5329L24.8304 19.3433V2.90781C24.8304 2.59175 24.7018 2.30729 24.5088 2.11765C24.3158 1.92801 24.0263 1.80158 23.7047 1.80158H2.95906C2.63743 1.80158 2.34795 1.92801 2.15497 2.11765C1.96199 2.30729 1.83333 2.59175 1.83333 2.90781V30.8797C1.83333 31.1958 1.96199 31.4802 2.15497 31.6699C2.34795 31.8595 2.63743 31.9859 2.95906 31.9859H16.4357L16.9503 33.7875H2.95906C2.15497 33.7875 1.4152 33.4715 0.868421 32.9341C0.321637 32.3968 0 31.6699 0 30.8797V2.90781C0 2.11765 0.321637 1.39069 0.868421 0.85338C1.4152 0.316067 2.15497 0 2.95906 0Z" fill="#5F6466"/>
<path fill-rule="evenodd" clip-rule="evenodd" d="M10.0028 6.89014H15.0847C16.4355 6.89014 17.6578 7.42745 18.5262 8.24922C19.4268 9.1026 19.9735 10.272 19.9735 11.5679C19.9735 12.8638 19.4268 14.0332 18.5262 14.8866C17.6256 15.74 16.4034 16.2457 15.0847 16.2457H10.0028V17.3203H16.6285V18.9955H10.0028V24.021H8.29811V19.0271H7.42969V17.3519H8.29811V16.2773H7.42969V14.6022H8.29811V6.89014H10.0028ZM10.0028 14.6338H15.0847C15.9852 14.6338 16.7893 14.2861 17.3683 13.7488C17.9472 13.2115 18.301 12.4529 18.301 11.5995C18.301 10.7778 17.9472 10.0192 17.3683 9.45028C16.7893 8.88136 15.9852 8.56529 15.0847 8.56529H10.0028V14.6338Z" fill="#5F6466"/>
<path d="M28.65 26.5574C28.65 30.0428 25.774 32.8894 22.2 32.8894C18.626 32.8894 15.75 30.0428 15.75 26.5574C15.75 23.072 18.626 20.2255 22.2 20.2255C25.774 20.2255 28.65 23.072 28.65 26.5574Z" stroke="#5F6466" stroke-width="1.5"/>
<path d="M17.5957 24.3H19.9226V24.906L18.7806 28.5H17.915L18.9894 25.044H17.5957V24.3Z" fill="#5F6466"/>
<path d="M22.4318 28.23C22.2149 28.45 21.912 28.56 21.5231 28.56C21.1343 28.56 20.8314 28.45 20.6145 28.23C20.3976 28.006 20.2891 27.694 20.2891 27.294V25.518C20.2891 25.118 20.3976 24.806 20.6145 24.582C20.8314 24.354 21.1343 24.24 21.5231 24.24C21.912 24.24 22.2149 24.354 22.4318 24.582C22.6528 24.806 22.7633 25.118 22.7633 25.518V27.294C22.7633 27.694 22.6528 28.006 22.4318 28.23ZM21.5231 27.804C21.8178 27.804 21.9652 27.634 21.9652 27.294V25.518C21.9652 25.17 21.8178 24.996 21.5231 24.996C21.2325 24.996 21.0872 25.17 21.0872 25.518V27.294C21.0872 27.634 21.2325 27.804 21.5231 27.804Z" fill="#5F6466"/>
<path d="M24.1834 26.016C24.0688 26.128 23.9092 26.184 23.7045 26.184C23.4999 26.184 23.3382 26.128 23.2195 26.016C23.1008 25.9 23.0415 25.736 23.0415 25.524V24.894C23.0415 24.682 23.1008 24.518 23.2195 24.402C23.3382 24.286 23.4999 24.228 23.7045 24.228C23.9092 24.228 24.0688 24.286 24.1834 24.402C24.3021 24.518 24.3615 24.682 24.3615 24.894V25.524C24.3615 25.736 24.3021 25.9 24.1834 26.016ZM23.109 28.5L26.0683 24.3H26.6208L23.6616 28.5H23.109ZM23.7045 25.758C23.7659 25.758 23.8089 25.742 23.8335 25.71C23.858 25.678 23.8703 25.62 23.8703 25.536V24.882C23.8703 24.798 23.858 24.74 23.8335 24.708C23.8089 24.672 23.7659 24.654 23.7045 24.654C23.5899 24.654 23.5326 24.73 23.5326 24.882V25.536C23.5326 25.684 23.5899 25.758 23.7045 25.758ZM26.3998 28.386C26.2852 28.498 26.1256 28.554 25.9209 28.554C25.7163 28.554 25.5546 28.498 25.4359 28.386C25.3172 28.27 25.2578 28.106 25.2578 27.894V27.264C25.2578 27.052 25.3172 26.888 25.4359 26.772C25.5546 26.656 25.7163 26.598 25.9209 26.598C26.1256 26.598 26.2852 26.656 26.3998 26.772C26.5185 26.888 26.5778 27.052 26.5778 27.264V27.894C26.5778 28.106 26.5185 28.27 26.3998 28.386ZM25.9209 28.128C25.9823 28.128 26.0253 28.112 26.0498 28.08C26.0744 28.048 26.0867 27.99 26.0867 27.906V27.252C26.0867 27.168 26.0744 27.11 26.0498 27.078C26.0253 27.042 25.9823 27.024 25.9209 27.024C25.8063 27.024 25.749 27.1 25.749 27.252V27.906C25.749 28.054 25.8063 28.128 25.9209 28.128Z" fill="#5F6466"/>
</g>
<defs>
<clipPath id="clip0">
<rect width="33" height="36" fill="white"/>
</clipPath>
</defs>
</svg>
