<svg width="46" height="26" viewBox="0 0 46 26" fill="none" xmlns="http://www.w3.org/2000/svg">
<g clip-path="url(#clip0)">
<path d="M20.1188 18.813H14.7538L13.2138 21.7724H20.1685C20.5659 21.7724 20.9136 21.6138 21.162 21.3496C21.4104 21.0854 21.5594 20.7154 21.5594 20.2927C21.5594 19.8699 21.4104 19.5 21.162 19.2358C20.8639 18.9715 20.5162 18.813 20.1188 18.813ZM33.4816 1.00407L22.6523 21.4024C22.5032 21.6667 22.2052 22.0894 22.0065 22.3008C21.5097 22.8293 20.8639 23.1463 20.1188 23.1463H12.1209H11.0281L11.5745 22.1423L13.3132 18.813H0.894168H0L0.298056 17.9146C1.73866 13.5813 3.32829 11.626 5.01728 9.61789C6.70626 7.55691 8.44492 5.39024 10.1836 0.422764L10.3326 0H10.7797H32.9352H34.0281L33.4816 1.00407ZM22.5032 18.9715L31.8423 1.37398H11.1771C9.43845 6.23577 7.65011 8.40244 5.96112 10.5163C4.52052 12.313 3.12959 14.0569 1.83801 17.4919H20.1685C20.9136 17.4919 21.5594 17.8089 22.0562 18.3374C22.2052 18.4959 22.3542 18.7602 22.5032 18.9715Z" fill="white"/>
<path d="M31.1964 3.54064H45.2051H45.9999L45.7515 4.33332C44.1619 9.9878 42.2245 12.4187 40.2375 14.9024C38.3995 17.1748 36.5614 19.5528 34.8228 24.6789L34.6738 25.1016H34.2763H12.1705H11.0776L11.7234 24.0975L12.9653 22.0894L13.9588 22.7764L13.3131 23.7805H33.8789C35.6673 18.7073 37.555 16.3293 39.3433 14.0569C41.1316 11.7845 42.92 9.56503 44.4103 4.75609H31.1964V3.54064Z" fill="white"/>
<path d="M19.9204 20.2398C19.9204 20.0813 20.0694 19.9228 20.2185 19.9228C20.3675 19.9228 20.5165 20.0813 20.5165 20.2398V25.6829C20.5165 25.8415 20.3675 26 20.2185 26C20.0694 26 19.9204 25.8415 19.9204 25.6829V20.2398Z" fill="white"/>
<path d="M18.9761 16.9106C18.9761 16.752 19.1251 16.5935 19.2741 16.5935C19.4232 16.5935 19.5722 16.752 19.5722 16.9106V25.6829C19.5722 25.8415 19.4232 26 19.2741 26C19.1251 26 18.9761 25.8415 18.9761 25.6829V16.9106Z" fill="white"/>
<path d="M22.1061 11.7317C22.3545 11.2561 21.7583 10.7805 21.4106 11.2032L21.3609 11.2561L20.4668 12.8943C20.2184 13.3699 20.8145 13.8455 21.1622 13.4228L21.2119 13.3699L22.1061 11.7317ZM23.5467 9.14227C23.7951 8.66666 23.199 8.19105 22.8512 8.61382L22.8015 8.66666L21.8577 10.3049C21.6093 10.7805 22.2054 11.2561 22.5532 10.8333L22.6028 10.7805L23.5467 9.14227ZM24.9873 6.44715C25.2357 5.97154 24.6396 5.49593 24.2421 5.9187L24.1925 5.97154L23.2983 7.60975C23.0499 8.08536 23.646 8.56097 23.9938 8.13821L24.0434 8.08536L24.9873 6.44715ZM26.4279 3.80488C26.6763 3.32927 26.0802 2.85366 25.7324 3.27642L25.6828 3.32927L24.7886 4.96748C24.5402 5.44309 25.1363 5.9187 25.5337 5.49593L25.5834 5.44309L26.4279 3.80488ZM27.8685 1.10975C28.1169 0.634145 27.5208 0.158535 27.1234 0.581299L27.0737 0.634145L26.1795 2.27236C25.9311 2.74797 26.5272 3.22358 26.875 2.80081L26.9247 2.74797L27.8685 1.10975ZM19.0262 15.5366C18.7778 16.0122 19.3739 16.4878 19.7216 16.065L19.7713 16.0122L20.6655 14.374C20.9139 13.8984 20.3177 13.4228 19.97 13.8455L19.9203 13.8984L19.0262 15.5366Z" fill="white"/>
<path d="M19.7713 11.4675C20.0196 10.9919 19.4235 10.5163 19.0261 10.939L18.9764 10.9919L18.0823 12.6301C17.8339 13.1057 18.43 13.5813 18.8274 13.1585L18.8771 13.1057L19.7713 11.4675ZM21.2119 8.87804C21.4602 8.40243 20.8641 7.92683 20.5164 8.34959L20.4667 8.40243L19.5725 10.0406C19.3242 10.5163 19.9203 10.9919 20.3177 10.5691L20.3674 10.5163L21.2119 8.87804ZM22.6525 6.18292C22.9008 5.70731 22.3047 5.2317 21.957 5.65447L21.9073 5.70731L21.0132 7.34552C20.7648 7.82113 21.3609 8.29674 21.7086 7.87398L21.7583 7.82113L22.6525 6.18292ZM24.0931 3.54065C24.3414 3.06504 23.7453 2.58943 23.3976 3.01219L23.3479 3.06504L22.4538 4.70325C22.2054 5.17886 22.8015 5.65447 23.1492 5.2317L23.1989 5.17886L24.0931 3.54065ZM25.5833 0.845526C25.8317 0.369916 25.2356 -0.105694 24.8879 0.31707L24.8382 0.369916L23.944 2.00813C23.6957 2.48374 24.2918 2.95935 24.6395 2.53658L24.6892 2.48374L25.5833 0.845526ZM16.741 15.2724C16.4926 15.748 17.0887 16.2236 17.4365 15.8008L17.4862 15.748L18.3803 14.1098C18.6287 13.6341 18.0326 13.1585 17.6849 13.5813L17.6352 13.6341L16.741 15.2724Z" fill="white"/>
<path d="M16.7407 16.9106C16.7407 16.752 16.8898 16.5935 17.0388 16.5935C17.1878 16.5935 17.3368 16.752 17.3368 16.9106V25.6829C17.3368 25.8415 17.1878 26 17.0388 26C16.8898 26 16.7407 25.8415 16.7407 25.6829V16.9106Z" fill="white"/>
</g>
<defs>
<clipPath id="clip0">
<rect width="46" height="26" fill="white"/>
</clipPath>
</defs>
</svg>
