<svg width="15" height="15" viewBox="0 0 15 15" fill="none" xmlns="http://www.w3.org/2000/svg">
<path d="M12.5488 2.14375C11.1659 0.765624 9.32195 0 7.37561 0C3.32927 0 0.0512187 3.26667 0.0512187 7.29896C0.0512187 8.575 0.409756 9.85104 1.02439 10.9229L0 14.7L3.89268 13.6792C4.96829 14.2406 6.14634 14.5469 7.37561 14.5469C11.4219 14.5469 14.7 11.2802 14.7 7.24792C14.6488 5.35937 13.9317 3.52187 12.5488 2.14375ZM10.9098 9.90208C10.7561 10.3104 10.039 10.7187 9.68049 10.7698C9.37317 10.8208 8.96341 10.8208 8.55366 10.7187C8.29756 10.6167 7.93902 10.5146 7.52927 10.3104C5.68537 9.54479 4.50732 7.70729 4.40488 7.55417C4.30244 7.45208 3.63659 6.58437 3.63659 5.66562C3.63659 4.74687 4.09756 4.33854 4.25122 4.13437C4.40488 3.93021 4.60976 3.93021 4.76341 3.93021C4.86585 3.93021 5.01951 3.93021 5.12195 3.93021C5.22439 3.93021 5.37805 3.87917 5.53171 4.23646C5.68536 4.59375 6.0439 5.5125 6.09512 5.56354C6.14634 5.66562 6.14634 5.76771 6.09512 5.86979C6.0439 5.97187 5.99268 6.07396 5.89024 6.17604C5.7878 6.27812 5.68536 6.43125 5.63414 6.48229C5.5317 6.58437 5.42927 6.68646 5.53171 6.83958C5.63415 7.04375 5.99268 7.60521 6.5561 8.11562C7.27317 8.72812 7.83658 8.93229 8.04146 9.03437C8.24634 9.13646 8.34878 9.08542 8.45122 8.98333C8.55366 8.88125 8.9122 8.47292 9.01463 8.26875C9.11707 8.06458 9.27073 8.11562 9.42439 8.16667C9.57805 8.21771 10.5 8.67708 10.6537 8.77917C10.8585 8.88125 10.961 8.93229 11.0122 8.98333C11.0634 9.13646 11.0634 9.49375 10.9098 9.90208Z" fill="black"/>
</svg>
