<svg width="39" height="30" viewBox="0 0 39 30" fill="none" xmlns="http://www.w3.org/2000/svg">
<g clip-path="url(#clip0)">
<path fill-rule="evenodd" clip-rule="evenodd" d="M3.2591 28.2639H8.86192H12.3774H17.9802H21.4957H27.0985H30.614H36.1802H36.2535H36.583V28.9236H36.2535H35.1549H33.9098H32.9211H31.676H30.614H29.4056H28.307H27.0985H26.0366H24.7915H23.8028H22.5577H21.4957H20.2873H19.1887H17.9802H16.9183H15.6732H14.6845H13.4394H12.3774H11.169H10.0704H8.86192H7.79994H6.55487H5.56614H4.32107H3.2591H2.38023V28.2639H3.2591ZM37.8647 21.9791C37.0957 21.9791 36.3633 21.9791 35.5943 21.9791C34.9352 21.9791 33.3971 21.9791 31.6028 21.9791C28.2337 21.9791 23.8028 21.9791 21.2394 21.9791C20.0676 21.9791 19.2985 21.9791 19.2253 21.9444C18.4563 21.8403 18.1999 21.2847 18.1999 20.7291H37.8281L37.8647 21.9791ZM1.97741 5.6597C2.34361 5.6597 2.7098 5.6597 3.03938 5.6597C3.03938 5.72915 3.03938 6.00693 3.03938 6.07637V9.27081C3.03938 9.47915 3.03938 9.65276 3.03938 9.86109L3.00276 10.3819H2.05065H1.72107V5.6597H1.97741ZM17.2112 9.27081L18.0168 9.23609H23.8028C25.414 9.23609 26.769 10.2083 26.7323 11.7014L26.8056 12.7778C26.9521 13.2639 27.538 13.3333 28.0873 13.3333C28.307 13.3333 28.5267 13.3333 28.7098 13.3333C30.2845 13.3333 31.8591 13.3333 33.4337 13.3333C34.0929 13.1944 34.2028 12.9514 34.2028 12.3264C34.2028 12.0833 34.2028 11.8403 34.2028 11.5972C34.2028 11.0069 34.2028 10.3819 34.2028 9.79165C34.2028 8.99304 34.2028 8.19442 34.2028 7.39581C34.2028 6.66665 34.2394 6.11109 34.0929 5.38192C33.9464 4.47915 33.6535 4.02776 31.969 3.92359C31.1267 3.88887 30.0281 3.88887 28.9295 3.92359C27.5746 3.92359 26.2929 3.92359 25.707 3.92359H10.6197C9.55769 3.92359 5.93234 3.7847 5.19994 4.13192C4.79713 4.30554 4.46755 4.68748 4.32107 5.13887C4.02811 5.6597 4.24783 9.58331 4.17459 10.5903C3.55206 13.7847 1.72107 17.0139 1.24502 20.3819C1.17178 20.9028 1.13516 21.4236 1.13516 21.9097V25.7986C1.13516 26.5972 1.0253 27.1875 2.05065 27.1875H2.49009H3.18586H4.35769H5.45628H6.62811H7.72671H8.89854H10.0337H11.2056H12.3042H13.476H14.5746H15.7464H16.845H18.0168H19.1521H20.3239H21.4225H22.5943H23.6929H24.8647H25.9633H27.1352H28.2704H29.4422H30.5408H31.7126H32.8112H33.983H35.0816C35.5211 27.1875 35.9239 27.1875 36.3633 27.1875C37.7915 27.1875 37.7549 27.0833 37.7549 25.6944V23.0208C34.6788 23.0208 31.6028 23.0208 28.5267 23.0208C25.5239 23.0208 22.5577 23.0208 19.5549 23.0208C18.1633 23.0208 17.0281 22.118 16.9915 20.7291C16.4056 20.5208 14.7577 20.1389 14.5746 18.2291C14.6478 17.5694 14.6478 16.875 14.6478 16.0764C14.6478 14.9305 14.6112 13.6805 14.6478 12.6736C14.7577 10.8333 15.0873 9.75693 17.2112 9.27081ZM13.5492 1.5972H14.5746H15.783H16.8816C17.138 1.63192 16.9915 1.56248 17.1014 1.66665V2.81248L12.4507 2.8472H12.3774H12.1211V1.63192L13.5492 1.5972ZM3.2591 4.58331L1.94079 4.61804C1.24502 4.61804 0.622481 5.0347 0.622481 5.72915V9.75693C0.622481 10.5903 0.622481 11.4236 1.83093 11.4583C2.01403 11.4583 2.19713 11.4583 2.38023 11.4583C2.92952 11.4583 2.78304 11.493 2.85628 11.5625L2.78304 11.7708C2.30699 13.8541 1.35487 16.1458 0.69572 18.1944L0.366143 19.2014L0.183044 20.1736L0.0731849 21.3541L-5.45071e-05 22.4653V23.5069V24.6528V25.6944C-0.0366742 26.5625 0.0365651 27.9166 1.2084 28.0903C1.2084 28.2986 1.24502 28.6458 1.24502 28.8194C1.42811 30.1736 2.30699 30 3.95487 30H32.1154C32.9577 30 33.9098 30 34.8619 30C35.3013 30 35.7408 30 36.0704 30C37.1323 30 37.7549 29.8611 37.7183 28.2291C38.1577 28.0903 39.0366 28.0903 38.9267 25.7291V24.6875V23.5764V22.5V21.3889C38.9633 19.5139 38.3774 19.6875 35.9605 19.6875C34.8253 19.6875 33.1042 19.6875 32.445 19.6875C30.4309 19.6875 28.3802 19.6528 26.3661 19.6875C24.3521 19.6875 22.2647 19.7222 20.2506 19.7222C19.6281 19.7222 18.969 19.7222 18.3464 19.7222C17.1014 19.7222 16.0394 19.5139 15.783 18.2639L15.7098 14.7569C15.7098 14.2014 15.7098 13.6458 15.7098 13.0903C15.7464 11.25 16.2225 10.5555 17.614 10.3819L23.876 10.4514C25.414 10.4861 25.5605 11.9097 25.5971 12.8819C25.6704 13.7153 26.2929 14.3403 27.1352 14.4444H29.8816V15.0694V16.0416C29.8816 16.6666 29.8816 17.2569 29.8816 17.8472C29.8816 18.2986 30.138 18.4028 30.4309 18.4375C30.7239 18.4375 31.0168 18.2986 31.0168 17.8819C31.0168 17.5694 31.0168 17.2222 31.0168 16.9444C31.0168 16.1805 30.9802 15.1736 31.0168 14.4444C31.4563 14.4444 32.1521 14.4444 32.738 14.4444C33.3239 14.4444 33.8732 14.4444 34.2394 14.2708C34.3126 14.2361 34.4591 14.1666 34.4957 14.1666C35.2281 13.7153 35.338 13.0903 35.338 12.3264V5.62498C35.3014 3.4722 34.1661 3.09026 31.969 2.98609L31.0535 2.95137C31.0535 2.56942 31.0535 2.39581 31.0535 2.01387C31.0535 1.5972 30.7605 1.38887 30.4675 1.42359C30.2112 1.42359 29.9549 1.5972 29.9183 2.04859V2.95137H27.1352H18.3464C18.1999 2.8472 18.1999 3.02081 18.1999 2.39581V0.520814C18.1267 -0.034742 17.1014 -1.97589e-05 17.1014 0.659702H12.1577C12.1211 -0.0694642 10.9859 -0.0694642 10.9492 0.902758V2.98609C8.16614 3.05554 7.58023 3.05554 5.78586 3.02081C4.72389 2.88192 3.66192 3.61109 3.2591 4.58331Z" fill="#5F6466" stroke="#5F6466" stroke-width="0.5"/>
</g>
<defs>
<clipPath id="clip0">
<rect width="39" height="30" fill="white"/>
</clipPath>
</defs>
</svg>
